<svg width="24" height="24" viewBox="0 0 24 24" fill="none" xmlns="http://www.w3.org/2000/svg"><path d="M9.520 1.027 C 8.214 1.232,7.192 1.900,6.564 2.958 C 6.121 3.705,5.887 4.799,6.060 5.319 C 6.189 5.708,6.593 6.000,7.000 6.000 C 7.539 6.000,8.000 5.528,8.000 4.975 C 8.000 3.921,8.933 3.000,10.000 3.000 C 11.080 3.000,12.000 3.920,12.000 5.000 C 12.000 5.920,11.310 6.768,10.408 6.956 C 10.262 6.986,9.051 7.000,6.525 7.000 C 2.393 7.000,2.613 6.984,2.299 7.299 C 1.907 7.691,1.908 8.310,2.300 8.702 C 2.618 9.020,2.373 9.004,6.744 8.990 C 10.566 8.977,10.624 8.976,10.940 8.891 C 12.437 8.488,13.518 7.399,13.891 5.920 C 14.007 5.459,14.014 4.604,13.905 4.140 C 13.528 2.525,12.284 1.344,10.659 1.061 C 10.339 1.005,9.766 0.988,9.520 1.027 M18.520 5.027 C 17.214 5.232,16.192 5.900,15.564 6.958 C 15.121 7.705,14.887 8.799,15.060 9.319 C 15.189 9.708,15.593 10.000,16.000 10.000 C 16.539 10.000,17.000 9.528,17.000 8.975 C 17.000 7.921,17.933 7.000,19.000 7.000 C 20.080 7.000,21.000 7.920,21.000 9.000 C 21.000 9.920,20.310 10.768,19.408 10.956 C 19.257 10.987,16.701 11.000,10.525 11.000 C 0.793 11.000,1.625 10.973,1.299 11.299 C 0.907 11.691,0.908 12.310,1.300 12.702 C 1.627 13.029,0.771 13.003,10.742 12.990 L 19.620 12.979 19.940 12.892 C 21.441 12.484,22.518 11.399,22.891 9.920 C 23.007 9.459,23.014 8.604,22.905 8.140 C 22.528 6.525,21.284 5.344,19.659 5.061 C 19.339 5.005,18.766 4.988,18.520 5.027 M3.643 15.069 C 3.291 15.193,3.000 15.614,3.000 16.000 C 3.000 16.242,3.119 16.521,3.299 16.701 C 3.620 17.022,3.154 17.000,9.525 17.000 C 13.511 17.000,15.259 17.013,15.408 17.044 C 16.310 17.232,17.000 18.080,17.000 19.000 C 17.000 20.080,16.080 21.000,15.000 21.000 C 13.933 21.000,13.000 20.079,13.000 19.025 C 13.000 18.472,12.539 18.000,12.000 18.000 C 11.593 18.000,11.189 18.292,11.060 18.681 C 11.003 18.851,10.994 18.967,11.014 19.257 C 11.137 21.044,12.380 22.495,14.140 22.905 C 14.604 23.014,15.459 23.007,15.920 22.891 C 17.409 22.516,18.516 21.409,18.891 19.920 C 19.007 19.459,19.014 18.604,18.905 18.140 C 18.528 16.525,17.284 15.344,15.659 15.061 C 15.356 15.008,14.538 15.000,9.565 15.003 C 4.469 15.006,3.800 15.013,3.643 15.069 " stroke="none" fill-rule="evenodd" fill="black"></path></svg>