<svg width="24" height="24" viewBox="0 0 24 24" fill="none" xmlns="http://www.w3.org/2000/svg"><path d="M5.300 2.043 C 3.578 2.277,2.119 3.356,1.444 4.895 C 0.839 6.275,0.860 7.890,1.501 9.220 C 2.133 10.530,3.236 11.445,4.629 11.815 L 4.980 11.908 5.002 15.724 C 5.021 19.058,5.031 19.565,5.087 19.740 C 5.340 20.539,5.753 21.110,6.360 21.499 C 6.836 21.804,7.253 21.945,7.800 21.985 C 9.057 22.077,10.263 21.333,10.759 20.160 C 10.993 19.605,10.977 20.106,10.991 13.160 C 11.000 8.723,10.991 6.662,10.960 6.394 C 10.714 4.224,9.149 2.512,7.033 2.099 C 6.631 2.021,5.686 1.990,5.300 2.043 M17.300 2.043 C 15.013 2.354,13.299 4.104,13.040 6.394 C 13.009 6.662,13.000 8.723,13.009 13.160 C 13.023 20.099,13.006 19.581,13.237 20.155 C 13.565 20.974,14.360 21.662,15.260 21.906 C 15.566 21.989,16.104 22.016,16.433 21.964 C 17.627 21.778,18.531 20.967,18.914 19.740 C 18.968 19.567,18.980 19.030,18.998 15.723 L 19.020 11.906 19.302 11.837 C 21.706 11.246,23.273 8.897,22.958 6.359 C 22.689 4.196,21.135 2.509,19.033 2.099 C 18.631 2.021,17.686 1.990,17.300 2.043 M6.820 4.098 C 7.185 4.193,7.752 4.490,8.011 4.721 C 8.424 5.091,8.745 5.623,8.905 6.202 C 9.005 6.563,9.004 7.438,8.905 7.800 C 8.614 8.855,7.887 9.594,6.852 9.888 C 6.608 9.957,6.430 9.976,6.040 9.978 C 5.765 9.979,5.471 9.965,5.386 9.947 C 5.209 9.910,5.206 9.948,5.431 9.400 C 5.748 8.632,5.895 7.872,5.895 7.000 C 5.895 6.061,5.744 5.323,5.372 4.448 C 5.294 4.265,5.240 4.106,5.252 4.095 C 5.356 3.991,6.418 3.993,6.820 4.098 M18.495 4.039 C 18.625 4.060,18.739 4.086,18.750 4.097 C 18.760 4.107,18.697 4.284,18.609 4.489 C 17.917 6.102,17.923 7.901,18.627 9.552 C 18.705 9.735,18.760 9.893,18.749 9.904 C 18.694 9.959,18.135 10.007,17.800 9.986 C 16.676 9.916,15.786 9.340,15.321 8.380 C 15.080 7.884,15.024 7.624,15.023 7.000 C 15.022 6.557,15.039 6.403,15.113 6.142 C 15.484 4.844,16.582 4.019,17.960 4.004 C 18.125 4.002,18.366 4.018,18.495 4.039 M3.738 5.817 C 3.980 6.654,3.959 7.502,3.672 8.398 C 3.535 8.827,3.539 8.827,3.317 8.392 C 3.099 7.964,3.022 7.602,3.023 7.000 C 3.024 6.318,3.143 5.861,3.448 5.366 L 3.536 5.225 3.588 5.353 C 3.617 5.423,3.684 5.632,3.738 5.817 M20.701 5.660 C 20.922 6.129,20.976 6.394,20.976 7.000 C 20.976 7.606,20.922 7.871,20.701 8.340 C 20.469 8.834,20.468 8.834,20.328 8.398 C 20.151 7.847,20.106 7.560,20.106 7.000 C 20.106 6.440,20.151 6.153,20.328 5.602 C 20.468 5.166,20.469 5.166,20.701 5.660 M15.780 11.504 C 15.978 11.598,16.311 11.723,16.520 11.781 C 16.729 11.839,16.922 11.893,16.950 11.902 C 16.989 11.914,17.000 12.361,17.000 13.959 L 17.000 16.000 16.000 16.000 L 15.000 16.000 15.000 13.523 L 15.000 11.045 15.210 11.188 C 15.325 11.267,15.582 11.409,15.780 11.504 M9.000 13.540 L 9.000 16.000 8.000 16.000 L 6.999 16.000 7.010 13.953 L 7.020 11.906 7.302 11.837 C 7.702 11.738,8.169 11.551,8.540 11.339 C 8.715 11.239,8.876 11.140,8.898 11.118 C 8.919 11.097,8.950 11.080,8.968 11.080 C 8.986 11.080,9.000 12.187,9.000 13.540 M9.000 18.573 C 9.000 19.259,8.948 19.454,8.701 19.701 C 8.310 20.092,7.690 20.092,7.299 19.701 C 7.052 19.454,7.000 19.259,7.000 18.573 L 7.000 18.000 8.000 18.000 L 9.000 18.000 9.000 18.573 M17.000 18.573 C 17.000 19.259,16.948 19.454,16.701 19.701 C 16.310 20.092,15.690 20.092,15.299 19.701 C 15.052 19.454,15.000 19.259,15.000 18.573 L 15.000 18.000 16.000 18.000 L 17.000 18.000 17.000 18.573 " stroke="none" fill-rule="evenodd" fill="black"></path></svg>