<svg width="24" height="24" viewBox="0 0 24 24" fill="none" xmlns="http://www.w3.org/2000/svg"><path d="M11.160 1.025 C 9.301 1.200,7.615 1.759,6.148 2.687 C 4.822 3.527,3.527 4.822,2.687 6.148 C 1.869 7.442,1.330 8.925,1.094 10.540 C 0.996 11.206,0.996 12.741,1.093 13.440 C 1.333 15.160,1.901 16.660,2.863 18.108 C 3.248 18.687,3.403 18.848,3.670 18.943 C 4.430 19.214,5.214 18.447,4.944 17.695 C 4.914 17.610,4.732 17.306,4.540 17.020 C 2.977 14.689,2.583 11.807,3.463 9.160 C 5.030 4.449,10.133 1.900,14.856 3.469 C 18.617 4.717,21.147 8.372,20.985 12.320 C 20.914 14.057,20.414 15.599,19.460 17.020 C 19.268 17.306,19.086 17.610,19.056 17.695 C 18.786 18.447,19.570 19.214,20.330 18.943 C 20.600 18.846,20.756 18.683,21.164 18.068 C 22.117 16.632,22.706 15.031,22.927 13.280 C 23.004 12.667,22.992 11.143,22.905 10.540 C 22.618 8.548,21.878 6.799,20.647 5.200 C 20.259 4.697,19.173 3.633,18.637 3.231 C 17.124 2.097,15.456 1.398,13.600 1.118 C 13.075 1.039,11.609 0.983,11.160 1.025 M11.100 5.062 C 8.724 5.383,6.725 6.830,5.698 8.973 C 4.902 10.633,4.785 12.470,5.363 14.220 C 5.505 14.649,5.951 15.575,6.102 15.755 C 6.160 15.824,6.292 15.931,6.394 15.991 C 6.552 16.084,6.625 16.100,6.880 16.100 C 7.137 16.100,7.207 16.084,7.372 15.987 C 7.615 15.844,7.782 15.614,7.844 15.336 C 7.907 15.057,7.858 14.829,7.659 14.479 C 6.717 12.817,6.796 10.813,7.868 9.185 C 8.109 8.820,8.816 8.114,9.189 7.868 C 10.087 7.273,10.925 7.021,12.000 7.021 C 13.408 7.021,14.531 7.485,15.522 8.477 C 15.967 8.923,16.208 9.253,16.473 9.781 C 17.211 11.249,17.161 13.036,16.340 14.480 C 16.146 14.821,16.087 15.097,16.153 15.350 C 16.356 16.127,17.330 16.382,17.859 15.796 C 18.033 15.603,18.478 14.701,18.640 14.210 C 19.406 11.897,18.924 9.384,17.353 7.498 C 16.744 6.767,16.023 6.200,15.140 5.760 C 13.836 5.109,12.483 4.875,11.100 5.062 M11.620 9.025 C 11.212 9.105,11.087 9.139,10.870 9.227 C 10.345 9.441,9.838 9.853,9.510 10.335 C 9.104 10.932,8.899 11.835,9.060 12.320 C 9.232 12.838,9.802 13.117,10.325 12.939 C 10.727 12.802,10.945 12.491,11.003 11.974 C 11.056 11.505,11.280 11.196,11.670 11.057 C 12.297 10.833,13.000 11.332,13.000 12.000 C 13.000 12.527,13.473 13.000,14.000 13.000 C 14.407 13.000,14.811 12.708,14.940 12.320 C 15.020 12.080,15.004 11.623,14.905 11.260 C 14.584 10.093,13.641 9.230,12.480 9.043 C 12.228 9.002,11.783 8.993,11.620 9.025 M11.657 15.064 C 11.545 15.104,10.498 15.952,8.350 17.742 C 5.615 20.021,5.195 20.385,5.117 20.546 C 4.922 20.948,4.993 21.395,5.298 21.700 C 5.621 22.024,5.095 22.000,12.000 22.000 C 18.905 22.000,18.379 22.024,18.702 21.700 C 19.009 21.393,19.078 20.948,18.880 20.541 C 18.799 20.372,18.422 20.045,15.654 17.739 C 13.213 15.706,12.478 15.113,12.332 15.064 C 12.106 14.987,11.875 14.987,11.657 15.064 M13.620 18.650 L 15.216 19.980 13.608 19.990 C 12.724 19.996,11.278 19.996,10.396 19.990 L 8.791 19.980 10.386 18.651 C 11.263 17.920,11.990 17.321,12.002 17.321 C 12.014 17.320,12.742 17.918,13.620 18.650 " stroke="none" fill-rule="evenodd" fill="black"></path></svg>