<svg width="24" height="24" viewBox="0 0 24 24" fill="none" xmlns="http://www.w3.org/2000/svg"><path d="M3.620 2.025 C 3.212 2.105,3.087 2.139,2.870 2.227 C 1.989 2.585,1.321 3.364,1.076 4.320 C 0.993 4.646,0.992 15.352,1.076 15.677 C 1.359 16.782,2.134 17.574,3.260 17.909 C 3.396 17.950,3.723 17.975,4.286 17.989 C 5.261 18.013,5.422 17.980,5.700 17.702 C 6.092 17.310,6.093 16.691,5.701 16.299 C 5.447 16.045,5.266 16.000,4.500 16.000 C 3.734 16.000,3.553 15.955,3.298 15.700 C 2.977 15.379,2.998 15.788,3.009 9.918 L 3.020 4.700 3.131 4.511 C 3.256 4.298,3.449 4.136,3.670 4.057 C 3.793 4.013,5.268 4.003,11.983 4.002 C 21.146 4.000,20.376 3.974,20.701 4.299 C 21.021 4.619,21.000 4.217,21.000 10.000 C 21.000 15.783,21.021 15.381,20.701 15.701 C 20.447 15.955,20.266 16.000,19.500 16.000 C 18.734 16.000,18.553 16.045,18.299 16.299 C 17.908 16.690,17.908 17.310,18.299 17.701 C 18.556 17.958,18.731 18.000,19.537 18.000 C 20.280 17.999,20.597 17.962,20.974 17.832 C 21.931 17.501,22.668 16.688,22.924 15.680 C 23.007 15.353,23.007 4.647,22.924 4.323 C 22.617 3.126,21.660 2.233,20.480 2.043 C 20.234 2.003,3.820 1.986,3.620 2.025 M11.657 15.064 C 11.545 15.104,10.498 15.952,8.350 17.742 C 5.615 20.021,5.195 20.385,5.117 20.546 C 4.922 20.948,4.993 21.395,5.298 21.700 C 5.621 22.024,5.095 22.000,12.000 22.000 C 18.905 22.000,18.379 22.024,18.702 21.700 C 19.009 21.393,19.078 20.948,18.880 20.541 C 18.799 20.372,18.422 20.045,15.654 17.739 C 13.213 15.706,12.478 15.113,12.332 15.064 C 12.106 14.987,11.875 14.987,11.657 15.064 M13.620 18.650 L 15.216 19.980 13.608 19.990 C 12.724 19.996,11.278 19.996,10.396 19.990 L 8.791 19.980 10.386 18.651 C 11.263 17.920,11.990 17.321,12.002 17.321 C 12.014 17.320,12.742 17.918,13.620 18.650 " stroke="none" fill-rule="evenodd" fill="black"></path></svg>