<svg width="24" height="24" viewBox="0 0 24 24" fill="none" xmlns="http://www.w3.org/2000/svg"><path d="M4.640 1.068 C 4.488 1.121,4.209 1.380,2.829 2.755 C 1.684 3.895,1.172 4.432,1.112 4.556 C 0.696 5.415,1.585 6.304,2.444 5.888 C 2.568 5.828,3.104 5.316,4.245 4.171 C 5.698 2.712,5.876 2.519,5.935 2.343 C 6.064 1.954,5.979 1.577,5.701 1.299 C 5.423 1.021,5.027 0.935,4.640 1.068 M11.643 1.069 C 11.546 1.103,11.392 1.206,11.300 1.298 C 11.050 1.548,11.000 1.739,11.000 2.446 C 11.000 3.126,11.064 3.040,10.500 3.120 C 8.836 3.359,7.211 4.062,5.800 5.154 C 5.361 5.494,4.492 6.364,4.151 6.805 C 3.005 8.284,2.337 9.883,2.072 11.780 C 2.007 12.245,2.007 13.755,2.072 14.220 C 2.299 15.839,2.803 17.200,3.661 18.507 L 3.955 18.954 3.478 20.387 C 3.184 21.270,3.001 21.883,3.000 21.983 C 2.998 22.740,3.792 23.222,4.469 22.874 C 4.784 22.711,4.880 22.542,5.201 21.572 C 5.360 21.093,5.503 20.686,5.518 20.669 C 5.534 20.652,5.662 20.731,5.803 20.845 C 6.886 21.718,8.366 22.428,9.760 22.741 C 10.592 22.928,11.048 22.977,11.980 22.978 C 13.390 22.979,14.472 22.777,15.728 22.277 C 16.546 21.951,17.543 21.373,18.197 20.845 C 18.338 20.731,18.466 20.652,18.482 20.669 C 18.497 20.686,18.640 21.093,18.799 21.572 C 19.120 22.542,19.216 22.711,19.531 22.874 C 20.208 23.222,21.002 22.740,21.000 21.983 C 20.999 21.883,20.816 21.270,20.522 20.387 L 20.045 18.954 20.339 18.507 C 21.181 17.223,21.662 15.951,21.906 14.360 C 21.993 13.798,22.005 12.327,21.928 11.780 C 21.750 10.512,21.399 9.394,20.855 8.363 C 19.591 5.966,17.457 4.206,14.868 3.424 C 14.423 3.289,13.763 3.145,13.380 3.100 C 12.960 3.049,13.000 3.118,13.000 2.446 C 13.000 1.739,12.950 1.548,12.701 1.299 C 12.424 1.021,12.024 0.934,11.643 1.069 M18.643 1.069 C 18.291 1.193,18.000 1.614,18.000 2.000 C 18.000 2.080,18.029 2.234,18.065 2.343 C 18.124 2.519,18.302 2.712,19.755 4.171 C 20.896 5.316,21.432 5.828,21.556 5.888 C 22.415 6.304,23.304 5.415,22.888 4.556 C 22.828 4.432,22.316 3.896,21.171 2.755 C 19.712 1.302,19.519 1.124,19.343 1.065 C 19.101 0.985,18.876 0.986,18.643 1.069 M12.792 5.041 C 14.616 5.236,16.249 5.995,17.554 7.256 C 19.305 8.946,20.197 11.361,19.959 13.766 C 19.779 15.584,19.013 17.241,17.744 18.554 C 17.090 19.232,16.364 19.760,15.500 20.184 C 12.515 21.650,8.926 21.098,6.505 18.800 C 3.962 16.386,3.279 12.629,4.816 9.500 C 5.222 8.673,5.638 8.083,6.276 7.427 C 7.969 5.685,10.418 4.788,12.792 5.041 M15.058 8.619 C 14.908 8.693,14.404 9.175,12.995 10.589 C 11.319 12.271,11.124 12.480,11.065 12.657 C 10.936 13.046,11.021 13.423,11.299 13.701 C 11.577 13.979,11.954 14.064,12.343 13.935 C 12.520 13.876,12.729 13.681,14.411 12.005 C 16.458 9.965,16.480 9.939,16.480 9.511 C 16.480 8.929,16.075 8.521,15.498 8.520 C 15.320 8.520,15.203 8.546,15.058 8.619 " stroke="none" fill-rule="evenodd" fill="black"></path></svg>