<svg width="24" height="24" viewBox="0 0 24 24" fill="none" xmlns="http://www.w3.org/2000/svg"><path d="M1.643 2.069 C 1.407 2.152,1.149 2.416,1.066 2.660 C 1.005 2.839,1.000 3.592,1.000 12.000 C 1.000 22.264,0.973 21.375,1.299 21.701 C 1.690 22.092,2.310 22.092,2.701 21.701 C 3.027 21.375,3.000 22.264,3.000 12.000 C 3.000 1.736,3.027 2.625,2.701 2.299 C 2.424 2.021,2.024 1.934,1.643 2.069 M5.643 5.069 C 5.546 5.103,5.392 5.206,5.300 5.298 C 4.997 5.601,5.000 5.572,5.000 8.000 C 5.000 10.427,4.997 10.399,5.299 10.701 C 5.624 11.026,4.856 11.000,14.000 11.000 C 23.144 11.000,22.376 11.026,22.701 10.701 C 23.003 10.399,23.000 10.427,23.000 8.000 C 23.000 5.573,23.003 5.601,22.701 5.299 C 22.376 4.973,23.147 5.000,13.983 5.003 C 6.697 5.006,5.801 5.013,5.643 5.069 M21.000 8.000 L 21.000 9.000 14.000 9.000 L 7.000 9.000 7.000 8.000 L 7.000 7.000 14.000 7.000 L 21.000 7.000 21.000 8.000 M5.643 13.069 C 5.546 13.103,5.392 13.206,5.300 13.298 C 4.997 13.601,5.000 13.572,5.000 16.000 C 5.000 18.427,4.997 18.399,5.299 18.701 C 5.619 19.021,5.217 19.000,11.000 19.000 C 16.783 19.000,16.381 19.021,16.701 18.701 C 17.003 18.399,17.000 18.427,17.000 16.000 C 17.000 13.573,17.003 13.601,16.701 13.299 C 16.381 12.979,16.786 13.000,10.983 13.003 C 6.414 13.006,5.800 13.013,5.643 13.069 M15.000 16.000 L 15.000 17.000 11.000 17.000 L 7.000 17.000 7.000 16.000 L 7.000 15.000 11.000 15.000 L 15.000 15.000 15.000 16.000 " stroke="none" fill-rule="evenodd" fill="black"></path></svg>