<svg width="24" height="24" viewBox="0 0 24 24" fill="none" xmlns="http://www.w3.org/2000/svg"><path d="M2.643 1.069 C 2.291 1.193,2.000 1.614,2.000 2.000 C 2.000 2.242,2.119 2.521,2.299 2.701 C 2.625 3.027,1.736 3.000,12.000 3.000 C 22.264 3.000,21.375 3.027,21.701 2.701 C 22.092 2.310,22.092 1.690,21.701 1.299 C 21.375 0.972,22.268 1.000,11.983 1.003 C 3.791 1.006,2.801 1.013,2.643 1.069 M5.643 5.069 C 5.546 5.103,5.392 5.206,5.300 5.298 C 4.973 5.624,5.000 4.855,5.000 14.000 C 5.000 23.144,4.974 22.376,5.299 22.701 C 5.601 23.003,5.573 23.000,8.000 23.000 C 10.427 23.000,10.399 23.003,10.701 22.701 C 11.026 22.376,11.000 23.144,11.000 14.000 C 11.000 4.856,11.026 5.624,10.701 5.299 C 10.398 4.996,10.430 5.000,7.983 5.003 C 6.132 5.006,5.795 5.015,5.643 5.069 M13.643 5.069 C 13.546 5.103,13.392 5.206,13.300 5.298 C 12.979 5.619,13.000 5.216,13.000 11.000 C 13.000 16.783,12.979 16.381,13.299 16.701 C 13.601 17.003,13.573 17.000,16.000 17.000 C 18.427 17.000,18.399 17.003,18.701 16.701 C 19.021 16.381,19.000 16.783,19.000 11.000 C 19.000 5.217,19.021 5.619,18.701 5.299 C 18.398 4.996,18.430 5.000,15.983 5.003 C 14.132 5.006,13.795 5.015,13.643 5.069 M9.000 14.000 L 9.000 21.000 8.000 21.000 L 7.000 21.000 7.000 14.000 L 7.000 7.000 8.000 7.000 L 9.000 7.000 9.000 14.000 M17.000 11.000 L 17.000 15.000 16.000 15.000 L 15.000 15.000 15.000 11.000 L 15.000 7.000 16.000 7.000 L 17.000 7.000 17.000 11.000 " stroke="none" fill-rule="evenodd" fill="black"></path></svg>