<svg width="24" height="24" viewBox="0 0 24 24" fill="none" xmlns="http://www.w3.org/2000/svg"><path d="M21.643 2.069 C 21.407 2.152,21.149 2.416,21.066 2.660 C 21.005 2.839,21.000 3.592,21.000 12.000 C 21.000 22.264,20.973 21.375,21.299 21.701 C 21.690 22.092,22.310 22.092,22.701 21.701 C 23.027 21.375,23.000 22.264,23.000 12.000 C 23.000 1.736,23.027 2.625,22.701 2.299 C 22.424 2.021,22.024 1.934,21.643 2.069 M1.643 5.069 C 1.546 5.103,1.392 5.206,1.300 5.298 C 0.997 5.601,1.000 5.572,1.000 8.000 C 1.000 10.427,0.997 10.399,1.299 10.701 C 1.624 11.026,0.856 11.000,10.000 11.000 C 19.144 11.000,18.376 11.026,18.701 10.701 C 19.003 10.399,19.000 10.427,19.000 8.000 C 19.000 5.573,19.003 5.601,18.701 5.299 C 18.376 4.973,19.147 5.000,9.983 5.003 C 2.697 5.006,1.801 5.013,1.643 5.069 M17.000 8.000 L 17.000 9.000 10.000 9.000 L 3.000 9.000 3.000 8.000 L 3.000 7.000 10.000 7.000 L 17.000 7.000 17.000 8.000 M7.643 13.069 C 7.546 13.103,7.392 13.206,7.300 13.298 C 6.997 13.601,7.000 13.572,7.000 16.000 C 7.000 18.427,6.997 18.399,7.299 18.701 C 7.619 19.021,7.217 19.000,13.000 19.000 C 18.783 19.000,18.381 19.021,18.701 18.701 C 19.003 18.399,19.000 18.427,19.000 16.000 C 19.000 13.573,19.003 13.601,18.701 13.299 C 18.381 12.979,18.786 13.000,12.983 13.003 C 8.414 13.006,7.800 13.013,7.643 13.069 M17.000 16.000 L 17.000 17.000 13.000 17.000 L 9.000 17.000 9.000 16.000 L 9.000 15.000 13.000 15.000 L 17.000 15.000 17.000 16.000 " stroke="none" fill-rule="evenodd" fill="black"></path></svg>