<svg width="24" height="24" viewBox="0 0 24 24" fill="none" xmlns="http://www.w3.org/2000/svg"><path d="M11.643 2.069 C 11.407 2.152,11.149 2.416,11.066 2.660 C 11.005 2.839,11.000 3.592,11.000 12.000 C 11.000 22.264,10.973 21.375,11.299 21.701 C 11.690 22.092,12.310 22.092,12.701 21.701 C 13.027 21.375,13.000 22.264,13.000 12.000 C 13.000 1.736,13.027 2.625,12.701 2.299 C 12.424 2.021,12.024 1.934,11.643 2.069 M3.643 5.069 C 3.546 5.103,3.392 5.206,3.300 5.298 C 2.997 5.601,3.000 5.572,3.000 8.000 C 3.000 10.427,2.997 10.399,3.299 10.701 C 3.601 11.003,3.573 11.000,6.000 11.000 C 8.427 11.000,8.399 11.003,8.701 10.701 C 9.092 10.310,9.092 9.690,8.701 9.299 C 8.409 9.006,8.362 9.000,6.573 9.000 L 5.000 9.000 5.000 8.000 L 5.000 7.000 6.573 7.000 C 8.362 7.000,8.409 6.994,8.701 6.701 C 9.092 6.310,9.092 5.690,8.701 5.299 C 8.398 4.996,8.430 5.000,5.983 5.003 C 4.132 5.006,3.795 5.015,3.643 5.069 M15.643 5.069 C 15.291 5.193,15.000 5.614,15.000 6.000 C 15.000 6.242,15.119 6.521,15.299 6.701 C 15.591 6.994,15.638 7.000,17.427 7.000 L 19.000 7.000 19.000 8.000 L 19.000 9.000 17.427 9.000 C 15.638 9.000,15.591 9.006,15.299 9.299 C 14.908 9.690,14.908 10.310,15.299 10.701 C 15.601 11.003,15.573 11.000,18.000 11.000 C 20.427 11.000,20.399 11.003,20.701 10.701 C 21.003 10.399,21.000 10.427,21.000 8.000 C 21.000 5.573,21.003 5.601,20.701 5.299 C 20.398 4.996,20.430 5.000,17.983 5.003 C 16.132 5.006,15.795 5.015,15.643 5.069 M5.643 13.069 C 5.546 13.103,5.392 13.206,5.300 13.298 C 4.997 13.601,5.000 13.572,5.000 16.000 C 5.000 18.427,4.997 18.399,5.299 18.701 C 5.579 18.982,5.684 19.000,7.000 19.000 C 8.316 19.000,8.421 18.982,8.701 18.701 C 9.092 18.310,9.092 17.690,8.701 17.299 C 8.454 17.052,8.259 17.000,7.573 17.000 L 7.000 17.000 7.000 16.000 L 7.000 15.000 7.573 15.000 C 8.259 15.000,8.454 14.948,8.701 14.701 C 9.092 14.310,9.092 13.690,8.701 13.299 C 8.419 13.017,8.318 13.000,6.983 13.003 C 6.038 13.006,5.787 13.018,5.643 13.069 M15.643 13.069 C 15.291 13.193,15.000 13.614,15.000 14.000 C 15.000 14.242,15.119 14.521,15.299 14.701 C 15.546 14.948,15.741 15.000,16.427 15.000 L 17.000 15.000 17.000 16.000 L 17.000 17.000 16.427 17.000 C 15.741 17.000,15.546 17.052,15.299 17.299 C 14.908 17.690,14.908 18.310,15.299 18.701 C 15.579 18.982,15.684 19.000,17.000 19.000 C 18.316 19.000,18.421 18.982,18.701 18.701 C 19.003 18.399,19.000 18.427,19.000 16.000 C 19.000 13.573,19.003 13.601,18.701 13.299 C 18.419 13.017,18.318 13.000,16.983 13.003 C 16.038 13.006,15.787 13.018,15.643 13.069 " stroke="none" fill-rule="evenodd" fill="black"></path></svg>