<svg width="24" height="24" viewBox="0 0 24 24" fill="none" xmlns="http://www.w3.org/2000/svg"><path d="M11.643 1.069 C 11.546 1.103,11.392 1.206,11.300 1.298 C 10.976 1.622,11.000 1.070,11.000 8.216 L 11.000 14.579 8.270 11.854 C 5.788 9.377,5.522 9.124,5.343 9.065 C 4.953 8.936,4.577 9.021,4.299 9.299 C 4.021 9.577,3.937 9.953,4.065 10.343 C 4.124 10.523,4.441 10.852,7.755 14.174 C 11.690 18.119,11.557 17.999,12.000 17.999 C 12.443 17.999,12.310 18.119,16.245 14.174 C 19.559 10.852,19.876 10.523,19.935 10.343 C 20.063 9.953,19.979 9.577,19.701 9.299 C 19.423 9.021,19.047 8.936,18.657 9.065 C 18.478 9.124,18.212 9.377,15.730 11.854 L 13.000 14.579 13.000 8.216 C 13.000 1.071,13.024 1.622,12.701 1.299 C 12.424 1.021,12.024 0.934,11.643 1.069 M2.643 21.069 C 2.291 21.193,2.000 21.614,2.000 22.000 C 2.000 22.242,2.119 22.521,2.299 22.701 C 2.625 23.027,1.736 23.000,12.000 23.000 C 22.264 23.000,21.375 23.027,21.701 22.701 C 22.092 22.310,22.092 21.690,21.701 21.299 C 21.375 20.972,22.268 21.000,11.983 21.003 C 3.791 21.006,2.801 21.013,2.643 21.069 " stroke="none" fill-rule="evenodd" fill="black"></path></svg>