<svg width="24" height="24" viewBox="0 0 24 24" fill="none" xmlns="http://www.w3.org/2000/svg"><path d="M5.643 3.069 C 5.546 3.103,5.392 3.206,5.300 3.298 C 4.997 3.601,5.000 3.572,5.000 6.000 C 5.000 8.427,4.997 8.399,5.299 8.701 C 5.690 9.092,6.310 9.092,6.701 8.701 C 6.994 8.409,7.000 8.362,7.000 6.573 L 7.000 5.000 8.000 5.000 L 9.000 5.000 9.000 6.573 C 9.000 8.362,9.006 8.409,9.299 8.701 C 9.690 9.092,10.310 9.092,10.701 8.701 C 11.003 8.399,11.000 8.427,11.000 6.000 C 11.000 3.573,11.003 3.601,10.701 3.299 C 10.398 2.996,10.430 3.000,7.983 3.003 C 6.132 3.006,5.795 3.015,5.643 3.069 M13.643 5.069 C 13.407 5.152,13.149 5.416,13.066 5.660 C 13.011 5.823,13.000 6.038,13.000 7.000 C 13.000 8.316,13.018 8.421,13.299 8.701 C 13.690 9.092,14.310 9.092,14.701 8.701 C 14.948 8.454,15.000 8.259,15.000 7.573 L 15.000 7.000 16.000 7.000 L 17.000 7.000 17.000 7.573 C 17.000 8.259,17.052 8.454,17.299 8.701 C 17.690 9.092,18.310 9.092,18.701 8.701 C 18.982 8.421,19.000 8.316,19.000 7.000 C 19.000 5.684,18.982 5.579,18.701 5.299 C 18.398 4.996,18.430 5.000,15.983 5.003 C 14.132 5.006,13.795 5.015,13.643 5.069 M2.643 11.069 C 2.291 11.193,2.000 11.614,2.000 12.000 C 2.000 12.242,2.119 12.521,2.299 12.701 C 2.625 13.027,1.736 13.000,12.000 13.000 C 22.264 13.000,21.375 13.027,21.701 12.701 C 22.092 12.310,22.092 11.690,21.701 11.299 C 21.375 10.972,22.268 11.000,11.983 11.003 C 3.791 11.006,2.801 11.013,2.643 11.069 M5.643 15.069 C 5.546 15.103,5.392 15.206,5.300 15.298 C 4.997 15.601,5.000 15.572,5.000 18.000 C 5.000 20.427,4.997 20.399,5.299 20.701 C 5.601 21.003,5.573 21.000,8.000 21.000 C 10.427 21.000,10.399 21.003,10.701 20.701 C 11.003 20.399,11.000 20.427,11.000 18.000 C 11.000 15.573,11.003 15.601,10.701 15.299 C 10.310 14.908,9.690 14.908,9.299 15.299 C 9.006 15.591,9.000 15.638,9.000 17.427 L 9.000 19.000 8.000 19.000 L 7.000 19.000 7.000 17.427 C 7.000 15.638,6.994 15.591,6.701 15.299 C 6.424 15.021,6.024 14.934,5.643 15.069 M13.643 15.069 C 13.407 15.152,13.149 15.416,13.066 15.660 C 13.011 15.823,13.000 16.038,13.000 17.000 C 13.000 18.316,13.018 18.421,13.299 18.701 C 13.601 19.003,13.573 19.000,16.000 19.000 C 18.427 19.000,18.399 19.003,18.701 18.701 C 18.982 18.421,19.000 18.316,19.000 17.000 C 19.000 15.684,18.982 15.579,18.701 15.299 C 18.310 14.908,17.690 14.908,17.299 15.299 C 17.052 15.546,17.000 15.741,17.000 16.427 L 17.000 17.000 16.000 17.000 L 15.000 17.000 15.000 16.427 C 15.000 15.741,14.948 15.546,14.701 15.299 C 14.424 15.021,14.024 14.934,13.643 15.069 " stroke="none" fill-rule="evenodd" fill="black"></path></svg>