<svg width="24" height="24" viewBox="0 0 24 24" fill="none" xmlns="http://www.w3.org/2000/svg"><path d="M11.643 1.069 C 11.407 1.152,11.149 1.416,11.066 1.660 C 11.008 1.830,11.000 2.088,11.000 3.715 L 11.000 5.575 10.270 4.854 C 9.652 4.243,9.510 4.122,9.343 4.066 C 8.955 3.936,8.578 4.020,8.299 4.299 C 8.021 4.577,7.936 4.954,8.065 5.343 C 8.124 5.519,8.304 5.714,9.755 7.174 C 11.530 8.959,11.579 8.999,12.000 8.999 C 12.421 8.999,12.470 8.959,14.245 7.174 C 15.696 5.714,15.876 5.519,15.935 5.343 C 16.064 4.954,15.979 4.577,15.701 4.299 C 15.422 4.020,15.045 3.936,14.657 4.066 C 14.490 4.122,14.348 4.243,13.730 4.854 L 13.000 5.575 13.000 3.715 C 13.000 1.605,12.999 1.597,12.701 1.299 C 12.424 1.021,12.024 0.934,11.643 1.069 M2.643 11.069 C 2.291 11.193,2.000 11.614,2.000 12.000 C 2.000 12.242,2.119 12.521,2.299 12.701 C 2.625 13.027,1.736 13.000,12.000 13.000 C 22.264 13.000,21.375 13.027,21.701 12.701 C 22.092 12.310,22.092 11.690,21.701 11.299 C 21.375 10.972,22.268 11.000,11.983 11.003 C 3.791 11.006,2.801 11.013,2.643 11.069 M11.580 15.096 C 11.423 15.170,11.028 15.545,9.755 16.826 C 8.304 18.286,8.124 18.481,8.065 18.657 C 7.936 19.046,8.021 19.423,8.299 19.701 C 8.578 19.980,8.955 20.064,9.343 19.934 C 9.510 19.878,9.652 19.757,10.270 19.146 L 11.000 18.425 11.000 20.285 C 11.000 22.395,11.001 22.403,11.299 22.701 C 11.479 22.881,11.758 23.000,12.000 23.000 C 12.242 23.000,12.521 22.881,12.701 22.701 C 12.999 22.403,13.000 22.395,13.000 20.285 L 13.000 18.425 13.730 19.146 C 14.348 19.757,14.490 19.878,14.657 19.934 C 15.045 20.064,15.422 19.980,15.701 19.701 C 15.979 19.423,16.064 19.046,15.935 18.657 C 15.876 18.481,15.696 18.286,14.245 16.826 C 12.470 15.041,12.421 15.001,12.000 15.001 C 11.851 15.001,11.715 15.032,11.580 15.096 " stroke="none" fill-rule="evenodd" fill="black"></path></svg>