<svg width="24" height="24" viewBox="0 0 24 24" fill="none" xmlns="http://www.w3.org/2000/svg"><path d="M5.643 1.069 C 5.546 1.103,5.392 1.206,5.300 1.298 C 4.973 1.624,5.000 0.855,5.000 10.000 C 5.000 19.144,4.974 18.376,5.299 18.701 C 5.601 19.003,5.573 19.000,8.000 19.000 C 10.427 19.000,10.399 19.003,10.701 18.701 C 11.026 18.376,11.000 19.144,11.000 10.000 C 11.000 0.856,11.026 1.624,10.701 1.299 C 10.398 0.996,10.430 1.000,7.983 1.003 C 6.132 1.006,5.795 1.015,5.643 1.069 M9.000 10.000 L 9.000 17.000 8.000 17.000 L 7.000 17.000 7.000 10.000 L 7.000 3.000 8.000 3.000 L 9.000 3.000 9.000 10.000 M13.643 7.069 C 13.546 7.103,13.392 7.206,13.300 7.298 C 12.979 7.619,13.000 7.216,13.000 13.000 C 13.000 18.783,12.979 18.381,13.299 18.701 C 13.601 19.003,13.573 19.000,16.000 19.000 C 18.427 19.000,18.399 19.003,18.701 18.701 C 19.021 18.381,19.000 18.783,19.000 13.000 C 19.000 7.217,19.021 7.619,18.701 7.299 C 18.398 6.996,18.430 7.000,15.983 7.003 C 14.132 7.006,13.795 7.015,13.643 7.069 M17.000 13.000 L 17.000 17.000 16.000 17.000 L 15.000 17.000 15.000 13.000 L 15.000 9.000 16.000 9.000 L 17.000 9.000 17.000 13.000 M2.643 21.069 C 2.291 21.193,2.000 21.614,2.000 22.000 C 2.000 22.242,2.119 22.521,2.299 22.701 C 2.625 23.027,1.736 23.000,12.000 23.000 C 22.264 23.000,21.375 23.027,21.701 22.701 C 22.092 22.310,22.092 21.690,21.701 21.299 C 21.375 20.972,22.268 21.000,11.983 21.003 C 3.791 21.006,2.801 21.013,2.643 21.069 " stroke="none" fill-rule="evenodd" fill="black"></path></svg>