<svg width="24" height="24" viewBox="0 0 24 24" fill="none" xmlns="http://www.w3.org/2000/svg"><path d="M4.216 5.136 C 4.117 5.235,4.080 5.307,4.080 5.403 C 4.080 5.501,4.315 5.943,5.015 7.157 C 5.530 8.050,5.990 8.846,6.038 8.927 L 6.124 9.074 5.832 9.243 C 4.469 10.033,3.121 11.257,2.193 12.545 C 1.249 13.857,0.565 15.414,0.224 17.029 C 0.140 17.425,-0.000 18.336,-0.000 18.482 C -0.000 18.506,4.460 18.520,12.003 18.520 L 24.006 18.520 23.980 18.290 C 23.965 18.163,23.926 17.880,23.893 17.660 C 23.469 14.825,21.962 12.167,19.749 10.346 C 19.312 9.987,18.495 9.419,18.130 9.221 C 18.015 9.159,17.920 9.090,17.920 9.069 C 17.920 9.048,18.355 8.281,18.887 7.365 C 19.419 6.449,19.880 5.634,19.912 5.553 C 19.964 5.420,19.963 5.392,19.895 5.253 C 19.838 5.137,19.781 5.086,19.655 5.043 C 19.341 4.934,19.342 4.932,18.188 6.922 C 17.621 7.900,17.135 8.697,17.108 8.692 C 17.082 8.688,16.835 8.592,16.560 8.479 C 14.284 7.545,11.472 7.362,8.993 7.985 C 8.386 8.137,7.539 8.418,7.130 8.602 L 6.880 8.715 6.723 8.447 C 6.636 8.300,6.169 7.496,5.686 6.660 C 5.060 5.577,4.774 5.120,4.693 5.070 C 4.516 4.961,4.371 4.981,4.216 5.136 M6.901 13.195 C 7.256 13.356,7.478 13.700,7.479 14.091 C 7.481 14.490,7.305 14.788,6.958 14.977 C 6.589 15.178,6.140 15.127,5.832 14.848 C 5.590 14.629,5.502 14.431,5.502 14.100 C 5.502 13.890,5.524 13.779,5.589 13.656 C 5.687 13.471,5.914 13.256,6.097 13.177 C 6.278 13.098,6.708 13.107,6.901 13.195 M18.062 13.261 C 18.336 13.431,18.492 13.693,18.513 14.020 C 18.540 14.456,18.368 14.776,17.998 14.978 C 17.451 15.275,16.759 14.991,16.582 14.395 C 16.505 14.136,16.505 14.066,16.579 13.816 C 16.652 13.569,16.863 13.317,17.089 13.205 C 17.226 13.137,17.320 13.122,17.563 13.130 C 17.821 13.138,17.896 13.158,18.062 13.261 " stroke="none" fill-rule="evenodd"></path></svg>