<svg width="24" height="24" viewBox="0 0 24 24" fill="none" xmlns="http://www.w3.org/2000/svg"><path d="M8.674 1.059 C 8.593 1.089,8.479 1.145,8.419 1.184 C 8.310 1.256,1.274 10.270,1.108 10.550 C 1.038 10.669,1.020 10.762,1.020 11.000 C 1.020 11.256,1.036 11.327,1.129 11.480 C 1.188 11.579,2.835 13.711,4.789 16.219 C 8.011 20.356,8.358 20.786,8.531 20.875 C 8.933 21.079,9.390 21.012,9.700 20.702 C 10.002 20.400,10.000 20.420,10.000 18.073 L 10.000 16.000 10.470 16.022 C 11.594 16.074,12.389 16.130,13.080 16.204 C 16.964 16.625,19.342 17.721,20.276 19.520 C 20.556 20.060,20.747 20.700,20.922 21.680 C 21.038 22.329,21.102 22.504,21.298 22.700 C 21.690 23.092,22.309 23.093,22.701 22.701 C 22.972 22.430,23.001 22.291,23.028 21.140 C 23.165 15.170,21.062 10.475,17.163 8.049 C 15.332 6.910,12.934 6.193,10.490 6.056 L 10.000 6.028 10.000 3.941 C 10.000 1.579,10.002 1.600,9.701 1.299 C 9.432 1.030,9.017 0.933,8.674 1.059 " stroke="none" fill-rule="evenodd"></path></svg>