<svg width="24" height="24" viewBox="0 0 24 24" fill="none" xmlns="http://www.w3.org/2000/svg"><path d="M12.643 4.069 C 12.291 4.193,12.000 4.614,12.000 5.000 C 12.000 5.080,12.029 5.234,12.065 5.343 C 12.124 5.522,12.377 5.788,14.854 8.270 L 17.579 11.000 10.716 11.000 C 3.011 11.000,3.623 10.975,3.299 11.299 C 2.908 11.690,2.908 12.310,3.299 12.701 C 3.623 13.025,3.011 13.000,10.716 13.000 L 17.579 13.000 14.854 15.730 C 12.377 18.212,12.124 18.478,12.065 18.657 C 11.936 19.047,12.021 19.423,12.299 19.701 C 12.577 19.979,12.953 20.063,13.343 19.935 C 13.523 19.876,13.852 19.559,17.174 16.245 C 21.119 12.310,20.999 12.443,20.999 12.000 C 20.999 11.557,21.119 11.690,17.174 7.755 C 13.852 4.441,13.523 4.124,13.343 4.065 C 13.101 3.985,12.876 3.987,12.643 4.069 " stroke="none" fill-rule="evenodd" fill="black"></path></svg>