<svg width="24" height="24" viewBox="0 0 24 24" fill="none" xmlns="http://www.w3.org/2000/svg"><path d="M11.120 2.026 C 9.372 2.190,7.852 2.711,6.489 3.616 C 4.090 5.208,2.543 7.666,2.094 10.600 C 2.006 11.175,1.995 12.671,2.074 13.240 C 2.445 15.892,3.685 18.153,5.652 19.765 C 9.258 22.720,14.350 22.739,17.980 19.812 C 19.003 18.988,20.076 17.655,20.591 16.571 C 20.715 16.308,20.727 16.253,20.713 16.005 C 20.683 15.463,20.329 15.114,19.781 15.086 C 19.301 15.062,19.014 15.255,18.753 15.776 C 18.500 16.280,18.035 16.941,17.569 17.459 C 16.601 18.534,15.198 19.376,13.740 19.758 C 11.809 20.264,9.609 19.941,7.869 18.895 C 6.157 17.866,4.866 16.162,4.301 14.184 C 4.091 13.448,4.024 12.931,4.023 12.020 C 4.022 11.117,4.054 10.835,4.242 10.060 C 4.602 8.575,5.340 7.289,6.445 6.219 C 7.151 5.535,7.672 5.172,8.540 4.758 C 10.070 4.028,11.738 3.823,13.389 4.162 C 14.850 4.461,16.088 5.127,17.141 6.179 C 17.639 6.676,18.144 7.295,18.065 7.312 C 18.035 7.319,17.350 7.206,16.544 7.062 C 15.505 6.875,15.033 6.807,14.919 6.825 C 14.668 6.865,14.360 7.072,14.224 7.293 C 14.086 7.517,14.044 7.839,14.118 8.114 C 14.170 8.304,14.424 8.609,14.612 8.706 C 14.785 8.796,19.980 9.728,20.200 9.709 C 20.546 9.679,20.875 9.445,21.014 9.130 C 21.119 8.892,22.011 3.699,21.985 3.473 C 21.895 2.669,20.898 2.312,20.306 2.872 C 20.065 3.101,20.074 3.064,19.590 5.877 C 19.584 5.908,19.502 5.831,19.407 5.705 C 19.127 5.334,18.212 4.413,17.780 4.067 C 16.603 3.124,15.259 2.499,13.767 2.201 C 12.899 2.028,11.844 1.958,11.120 2.026 " stroke="none" fill-rule="evenodd" fill="black"></path></svg>