<svg width="24" height="24" viewBox="0 0 24 24" fill="none" xmlns="http://www.w3.org/2000/svg"><path d="M7.640 4.068 C 7.485 4.121,7.093 4.496,4.826 6.755 C 1.962 9.609,2.001 9.564,2.001 10.000 C 2.001 10.436,1.962 10.391,4.826 13.245 C 7.217 15.628,7.478 15.876,7.657 15.935 C 8.047 16.064,8.423 15.979,8.701 15.701 C 8.979 15.423,9.064 15.046,8.935 14.657 C 8.876 14.480,8.691 14.281,7.146 12.730 L 5.422 11.000 8.424 11.000 C 10.243 11.000,11.598 11.017,11.863 11.043 C 15.395 11.386,18.434 13.811,19.538 17.169 C 19.876 18.196,20.000 19.050,20.000 20.360 C 20.000 21.279,20.035 21.437,20.299 21.701 C 20.691 22.093,21.310 22.092,21.702 21.700 C 21.993 21.409,22.014 21.284,21.988 20.023 C 21.972 19.229,21.944 18.798,21.885 18.408 C 21.636 16.786,21.083 15.328,20.211 14.000 C 19.733 13.272,19.431 12.905,18.742 12.219 C 17.029 10.509,15.044 9.505,12.600 9.112 C 12.084 9.029,11.914 9.025,8.744 9.010 L 5.427 8.995 7.148 7.267 C 8.691 5.719,8.876 5.520,8.935 5.343 C 9.064 4.954,8.979 4.577,8.701 4.299 C 8.424 4.021,8.028 3.935,7.640 4.068 " stroke="none" fill-rule="evenodd" fill="black"></path></svg>