<svg width="24" height="24" viewBox="0 0 24 24" fill="none" xmlns="http://www.w3.org/2000/svg"><path d="M7.643 5.069 C 7.291 5.193,7.000 5.614,7.000 6.000 C 7.000 6.242,7.119 6.521,7.299 6.701 C 7.614 7.016,7.371 7.000,11.717 7.000 L 15.579 7.000 10.354 12.230 C 5.549 17.040,5.124 17.476,5.065 17.657 C 4.937 18.047,5.021 18.423,5.299 18.701 C 5.577 18.979,5.953 19.063,6.343 18.935 C 6.524 18.876,6.960 18.451,11.770 13.646 L 17.000 8.421 17.000 12.283 C 17.000 16.629,16.984 16.386,17.299 16.701 C 17.690 17.092,18.310 17.092,18.701 16.701 C 19.021 16.381,19.000 16.787,18.999 10.963 C 18.998 5.835,18.997 5.778,18.917 5.600 C 18.807 5.358,18.660 5.209,18.420 5.095 L 18.220 5.001 13.020 5.004 C 8.417 5.006,7.800 5.013,7.643 5.069 " stroke="none" fill-rule="evenodd" fill="black"></path></svg>