<svg width="24" height="24" viewBox="0 0 24 24" fill="none" xmlns="http://www.w3.org/2000/svg"><path d="M17.643 1.069 C 17.291 1.193,17.000 1.614,17.000 2.000 C 17.000 2.364,17.088 2.496,17.854 3.270 L 18.575 4.000 14.086 4.000 C 11.266 4.000,9.452 4.015,9.208 4.041 C 8.244 4.144,7.343 4.402,6.500 4.816 C 3.991 6.049,2.339 8.417,2.041 11.208 C 1.950 12.069,2.009 12.411,2.299 12.701 C 2.691 13.093,3.310 13.092,3.702 12.700 C 3.917 12.485,3.987 12.261,4.015 11.699 C 4.059 10.824,4.274 10.031,4.684 9.239 C 5.514 7.633,7.002 6.511,8.836 6.109 C 9.212 6.027,9.316 6.025,13.899 6.011 L 18.578 5.997 17.855 6.729 C 17.243 7.348,17.122 7.490,17.066 7.657 C 16.936 8.045,17.020 8.422,17.299 8.701 C 17.577 8.979,17.954 9.064,18.343 8.935 C 18.519 8.876,18.714 8.696,20.174 7.245 C 21.959 5.470,21.999 5.421,21.999 5.000 C 21.999 4.579,21.959 4.530,20.174 2.755 C 18.714 1.304,18.519 1.124,18.343 1.065 C 18.101 0.985,17.876 0.986,17.643 1.069 M20.643 11.069 C 20.401 11.154,20.146 11.419,20.069 11.664 C 20.035 11.772,19.997 12.062,19.985 12.309 C 19.878 14.426,18.645 16.343,16.761 17.316 C 16.248 17.582,15.782 17.749,15.180 17.886 L 14.780 17.976 10.101 17.990 L 5.422 18.003 6.145 17.271 C 6.757 16.652,6.878 16.510,6.934 16.343 C 7.064 15.955,6.980 15.578,6.701 15.299 C 6.423 15.021,6.046 14.936,5.657 15.065 C 5.481 15.124,5.286 15.304,3.826 16.755 C 2.041 18.530,2.001 18.579,2.001 19.000 C 2.001 19.421,2.041 19.470,3.826 21.245 C 5.286 22.696,5.481 22.876,5.657 22.935 C 6.046 23.064,6.423 22.979,6.701 22.701 C 6.980 22.422,7.064 22.045,6.934 21.657 C 6.878 21.490,6.757 21.348,6.146 20.730 L 5.425 20.000 9.888 20.000 C 14.554 20.000,14.813 19.992,15.647 19.821 C 18.716 19.192,21.192 16.716,21.821 13.647 C 22.000 12.771,22.045 11.987,21.934 11.660 C 21.761 11.152,21.172 10.882,20.643 11.069 " stroke="none" fill-rule="evenodd" fill="black"></path></svg>