<svg width="24" height="24" viewBox="0 0 24 24" fill="none" xmlns="http://www.w3.org/2000/svg"><path d="M11.660 2.064 C 11.563 2.099,9.663 3.551,6.862 5.731 C 2.659 9.001,2.215 9.358,2.126 9.531 C 1.920 9.932,1.988 10.390,2.298 10.700 C 2.600 11.002,2.580 11.000,4.927 11.000 L 7.000 11.000 7.000 16.073 C 7.000 21.774,6.979 21.381,7.299 21.701 C 7.616 22.018,7.337 22.000,12.000 22.000 C 16.663 22.000,16.384 22.018,16.701 21.701 C 17.021 21.381,17.000 21.774,17.000 16.073 L 17.000 11.000 19.073 11.000 C 21.420 11.000,21.400 11.002,21.702 10.700 C 22.012 10.390,22.079 9.933,21.875 9.531 C 21.786 9.358,21.352 9.009,17.140 5.731 C 13.860 3.178,12.450 2.104,12.324 2.061 C 12.106 1.986,11.872 1.988,11.660 2.064 M15.052 6.638 L 18.084 8.997 16.912 9.008 C 15.880 9.019,15.723 9.029,15.596 9.092 C 15.406 9.186,15.214 9.377,15.107 9.578 L 15.020 9.740 15.009 14.870 L 14.999 20.000 11.999 20.000 L 9.000 20.000 9.000 14.927 C 9.000 9.354,9.013 9.660,8.759 9.351 C 8.694 9.272,8.555 9.165,8.450 9.114 C 8.267 9.024,8.214 9.019,7.101 9.000 L 5.942 8.980 8.961 6.631 C 10.622 5.339,11.989 4.281,12.000 4.281 C 12.011 4.280,13.384 5.341,15.052 6.638 " stroke="none" fill-rule="evenodd" fill="black"></path></svg>