<svg width="24" height="24" viewBox="0 0 24 24" fill="none" xmlns="http://www.w3.org/2000/svg"><path d="M14.643 1.067 C 14.546 1.102,14.392 1.206,14.300 1.298 C 13.998 1.600,14.000 1.578,14.000 3.941 L 14.000 6.028 13.510 6.056 C 12.600 6.107,11.429 6.288,10.506 6.521 C 5.835 7.699,2.725 10.918,1.520 15.820 C 1.244 16.942,1.079 18.064,0.997 19.380 C 0.943 20.232,0.970 22.050,1.040 22.289 C 1.104 22.511,1.316 22.763,1.531 22.874 C 1.932 23.080,2.390 23.012,2.701 22.701 C 2.898 22.504,2.962 22.330,3.078 21.680 C 3.253 20.700,3.444 20.060,3.724 19.520 C 4.580 17.871,6.651 16.812,9.980 16.323 C 10.955 16.179,11.949 16.095,13.530 16.021 L 14.000 16.000 14.000 18.073 C 14.000 20.420,13.998 20.400,14.300 20.702 C 14.610 21.012,15.067 21.079,15.469 20.875 C 15.642 20.786,15.991 20.352,19.269 16.140 C 21.822 12.860,22.896 11.450,22.939 11.324 C 22.973 11.226,23.000 11.080,23.000 11.000 C 23.000 10.920,22.973 10.774,22.939 10.676 C 22.896 10.550,21.822 9.140,19.269 5.860 C 15.965 1.614,15.644 1.214,15.465 1.123 C 15.223 1.000,14.889 0.977,14.643 1.067 " stroke="none" fill-rule="evenodd"></path></svg>