<svg width="24" height="24" viewBox="0 0 24 24" fill="none" xmlns="http://www.w3.org/2000/svg"><path d="M15.643 4.069 C 15.291 4.193,15.000 4.614,15.000 5.000 C 15.000 5.080,15.029 5.234,15.065 5.343 C 15.124 5.520,15.309 5.719,16.852 7.267 L 18.573 8.995 15.256 9.010 C 12.086 9.025,11.916 9.029,11.400 9.112 C 8.944 9.507,6.966 10.511,5.239 12.239 C 3.974 13.503,3.169 14.782,2.594 16.440 C 2.192 17.602,2.041 18.527,2.011 20.024 C 1.986 21.286,2.007 21.409,2.298 21.700 C 2.690 22.092,3.309 22.093,3.701 21.701 C 3.965 21.437,4.000 21.279,4.000 20.360 C 4.000 19.049,4.127 18.170,4.463 17.160 C 5.581 13.801,8.610 11.386,12.137 11.043 C 12.402 11.017,13.757 11.000,15.576 11.000 L 18.578 11.000 16.854 12.730 C 15.309 14.281,15.124 14.480,15.065 14.657 C 14.936 15.046,15.021 15.423,15.299 15.701 C 15.577 15.979,15.953 16.064,16.343 15.935 C 16.522 15.876,16.783 15.628,19.174 13.245 C 22.038 10.391,21.999 10.436,21.999 10.000 C 21.999 9.564,22.038 9.609,19.174 6.755 C 16.783 4.372,16.522 4.124,16.343 4.065 C 16.101 3.985,15.876 3.986,15.643 4.069 " stroke="none" fill-rule="evenodd" fill="black"></path></svg>