<svg width="24" height="24" viewBox="0 0 24 24" fill="none" xmlns="http://www.w3.org/2000/svg"><path d="M8.674 1.059 C 8.593 1.089,8.479 1.145,8.419 1.184 C 8.290 1.269,1.216 10.350,1.104 10.574 C 0.996 10.791,0.978 11.072,1.055 11.306 C 1.105 11.455,1.953 12.571,4.730 16.139 C 8.009 20.352,8.358 20.786,8.531 20.875 C 8.933 21.079,9.390 21.012,9.700 20.702 C 10.002 20.400,10.000 20.420,10.000 18.072 L 10.000 15.998 10.490 16.020 C 12.164 16.098,13.094 16.180,14.160 16.344 C 16.614 16.720,18.375 17.412,19.431 18.415 C 20.201 19.147,20.601 19.983,20.876 21.440 C 21.050 22.363,21.095 22.497,21.296 22.698 C 21.690 23.092,22.308 23.094,22.701 22.701 C 22.972 22.430,23.001 22.291,23.028 21.140 C 23.152 15.756,21.439 11.359,18.220 8.796 C 16.215 7.200,13.459 6.223,10.490 6.056 L 10.000 6.028 10.000 3.941 C 10.000 1.579,10.002 1.600,9.701 1.299 C 9.432 1.030,9.017 0.933,8.674 1.059 M8.114 7.450 C 8.227 7.681,8.436 7.860,8.679 7.936 C 8.794 7.972,9.143 8.002,9.640 8.017 C 15.085 8.185,18.625 10.563,20.185 15.100 C 20.357 15.598,20.640 16.621,20.640 16.742 C 20.640 16.777,20.541 16.719,20.390 16.597 C 18.906 15.393,16.580 14.594,13.540 14.242 C 11.661 14.025,9.064 13.929,8.675 14.061 C 8.430 14.145,8.226 14.323,8.114 14.550 C 8.024 14.733,8.019 14.786,8.000 15.899 L 7.980 17.058 5.640 14.049 C 4.353 12.394,3.300 11.022,3.300 11.000 C 3.300 10.978,4.353 9.606,5.640 7.951 L 7.980 4.942 8.000 6.101 C 8.019 7.214,8.024 7.267,8.114 7.450 " stroke="none" fill-rule="evenodd" fill="black"></path></svg>