<svg width="24" height="24" viewBox="0 0 24 24" fill="none" xmlns="http://www.w3.org/2000/svg"><path d="M10.640 4.068 C 10.484 4.121,9.978 4.610,6.826 7.755 C 2.881 11.690,3.001 11.557,3.001 12.000 C 3.001 12.443,2.881 12.310,6.826 16.245 C 10.148 19.559,10.477 19.876,10.657 19.935 C 11.047 20.063,11.423 19.979,11.701 19.701 C 11.979 19.423,12.064 19.047,11.935 18.657 C 11.876 18.478,11.623 18.212,9.146 15.730 L 6.421 13.000 13.284 13.000 C 20.989 13.000,20.377 13.025,20.701 12.701 C 21.092 12.310,21.092 11.690,20.701 11.299 C 20.377 10.975,20.989 11.000,13.284 11.000 L 6.421 11.000 9.146 8.270 C 11.623 5.788,11.876 5.522,11.935 5.343 C 12.064 4.953,11.979 4.577,11.701 4.299 C 11.424 4.022,11.028 3.935,10.640 4.068 " stroke="none" fill-rule="evenodd" fill="black"></path></svg>