<svg width="24" height="24" viewBox="0 0 24 24" fill="none" xmlns="http://www.w3.org/2000/svg"><path d="M5.580 5.095 C 5.340 5.209,5.193 5.358,5.083 5.600 C 5.003 5.778,5.002 5.835,5.001 10.963 C 5.000 16.787,4.979 16.381,5.299 16.701 C 5.690 17.092,6.310 17.092,6.701 16.701 C 7.016 16.386,7.000 16.629,7.000 12.283 L 7.000 8.421 12.230 13.646 C 17.040 18.451,17.476 18.876,17.657 18.935 C 18.047 19.063,18.423 18.979,18.701 18.701 C 18.979 18.423,19.063 18.047,18.935 17.657 C 18.876 17.476,18.451 17.040,13.646 12.230 L 8.421 7.000 12.283 7.000 C 16.629 7.000,16.386 7.016,16.701 6.701 C 17.092 6.310,17.092 5.690,16.701 5.299 C 16.381 4.979,16.787 5.000,10.963 5.000 L 5.780 5.001 5.580 5.095 " stroke="none" fill-rule="evenodd" fill="black"></path></svg>