<svg width="24" height="24" viewBox="0 0 24 24" fill="none" xmlns="http://www.w3.org/2000/svg"><path d="M16.643 1.069 C 16.291 1.193,16.000 1.614,16.000 2.000 C 16.000 2.080,16.030 2.234,16.066 2.343 C 16.123 2.517,16.276 2.685,17.354 3.770 L 18.577 5.000 10.716 5.000 C 1.891 5.000,2.624 4.974,2.299 5.299 C 1.908 5.690,1.908 6.310,2.299 6.701 C 2.624 7.026,1.891 7.000,10.716 7.000 L 18.577 7.000 17.354 8.230 C 16.276 9.315,16.123 9.483,16.066 9.657 C 15.936 10.046,16.020 10.423,16.300 10.702 C 16.602 11.004,17.052 11.077,17.444 10.888 C 17.569 10.827,18.234 10.187,19.745 8.671 C 21.742 6.668,21.875 6.527,21.940 6.326 C 22.024 6.065,22.006 5.800,21.888 5.556 C 21.827 5.431,21.187 4.766,19.671 3.255 C 17.747 1.336,17.521 1.124,17.343 1.065 C 17.101 0.985,16.876 0.986,16.643 1.069 M6.640 13.068 C 6.486 13.121,6.152 13.437,4.329 15.255 C 2.813 16.766,2.173 17.431,2.112 17.556 C 1.994 17.800,1.976 18.065,2.060 18.326 C 2.125 18.527,2.258 18.668,4.255 20.671 C 5.766 22.187,6.431 22.827,6.556 22.888 C 6.948 23.077,7.398 23.004,7.700 22.702 C 7.980 22.423,8.064 22.046,7.934 21.657 C 7.877 21.483,7.724 21.315,6.646 20.230 L 5.423 19.000 13.284 19.000 C 22.109 19.000,21.376 19.026,21.701 18.701 C 22.092 18.310,22.092 17.690,21.701 17.299 C 21.376 16.974,22.109 17.000,13.284 17.000 L 5.423 17.000 6.646 15.770 C 7.724 14.685,7.877 14.517,7.934 14.343 C 8.064 13.954,7.979 13.577,7.701 13.299 C 7.423 13.021,7.027 12.935,6.640 13.068 " stroke="none" fill-rule="evenodd" fill="black"></path></svg>