<svg width="24" height="24" viewBox="0 0 24 24" fill="none" xmlns="http://www.w3.org/2000/svg"><path d="M13.643 2.067 C 13.406 2.153,13.149 2.418,13.066 2.660 C 13.008 2.831,13.000 3.103,13.000 4.927 L 13.000 7.000 7.927 7.000 C 2.226 7.000,2.619 6.979,2.299 7.299 C 1.982 7.616,2.000 7.337,2.000 12.000 C 2.000 16.663,1.982 16.384,2.299 16.701 C 2.619 17.021,2.226 17.000,7.927 17.000 L 13.000 17.000 13.000 19.073 C 13.000 21.420,12.998 21.400,13.300 21.702 C 13.610 22.012,14.067 22.079,14.469 21.875 C 14.642 21.786,14.991 21.352,18.269 17.140 C 20.822 13.860,21.896 12.450,21.939 12.324 C 21.973 12.226,22.000 12.080,22.000 12.000 C 22.000 11.920,21.973 11.774,21.939 11.676 C 21.896 11.550,20.822 10.140,18.269 6.860 C 14.965 2.614,14.644 2.214,14.465 2.123 C 14.223 2.000,13.889 1.977,13.643 2.067 M17.367 8.960 C 18.650 10.610,19.700 11.978,19.700 12.000 C 19.700 12.022,18.647 13.394,17.360 15.049 L 15.020 18.058 15.000 16.899 C 14.981 15.786,14.976 15.733,14.886 15.550 C 14.835 15.445,14.728 15.306,14.649 15.241 C 14.340 14.987,14.646 15.000,9.073 15.000 L 4.000 15.000 4.000 12.001 L 4.000 9.001 9.130 8.991 L 14.260 8.980 14.425 8.892 C 14.636 8.779,14.808 8.607,14.904 8.413 C 14.972 8.275,14.981 8.145,14.992 7.110 C 14.998 6.478,15.010 5.960,15.019 5.960 C 15.027 5.960,16.084 7.310,17.367 8.960 " stroke="none" fill-rule="evenodd" fill="black"></path></svg>