<svg width="24" height="24" viewBox="0 0 24 24" fill="none" xmlns="http://www.w3.org/2000/svg"><path d="M11.580 3.096 C 11.419 3.173,10.672 3.901,7.755 6.826 C 4.441 10.148,4.124 10.477,4.065 10.657 C 3.937 11.047,4.021 11.423,4.299 11.701 C 4.577 11.979,4.953 12.064,5.343 11.935 C 5.522 11.876,5.788 11.623,8.270 9.146 L 11.000 6.421 11.000 13.284 C 11.000 20.989,10.975 20.377,11.299 20.701 C 11.690 21.092,12.310 21.092,12.701 20.701 C 13.025 20.377,13.000 20.989,13.000 13.284 L 13.000 6.421 15.730 9.146 C 18.212 11.623,18.478 11.876,18.657 11.935 C 19.047 12.064,19.423 11.979,19.701 11.701 C 19.979 11.423,20.063 11.047,19.935 10.657 C 19.876 10.477,19.559 10.148,16.245 6.826 C 13.328 3.901,12.581 3.173,12.420 3.096 C 12.151 2.968,11.849 2.968,11.580 3.096 " stroke="none" fill-rule="evenodd" fill="black"></path></svg>