<svg width="24" height="24" viewBox="0 0 24 24" fill="none" xmlns="http://www.w3.org/2000/svg"><path d="M11.200 2.044 C 9.393 2.227,7.567 2.972,6.180 4.092 C 5.807 4.392,4.847 5.368,4.594 5.703 C 4.498 5.830,4.416 5.908,4.410 5.877 C 3.926 3.064,3.935 3.101,3.694 2.872 C 3.102 2.312,2.105 2.669,2.015 3.473 C 1.989 3.698,2.881 8.892,2.985 9.129 C 3.067 9.315,3.283 9.533,3.472 9.623 C 3.777 9.768,3.645 9.786,8.185 8.964 C 8.781 8.856,9.322 8.740,9.387 8.707 C 9.566 8.614,9.829 8.307,9.877 8.134 C 10.013 7.642,9.820 7.153,9.406 6.943 C 9.072 6.774,8.981 6.780,7.380 7.074 C 6.566 7.224,5.893 7.341,5.884 7.334 C 5.857 7.313,6.174 6.916,6.554 6.493 C 7.719 5.196,9.140 4.420,10.940 4.096 C 11.497 3.997,12.823 3.994,13.360 4.092 C 14.242 4.253,14.784 4.429,15.540 4.800 C 16.444 5.243,17.027 5.668,17.743 6.405 C 20.746 9.499,20.746 14.501,17.743 17.595 C 17.030 18.329,16.435 18.763,15.540 19.201 C 15.232 19.352,14.812 19.530,14.607 19.596 C 12.362 20.325,10.041 20.045,8.042 18.804 C 6.914 18.103,5.835 16.938,5.258 15.796 C 5.081 15.445,4.950 15.296,4.708 15.174 C 4.536 15.087,4.466 15.074,4.219 15.086 C 3.671 15.114,3.317 15.463,3.287 16.005 C 3.273 16.253,3.285 16.308,3.409 16.571 C 3.915 17.636,4.986 18.974,5.978 19.779 C 9.042 22.267,13.207 22.696,16.667 20.881 C 17.257 20.572,17.692 20.290,18.180 19.902 C 20.264 18.244,21.545 15.966,21.925 13.240 C 22.004 12.675,21.993 11.217,21.905 10.620 C 21.529 8.063,20.275 5.811,18.350 4.236 C 16.937 3.079,15.381 2.390,13.522 2.097 C 13.049 2.023,11.710 1.992,11.200 2.044 " stroke="none" fill-rule="evenodd" fill="black"></path></svg>