<svg width="24" height="24" viewBox="0 0 24 24" fill="none" xmlns="http://www.w3.org/2000/svg"><path d="M10.780 1.043 C 8.942 1.214,7.169 1.829,5.708 2.800 C 2.844 4.705,1.165 7.815,1.013 11.502 C 0.983 12.230,1.031 12.434,1.298 12.700 C 1.691 13.093,2.309 13.093,2.702 12.700 C 2.932 12.470,2.988 12.265,3.017 11.542 C 3.088 9.781,3.577 8.182,4.457 6.840 C 6.211 4.163,9.302 2.743,12.720 3.041 C 15.338 3.269,17.502 4.372,18.918 6.201 C 19.028 6.343,19.103 6.465,19.084 6.472 C 19.066 6.478,18.617 6.374,18.086 6.242 C 17.556 6.109,17.062 6.000,16.988 6.000 C 16.473 6.000,16.000 6.478,16.000 7.000 C 16.000 7.353,16.229 7.730,16.530 7.874 C 16.765 7.987,20.832 9.000,21.047 9.000 C 21.383 8.999,21.787 8.727,21.911 8.418 C 21.997 8.206,23.000 4.122,23.000 3.986 C 23.000 3.472,22.521 3.000,21.998 3.000 C 21.682 3.000,21.323 3.196,21.161 3.458 C 21.114 3.534,20.988 3.942,20.880 4.362 C 20.773 4.783,20.678 5.135,20.668 5.145 C 20.659 5.154,20.525 5.004,20.370 4.811 C 18.733 2.771,16.304 1.479,13.386 1.097 C 12.832 1.024,11.316 0.993,10.780 1.043 M21.643 11.069 C 21.407 11.152,21.149 11.416,21.066 11.660 C 21.028 11.773,21.000 11.980,21.000 12.157 C 20.999 13.192,20.736 14.610,20.374 15.530 C 19.161 18.613,16.537 20.585,13.169 20.946 C 12.221 21.047,11.011 20.983,10.026 20.780 C 8.281 20.419,6.569 19.489,5.537 18.341 C 5.189 17.954,4.875 17.542,4.916 17.528 C 4.934 17.522,5.383 17.626,5.914 17.758 C 6.444 17.891,6.938 18.000,7.012 18.000 C 7.527 18.000,8.000 17.522,8.000 17.000 C 8.000 16.647,7.771 16.270,7.470 16.126 C 7.235 16.013,3.168 15.000,2.953 15.000 C 2.617 15.001,2.213 15.273,2.089 15.582 C 2.003 15.794,1.000 19.878,1.000 20.014 C 1.000 20.528,1.479 21.000,2.002 21.000 C 2.318 21.000,2.677 20.804,2.839 20.542 C 2.886 20.466,3.012 20.058,3.120 19.638 C 3.227 19.217,3.322 18.865,3.332 18.855 C 3.341 18.846,3.475 18.996,3.630 19.189 C 5.091 21.015,7.332 22.312,9.832 22.780 C 12.398 23.260,14.946 22.940,17.140 21.860 C 18.215 21.331,18.990 20.774,19.863 19.902 C 20.700 19.066,21.223 18.353,21.744 17.340 C 22.513 15.845,22.913 14.287,22.987 12.498 C 23.008 11.983,23.002 11.865,22.941 11.682 C 22.765 11.153,22.183 10.878,21.643 11.069 " stroke="none" fill-rule="evenodd" fill="black"></path></svg>