<svg width="24" height="24" viewBox="0 0 24 24" fill="none" xmlns="http://www.w3.org/2000/svg"><path d="M5.640 2.068 C 5.486 2.121,5.152 2.437,3.329 4.255 C 1.813 5.766,1.173 6.431,1.112 6.556 C 0.923 6.948,0.996 7.398,1.298 7.700 C 1.577 7.980,1.954 8.064,2.343 7.934 C 2.517 7.877,2.685 7.724,3.770 6.646 L 5.000 5.423 5.000 13.284 C 5.000 22.109,4.974 21.376,5.299 21.701 C 5.690 22.092,6.310 22.092,6.701 21.701 C 7.026 21.376,7.000 22.109,7.000 13.284 L 7.000 5.423 8.230 6.646 C 9.315 7.724,9.483 7.877,9.657 7.934 C 10.046 8.064,10.423 7.980,10.702 7.700 C 11.004 7.398,11.077 6.948,10.888 6.556 C 10.827 6.431,10.187 5.766,8.671 4.255 C 6.747 2.336,6.521 2.124,6.343 2.065 C 6.102 1.986,5.878 1.986,5.640 2.068 M17.643 2.069 C 17.546 2.103,17.392 2.206,17.300 2.298 C 16.974 2.624,17.000 1.889,17.000 10.716 L 17.000 18.577 15.770 17.354 C 14.685 16.276,14.517 16.123,14.343 16.066 C 13.954 15.936,13.577 16.020,13.298 16.300 C 12.996 16.602,12.923 17.052,13.112 17.444 C 13.173 17.569,13.813 18.234,15.329 19.745 C 17.332 21.742,17.473 21.875,17.674 21.940 C 17.935 22.024,18.200 22.006,18.444 21.888 C 18.569 21.827,19.234 21.187,20.745 19.671 C 22.664 17.747,22.876 17.521,22.935 17.343 C 23.064 16.953,22.979 16.577,22.701 16.299 C 22.423 16.021,22.046 15.936,21.657 16.066 C 21.483 16.123,21.315 16.276,20.230 17.354 L 19.000 18.577 19.000 10.716 C 19.000 1.891,19.026 2.624,18.701 2.299 C 18.424 2.021,18.024 1.934,17.643 2.069 " stroke="none" fill-rule="evenodd" fill="black"></path></svg>