<svg width="24" height="24" viewBox="0 0 24 24" fill="none" xmlns="http://www.w3.org/2000/svg"><path d="M14.643 1.067 C 14.546 1.102,14.392 1.206,14.300 1.298 C 13.998 1.600,14.000 1.578,14.000 3.941 L 14.000 6.028 13.530 6.055 C 9.834 6.264,6.604 7.672,4.506 9.989 C 2.661 12.027,1.543 14.673,1.123 18.000 C 0.997 18.993,0.947 20.041,0.972 21.140 C 0.999 22.291,1.028 22.430,1.299 22.701 C 1.692 23.094,2.310 23.092,2.704 22.698 C 2.906 22.496,2.945 22.377,3.139 21.374 C 3.412 19.965,3.761 19.226,4.500 18.493 C 5.301 17.698,6.405 17.141,8.042 16.706 C 9.237 16.389,11.092 16.132,12.700 16.061 C 12.986 16.049,13.396 16.028,13.610 16.016 L 14.000 15.994 14.000 18.070 C 14.000 20.421,13.998 20.400,14.300 20.702 C 14.610 21.012,15.067 21.079,15.469 20.875 C 15.642 20.786,15.991 20.352,19.269 16.140 C 21.822 12.860,22.896 11.450,22.939 11.324 C 22.973 11.226,23.000 11.080,23.000 11.000 C 23.000 10.920,22.973 10.774,22.939 10.676 C 22.896 10.550,21.822 9.140,19.269 5.860 C 15.965 1.614,15.644 1.214,15.465 1.123 C 15.223 1.000,14.889 0.977,14.643 1.067 M18.367 7.960 C 19.650 9.610,20.700 10.978,20.700 11.000 C 20.700 11.022,19.647 12.394,18.360 14.049 L 16.020 17.058 16.000 15.899 C 15.981 14.786,15.976 14.733,15.886 14.550 C 15.774 14.323,15.570 14.145,15.325 14.061 C 14.936 13.929,12.339 14.025,10.460 14.242 C 7.418 14.594,5.023 15.419,3.595 16.607 C 3.466 16.715,3.360 16.780,3.360 16.751 C 3.360 16.641,3.567 15.856,3.723 15.371 C 5.124 11.036,8.200 8.636,13.040 8.101 C 13.337 8.068,13.931 8.030,14.360 8.017 C 15.280 7.989,15.455 7.947,15.700 7.702 C 15.980 7.422,16.000 7.311,16.000 6.053 C 16.000 5.452,16.008 4.960,16.017 4.960 C 16.026 4.960,17.084 6.310,18.367 7.960 " stroke="none" fill-rule="evenodd" fill="black"></path></svg>