<svg width="24" height="24" viewBox="0 0 24 24" fill="none" xmlns="http://www.w3.org/2000/svg"><path d="M9.674 2.059 C 9.593 2.089,9.479 2.145,9.419 2.184 C 9.290 2.269,2.216 11.350,2.104 11.574 C 1.996 11.791,1.978 12.072,2.055 12.306 C 2.105 12.455,2.953 13.571,5.730 17.139 C 9.009 21.352,9.358 21.786,9.531 21.875 C 9.933 22.079,10.390 22.012,10.700 21.702 C 11.002 21.400,11.000 21.420,11.000 19.073 L 11.000 17.000 16.073 17.000 C 21.774 17.000,21.381 17.021,21.701 16.701 C 22.018 16.384,22.000 16.663,22.000 12.000 C 22.000 7.337,22.018 7.616,21.701 7.299 C 21.381 6.979,21.774 7.000,16.073 7.000 L 11.000 7.000 11.000 4.927 C 11.000 2.581,11.002 2.600,10.701 2.299 C 10.432 2.030,10.017 1.933,9.674 2.059 M9.096 8.413 C 9.192 8.607,9.364 8.779,9.575 8.892 L 9.740 8.980 14.870 8.991 L 20.000 9.001 20.000 12.001 L 20.000 15.000 14.927 15.000 C 9.354 15.000,9.660 14.987,9.351 15.241 C 9.272 15.306,9.165 15.445,9.114 15.550 C 9.024 15.733,9.019 15.786,9.000 16.899 L 8.980 18.058 6.640 15.049 C 5.353 13.394,4.300 12.022,4.300 12.000 C 4.300 11.978,5.353 10.606,6.640 8.951 L 8.980 5.942 9.000 7.101 C 9.018 8.134,9.028 8.277,9.096 8.413 " stroke="none" fill-rule="evenodd" fill="black"></path></svg>