<svg width="24" height="24" viewBox="0 0 24 24" fill="none" xmlns="http://www.w3.org/2000/svg"><path d="M7.643 2.069 C 7.546 2.103,7.392 2.206,7.300 2.298 C 6.979 2.619,7.000 2.225,7.000 7.927 L 7.000 13.000 4.927 13.000 C 2.580 13.000,2.600 12.998,2.298 13.300 C 1.988 13.610,1.920 14.068,2.126 14.469 C 2.215 14.642,2.659 14.999,6.862 18.269 C 10.095 20.784,11.554 21.896,11.677 21.939 C 11.901 22.016,12.098 22.016,12.324 21.939 C 12.450 21.896,13.860 20.822,17.140 18.269 C 21.352 14.991,21.786 14.642,21.875 14.469 C 22.079 14.067,22.012 13.610,21.702 13.300 C 21.400 12.998,21.420 13.000,19.073 13.000 L 17.000 13.000 17.000 7.927 C 17.000 2.226,17.021 2.619,16.701 2.299 C 16.384 1.982,16.666 2.000,11.983 2.003 C 8.320 2.006,7.799 2.014,7.643 2.069 M15.009 9.130 L 15.020 14.260 15.107 14.422 C 15.214 14.623,15.406 14.814,15.596 14.908 C 15.723 14.971,15.880 14.981,16.912 14.992 L 18.084 15.003 15.052 17.362 C 13.384 18.659,12.007 19.715,11.990 19.710 C 11.974 19.704,10.606 18.647,8.951 17.360 L 5.942 15.020 7.101 15.000 C 8.214 14.981,8.267 14.976,8.450 14.886 C 8.555 14.835,8.694 14.728,8.759 14.649 C 9.013 14.340,9.000 14.646,9.000 9.073 L 9.000 4.000 11.999 4.000 L 14.999 4.000 15.009 9.130 " stroke="none" fill-rule="evenodd" fill="black"></path></svg>