<svg width="24" height="24" viewBox="0 0 24 24" fill="none" xmlns="http://www.w3.org/2000/svg"><path d="M5.643 5.069 C 5.291 5.193,5.000 5.614,5.000 6.000 C 5.000 6.080,5.029 6.234,5.065 6.343 C 5.124 6.524,5.549 6.960,10.354 11.770 L 15.579 17.000 11.717 17.000 C 7.371 17.000,7.614 16.984,7.299 17.299 C 6.908 17.690,6.908 18.310,7.299 18.701 C 7.619 19.021,7.213 19.000,13.037 19.000 L 18.220 18.999 18.420 18.905 C 18.660 18.791,18.807 18.642,18.917 18.400 C 18.997 18.222,18.998 18.165,18.999 13.037 C 19.000 7.213,19.021 7.619,18.701 7.299 C 18.310 6.908,17.690 6.908,17.299 7.299 C 16.984 7.614,17.000 7.371,17.000 11.717 L 17.000 15.579 11.770 10.354 C 6.960 5.549,6.524 5.124,6.343 5.065 C 6.101 4.985,5.876 4.987,5.643 5.069 " stroke="none" fill-rule="evenodd" fill="black"></path></svg>