<svg width="24" height="24" viewBox="0 0 24 24" fill="none" xmlns="http://www.w3.org/2000/svg"><path d="M11.643 3.069 C 11.546 3.103,11.392 3.206,11.300 3.298 C 10.975 3.623,11.000 3.009,11.000 10.716 L 11.000 17.579 8.270 14.854 C 5.788 12.377,5.522 12.124,5.343 12.065 C 4.953 11.936,4.577 12.021,4.299 12.299 C 4.021 12.577,3.937 12.953,4.065 13.343 C 4.124 13.523,4.441 13.852,7.755 17.174 C 11.690 21.119,11.557 20.999,12.000 20.999 C 12.443 20.999,12.310 21.119,16.245 17.174 C 19.559 13.852,19.876 13.523,19.935 13.343 C 20.063 12.953,19.979 12.577,19.701 12.299 C 19.423 12.021,19.047 11.936,18.657 12.065 C 18.478 12.124,18.212 12.377,15.730 14.854 L 13.000 17.579 13.000 10.716 C 13.000 3.011,13.025 3.623,12.701 3.299 C 12.424 3.021,12.024 2.934,11.643 3.069 " stroke="none" fill-rule="evenodd" fill="black"></path></svg>