<svg width="24" height="24" viewBox="0 0 24 24" fill="none" xmlns="http://www.w3.org/2000/svg"><path d="M17.640 5.068 C 17.483 5.121,16.796 5.793,12.230 10.354 L 7.000 15.579 7.000 11.717 C 7.000 7.371,7.016 7.614,6.701 7.299 C 6.310 6.908,5.690 6.908,5.299 7.299 C 4.979 7.619,5.000 7.213,5.000 13.037 L 5.001 18.220 5.095 18.420 C 5.209 18.660,5.358 18.807,5.600 18.917 C 5.778 18.997,5.835 18.998,10.963 18.999 C 16.787 19.000,16.381 19.021,16.701 18.701 C 16.881 18.521,17.000 18.242,17.000 18.000 C 17.000 17.758,16.881 17.479,16.701 17.299 C 16.386 16.984,16.629 17.000,12.283 17.000 L 8.421 17.000 13.646 11.770 C 18.451 6.960,18.876 6.524,18.935 6.343 C 19.063 5.953,18.979 5.577,18.701 5.299 C 18.424 5.022,18.028 4.935,17.640 5.068 " stroke="none" fill-rule="evenodd" fill="black"></path></svg>