<svg width="24" height="24" viewBox="0 0 24 24" fill="none" xmlns="http://www.w3.org/2000/svg"><path d="M18.643 1.069 C 18.291 1.193,18.000 1.614,18.000 2.000 C 18.000 2.364,18.089 2.496,18.851 3.267 L 19.569 3.994 18.055 4.009 C 16.604 4.023,16.528 4.028,16.260 4.116 C 15.730 4.290,15.369 4.509,15.000 4.879 C 14.678 5.202,14.450 5.547,10.687 11.409 C 8.501 14.812,6.658 17.651,6.591 17.717 C 6.313 17.989,6.411 17.978,3.960 18.000 L 1.740 18.020 1.550 18.114 C 0.948 18.410,0.820 19.222,1.300 19.702 C 1.608 20.011,1.563 20.006,4.167 19.991 C 6.443 19.978,6.462 19.977,6.740 19.885 C 7.277 19.707,7.632 19.491,8.000 19.121 C 8.321 18.797,8.561 18.433,12.317 12.586 C 14.504 9.180,16.343 6.343,16.404 6.282 C 16.662 6.025,16.684 6.021,18.199 6.008 L 19.578 5.997 18.855 6.728 C 18.243 7.348,18.122 7.490,18.066 7.657 C 17.936 8.045,18.020 8.422,18.299 8.701 C 18.577 8.979,18.954 9.064,19.343 8.935 C 19.519 8.876,19.714 8.696,21.174 7.245 C 22.959 5.470,22.999 5.421,22.999 5.000 C 22.999 4.579,22.959 4.530,21.174 2.755 C 19.714 1.304,19.519 1.124,19.343 1.065 C 19.101 0.985,18.876 0.986,18.643 1.069 M1.643 4.068 C 1.546 4.103,1.392 4.206,1.300 4.298 C 0.820 4.778,0.948 5.590,1.550 5.886 L 1.740 5.980 3.960 6.000 C 6.037 6.019,6.190 6.025,6.333 6.096 C 6.417 6.138,6.536 6.222,6.597 6.283 C 6.658 6.344,7.171 7.115,7.737 7.995 C 8.303 8.876,8.821 9.650,8.889 9.716 C 9.090 9.913,9.267 9.980,9.580 9.978 C 9.786 9.977,9.902 9.954,10.020 9.892 C 10.510 9.632,10.699 9.044,10.450 8.556 C 10.389 8.437,9.890 7.638,9.340 6.780 C 8.463 5.412,8.298 5.178,8.000 4.879 C 7.632 4.510,7.273 4.292,6.740 4.115 C 6.461 4.022,6.450 4.022,4.140 4.013 C 2.108 4.005,1.798 4.012,1.643 4.068 M13.160 14.035 C 12.547 14.234,12.265 14.886,12.550 15.444 C 12.611 15.563,13.110 16.362,13.660 17.220 C 14.537 18.588,14.702 18.822,15.000 19.121 C 15.369 19.491,15.730 19.710,16.260 19.884 C 16.528 19.972,16.604 19.977,18.055 19.991 L 19.569 20.006 18.851 20.733 C 18.243 21.348,18.122 21.490,18.066 21.657 C 17.936 22.045,18.020 22.422,18.299 22.701 C 18.577 22.979,18.954 23.064,19.343 22.935 C 19.519 22.876,19.714 22.696,21.174 21.245 C 22.959 19.470,22.999 19.421,22.999 19.000 C 22.999 18.579,22.959 18.530,21.174 16.755 C 19.714 15.304,19.519 15.124,19.343 15.065 C 18.954 14.936,18.577 15.021,18.299 15.299 C 18.020 15.578,17.936 15.955,18.066 16.343 C 18.122 16.510,18.243 16.652,18.855 17.272 L 19.578 18.003 18.199 17.992 C 16.683 17.979,16.662 17.976,16.403 17.717 C 16.342 17.656,15.828 16.883,15.260 16.000 C 14.692 15.117,14.178 14.344,14.117 14.283 C 14.056 14.222,13.937 14.139,13.853 14.098 C 13.685 14.018,13.317 13.984,13.160 14.035 " stroke="none" fill-rule="evenodd" fill="black"></path></svg>