<svg width="24" height="24" viewBox="0 0 24 24" fill="none" xmlns="http://www.w3.org/2000/svg"><path d="M13.260 1.056 C 11.370 1.373,9.851 2.645,9.266 4.401 C 9.009 5.171,9.025 4.801,9.010 10.360 C 8.999 14.882,9.004 15.454,9.061 15.740 C 9.188 16.369,9.428 16.822,9.880 17.282 C 10.524 17.938,11.382 18.244,12.320 18.153 C 13.398 18.049,14.372 17.312,14.781 16.291 C 15.001 15.744,15.000 15.758,15.000 11.649 C 15.000 7.379,15.016 7.614,14.701 7.299 C 14.222 6.820,13.410 6.949,13.114 7.550 L 13.020 7.740 13.000 11.600 L 12.980 15.460 12.894 15.620 C 12.703 15.973,12.385 16.168,12.000 16.168 C 11.595 16.168,11.276 15.961,11.095 15.580 L 11.001 15.380 11.000 10.548 C 11.000 6.300,11.008 5.679,11.063 5.408 C 11.306 4.225,12.224 3.308,13.408 3.064 C 15.022 2.731,16.611 3.792,16.938 5.420 C 16.996 5.707,17.001 6.311,16.990 11.220 C 16.977 16.312,16.971 16.721,16.905 17.000 C 16.656 18.049,16.247 18.793,15.521 19.522 C 14.786 20.259,13.995 20.687,12.960 20.907 C 12.489 21.007,11.511 21.007,11.040 20.907 C 10.007 20.687,9.222 20.262,8.478 19.521 C 7.753 18.798,7.343 18.051,7.095 17.000 C 7.031 16.725,7.023 16.316,7.002 12.160 L 6.980 7.620 6.894 7.460 C 6.712 7.124,6.377 6.922,6.000 6.922 C 5.623 6.922,5.288 7.124,5.106 7.460 L 5.020 7.620 5.008 11.940 C 5.000 14.819,5.010 16.400,5.039 16.680 C 5.340 19.627,7.430 22.064,10.269 22.779 C 12.891 23.439,15.633 22.557,17.353 20.500 C 18.271 19.404,18.815 18.111,18.962 16.680 C 18.991 16.394,19.000 14.513,18.991 10.780 C 18.978 5.690,18.971 5.279,18.905 5.000 C 18.656 3.952,18.247 3.207,17.521 2.477 C 16.788 1.742,15.997 1.312,14.980 1.099 C 14.554 1.009,13.670 0.988,13.260 1.056 " stroke="none" fill-rule="evenodd" fill="black"></path></svg>