<svg width="24" height="24" viewBox="0 0 24 24" fill="none" xmlns="http://www.w3.org/2000/svg"><path d="M8.400 3.062 C 7.835 3.185,7.308 3.463,6.914 3.848 C 6.613 4.142,1.949 10.388,1.804 10.692 C 1.420 11.497,1.420 12.503,1.804 13.308 C 1.949 13.612,6.613 19.859,6.914 20.152 C 7.145 20.378,7.544 20.639,7.862 20.773 C 8.431 21.012,8.183 21.004,14.640 20.990 C 21.059 20.977,20.606 20.993,21.160 20.759 C 22.023 20.394,22.687 19.612,22.924 18.680 C 23.007 18.353,23.008 5.647,22.924 5.323 C 22.683 4.381,22.000 3.575,21.155 3.237 C 20.582 3.007,21.059 3.023,14.600 3.014 C 9.611 3.007,8.618 3.015,8.400 3.062 M20.340 5.066 C 20.455 5.105,20.603 5.201,20.701 5.299 C 21.023 5.621,21.000 5.097,21.000 12.000 C 21.000 18.905,21.024 18.379,20.700 18.702 C 20.378 19.024,20.846 19.002,14.437 18.990 L 8.738 18.980 8.539 18.879 C 8.353 18.785,8.183 18.570,6.007 15.679 C 4.724 13.975,3.640 12.508,3.598 12.420 C 3.506 12.227,3.494 11.819,3.576 11.624 C 3.606 11.551,4.684 10.087,5.971 8.371 C 8.319 5.242,8.411 5.130,8.711 5.040 C 8.771 5.022,11.368 5.005,14.483 5.003 C 19.655 5.000,20.163 5.006,20.340 5.066 M10.643 8.069 C 10.291 8.193,10.000 8.614,10.000 9.000 C 10.000 9.080,10.030 9.234,10.066 9.343 C 10.123 9.517,10.276 9.685,11.354 10.770 L 12.577 12.000 11.354 13.230 C 10.276 14.315,10.123 14.483,10.066 14.657 C 9.936 15.046,10.021 15.423,10.299 15.701 C 10.577 15.979,10.954 16.064,11.343 15.934 C 11.517 15.877,11.685 15.724,12.770 14.646 L 14.000 13.423 15.230 14.646 C 16.315 15.724,16.483 15.877,16.657 15.934 C 17.046 16.064,17.423 15.979,17.701 15.701 C 17.979 15.423,18.064 15.046,17.934 14.657 C 17.877 14.483,17.724 14.315,16.646 13.230 L 15.423 12.000 16.646 10.770 C 17.724 9.685,17.877 9.517,17.934 9.343 C 18.064 8.954,17.979 8.577,17.701 8.299 C 17.423 8.021,17.046 7.936,16.657 8.066 C 16.483 8.123,16.315 8.276,15.230 9.354 L 14.000 10.577 12.770 9.354 C 11.685 8.276,11.517 8.123,11.343 8.066 C 11.102 7.985,10.877 7.986,10.643 8.069 " stroke="none" fill-rule="evenodd" fill="black"></path></svg>