<svg width="24" height="24" viewBox="0 0 24 24" fill="none" xmlns="http://www.w3.org/2000/svg"><path d="M9.664 3.063 C 9.578 3.094,9.452 3.163,9.384 3.215 C 9.313 3.268,8.440 4.539,7.364 6.155 L 5.467 9.000 4.262 9.000 C 2.956 9.000,2.794 9.019,2.360 9.228 C 2.079 9.363,1.653 9.791,1.511 10.080 C 1.368 10.371,1.280 10.724,1.280 11.008 C 1.280 11.176,1.543 12.291,2.254 15.129 C 3.318 19.381,3.310 19.356,3.733 19.879 C 4.009 20.221,4.347 20.490,4.740 20.681 C 5.406 21.005,4.794 20.980,12.000 20.980 C 19.202 20.980,18.605 21.004,19.260 20.682 C 19.655 20.488,19.992 20.219,20.267 19.879 C 20.690 19.356,20.682 19.381,21.746 15.129 C 22.457 12.291,22.720 11.176,22.720 11.008 C 22.720 10.086,22.027 9.232,21.128 9.044 C 21.001 9.018,20.440 9.000,19.725 9.000 L 18.533 9.000 16.636 6.155 C 15.570 4.554,14.686 3.268,14.617 3.215 C 14.550 3.164,14.417 3.094,14.322 3.061 C 13.557 2.791,12.788 3.549,13.056 4.310 C 13.087 4.398,13.789 5.484,14.616 6.725 L 16.120 8.980 14.060 8.990 C 12.927 8.996,11.073 8.996,9.940 8.990 L 7.880 8.980 9.384 6.725 C 10.211 5.484,10.913 4.398,10.944 4.310 C 11.213 3.546,10.430 2.782,9.664 3.063 M20.704 11.070 C 20.693 11.108,20.275 12.776,19.775 14.775 C 18.946 18.094,18.857 18.425,18.742 18.575 C 18.594 18.768,18.405 18.904,18.205 18.959 C 18.006 19.015,5.994 19.015,5.795 18.959 C 5.595 18.904,5.406 18.768,5.258 18.575 C 5.143 18.425,5.054 18.094,4.225 14.775 C 3.725 12.776,3.307 11.108,3.296 11.070 C 3.276 11.003,3.709 11.000,12.000 11.000 C 20.291 11.000,20.724 11.003,20.704 11.070 M8.643 13.069 C 8.407 13.152,8.149 13.416,8.066 13.660 C 7.968 13.948,7.968 16.052,8.066 16.340 C 8.192 16.709,8.604 17.000,9.000 17.000 C 9.396 17.000,9.808 16.709,9.934 16.340 C 10.032 16.052,10.032 13.948,9.934 13.660 C 9.761 13.152,9.172 12.882,8.643 13.069 M14.643 13.069 C 14.407 13.152,14.149 13.416,14.066 13.660 C 13.968 13.948,13.968 16.052,14.066 16.340 C 14.192 16.709,14.604 17.000,15.000 17.000 C 15.396 17.000,15.808 16.709,15.934 16.340 C 16.032 16.052,16.032 13.948,15.934 13.660 C 15.761 13.152,15.172 12.882,14.643 13.069 " stroke="none" fill-rule="evenodd" fill="black"></path></svg>