<svg width="24" height="24" viewBox="0 0 24 24" fill="none" xmlns="http://www.w3.org/2000/svg"><path d="M3.620 5.025 C 3.212 5.105,3.087 5.139,2.870 5.227 C 1.989 5.585,1.321 6.364,1.076 7.320 C 0.993 7.645,0.992 16.353,1.076 16.677 C 1.357 17.776,2.117 18.553,3.260 18.915 C 3.439 18.971,4.243 18.979,10.820 18.990 C 15.818 18.998,18.268 18.989,18.453 18.960 C 19.624 18.780,20.563 17.932,20.910 16.740 C 20.948 16.611,20.976 16.268,20.989 15.770 L 21.009 15.000 21.303 15.000 C 21.865 15.000,22.208 14.879,22.533 14.566 C 22.756 14.351,22.891 14.109,22.955 13.808 C 23.016 13.519,23.016 10.481,22.955 10.192 C 22.891 9.891,22.756 9.649,22.533 9.434 C 22.208 9.121,21.865 9.000,21.303 9.000 L 21.009 9.000 20.989 8.230 C 20.975 7.723,20.948 7.392,20.909 7.260 C 20.555 6.064,19.641 5.230,18.480 5.043 C 18.234 5.003,3.819 4.986,3.620 5.025 M18.340 7.066 C 18.455 7.105,18.603 7.201,18.701 7.299 C 19.018 7.616,19.000 7.337,19.000 12.000 C 19.000 16.663,19.018 16.384,18.701 16.701 C 18.377 17.025,19.023 17.000,11.000 17.000 C 2.975 17.000,3.623 17.025,3.298 16.700 C 2.980 16.382,2.997 16.669,3.009 11.918 L 3.020 7.700 3.131 7.511 C 3.256 7.298,3.449 7.136,3.670 7.057 C 3.793 7.013,5.104 7.003,10.983 7.002 C 17.548 7.000,18.162 7.006,18.340 7.066 M11.160 8.027 C 10.803 8.152,10.779 8.177,9.467 9.815 C 8.760 10.698,8.147 11.489,8.104 11.574 C 7.922 11.941,8.001 12.403,8.298 12.700 C 8.575 12.977,8.695 13.000,9.888 13.000 L 10.921 13.000 10.321 13.749 C 9.935 14.231,9.700 14.561,9.661 14.676 C 9.371 15.525,10.242 16.276,11.058 15.881 C 11.225 15.800,11.402 15.596,12.533 14.185 C 13.240 13.302,13.853 12.511,13.896 12.426 C 14.078 12.059,13.999 11.597,13.702 11.300 C 13.425 11.023,13.305 11.000,12.112 11.000 L 11.079 11.000 11.679 10.251 C 12.290 9.488,12.400 9.297,12.400 9.000 C 12.400 8.604,12.109 8.192,11.740 8.066 C 11.552 8.002,11.284 7.984,11.160 8.027 " stroke="none" fill-rule="evenodd" fill="black"></path></svg>