<svg width="24" height="24" viewBox="0 0 24 24" fill="none" xmlns="http://www.w3.org/2000/svg"><path d="M3.620 5.025 C 3.212 5.105,3.087 5.139,2.870 5.227 C 1.989 5.585,1.321 6.364,1.076 7.320 C 0.993 7.645,0.992 16.353,1.076 16.677 C 1.357 17.776,2.117 18.553,3.260 18.915 C 3.439 18.971,4.243 18.979,10.820 18.990 C 15.818 18.998,18.268 18.989,18.453 18.960 C 19.624 18.780,20.563 17.932,20.910 16.740 C 20.948 16.611,20.976 16.268,20.989 15.770 L 21.009 15.000 21.303 15.000 C 21.865 15.000,22.208 14.879,22.533 14.566 C 22.756 14.351,22.891 14.109,22.955 13.808 C 23.016 13.519,23.016 10.481,22.955 10.192 C 22.891 9.891,22.756 9.649,22.533 9.434 C 22.208 9.121,21.865 9.000,21.303 9.000 L 21.009 9.000 20.989 8.230 C 20.975 7.723,20.948 7.392,20.909 7.260 C 20.555 6.064,19.641 5.230,18.480 5.043 C 18.234 5.003,3.819 4.986,3.620 5.025 M18.340 7.066 C 18.455 7.105,18.603 7.201,18.701 7.299 C 19.018 7.616,19.000 7.337,19.000 12.000 C 19.000 16.663,19.018 16.384,18.701 16.701 C 18.377 17.025,19.023 17.000,11.000 17.000 C 2.975 17.000,3.623 17.025,3.298 16.700 C 2.980 16.382,2.997 16.669,3.009 11.918 L 3.020 7.700 3.131 7.511 C 3.256 7.298,3.449 7.136,3.670 7.057 C 3.793 7.013,5.104 7.003,10.983 7.002 C 17.548 7.000,18.162 7.006,18.340 7.066 " stroke="none" fill-rule="evenodd" fill="black"></path></svg>