<svg width="24" height="24" viewBox="0 0 24 24" fill="none" xmlns="http://www.w3.org/2000/svg"><path d="M11.620 1.025 C 11.212 1.105,11.087 1.139,10.870 1.227 C 10.164 1.514,9.528 2.137,9.250 2.815 C 9.087 3.213,9.038 3.434,9.013 3.906 L 8.989 4.352 8.704 4.462 C 6.332 5.381,4.653 7.305,4.112 9.725 C 4.033 10.077,4.026 10.265,3.999 12.780 C 3.964 16.023,3.986 15.866,3.453 16.715 C 3.137 17.219,3.039 17.477,3.011 17.880 C 2.971 18.453,3.176 18.981,3.604 19.411 C 3.894 19.703,4.204 19.873,4.592 19.955 C 4.729 19.984,5.390 20.000,6.463 20.000 C 8.009 20.000,8.124 20.005,8.144 20.070 C 8.599 21.543,9.678 22.564,11.140 22.905 C 11.604 23.014,12.459 23.007,12.920 22.891 C 14.351 22.531,15.402 21.521,15.856 20.070 C 15.876 20.005,15.992 20.000,17.549 19.999 C 19.349 19.999,19.519 19.983,19.913 19.784 C 20.149 19.664,20.484 19.367,20.643 19.135 C 20.709 19.039,20.811 18.839,20.869 18.690 C 20.959 18.460,20.974 18.359,20.974 18.000 C 20.975 17.481,20.915 17.302,20.547 16.715 C 20.014 15.866,20.035 16.020,20.001 12.800 C 19.969 9.858,19.973 9.904,19.679 8.993 C 19.514 8.481,19.056 7.577,18.730 7.123 C 18.133 6.288,17.222 5.472,16.328 4.971 C 15.912 4.737,15.327 4.471,15.116 4.420 C 15.013 4.394,15.011 4.389,14.987 3.927 C 14.954 3.274,14.825 2.857,14.505 2.365 C 14.052 1.669,13.294 1.174,12.480 1.043 C 12.228 1.002,11.783 0.993,11.620 1.025 M12.340 3.066 C 12.593 3.153,12.847 3.407,12.934 3.660 C 13.059 4.027,13.134 4.000,11.995 4.000 L 10.990 4.000 11.017 3.830 C 11.114 3.223,11.740 2.862,12.340 3.066 M13.321 6.042 C 15.491 6.308,17.299 7.847,17.869 9.915 L 17.975 10.300 18.002 12.920 C 18.024 15.070,18.040 15.605,18.093 15.902 C 18.219 16.605,18.410 17.098,18.777 17.660 L 18.998 18.000 12.000 18.000 L 5.002 18.000 5.223 17.660 C 5.590 17.098,5.782 16.604,5.907 15.902 C 5.959 15.606,5.976 15.057,5.999 12.900 C 6.030 10.047,6.022 10.150,6.262 9.480 C 6.799 7.976,8.098 6.748,9.680 6.249 C 10.007 6.146,10.261 6.091,10.720 6.025 C 10.959 5.991,13.013 6.004,13.321 6.042 M13.652 20.124 C 13.613 20.192,13.476 20.344,13.350 20.462 C 12.584 21.174,11.416 21.174,10.650 20.462 C 10.524 20.344,10.387 20.192,10.348 20.124 L 10.275 20.000 12.000 20.000 L 13.725 20.000 13.652 20.124 " stroke="none" fill-rule="evenodd" fill="black"></path></svg>