<svg width="24" height="24" viewBox="0 0 24 24" fill="none" xmlns="http://www.w3.org/2000/svg"><path d="M5.643 4.069 C 5.291 4.193,5.000 4.614,5.000 5.000 C 5.000 5.242,5.119 5.521,5.299 5.701 C 5.593 5.995,5.629 6.000,7.500 6.000 C 9.371 6.000,9.407 5.995,9.701 5.701 C 10.092 5.310,10.092 4.690,9.701 4.299 C 9.406 4.004,9.373 4.000,7.483 4.003 C 6.085 4.006,5.792 4.016,5.643 4.069 M14.643 4.069 C 14.290 4.193,14.000 4.614,14.000 5.000 C 14.000 5.081,14.124 5.559,14.275 6.063 L 14.550 6.980 11.145 7.000 L 7.740 7.020 7.550 7.114 C 7.167 7.302,7.140 7.361,6.661 9.044 L 6.392 9.989 5.866 10.011 C 4.501 10.066,3.422 10.533,2.478 11.478 C 1.737 12.219,1.314 13.002,1.093 14.040 C 0.993 14.511,0.993 15.489,1.093 15.960 C 1.313 16.995,1.741 17.786,2.478 18.521 C 3.222 19.262,4.007 19.687,5.040 19.907 C 5.511 20.007,6.489 20.007,6.960 19.907 C 7.929 19.701,8.732 19.284,9.424 18.630 C 9.877 18.201,10.198 17.761,10.483 17.180 C 11.277 15.560,11.147 13.732,10.128 12.180 C 9.875 11.795,9.172 11.101,8.780 10.850 C 8.604 10.737,8.427 10.621,8.387 10.592 C 8.317 10.542,8.324 10.504,8.531 9.780 L 8.749 9.020 11.953 9.010 L 15.156 9.000 15.237 9.270 C 15.282 9.418,15.389 9.774,15.476 10.060 C 15.613 10.512,15.626 10.585,15.573 10.620 C 15.540 10.642,15.375 10.749,15.206 10.857 C 14.826 11.103,14.119 11.804,13.868 12.185 C 13.273 13.088,13.021 13.927,13.021 15.000 C 13.021 15.446,13.041 15.715,13.093 15.960 C 13.313 16.995,13.741 17.786,14.478 18.521 C 15.222 19.262,16.007 19.687,17.040 19.907 C 17.511 20.007,18.489 20.007,18.960 19.907 C 19.929 19.701,20.732 19.284,21.424 18.630 C 21.877 18.201,22.198 17.761,22.483 17.180 C 23.277 15.560,23.147 13.732,22.128 12.180 C 21.880 11.803,21.173 11.103,20.780 10.845 C 19.949 10.301,19.141 10.049,18.100 10.010 L 17.540 9.990 16.966 8.074 C 16.650 7.021,16.383 6.123,16.371 6.079 C 16.351 6.001,16.375 6.000,17.985 6.000 C 19.536 6.000,19.627 6.004,19.748 6.078 C 19.893 6.167,20.000 6.346,20.000 6.500 C 20.000 6.654,19.893 6.833,19.748 6.922 C 19.645 6.985,19.546 7.000,19.237 7.000 C 18.756 7.000,18.524 7.074,18.299 7.299 C 17.908 7.690,17.908 8.310,18.299 8.701 C 18.533 8.935,18.752 9.000,19.297 8.999 C 20.151 8.998,20.743 8.776,21.253 8.266 C 22.237 7.282,22.241 5.717,21.262 4.738 C 20.928 4.404,20.471 4.154,20.020 4.060 C 19.593 3.971,14.900 3.978,14.643 4.069 M5.800 12.030 C 5.800 12.047,5.620 12.690,5.400 13.460 C 5.180 14.230,5.000 14.924,5.000 15.003 C 5.000 15.242,5.120 15.522,5.299 15.701 C 5.692 16.094,6.310 16.092,6.704 15.698 C 6.900 15.502,6.899 15.504,7.403 13.732 C 7.685 12.738,7.744 12.570,7.797 12.599 C 7.921 12.666,8.333 13.105,8.493 13.339 C 9.161 14.323,9.161 15.679,8.493 16.661 C 7.419 18.238,5.224 18.454,3.885 17.115 C 2.383 15.613,2.876 13.073,4.831 12.241 C 5.193 12.087,5.800 11.955,5.800 12.030 M18.592 12.063 C 19.774 12.306,20.694 13.226,20.937 14.408 C 21.364 16.492,19.490 18.365,17.408 17.936 C 15.316 17.506,14.322 15.084,15.516 13.326 C 15.681 13.083,16.139 12.600,16.204 12.600 C 16.221 12.600,16.280 12.748,16.335 12.930 C 16.389 13.112,16.581 13.746,16.759 14.339 C 16.938 14.933,17.121 15.478,17.166 15.550 C 17.323 15.804,17.686 16.000,17.998 16.000 C 18.528 16.000,19.000 15.528,19.000 15.000 C 19.000 14.919,18.819 14.252,18.599 13.517 C 18.378 12.781,18.187 12.139,18.174 12.090 C 18.146 11.980,18.176 11.978,18.592 12.063 " stroke="none" fill-rule="evenodd" fill="black"></path></svg>