<svg width="24" height="24" viewBox="0 0 24 24" fill="none" xmlns="http://www.w3.org/2000/svg"><path d="M11.160 0.027 C 10.504 0.091,10.148 0.139,9.704 0.225 C 7.384 0.674,5.216 1.829,3.522 3.518 C 1.669 5.367,0.513 7.690,0.116 10.360 C 0.040 10.872,0.024 11.151,0.022 11.960 C 0.020 13.028,0.058 13.448,0.240 14.362 C 1.002 18.181,3.633 21.448,7.185 22.986 C 9.346 23.922,11.671 24.213,13.960 23.835 C 17.942 23.178,21.389 20.497,22.987 16.815 C 24.972 12.239,23.971 6.998,20.441 3.480 C 18.449 1.495,15.833 0.293,12.960 0.041 C 12.532 0.004,11.481 -0.005,11.160 0.027 M13.360 5.520 L 13.380 6.620 13.680 6.649 C 14.464 6.724,15.290 6.964,15.709 7.238 C 16.392 7.683,16.718 8.327,16.719 9.234 C 16.721 10.020,16.431 10.604,15.843 11.004 C 15.732 11.079,15.642 11.150,15.641 11.162 C 15.640 11.175,15.735 11.209,15.850 11.238 C 16.331 11.359,16.845 11.673,17.113 12.010 C 17.453 12.438,17.574 12.851,17.577 13.600 C 17.580 14.247,17.505 14.624,17.277 15.114 C 17.151 15.385,17.062 15.507,16.811 15.754 C 16.640 15.922,16.399 16.119,16.275 16.192 C 15.784 16.479,14.937 16.711,14.021 16.808 L 13.548 16.859 13.576 17.989 L 13.605 19.120 12.927 19.120 L 12.249 19.120 12.220 18.020 L 12.190 16.920 11.649 16.920 L 11.108 16.920 11.136 18.040 L 11.164 19.160 10.487 19.160 L 9.809 19.160 9.780 18.034 L 9.750 16.907 8.395 16.935 C 7.112 16.961,7.040 16.958,7.041 16.891 C 7.042 16.852,7.092 16.487,7.153 16.080 L 7.264 15.340 7.844 15.320 C 8.494 15.298,8.602 15.260,8.702 15.021 C 8.787 14.817,8.674 8.741,8.582 8.563 C 8.407 8.225,8.148 8.139,7.398 8.170 L 6.888 8.190 6.859 7.499 C 6.844 7.119,6.843 6.788,6.858 6.764 C 6.876 6.734,7.218 6.720,7.936 6.720 C 8.515 6.720,9.121 6.709,9.284 6.695 L 9.580 6.670 9.568 5.555 L 9.556 4.440 10.214 4.440 C 10.777 4.440,10.875 4.449,10.896 4.503 C 10.909 4.538,10.920 5.024,10.920 5.583 L 10.920 6.600 11.460 6.600 L 12.000 6.600 12.000 5.499 L 12.000 4.398 12.670 4.409 L 13.340 4.420 13.360 5.520 M11.013 9.222 C 11.028 9.789,11.040 10.403,11.040 10.586 L 11.040 10.920 11.482 10.920 C 12.937 10.920,13.809 10.613,14.095 10.000 C 14.210 9.754,14.209 9.293,14.093 9.040 C 13.932 8.687,13.595 8.445,13.060 8.296 C 12.880 8.246,12.589 8.224,11.903 8.210 L 10.987 8.191 11.013 9.222 M11.550 12.270 L 11.080 12.283 11.080 12.935 C 11.080 13.294,11.092 13.971,11.107 14.440 L 11.133 15.292 11.877 15.266 C 13.106 15.224,13.851 15.067,14.325 14.750 C 14.719 14.487,14.880 14.183,14.880 13.704 C 14.879 13.047,14.443 12.605,13.590 12.399 C 13.315 12.332,12.196 12.223,12.060 12.249 C 12.038 12.254,11.808 12.263,11.550 12.270 " stroke="none" fill-rule="evenodd"></path></svg>