<svg width="24" height="24" viewBox="0 0 24 24" fill="none" xmlns="http://www.w3.org/2000/svg"><path d="M11.160 1.025 C 9.301 1.200,7.615 1.759,6.148 2.687 C 4.822 3.527,3.527 4.822,2.687 6.148 C 1.869 7.442,1.330 8.925,1.093 10.540 C 1.041 10.896,1.023 11.273,1.023 12.000 C 1.023 12.727,1.041 13.104,1.093 13.460 C 1.459 15.949,2.477 17.997,4.219 19.742 C 4.905 20.431,5.272 20.733,6.000 21.211 C 7.357 22.102,8.852 22.660,10.540 22.906 C 11.211 23.004,12.789 23.004,13.460 22.906 C 15.405 22.623,17.091 21.926,18.637 20.770 C 19.170 20.370,20.252 19.310,20.646 18.800 C 21.874 17.211,22.614 15.461,22.906 13.460 C 22.958 13.105,22.976 12.724,22.976 12.000 C 22.976 11.276,22.958 10.895,22.906 10.540 C 22.614 8.540,21.878 6.798,20.647 5.200 C 20.259 4.697,19.173 3.633,18.637 3.231 C 17.124 2.097,15.456 1.398,13.600 1.118 C 13.075 1.039,11.609 0.983,11.160 1.025 M12.863 3.043 C 13.919 3.145,15.019 3.459,15.963 3.926 C 16.489 4.186,17.384 4.747,17.529 4.907 C 17.595 4.980,17.370 5.210,11.284 11.296 L 4.972 17.608 4.831 17.434 C 4.557 17.097,4.188 16.494,3.917 15.940 C 2.386 12.813,2.802 9.097,4.987 6.369 C 6.873 4.015,9.866 2.751,12.863 3.043 M19.489 7.018 C 22.505 11.529,20.833 17.685,15.940 20.083 C 13.446 21.306,10.544 21.302,8.042 20.072 C 7.512 19.812,6.712 19.315,6.488 19.108 L 6.397 19.023 12.707 12.713 C 18.790 6.630,19.020 6.405,19.093 6.471 C 19.135 6.509,19.313 6.755,19.489 7.018 " stroke="none" fill-rule="evenodd" fill="black"></path></svg>