<svg width="24" height="24" viewBox="0 0 24 24" fill="none" xmlns="http://www.w3.org/2000/svg"><path d="M10.659 1.064 C 10.429 1.145,10.222 1.330,10.114 1.550 L 10.020 1.740 10.000 5.791 L 9.980 9.842 7.745 7.983 C 5.427 6.055,5.351 6.000,5.000 6.000 C 4.437 6.000,3.956 6.523,4.009 7.078 C 4.051 7.519,3.986 7.455,6.803 9.803 C 8.231 10.993,9.400 11.982,9.400 12.000 C 9.400 12.018,8.231 13.007,6.803 14.197 C 3.986 16.545,4.051 16.481,4.009 16.922 C 3.956 17.477,4.437 18.000,5.000 18.000 C 5.353 18.000,5.427 17.946,7.746 16.016 L 9.980 14.158 10.000 18.209 L 10.020 22.260 10.114 22.450 C 10.272 22.772,10.639 23.000,11.000 23.000 C 11.364 23.000,11.383 22.986,14.653 20.261 C 18.155 17.344,17.980 17.515,17.980 17.000 C 17.980 16.490,18.096 16.607,15.194 14.189 C 13.767 13.000,12.600 12.015,12.600 12.000 C 12.600 11.985,13.767 11.000,15.194 9.811 C 18.096 7.393,17.980 7.510,17.980 7.000 C 17.980 6.485,18.155 6.656,14.653 3.739 C 12.216 1.709,11.477 1.113,11.332 1.063 C 11.107 0.987,10.875 0.987,10.659 1.064 M13.750 5.592 C 14.658 6.348,15.400 6.982,15.400 7.000 C 15.400 7.029,12.178 9.736,12.050 9.814 C 12.010 9.838,12.000 9.265,12.000 7.000 C 12.000 4.735,12.010 4.162,12.050 4.186 C 12.078 4.203,12.843 4.835,13.750 5.592 M13.750 15.592 C 14.658 16.348,15.400 16.982,15.400 17.000 C 15.400 17.029,12.178 19.736,12.050 19.814 C 12.010 19.838,12.000 19.265,12.000 17.000 C 12.000 14.735,12.010 14.162,12.050 14.186 C 12.078 14.203,12.843 14.835,13.750 15.592 " stroke="none" fill-rule="evenodd" fill="black"></path></svg>