<svg width="24" height="24" viewBox="0 0 24 24" fill="none" xmlns="http://www.w3.org/2000/svg"><path d="M10.920 2.044 C 9.970 2.127,9.104 2.320,8.616 2.559 C 8.223 2.752,7.794 3.134,7.566 3.496 C 7.210 4.058,7.048 4.630,7.012 5.445 L 6.989 5.990 6.724 6.017 C 6.408 6.049,6.212 6.096,5.927 6.208 L 5.714 6.292 4.127 4.711 C 2.709 3.299,2.519 3.124,2.343 3.065 C 1.954 2.936,1.577 3.021,1.299 3.299 C 1.021 3.577,0.936 3.954,1.065 4.343 C 1.124 4.519,1.299 4.709,2.711 6.127 L 4.292 7.714 4.208 7.927 C 4.035 8.367,4.028 8.433,4.010 9.728 L 3.993 10.996 2.607 11.008 C 1.273 11.020,1.214 11.023,1.060 11.106 C 0.701 11.300,0.520 11.601,0.520 12.000 C 0.520 12.399,0.701 12.700,1.060 12.894 C 1.214 12.977,1.273 12.980,2.610 12.992 L 4.000 13.004 4.000 13.704 C 4.000 14.088,4.019 14.578,4.041 14.792 C 4.133 15.647,4.376 16.561,4.703 17.276 C 4.853 17.604,4.855 17.614,4.778 17.666 C 4.735 17.696,3.917 18.310,2.961 19.030 C 1.395 20.209,1.212 20.359,1.125 20.531 C 0.720 21.329,1.442 22.204,2.295 21.951 C 2.405 21.919,3.049 21.461,4.214 20.588 L 5.969 19.274 6.374 19.668 C 7.092 20.367,7.660 20.772,8.492 21.179 C 10.713 22.267,13.293 22.269,15.500 21.183 C 16.362 20.759,16.898 20.379,17.606 19.689 L 18.031 19.273 19.786 20.588 C 20.951 21.461,21.595 21.919,21.705 21.951 C 22.558 22.204,23.280 21.329,22.875 20.531 C 22.788 20.359,22.605 20.209,21.039 19.030 C 20.083 18.310,19.265 17.696,19.222 17.666 C 19.145 17.614,19.147 17.604,19.294 17.283 C 19.777 16.225,20.000 15.088,20.000 13.678 L 20.000 13.004 21.390 12.992 C 22.727 12.980,22.786 12.977,22.940 12.894 C 23.299 12.700,23.480 12.399,23.480 12.000 C 23.480 11.601,23.299 11.300,22.940 11.106 C 22.786 11.023,22.727 11.020,21.393 11.008 L 20.007 10.996 19.990 9.728 C 19.972 8.433,19.965 8.367,19.792 7.927 L 19.708 7.714 21.289 6.127 C 22.701 4.709,22.876 4.519,22.935 4.343 C 23.064 3.954,22.979 3.577,22.701 3.299 C 22.423 3.021,22.046 2.936,21.657 3.065 C 21.481 3.124,21.291 3.299,19.880 4.705 L 18.299 6.279 18.004 6.176 C 17.841 6.119,17.552 6.053,17.360 6.029 L 17.011 5.985 16.988 5.443 C 16.940 4.355,16.621 3.563,15.998 2.987 C 15.522 2.546,14.998 2.330,13.998 2.165 C 13.047 2.007,11.874 1.961,10.920 2.044 M13.081 4.058 C 13.670 4.121,14.300 4.248,14.507 4.346 C 14.803 4.486,15.000 5.011,15.000 5.658 L 15.000 6.000 12.000 6.000 L 9.000 6.000 9.000 5.658 C 9.000 5.067,9.168 4.562,9.425 4.382 C 9.582 4.272,10.498 4.087,11.180 4.027 C 11.602 3.991,12.595 4.007,13.081 4.058 M17.340 8.066 C 17.599 8.154,17.850 8.408,17.937 8.670 C 17.998 8.855,18.003 9.139,17.989 11.827 C 17.975 14.714,17.973 14.789,17.885 15.180 C 17.475 17.006,16.370 18.481,14.799 19.297 C 14.200 19.608,13.833 19.739,13.110 19.897 L 13.000 19.922 13.000 16.388 C 13.000 12.410,13.015 12.613,12.701 12.299 C 12.310 11.908,11.690 11.908,11.299 12.299 C 10.985 12.613,11.000 12.410,11.000 16.388 L 11.000 19.922 10.890 19.897 C 10.212 19.749,9.838 19.621,9.320 19.360 C 7.629 18.510,6.445 16.931,6.095 15.060 C 6.026 14.692,6.020 14.421,6.020 11.680 L 6.020 8.700 6.131 8.511 C 6.256 8.298,6.449 8.136,6.670 8.057 C 6.792 8.013,7.774 8.003,11.983 8.002 C 16.686 8.000,17.163 8.006,17.340 8.066 " stroke="none" fill-rule="evenodd" fill="black"></path></svg>