<svg width="24" height="24" viewBox="0 0 24 24" fill="none" xmlns="http://www.w3.org/2000/svg"><path d="M5.260 1.058 C 3.387 1.360,1.851 2.645,1.266 4.400 C 1.004 5.185,1.020 4.694,1.020 12.000 C 1.020 18.251,1.024 18.639,1.093 18.960 C 1.315 19.997,1.741 20.785,2.478 21.522 C 3.215 22.259,4.003 22.685,5.040 22.907 C 5.361 22.976,5.749 22.980,12.000 22.980 C 18.251 22.980,18.639 22.976,18.960 22.907 C 19.931 22.699,20.733 22.282,21.429 21.624 C 22.270 20.829,22.819 19.741,22.959 18.590 C 22.992 18.325,23.001 16.395,22.991 11.760 C 22.978 5.723,22.972 5.280,22.905 5.000 C 22.655 3.949,22.245 3.201,21.522 2.477 C 20.797 1.751,20.060 1.347,19.000 1.095 C 18.719 1.028,18.286 1.023,12.140 1.015 C 6.952 1.009,5.513 1.018,5.260 1.058 M18.592 3.063 C 19.774 3.306,20.694 4.226,20.937 5.408 C 20.990 5.667,21.000 6.063,21.000 7.858 L 21.000 10.000 12.000 10.000 L 3.000 10.000 3.000 7.858 C 3.000 6.063,3.010 5.667,3.063 5.408 C 3.262 4.438,3.924 3.627,4.831 3.241 C 5.408 2.995,5.067 3.007,11.972 3.003 C 17.576 3.000,18.318 3.007,18.592 3.063 M11.000 16.500 L 11.000 21.000 8.358 21.000 C 5.462 21.000,5.387 20.995,4.831 20.759 C 4.133 20.462,3.525 19.853,3.235 19.161 C 3.002 18.601,3.000 18.575,3.000 15.142 L 3.000 12.000 7.000 12.000 L 11.000 12.000 11.000 16.500 M21.000 15.142 C 21.000 18.575,20.998 18.601,20.765 19.161 C 20.475 19.853,19.853 20.475,19.161 20.765 C 18.611 20.994,18.527 21.000,15.642 21.000 L 13.000 21.000 13.000 16.500 L 13.000 12.000 17.000 12.000 L 21.000 12.000 21.000 15.142 M5.240 14.035 C 4.943 14.132,4.688 14.355,4.582 14.609 C 4.496 14.815,4.503 15.221,4.597 15.420 C 4.638 15.508,4.870 15.777,5.116 16.019 C 5.360 16.261,5.560 16.477,5.560 16.500 C 5.560 16.523,5.360 16.739,5.116 16.981 C 4.609 17.482,4.522 17.629,4.521 17.991 C 4.519 18.399,4.699 18.700,5.060 18.892 C 5.271 19.005,5.716 19.011,5.920 18.905 C 5.997 18.865,6.271 18.623,6.530 18.367 L 7.000 17.901 7.470 18.367 C 7.729 18.623,8.003 18.865,8.080 18.905 C 8.284 19.011,8.729 19.005,8.940 18.892 C 9.301 18.700,9.481 18.399,9.479 17.991 C 9.478 17.629,9.391 17.482,8.884 16.981 C 8.640 16.739,8.440 16.523,8.440 16.500 C 8.440 16.477,8.640 16.261,8.884 16.019 C 9.391 15.518,9.478 15.371,9.479 15.009 C 9.481 14.601,9.301 14.300,8.940 14.108 C 8.729 13.995,8.284 13.989,8.080 14.095 C 8.003 14.135,7.729 14.377,7.470 14.633 L 7.000 15.099 6.530 14.633 C 6.271 14.377,5.999 14.137,5.924 14.100 C 5.768 14.022,5.389 13.986,5.240 14.035 M15.044 15.625 C 14.680 15.807,14.499 16.141,14.527 16.580 C 14.557 17.051,14.875 17.390,15.373 17.482 C 15.521 17.509,16.165 17.521,17.153 17.513 L 18.700 17.500 18.924 17.395 C 19.660 17.050,19.672 15.955,18.945 15.616 L 18.740 15.521 16.998 15.520 L 15.256 15.520 15.044 15.625 " stroke="none" fill-rule="evenodd" fill="black"></path></svg>