<svg width="24" height="24" viewBox="0 0 24 24" fill="none" xmlns="http://www.w3.org/2000/svg"><path d="M7.643 1.069 C 7.546 1.103,7.392 1.206,7.300 1.298 C 7.052 1.546,7.000 1.741,7.000 2.422 L 7.000 2.990 6.150 3.012 C 5.576 3.026,5.203 3.055,5.000 3.100 C 3.987 3.324,3.203 3.753,2.478 4.478 C 1.738 5.218,1.316 5.998,1.093 7.040 C 1.024 7.360,1.020 7.716,1.020 13.000 C 1.020 18.284,1.024 18.640,1.093 18.960 C 1.315 19.998,1.742 20.787,2.478 21.521 C 3.221 22.262,4.004 22.685,5.040 22.907 C 5.361 22.976,5.749 22.980,12.000 22.980 C 18.251 22.980,18.639 22.976,18.960 22.907 C 19.932 22.699,20.733 22.284,21.424 21.630 C 22.271 20.828,22.818 19.744,22.959 18.590 C 22.992 18.326,23.001 16.660,22.991 12.760 C 22.978 7.689,22.971 7.279,22.905 7.000 C 22.656 5.950,22.245 5.201,21.522 4.477 C 20.932 3.887,20.334 3.511,19.592 3.263 C 19.029 3.076,18.739 3.034,17.850 3.012 L 17.000 2.990 17.000 2.422 C 17.000 1.741,16.948 1.546,16.701 1.299 C 16.310 0.908,15.690 0.908,15.299 1.299 C 15.052 1.546,15.000 1.741,15.000 2.427 L 15.000 3.000 12.000 3.000 L 9.000 3.000 9.000 2.427 C 9.000 1.741,8.948 1.546,8.701 1.299 C 8.424 1.021,8.024 0.934,7.643 1.069 M7.000 5.573 C 7.000 6.259,7.052 6.454,7.299 6.701 C 7.690 7.092,8.310 7.092,8.701 6.701 C 8.948 6.454,9.000 6.259,9.000 5.573 L 9.000 5.000 12.000 5.000 L 15.000 5.000 15.000 5.573 C 15.000 6.259,15.052 6.454,15.299 6.701 C 15.479 6.881,15.758 7.000,16.000 7.000 C 16.242 7.000,16.521 6.881,16.701 6.701 C 16.948 6.454,17.000 6.259,17.000 5.573 L 17.000 5.000 17.642 5.000 C 18.358 5.000,18.739 5.059,19.161 5.235 C 19.853 5.525,20.475 6.147,20.765 6.839 C 20.941 7.261,21.000 7.642,21.000 8.358 L 21.000 9.000 12.000 9.000 L 3.000 9.000 3.000 8.358 C 3.000 7.642,3.059 7.261,3.235 6.839 C 3.528 6.139,4.125 5.542,4.831 5.241 C 5.260 5.058,5.585 5.007,6.330 5.003 L 7.000 5.000 7.000 5.573 M21.000 14.642 C 21.000 18.624,21.002 18.594,20.765 19.161 C 20.475 19.853,19.853 20.475,19.161 20.765 C 18.573 21.010,18.887 21.000,12.000 21.000 C 5.095 21.000,5.425 21.011,4.831 20.759 C 4.133 20.462,3.525 19.853,3.235 19.161 C 2.998 18.594,3.000 18.624,3.000 14.642 L 3.000 11.000 12.000 11.000 L 21.000 11.000 21.000 14.642 " stroke="none" fill-rule="evenodd" fill="black"></path></svg>