<svg width="24" height="24" viewBox="0 0 24 24" fill="none" xmlns="http://www.w3.org/2000/svg"><path d="M8.240 1.025 C 7.357 1.164,6.607 1.641,6.138 2.361 C 5.855 2.795,5.772 3.062,5.498 4.420 C 5.356 5.124,5.218 5.753,5.192 5.818 C 5.071 6.114,4.908 6.222,4.280 6.422 C 3.542 6.656,2.872 7.082,2.308 7.675 C 1.628 8.390,1.215 9.237,1.057 10.236 C 1.005 10.565,0.999 11.200,1.010 14.660 C 1.023 18.359,1.030 18.725,1.095 19.000 C 1.343 20.048,1.756 20.801,2.478 21.521 C 3.221 22.262,4.004 22.685,5.040 22.907 C 5.361 22.976,5.749 22.980,12.000 22.980 C 18.251 22.980,18.639 22.976,18.960 22.907 C 20.207 22.640,21.269 21.969,22.006 20.984 C 22.293 20.599,22.684 19.819,22.800 19.400 C 22.996 18.691,23.000 18.595,23.000 14.480 C 23.000 10.299,22.996 10.210,22.781 9.529 C 22.634 9.065,22.474 8.725,22.221 8.336 C 21.966 7.944,21.454 7.397,21.081 7.117 C 20.743 6.862,20.049 6.509,19.674 6.401 C 19.121 6.241,18.950 6.130,18.827 5.852 C 18.790 5.768,18.643 5.124,18.502 4.420 C 18.348 3.656,18.201 3.035,18.138 2.881 C 17.786 2.020,17.061 1.376,16.124 1.091 C 15.921 1.030,15.553 1.023,12.120 1.016 C 10.041 1.013,8.295 1.017,8.240 1.025 M15.649 3.042 C 15.866 3.102,16.122 3.314,16.227 3.520 C 16.288 3.638,16.408 4.141,16.578 4.984 C 16.720 5.690,16.873 6.366,16.918 6.486 C 17.100 6.971,17.432 7.413,17.860 7.739 C 18.214 8.008,18.351 8.076,18.943 8.273 C 19.480 8.452,19.630 8.529,19.988 8.809 C 20.394 9.128,20.694 9.572,20.885 10.140 L 20.980 10.420 20.991 14.340 C 21.004 18.640,21.006 18.584,20.765 19.161 C 20.475 19.853,19.853 20.475,19.161 20.765 C 18.573 21.010,18.887 21.000,12.000 21.000 C 6.416 21.000,5.682 20.993,5.408 20.936 C 4.220 20.692,3.300 19.768,3.062 18.580 C 3.005 18.297,2.999 17.813,3.009 14.340 L 3.020 10.420 3.115 10.140 C 3.306 9.572,3.606 9.128,4.012 8.809 C 4.370 8.529,4.520 8.452,5.057 8.273 C 5.626 8.083,5.820 7.989,6.141 7.748 C 6.539 7.449,6.864 7.018,7.058 6.533 C 7.118 6.383,7.274 5.717,7.425 4.966 C 7.707 3.563,7.756 3.419,8.021 3.217 C 8.309 2.997,8.183 3.004,11.980 3.002 C 14.287 3.001,15.551 3.015,15.649 3.042 M10.643 5.069 C 10.291 5.193,10.000 5.614,10.000 6.000 C 10.000 6.396,10.291 6.808,10.660 6.934 C 10.948 7.032,13.052 7.032,13.340 6.934 C 13.709 6.808,14.000 6.396,14.000 6.000 C 14.000 5.604,13.709 5.192,13.340 5.066 C 13.062 4.972,10.913 4.974,10.643 5.069 M11.260 9.056 C 9.597 9.335,8.259 10.313,7.523 11.785 C 7.164 12.504,7.021 13.135,7.021 14.000 C 7.021 14.446,7.041 14.715,7.093 14.960 C 7.313 15.995,7.741 16.786,8.478 17.521 C 9.222 18.262,10.007 18.687,11.040 18.907 C 11.511 19.007,12.489 19.007,12.960 18.907 C 13.929 18.701,14.732 18.284,15.424 17.630 C 15.877 17.201,16.198 16.761,16.483 16.180 C 17.277 14.560,17.147 12.732,16.128 11.180 C 15.880 10.803,15.173 10.103,14.780 9.845 C 14.219 9.478,13.639 9.237,12.980 9.099 C 12.554 9.009,11.670 8.988,11.260 9.056 M12.592 11.063 C 14.213 11.396,15.267 12.981,14.937 14.592 C 14.604 16.213,13.017 17.268,11.408 16.936 C 9.556 16.555,8.508 14.579,9.235 12.839 C 9.781 11.535,11.208 10.780,12.592 11.063 " stroke="none" fill-rule="evenodd" fill="black"></path></svg>