<svg width="24" height="24" viewBox="0 0 24 24" fill="none" xmlns="http://www.w3.org/2000/svg"><path d="M1.643 2.069 C 1.291 2.193,1.000 2.614,1.000 3.000 C 1.000 3.242,1.119 3.521,1.299 3.701 C 1.556 3.958,1.731 4.000,2.538 4.000 L 3.222 4.000 3.631 5.650 C 3.946 6.916,4.241 8.297,4.898 11.580 C 5.503 14.602,5.786 15.936,5.862 16.119 C 6.068 16.622,6.509 17.176,6.928 17.460 C 7.179 17.630,7.607 17.826,7.900 17.905 C 8.168 17.977,8.412 17.980,13.440 17.980 L 18.700 17.980 19.000 17.886 C 20.049 17.559,20.834 16.759,21.083 15.765 C 21.192 15.329,21.813 9.100,21.779 8.780 C 21.663 7.684,21.064 6.790,20.142 6.338 C 19.434 5.991,20.150 6.022,12.539 6.010 L 5.778 5.999 5.447 4.668 C 5.074 3.174,4.990 2.959,4.637 2.600 C 4.379 2.338,3.947 2.103,3.605 2.040 C 3.250 1.974,1.853 1.995,1.643 2.069 M19.116 8.058 C 19.451 8.177,19.713 8.487,19.775 8.840 C 19.788 8.917,19.657 10.395,19.484 12.124 C 19.141 15.531,19.157 15.437,18.884 15.709 C 18.819 15.775,18.697 15.862,18.613 15.904 C 18.465 15.977,18.288 15.980,13.397 15.980 L 8.334 15.980 8.137 15.859 C 7.724 15.604,7.782 15.810,6.967 11.736 C 6.567 9.736,6.240 8.078,6.240 8.050 C 6.240 8.010,7.538 8.000,12.595 8.000 C 18.067 8.000,18.973 8.008,19.116 8.058 M7.643 20.069 C 7.291 20.193,7.000 20.614,7.000 21.000 C 7.000 21.396,7.291 21.808,7.660 21.934 C 7.948 22.032,10.052 22.032,10.340 21.934 C 10.709 21.808,11.000 21.396,11.000 21.000 C 11.000 20.604,10.709 20.192,10.340 20.066 C 10.062 19.972,7.913 19.974,7.643 20.069 M15.643 20.069 C 15.291 20.193,15.000 20.614,15.000 21.000 C 15.000 21.396,15.291 21.808,15.660 21.934 C 15.948 22.032,18.052 22.032,18.340 21.934 C 18.709 21.808,19.000 21.396,19.000 21.000 C 19.000 20.604,18.709 20.192,18.340 20.066 C 18.062 19.972,15.913 19.974,15.643 20.069 " stroke="none" fill-rule="evenodd" fill="black"></path></svg>