<svg width="24" height="24" viewBox="0 0 24 24" fill="none" xmlns="http://www.w3.org/2000/svg"><path d="M6.815 2.041 C 4.504 2.156,3.301 2.576,2.352 3.598 C 1.596 4.411,1.241 5.421,1.071 7.240 C 1.000 7.998,1.000 14.002,1.071 14.760 C 1.241 16.579,1.596 17.589,2.352 18.402 C 3.008 19.108,3.748 19.501,4.867 19.735 L 5.300 19.826 5.324 20.363 C 5.337 20.658,5.371 20.990,5.399 21.100 C 5.589 21.844,6.088 22.328,6.785 22.443 C 7.415 22.547,8.025 22.342,9.940 21.380 C 11.504 20.595,11.993 20.386,12.687 20.203 C 13.367 20.025,13.626 20.005,15.540 19.984 C 17.407 19.963,17.997 19.929,18.798 19.796 C 20.069 19.584,20.796 19.244,21.520 18.520 C 22.242 17.797,22.580 17.079,22.797 15.800 C 22.959 14.848,22.980 14.285,22.980 11.000 C 22.980 7.715,22.959 7.152,22.797 6.200 C 22.582 4.937,22.243 4.208,21.540 3.498 C 20.675 2.626,19.748 2.270,17.840 2.076 C 17.292 2.020,7.832 1.991,6.815 2.041 M17.740 4.075 C 19.023 4.212,19.657 4.428,20.114 4.886 C 20.586 5.358,20.801 6.005,20.927 7.340 C 21.002 8.133,21.002 13.867,20.927 14.660 C 20.801 15.995,20.586 16.642,20.114 17.114 C 19.756 17.472,19.340 17.662,18.615 17.797 C 17.901 17.930,17.320 17.965,15.220 18.000 C 13.141 18.035,13.030 18.044,12.278 18.237 C 11.364 18.472,10.704 18.750,8.920 19.651 C 8.249 19.990,7.615 20.296,7.510 20.331 L 7.320 20.395 7.321 19.968 C 7.322 19.732,7.349 19.252,7.382 18.900 C 7.479 17.846,7.497 17.353,7.444 17.191 C 7.254 16.617,6.597 16.350,6.047 16.624 C 5.711 16.791,5.535 17.082,5.492 17.543 C 5.464 17.845,5.464 17.845,4.999 17.718 C 4.359 17.542,3.843 17.185,3.580 16.736 C 3.325 16.301,3.167 15.655,3.073 14.660 C 2.998 13.867,2.998 8.133,3.073 7.340 C 3.199 6.005,3.414 5.358,3.886 4.886 C 4.362 4.410,5.054 4.183,6.340 4.082 C 7.217 4.013,7.226 4.013,12.400 4.021 C 15.812 4.026,17.434 4.043,17.740 4.075 M9.550 7.935 C 9.326 8.018,9.135 8.180,9.011 8.391 C 8.916 8.553,8.900 8.623,8.901 8.880 C 8.901 9.093,8.923 9.220,8.975 9.320 C 9.016 9.397,9.393 9.807,9.813 10.230 L 10.577 11.000 9.813 11.770 C 9.393 12.194,9.019 12.601,8.981 12.675 C 8.752 13.128,8.936 13.721,9.388 13.987 C 9.553 14.084,9.622 14.100,9.880 14.099 C 10.093 14.099,10.220 14.077,10.320 14.025 C 10.397 13.984,10.807 13.607,11.230 13.187 L 12.000 12.423 12.770 13.187 C 13.194 13.607,13.603 13.984,13.680 14.025 C 13.780 14.077,13.907 14.099,14.120 14.099 C 14.378 14.100,14.447 14.084,14.612 13.987 C 14.834 13.857,15.021 13.618,15.085 13.384 C 15.139 13.181,15.109 12.853,15.019 12.675 C 14.981 12.601,14.607 12.194,14.187 11.770 L 13.423 11.000 14.187 10.230 C 14.607 9.806,14.984 9.397,15.025 9.320 C 15.077 9.220,15.099 9.093,15.099 8.880 C 15.100 8.622,15.084 8.553,14.987 8.388 C 14.857 8.166,14.618 7.979,14.384 7.915 C 14.181 7.861,13.853 7.891,13.675 7.981 C 13.601 8.019,13.194 8.393,12.770 8.813 L 12.000 9.577 11.230 8.813 C 10.807 8.393,10.398 8.018,10.322 7.979 C 10.138 7.886,9.741 7.863,9.550 7.935 " stroke="none" fill-rule="evenodd" fill="black"></path></svg>