<svg width="24" height="24" viewBox="0 0 24 24" fill="none" xmlns="http://www.w3.org/2000/svg"><path d="M6.815 2.041 C 4.504 2.156,3.301 2.576,2.352 3.598 C 1.596 4.411,1.241 5.421,1.071 7.240 C 1.000 7.998,1.000 14.002,1.071 14.760 C 1.241 16.579,1.596 17.589,2.352 18.402 C 3.008 19.108,3.748 19.501,4.867 19.735 L 5.300 19.826 5.324 20.363 C 5.337 20.658,5.371 20.990,5.399 21.100 C 5.589 21.844,6.088 22.328,6.785 22.443 C 7.415 22.547,8.025 22.342,9.940 21.380 C 11.504 20.595,11.993 20.386,12.687 20.203 C 13.367 20.025,13.626 20.005,15.540 19.984 C 17.407 19.963,17.997 19.929,18.798 19.796 C 20.069 19.584,20.796 19.244,21.520 18.520 C 22.242 17.797,22.580 17.079,22.797 15.800 C 22.959 14.848,22.980 14.285,22.980 11.000 C 22.980 7.715,22.959 7.152,22.797 6.200 C 22.582 4.937,22.243 4.208,21.540 3.498 C 20.675 2.626,19.748 2.270,17.840 2.076 C 17.292 2.020,7.832 1.991,6.815 2.041 M17.740 4.075 C 19.023 4.212,19.657 4.428,20.114 4.886 C 20.586 5.358,20.801 6.005,20.927 7.340 C 21.002 8.133,21.002 13.867,20.927 14.660 C 20.801 15.995,20.586 16.642,20.114 17.114 C 19.756 17.472,19.340 17.662,18.615 17.797 C 17.901 17.930,17.320 17.965,15.220 18.000 C 13.141 18.035,13.030 18.044,12.278 18.237 C 11.364 18.472,10.704 18.750,8.920 19.651 C 8.249 19.990,7.615 20.296,7.510 20.331 L 7.320 20.395 7.321 19.968 C 7.322 19.732,7.349 19.252,7.382 18.900 C 7.479 17.846,7.497 17.353,7.444 17.191 C 7.254 16.617,6.597 16.350,6.047 16.624 C 5.711 16.791,5.535 17.082,5.492 17.543 C 5.464 17.845,5.464 17.845,4.999 17.718 C 4.359 17.542,3.843 17.185,3.580 16.736 C 3.325 16.301,3.167 15.655,3.073 14.660 C 2.998 13.867,2.998 8.133,3.073 7.340 C 3.199 6.005,3.414 5.358,3.886 4.886 C 4.362 4.410,5.054 4.183,6.340 4.082 C 7.217 4.013,7.226 4.013,12.400 4.021 C 15.812 4.026,17.434 4.043,17.740 4.075 M11.643 7.069 C 11.407 7.152,11.149 7.416,11.066 7.660 C 11.011 7.822,11.000 8.033,11.000 8.927 L 11.000 10.000 9.927 10.000 C 8.692 10.000,8.577 10.021,8.299 10.299 C 7.908 10.690,7.908 11.310,8.299 11.701 C 8.577 11.979,8.692 12.000,9.927 12.000 L 11.000 12.000 11.000 13.073 C 11.000 13.967,11.011 14.178,11.066 14.340 C 11.192 14.709,11.604 15.000,12.000 15.000 C 12.396 15.000,12.808 14.709,12.934 14.340 C 12.989 14.178,13.000 13.967,13.000 13.073 L 13.000 12.000 14.073 12.000 C 15.308 12.000,15.423 11.979,15.701 11.701 C 16.092 11.310,16.092 10.690,15.701 10.299 C 15.423 10.021,15.308 10.000,14.073 10.000 L 13.000 10.000 13.000 8.927 C 13.000 7.692,12.979 7.577,12.701 7.299 C 12.424 7.021,12.024 6.934,11.643 7.069 " stroke="none" fill-rule="evenodd" fill="black"></path></svg>