<svg width="24" height="24" viewBox="0 0 24 24" fill="none" xmlns="http://www.w3.org/2000/svg"><path d="M19.674 5.059 C 19.593 5.089,19.484 5.142,19.430 5.177 C 19.376 5.213,17.219 7.778,14.636 10.879 L 9.940 16.516 7.240 13.823 C 4.786 11.376,4.522 11.124,4.343 11.065 C 3.953 10.936,3.577 11.021,3.298 11.300 C 2.995 11.602,2.922 12.053,3.113 12.444 C 3.174 12.571,4.071 13.492,6.329 15.745 C 9.299 18.710,9.471 18.874,9.674 18.940 C 9.937 19.025,10.200 19.006,10.453 18.883 C 10.616 18.804,11.249 18.061,15.729 12.687 C 18.528 9.328,20.853 6.511,20.896 6.426 C 21.281 5.653,20.484 4.762,19.674 5.059 " stroke="none" fill-rule="evenodd" fill="black"></path></svg>