<svg width="24" height="24" viewBox="0 0 24 24" fill="none" xmlns="http://www.w3.org/2000/svg"><path d="M6.260 2.058 C 4.386 2.360,2.851 3.645,2.266 5.400 C 2.006 6.178,2.020 5.806,2.020 12.000 C 2.020 17.284,2.024 17.640,2.093 17.960 C 2.315 18.998,2.742 19.787,3.478 20.521 C 4.221 21.262,5.004 21.685,6.040 21.907 C 6.360 21.976,6.716 21.980,12.000 21.980 C 17.284 21.980,17.640 21.976,17.960 21.907 C 19.003 21.684,19.784 21.261,20.521 20.522 C 21.262 19.779,21.685 18.996,21.907 17.960 C 21.976 17.640,21.980 17.284,21.980 12.000 C 21.980 6.716,21.976 6.360,21.907 6.040 C 21.685 5.003,21.260 4.216,20.522 3.477 C 19.793 2.748,19.064 2.348,18.000 2.095 C 17.721 2.028,17.320 2.023,12.140 2.015 C 7.762 2.009,6.512 2.018,6.260 2.058 M15.500 9.138 C 15.960 9.407,16.126 9.992,15.875 10.459 C 15.737 10.715,11.907 14.784,11.702 14.892 C 11.486 15.005,11.045 15.012,10.830 14.906 C 10.590 14.786,8.231 12.669,8.118 12.471 C 8.038 12.331,8.020 12.245,8.020 12.000 C 8.020 11.743,8.036 11.673,8.133 11.508 C 8.263 11.286,8.502 11.099,8.736 11.035 C 8.938 10.981,9.268 11.011,9.439 11.099 C 9.541 11.152,10.109 11.639,11.105 12.528 L 11.189 12.604 12.777 10.909 C 13.651 9.977,14.420 9.182,14.486 9.143 C 14.680 9.028,14.804 9.001,15.068 9.016 C 15.247 9.027,15.368 9.061,15.500 9.138 " stroke="none" fill-rule="evenodd"></path></svg>