<svg width="24" height="24" viewBox="0 0 24 24" fill="none" xmlns="http://www.w3.org/2000/svg"><path d="M6.260 2.058 C 4.386 2.360,2.851 3.645,2.266 5.400 C 2.006 6.178,2.020 5.806,2.020 12.000 C 2.020 17.284,2.024 17.640,2.093 17.960 C 2.315 18.998,2.742 19.787,3.478 20.521 C 4.221 21.262,5.004 21.685,6.040 21.907 C 6.360 21.976,6.716 21.980,12.000 21.980 C 17.284 21.980,17.640 21.976,17.960 21.907 C 18.932 21.699,19.733 21.284,20.424 20.630 C 21.271 19.828,21.818 18.744,21.959 17.590 C 21.992 17.326,22.001 15.660,21.991 11.760 C 21.978 6.689,21.971 6.279,21.905 6.000 C 21.656 4.950,21.245 4.201,20.522 3.477 C 19.797 2.751,19.058 2.347,18.000 2.095 C 17.721 2.028,17.320 2.023,12.140 2.015 C 7.762 2.009,6.512 2.018,6.260 2.058 M17.592 4.063 C 18.774 4.306,19.694 5.226,19.937 6.408 C 19.993 6.680,20.000 7.341,20.000 12.000 C 20.000 17.786,20.008 17.579,19.765 18.161 C 19.475 18.853,18.853 19.475,18.161 19.765 C 17.579 20.008,17.786 20.000,12.000 20.000 C 6.197 20.000,6.419 20.009,5.831 19.759 C 5.133 19.462,4.525 18.853,4.235 18.161 C 3.992 17.579,4.000 17.786,4.000 12.000 C 4.000 7.341,4.007 6.680,4.063 6.408 C 4.262 5.438,4.924 4.627,5.831 4.241 C 6.403 3.998,6.164 4.007,11.972 4.003 C 16.665 4.000,17.319 4.007,17.592 4.063 M14.643 9.069 C 14.425 9.146,14.397 9.174,12.623 11.070 L 11.192 12.600 11.073 12.500 C 11.008 12.446,10.659 12.135,10.297 11.811 C 9.935 11.486,9.558 11.177,9.458 11.124 C 8.610 10.673,7.693 11.577,8.115 12.449 C 8.183 12.591,8.464 12.863,9.441 13.730 C 10.123 14.336,10.748 14.865,10.830 14.906 C 11.045 15.012,11.486 15.005,11.702 14.892 C 11.909 14.783,15.738 10.715,15.876 10.457 C 16.305 9.658,15.510 8.763,14.643 9.069 " stroke="none" fill-rule="evenodd" fill="black"></path></svg>