<svg width="24" height="24" viewBox="0 0 24 24" fill="none" xmlns="http://www.w3.org/2000/svg"><path d="M7.643 1.069 C 7.296 1.192,7.000 1.614,7.000 1.988 C 7.000 2.088,7.740 5.158,7.863 5.566 C 7.877 5.614,7.218 6.185,5.411 7.691 C 4.052 8.824,2.849 9.847,2.738 9.965 C 2.186 10.553,1.901 11.452,2.035 12.180 C 2.149 12.795,2.576 13.350,3.149 13.625 C 3.437 13.764,3.489 13.776,3.880 13.788 C 4.249 13.799,4.495 13.768,5.920 13.529 C 6.811 13.379,7.545 13.268,7.551 13.283 C 7.561 13.304,6.401 17.233,6.217 17.804 L 6.157 17.988 5.809 18.014 C 5.254 18.055,4.817 18.201,4.365 18.495 C 3.880 18.811,3.455 19.314,3.250 19.815 C 3.053 20.294,3.032 20.425,3.011 21.286 C 2.987 22.261,3.020 22.422,3.298 22.700 C 3.624 23.027,2.854 23.000,12.000 23.000 C 21.146 23.000,20.376 23.027,20.702 22.700 C 20.980 22.422,21.013 22.261,20.989 21.286 C 20.975 20.723,20.950 20.396,20.909 20.260 C 20.740 19.693,20.479 19.245,20.096 18.866 C 19.809 18.582,19.321 18.275,18.999 18.174 C 18.868 18.133,18.761 18.082,18.760 18.060 C 18.760 18.038,19.003 16.933,19.300 15.604 C 19.596 14.275,19.870 12.988,19.908 12.744 C 20.005 12.119,20.004 10.744,19.906 10.140 C 19.572 8.081,18.741 6.421,17.341 5.017 C 16.515 4.189,15.639 3.588,14.628 3.157 C 14.382 3.052,13.262 2.666,12.140 2.300 C 11.018 1.933,9.665 1.491,9.133 1.317 C 8.108 0.981,7.961 0.956,7.643 1.069 M11.540 4.210 C 12.618 4.562,13.660 4.919,13.856 5.003 C 15.927 5.893,17.447 7.852,17.889 10.200 C 17.994 10.754,18.013 11.973,17.925 12.500 C 17.868 12.842,16.732 17.961,16.708 17.986 C 16.700 17.994,14.794 17.996,12.473 17.990 L 8.254 17.980 9.127 15.061 C 9.607 13.456,10.000 12.077,10.000 11.998 C 10.000 11.491,9.526 11.000,9.037 11.000 C 8.977 11.000,7.837 11.180,6.502 11.400 C 5.167 11.620,4.056 11.800,4.033 11.800 C 3.961 11.800,4.032 11.551,4.150 11.392 C 4.211 11.311,5.504 10.210,7.025 8.946 C 9.453 6.927,9.800 6.624,9.881 6.458 C 10.045 6.119,10.034 6.010,9.708 4.709 C 9.426 3.586,9.414 3.519,9.494 3.544 C 9.541 3.558,10.462 3.858,11.540 4.210 M18.340 20.066 C 18.676 20.181,19.000 20.603,19.000 20.927 C 19.000 20.997,18.745 21.000,11.995 21.000 L 4.990 21.000 5.017 20.830 C 5.071 20.489,5.336 20.176,5.670 20.057 C 5.793 20.013,6.939 20.003,11.983 20.002 C 17.617 20.000,18.162 20.006,18.340 20.066 " stroke="none" fill-rule="evenodd" fill="black"></path></svg>