<svg width="24" height="24" viewBox="0 0 24 24" fill="none" xmlns="http://www.w3.org/2000/svg"><path d="M3.643 8.069 C 3.112 8.256,2.857 8.918,3.113 9.444 C 3.175 9.572,4.329 10.750,7.329 13.745 C 11.266 17.677,11.470 17.874,11.674 17.940 C 11.935 18.024,12.200 18.006,12.444 17.887 C 12.572 17.825,13.749 16.671,16.745 13.671 C 20.526 9.885,20.876 9.524,20.935 9.343 C 21.063 8.953,20.979 8.577,20.701 8.299 C 20.423 8.021,20.047 7.937,19.657 8.065 C 19.477 8.124,19.143 8.446,15.730 11.854 L 12.000 15.579 8.270 11.854 C 4.857 8.446,4.523 8.124,4.343 8.065 C 4.101 7.985,3.876 7.987,3.643 8.069 " stroke="none" fill-rule="evenodd" fill="black"></path></svg>