<svg width="24" height="24" viewBox="0 0 24 24" fill="none" xmlns="http://www.w3.org/2000/svg"><path d="M11.640 2.068 C 11.486 2.121,11.152 2.437,9.329 4.255 C 7.813 5.766,7.173 6.431,7.112 6.556 C 6.923 6.948,6.996 7.398,7.298 7.700 C 7.577 7.979,7.953 8.064,8.343 7.935 C 8.520 7.876,8.719 7.691,10.270 6.146 L 12.000 4.422 13.730 6.146 C 15.281 7.691,15.480 7.876,15.657 7.935 C 16.047 8.064,16.423 7.979,16.702 7.700 C 17.004 7.398,17.077 6.948,16.888 6.556 C 16.827 6.431,16.187 5.766,14.671 4.255 C 12.747 2.336,12.521 2.124,12.343 2.065 C 12.102 1.986,11.878 1.986,11.640 2.068 M7.643 16.069 C 7.291 16.193,7.000 16.614,7.000 17.000 C 7.000 17.080,7.029 17.234,7.065 17.343 C 7.124 17.521,7.336 17.747,9.255 19.671 C 10.766 21.187,11.431 21.827,11.556 21.888 C 11.800 22.006,12.065 22.024,12.326 21.940 C 12.527 21.875,12.668 21.742,14.671 19.745 C 16.187 18.234,16.827 17.569,16.888 17.444 C 17.077 17.052,17.004 16.602,16.702 16.300 C 16.423 16.021,16.047 15.936,15.657 16.065 C 15.480 16.124,15.281 16.309,13.730 17.854 L 12.000 19.578 10.270 17.854 C 8.719 16.309,8.520 16.124,8.343 16.065 C 8.101 15.985,7.876 15.986,7.643 16.069 " stroke="none" fill-rule="evenodd" fill="black"></path></svg>