<svg width="24" height="24" viewBox="0 0 24 24" fill="none" xmlns="http://www.w3.org/2000/svg"><path d="M7.643 3.069 C 7.291 3.193,7.000 3.614,7.000 4.000 C 7.000 4.080,7.029 4.234,7.065 4.343 C 7.124 4.523,7.446 4.857,10.854 8.270 L 14.579 12.000 10.854 15.730 C 7.446 19.143,7.124 19.477,7.065 19.657 C 6.936 20.047,7.021 20.423,7.300 20.702 C 7.602 21.005,8.053 21.078,8.444 20.887 C 8.572 20.825,9.750 19.671,12.745 16.671 C 16.677 12.734,16.874 12.530,16.940 12.326 C 17.024 12.065,17.006 11.800,16.887 11.556 C 16.825 11.428,15.671 10.251,12.671 7.255 C 8.885 3.474,8.524 3.124,8.343 3.065 C 8.101 2.985,7.876 2.987,7.643 3.069 " stroke="none" fill-rule="evenodd" fill="black"></path></svg>