<svg width="24" height="24" viewBox="0 0 24 24" fill="none" xmlns="http://www.w3.org/2000/svg"><path d="M6.640 7.068 C 6.486 7.121,6.152 7.437,4.329 9.255 C 2.813 10.766,2.173 11.431,2.112 11.556 C 1.994 11.800,1.976 12.065,2.060 12.326 C 2.125 12.527,2.258 12.668,4.255 14.671 C 5.766 16.187,6.431 16.827,6.556 16.888 C 6.948 17.077,7.398 17.004,7.700 16.702 C 7.979 16.423,8.064 16.047,7.935 15.657 C 7.876 15.480,7.691 15.281,6.146 13.730 L 4.422 12.000 6.146 10.270 C 7.691 8.719,7.876 8.520,7.935 8.343 C 8.064 7.954,7.979 7.577,7.701 7.299 C 7.423 7.021,7.027 6.935,6.640 7.068 M16.643 7.069 C 16.291 7.193,16.000 7.614,16.000 8.000 C 16.000 8.080,16.029 8.234,16.065 8.343 C 16.124 8.520,16.309 8.719,17.854 10.270 L 19.578 12.000 17.854 13.730 C 16.309 15.281,16.124 15.480,16.065 15.657 C 15.936 16.047,16.021 16.423,16.300 16.702 C 16.602 17.004,17.052 17.077,17.444 16.888 C 17.569 16.827,18.234 16.187,19.745 14.671 C 21.742 12.668,21.875 12.527,21.940 12.326 C 22.024 12.065,22.006 11.800,21.888 11.556 C 21.827 11.431,21.187 10.766,19.671 9.255 C 17.747 7.336,17.521 7.124,17.343 7.065 C 17.101 6.985,16.876 6.986,16.643 7.069 " stroke="none" fill-rule="evenodd" fill="black"></path></svg>