<svg width="24" height="24" viewBox="0 0 24 24" fill="none" xmlns="http://www.w3.org/2000/svg"><path d="M14.640 3.068 C 14.483 3.121,13.922 3.666,10.329 7.255 C 7.329 10.251,6.175 11.428,6.113 11.556 C 5.994 11.800,5.976 12.065,6.060 12.326 C 6.126 12.530,6.323 12.734,10.255 16.671 C 13.250 19.671,14.428 20.825,14.556 20.887 C 14.947 21.078,15.398 21.005,15.700 20.702 C 15.979 20.423,16.064 20.047,15.935 19.657 C 15.876 19.477,15.554 19.143,12.146 15.730 L 8.421 12.000 12.146 8.270 C 15.554 4.857,15.876 4.523,15.935 4.343 C 16.063 3.953,15.979 3.577,15.701 3.299 C 15.424 3.022,15.028 2.935,14.640 3.068 " stroke="none" fill-rule="evenodd" fill="black"></path></svg>