<svg width="24" height="24" viewBox="0 0 24 24" fill="none" xmlns="http://www.w3.org/2000/svg"><path d="M11.640 6.068 C 11.483 6.121,10.922 6.666,7.329 10.255 C 4.329 13.251,3.175 14.428,3.113 14.556 C 2.922 14.947,2.995 15.398,3.298 15.700 C 3.577 15.979,3.953 16.064,4.343 15.935 C 4.523 15.876,4.857 15.554,8.270 12.146 L 12.000 8.421 15.730 12.146 C 19.143 15.554,19.477 15.876,19.657 15.935 C 20.047 16.064,20.423 15.979,20.702 15.700 C 21.005 15.398,21.078 14.947,20.887 14.556 C 20.825 14.428,19.671 13.251,16.671 10.255 C 12.885 6.474,12.524 6.124,12.343 6.065 C 12.102 5.986,11.878 5.987,11.640 6.068 " stroke="none" fill-rule="evenodd" fill="black"></path></svg>