<svg width="24" height="24" viewBox="0 0 24 24" fill="none" xmlns="http://www.w3.org/2000/svg"><path d="M11.180 1.025 C 9.055 1.202,7.104 1.936,5.400 3.203 C 4.732 3.700,3.700 4.732,3.203 5.400 C 2.061 6.936,1.379 8.599,1.093 10.540 C 0.995 11.207,0.996 12.784,1.094 13.460 C 1.443 15.856,2.447 17.928,4.073 19.608 C 4.711 20.267,5.190 20.668,5.900 21.141 C 7.330 22.093,8.800 22.652,10.540 22.906 C 11.211 23.004,12.789 23.004,13.460 22.906 C 15.403 22.623,17.084 21.929,18.637 20.770 C 19.246 20.316,20.316 19.246,20.770 18.637 C 21.929 17.084,22.623 15.403,22.906 13.460 C 22.958 13.105,22.976 12.724,22.976 12.000 C 22.976 11.276,22.958 10.895,22.906 10.540 C 22.623 8.597,21.929 6.916,20.770 5.363 C 20.314 4.752,19.246 3.684,18.633 3.226 C 17.110 2.090,15.457 1.398,13.600 1.118 C 13.074 1.039,11.667 0.985,11.180 1.025 M12.340 6.066 C 12.455 6.105,12.603 6.201,12.701 6.299 C 13.013 6.610,13.000 6.456,13.000 10.000 C 13.000 13.544,13.013 13.390,12.701 13.701 C 12.521 13.881,12.242 14.000,12.000 14.000 C 11.758 14.000,11.479 13.881,11.299 13.701 C 10.987 13.390,11.000 13.544,11.000 10.000 C 11.000 6.455,10.987 6.611,11.300 6.298 C 11.577 6.020,11.957 5.936,12.340 6.066 M12.391 15.582 C 12.580 15.661,12.783 15.855,12.892 16.060 C 13.012 16.287,13.039 17.021,12.939 17.323 C 12.811 17.707,12.405 18.000,12.000 18.000 C 11.595 18.000,11.189 17.707,11.061 17.323 C 10.961 17.021,10.988 16.287,11.108 16.060 C 11.214 15.859,11.418 15.662,11.600 15.584 C 11.783 15.504,12.203 15.503,12.391 15.582 " stroke="none" fill-rule="evenodd"></path></svg>