<svg width="24" height="24" viewBox="0 0 24 24" fill="none" xmlns="http://www.w3.org/2000/svg"><path d="M11.180 1.025 C 9.055 1.202,7.104 1.936,5.400 3.203 C 4.732 3.700,3.700 4.732,3.203 5.400 C 2.061 6.936,1.379 8.599,1.093 10.540 C 0.995 11.207,0.996 12.784,1.094 13.460 C 1.443 15.856,2.447 17.928,4.073 19.608 C 4.711 20.267,5.190 20.668,5.900 21.141 C 7.330 22.093,8.800 22.652,10.540 22.906 C 11.211 23.004,12.789 23.004,13.460 22.906 C 15.403 22.623,17.084 21.929,18.637 20.770 C 19.246 20.316,20.316 19.246,20.770 18.637 C 21.929 17.084,22.623 15.403,22.906 13.460 C 22.958 13.105,22.976 12.724,22.976 12.000 C 22.976 11.276,22.958 10.895,22.906 10.540 C 22.623 8.597,21.929 6.916,20.770 5.363 C 20.314 4.752,19.246 3.684,18.633 3.226 C 17.110 2.090,15.457 1.398,13.600 1.118 C 13.074 1.039,11.667 0.985,11.180 1.025 M12.391 8.581 C 12.580 8.659,16.764 12.824,16.891 13.060 C 17.012 13.283,17.012 13.716,16.892 13.940 C 16.783 14.146,16.580 14.339,16.391 14.418 C 16.201 14.497,15.800 14.498,15.609 14.419 C 15.507 14.377,14.914 13.812,13.730 12.629 L 12.000 10.900 10.270 12.629 C 9.086 13.812,8.493 14.377,8.391 14.419 C 8.200 14.498,7.799 14.497,7.609 14.418 C 7.420 14.339,7.217 14.146,7.108 13.940 C 6.988 13.716,6.988 13.283,7.109 13.060 C 7.228 12.837,11.418 8.661,11.600 8.583 C 11.783 8.505,12.203 8.504,12.391 8.581 " stroke="none" fill-rule="evenodd"></path></svg>