<svg width="24" height="24" viewBox="0 0 24 24" fill="none" xmlns="http://www.w3.org/2000/svg"><path d="M11.180 1.025 C 9.055 1.202,7.104 1.936,5.400 3.203 C 4.732 3.700,3.700 4.732,3.203 5.400 C 2.061 6.937,1.376 8.606,1.094 10.540 C 1.042 10.895,1.024 11.276,1.024 12.000 C 1.024 12.724,1.042 13.105,1.094 13.460 C 1.444 15.858,2.447 17.928,4.073 19.608 C 4.711 20.267,5.190 20.668,5.900 21.141 C 7.330 22.093,8.800 22.652,10.540 22.906 C 11.211 23.004,12.789 23.004,13.460 22.906 C 15.403 22.623,17.084 21.929,18.637 20.770 C 19.246 20.316,20.316 19.246,20.770 18.637 C 21.929 17.084,22.623 15.403,22.906 13.460 C 22.958 13.105,22.976 12.724,22.976 12.000 C 22.976 11.276,22.958 10.895,22.906 10.540 C 22.623 8.597,21.929 6.916,20.770 5.363 C 20.314 4.752,19.246 3.684,18.633 3.226 C 17.110 2.090,15.457 1.398,13.600 1.118 C 13.074 1.039,11.667 0.985,11.180 1.025 M13.542 8.075 C 13.739 8.165,13.903 8.352,13.958 8.551 C 14.015 8.756,14.015 15.244,13.958 15.449 C 13.840 15.873,13.327 16.119,12.958 15.928 C 12.807 15.850,8.399 12.724,8.245 12.585 C 7.930 12.304,7.930 11.696,8.245 11.415 C 8.399 11.276,12.807 8.150,12.958 8.072 C 13.134 7.981,13.336 7.982,13.542 8.075 " stroke="none" fill-rule="evenodd"></path></svg>