<svg width="24" height="24" viewBox="0 0 24 24" fill="none" xmlns="http://www.w3.org/2000/svg"><path d="M11.180 1.025 C 9.055 1.202,7.104 1.936,5.400 3.203 C 4.732 3.700,3.700 4.732,3.203 5.400 C 2.061 6.936,1.379 8.599,1.093 10.540 C 0.995 11.207,0.996 12.784,1.094 13.460 C 1.443 15.856,2.447 17.928,4.073 19.608 C 4.711 20.267,5.190 20.668,5.900 21.141 C 7.330 22.093,8.800 22.652,10.540 22.906 C 11.211 23.004,12.789 23.004,13.460 22.906 C 15.403 22.623,17.084 21.929,18.637 20.770 C 19.246 20.316,20.316 19.246,20.770 18.637 C 21.929 17.084,22.623 15.403,22.906 13.460 C 22.958 13.105,22.976 12.724,22.976 12.000 C 22.976 11.276,22.958 10.895,22.906 10.540 C 22.623 8.597,21.929 6.916,20.770 5.363 C 20.314 4.752,19.246 3.684,18.633 3.226 C 17.110 2.090,15.457 1.398,13.600 1.118 C 13.074 1.039,11.667 0.985,11.180 1.025 M15.449 10.042 C 15.873 10.160,16.119 10.672,15.929 11.042 C 15.810 11.274,12.685 15.651,12.541 15.788 C 12.381 15.940,12.125 16.017,11.890 15.985 C 11.652 15.952,11.509 15.869,11.349 15.671 C 11.113 15.378,8.146 11.188,8.071 11.042 C 7.888 10.685,8.101 10.203,8.506 10.058 C 8.632 10.014,9.272 10.003,11.980 10.002 C 14.146 10.001,15.352 10.015,15.449 10.042 " stroke="none" fill-rule="evenodd"></path></svg>