<svg width="24" height="24" viewBox="0 0 24 24" fill="none" xmlns="http://www.w3.org/2000/svg"><path d="M11.180 1.025 C 9.055 1.202,7.104 1.936,5.400 3.203 C 4.732 3.700,3.700 4.732,3.203 5.400 C 2.061 6.936,1.379 8.599,1.093 10.540 C 0.995 11.207,0.996 12.784,1.094 13.460 C 1.443 15.856,2.447 17.928,4.073 19.608 C 4.711 20.267,5.190 20.668,5.900 21.141 C 7.330 22.093,8.800 22.652,10.540 22.906 C 11.211 23.004,12.789 23.004,13.460 22.906 C 15.403 22.623,17.084 21.929,18.637 20.770 C 19.246 20.316,20.316 19.246,20.770 18.637 C 21.929 17.084,22.623 15.403,22.906 13.460 C 22.958 13.105,22.976 12.724,22.976 12.000 C 22.976 11.276,22.958 10.895,22.906 10.540 C 22.623 8.597,21.929 6.916,20.770 5.363 C 20.314 4.752,19.246 3.684,18.633 3.226 C 17.110 2.090,15.457 1.398,13.600 1.118 C 13.074 1.039,11.667 0.985,11.180 1.025 M12.340 7.066 C 12.593 7.153,12.847 7.407,12.934 7.660 C 12.991 7.828,13.000 8.068,13.000 9.427 L 13.000 11.000 14.573 11.000 C 16.362 11.000,16.409 11.006,16.701 11.299 C 17.092 11.690,17.092 12.310,16.701 12.701 C 16.409 12.994,16.362 13.000,14.573 13.000 L 13.000 13.000 13.000 14.573 C 13.000 16.362,12.994 16.409,12.701 16.701 C 12.310 17.092,11.690 17.092,11.299 16.701 C 11.006 16.409,11.000 16.362,11.000 14.573 L 11.000 13.000 9.427 13.000 C 7.638 13.000,7.591 12.994,7.299 12.701 C 6.908 12.310,6.908 11.690,7.299 11.299 C 7.591 11.006,7.638 11.000,9.427 11.000 L 11.000 11.000 11.000 9.427 C 11.000 7.637,11.006 7.592,11.300 7.298 C 11.577 7.020,11.957 6.936,12.340 7.066 " stroke="none" fill-rule="evenodd"></path></svg>