<svg width="24" height="24" viewBox="0 0 24 24" fill="none" xmlns="http://www.w3.org/2000/svg"><path d="M11.160 1.025 C 9.301 1.200,7.615 1.759,6.148 2.687 C 4.822 3.527,3.527 4.822,2.687 6.148 C 1.869 7.442,1.330 8.925,1.093 10.540 C 1.041 10.896,1.023 11.273,1.023 12.000 C 1.023 12.727,1.041 13.104,1.093 13.460 C 1.459 15.949,2.477 17.997,4.219 19.742 C 4.905 20.431,5.272 20.733,6.000 21.211 C 7.357 22.102,8.852 22.660,10.540 22.906 C 11.211 23.004,12.789 23.004,13.460 22.906 C 15.405 22.623,17.091 21.926,18.637 20.770 C 19.170 20.370,20.252 19.310,20.646 18.800 C 21.874 17.211,22.614 15.461,22.906 13.460 C 22.958 13.105,22.976 12.724,22.976 12.000 C 22.976 11.276,22.958 10.895,22.906 10.540 C 22.614 8.540,21.878 6.798,20.647 5.200 C 20.259 4.697,19.173 3.633,18.637 3.231 C 17.124 2.097,15.456 1.398,13.600 1.118 C 13.075 1.039,11.609 0.983,11.160 1.025 M12.863 3.043 C 15.975 3.345,18.701 5.239,20.083 8.060 C 22.266 12.512,20.412 17.891,15.940 20.083 C 11.490 22.265,6.104 20.409,3.917 15.940 C 2.386 12.813,2.802 9.097,4.987 6.369 C 6.873 4.015,9.866 2.751,12.863 3.043 M15.641 8.565 C 15.587 8.586,15.482 8.650,15.408 8.707 C 15.334 8.763,14.327 9.946,13.171 11.335 C 12.015 12.724,11.036 13.896,10.994 13.939 C 10.920 14.018,10.906 14.005,9.730 12.831 C 8.936 12.038,8.490 11.622,8.391 11.581 C 8.207 11.505,7.801 11.502,7.626 11.575 C 7.437 11.654,7.209 11.866,7.109 12.056 C 6.988 12.285,6.988 12.716,7.108 12.940 C 7.234 13.173,10.420 16.340,10.609 16.418 C 10.814 16.504,11.221 16.497,11.420 16.404 C 11.508 16.363,11.646 16.260,11.727 16.175 C 12.068 15.814,16.814 10.086,16.892 9.940 C 17.012 9.717,17.012 9.284,16.892 9.060 C 16.783 8.854,16.580 8.661,16.391 8.582 C 16.226 8.513,15.795 8.503,15.641 8.565 " stroke="none" fill-rule="evenodd" fill="black"></path></svg>