<svg width="24" height="24" viewBox="0 0 24 24" fill="none" xmlns="http://www.w3.org/2000/svg"><path d="M11.180 1.025 C 9.055 1.202,7.104 1.936,5.400 3.203 C 4.732 3.700,3.700 4.732,3.203 5.400 C 2.061 6.936,1.379 8.599,1.093 10.540 C 0.995 11.207,0.996 12.784,1.094 13.460 C 1.443 15.856,2.447 17.928,4.073 19.608 C 4.711 20.267,5.190 20.668,5.900 21.141 C 7.330 22.093,8.800 22.652,10.540 22.906 C 11.211 23.004,12.789 23.004,13.460 22.906 C 15.403 22.623,17.084 21.929,18.637 20.770 C 19.246 20.316,20.316 19.246,20.770 18.637 C 21.929 17.084,22.623 15.403,22.906 13.460 C 22.958 13.105,22.976 12.724,22.976 12.000 C 22.976 11.276,22.958 10.895,22.906 10.540 C 22.623 8.597,21.929 6.916,20.770 5.363 C 20.314 4.752,19.246 3.684,18.633 3.226 C 17.110 2.090,15.457 1.398,13.600 1.118 C 13.074 1.039,11.667 0.985,11.180 1.025 M8.391 9.581 C 8.493 9.623,9.086 10.188,10.270 11.371 L 12.000 13.100 13.730 11.371 C 14.914 10.188,15.507 9.623,15.609 9.581 C 15.800 9.502,16.201 9.503,16.391 9.582 C 16.580 9.661,16.783 9.854,16.892 10.060 C 17.012 10.284,17.012 10.717,16.891 10.940 C 16.764 11.176,12.580 15.341,12.391 15.419 C 12.200 15.497,11.800 15.497,11.609 15.419 C 11.420 15.341,7.236 11.176,7.109 10.940 C 6.988 10.717,6.988 10.284,7.108 10.060 C 7.215 9.859,7.418 9.662,7.600 9.584 C 7.783 9.505,8.203 9.504,8.391 9.581 " stroke="none" fill-rule="evenodd"></path></svg>