<svg width="24" height="24" viewBox="0 0 24 24" fill="none" xmlns="http://www.w3.org/2000/svg"><path d="M11.180 1.025 C 9.055 1.202,7.104 1.936,5.400 3.203 C 4.732 3.700,3.700 4.732,3.203 5.400 C 2.061 6.936,1.379 8.599,1.093 10.540 C 0.995 11.207,0.996 12.784,1.094 13.460 C 1.443 15.856,2.447 17.928,4.073 19.608 C 4.711 20.267,5.190 20.668,5.900 21.141 C 7.330 22.093,8.800 22.652,10.540 22.906 C 11.211 23.004,12.789 23.004,13.460 22.906 C 15.403 22.623,17.084 21.929,18.637 20.770 C 19.246 20.316,20.316 19.246,20.770 18.637 C 21.929 17.084,22.623 15.403,22.906 13.460 C 22.958 13.105,22.976 12.724,22.976 12.000 C 22.976 11.276,22.958 10.895,22.906 10.540 C 22.623 8.597,21.929 6.916,20.770 5.363 C 20.314 4.752,19.246 3.684,18.633 3.226 C 17.110 2.090,15.457 1.398,13.600 1.118 C 13.074 1.039,11.667 0.985,11.180 1.025 M9.343 8.066 C 9.517 8.123,9.685 8.276,10.770 9.354 L 12.000 10.577 13.230 9.354 C 14.315 8.276,14.483 8.123,14.657 8.066 C 15.046 7.936,15.423 8.021,15.701 8.299 C 15.979 8.577,16.064 8.954,15.934 9.343 C 15.877 9.517,15.724 9.685,14.646 10.770 L 13.423 12.000 14.646 13.230 C 15.724 14.315,15.877 14.483,15.934 14.657 C 16.064 15.046,15.979 15.423,15.701 15.701 C 15.423 15.979,15.046 16.064,14.657 15.934 C 14.483 15.877,14.315 15.724,13.230 14.646 L 12.000 13.423 10.770 14.646 C 9.685 15.724,9.517 15.877,9.343 15.934 C 8.954 16.064,8.577 15.979,8.299 15.701 C 8.021 15.423,7.936 15.046,8.066 14.657 C 8.123 14.483,8.276 14.315,9.354 13.230 L 10.577 12.000 9.354 10.770 C 8.276 9.685,8.123 9.517,8.066 9.343 C 7.936 8.954,8.020 8.577,8.300 8.298 C 8.577 8.020,8.954 7.936,9.343 8.066 " stroke="none" fill-rule="evenodd"></path></svg>