<svg width="24" height="24" viewBox="0 0 24 24" fill="none" xmlns="http://www.w3.org/2000/svg"><path d="M11.180 1.025 C 9.055 1.202,7.104 1.936,5.400 3.203 C 4.732 3.700,3.700 4.732,3.203 5.400 C 2.061 6.936,1.379 8.599,1.093 10.540 C 0.995 11.207,0.996 12.784,1.094 13.460 C 1.443 15.856,2.447 17.928,4.073 19.608 C 4.711 20.267,5.190 20.668,5.900 21.141 C 7.330 22.093,8.800 22.652,10.540 22.906 C 11.211 23.004,12.789 23.004,13.460 22.906 C 15.403 22.623,17.084 21.929,18.637 20.770 C 19.246 20.316,20.316 19.246,20.770 18.637 C 21.929 17.084,22.623 15.403,22.906 13.460 C 22.958 13.105,22.976 12.724,22.976 12.000 C 22.976 11.276,22.958 10.895,22.906 10.540 C 22.623 8.597,21.929 6.916,20.770 5.363 C 20.314 4.752,19.246 3.684,18.633 3.226 C 17.110 2.090,15.457 1.398,13.600 1.118 C 13.074 1.039,11.667 0.985,11.180 1.025 M12.343 8.076 C 12.433 8.117,12.570 8.229,12.647 8.325 C 12.887 8.623,15.854 12.812,15.929 12.958 C 16.121 13.332,15.871 13.844,15.441 13.960 C 15.336 13.988,14.172 13.998,11.910 13.991 L 8.534 13.980 8.365 13.868 C 8.091 13.687,7.961 13.401,8.017 13.102 C 8.035 13.008,8.573 12.217,9.685 10.652 C 10.589 9.380,11.366 8.297,11.414 8.245 C 11.624 8.013,12.038 7.937,12.343 8.076 " stroke="none" fill-rule="evenodd"></path></svg>