<svg width="24" height="24" viewBox="0 0 24 24" fill="none" xmlns="http://www.w3.org/2000/svg"><path d="M11.160 1.025 C 9.301 1.200,7.615 1.759,6.148 2.687 C 4.822 3.527,3.527 4.822,2.687 6.148 C 1.869 7.442,1.330 8.925,1.093 10.540 C 1.041 10.896,1.023 11.273,1.023 12.000 C 1.023 12.727,1.041 13.104,1.093 13.460 C 1.459 15.949,2.477 17.997,4.219 19.742 C 4.905 20.431,5.272 20.733,6.000 21.211 C 7.357 22.102,8.852 22.660,10.540 22.906 C 11.211 23.004,12.789 23.004,13.460 22.906 C 15.405 22.623,17.091 21.926,18.637 20.770 C 19.170 20.370,20.252 19.310,20.646 18.800 C 21.874 17.211,22.614 15.461,22.906 13.460 C 22.958 13.105,22.976 12.724,22.976 12.000 C 22.976 11.276,22.958 10.895,22.906 10.540 C 22.614 8.540,21.878 6.798,20.647 5.200 C 20.259 4.697,19.173 3.633,18.637 3.231 C 17.124 2.097,15.456 1.398,13.600 1.118 C 13.075 1.039,11.609 0.983,11.160 1.025 M12.863 3.043 C 15.975 3.345,18.701 5.239,20.083 8.060 C 22.266 12.512,20.412 17.891,15.940 20.083 C 11.490 22.265,6.104 20.409,3.917 15.940 C 2.386 12.813,2.802 9.097,4.987 6.369 C 6.873 4.015,9.866 2.751,12.863 3.043 M11.668 7.061 C 11.585 7.092,11.462 7.156,11.395 7.204 C 11.250 7.307,7.141 13.450,7.056 13.690 C 6.935 14.036,7.030 14.432,7.299 14.701 C 7.616 15.018,7.337 15.000,12.000 15.000 C 16.663 15.000,16.384 15.018,16.701 14.701 C 16.970 14.432,17.065 14.036,16.944 13.690 C 16.859 13.452,12.750 7.307,12.606 7.204 C 12.330 7.008,11.965 6.952,11.668 7.061 M13.080 11.420 L 14.120 12.980 13.060 12.991 C 12.477 12.997,11.523 12.997,10.940 12.991 L 9.880 12.980 10.927 11.409 C 11.503 10.545,11.989 9.843,12.007 9.849 C 12.025 9.855,12.508 10.562,13.080 11.420 " stroke="none" fill-rule="evenodd" fill="black"></path></svg>