<svg width="24" height="24" viewBox="0 0 24 24" fill="none" xmlns="http://www.w3.org/2000/svg"><path d="M11.180 1.025 C 9.055 1.202,7.104 1.936,5.400 3.203 C 4.732 3.700,3.700 4.732,3.203 5.400 C 2.061 6.936,1.379 8.599,1.093 10.540 C 0.995 11.207,0.996 12.784,1.094 13.460 C 1.443 15.856,2.447 17.928,4.073 19.608 C 4.711 20.267,5.190 20.668,5.900 21.141 C 7.330 22.093,8.800 22.652,10.540 22.906 C 11.211 23.004,12.789 23.004,13.460 22.906 C 15.403 22.623,17.084 21.929,18.637 20.770 C 19.246 20.316,20.316 19.246,20.770 18.637 C 21.929 17.084,22.623 15.403,22.906 13.460 C 22.958 13.105,22.976 12.724,22.976 12.000 C 22.976 11.276,22.958 10.895,22.906 10.540 C 22.623 8.597,21.929 6.916,20.770 5.363 C 20.314 4.752,19.246 3.684,18.633 3.226 C 17.110 2.090,15.457 1.398,13.600 1.118 C 13.074 1.039,11.667 0.985,11.180 1.025 M10.943 7.113 C 11.173 7.233,15.340 11.418,15.419 11.609 C 15.452 11.691,15.480 11.867,15.480 12.000 C 15.480 12.133,15.452 12.309,15.419 12.391 C 15.341 12.580,11.176 16.764,10.940 16.891 C 10.717 17.012,10.284 17.012,10.060 16.892 C 9.854 16.783,9.661 16.580,9.582 16.391 C 9.503 16.201,9.502 15.800,9.581 15.609 C 9.623 15.507,10.188 14.914,11.371 13.730 L 13.100 12.000 11.371 10.270 C 10.188 9.086,9.623 8.493,9.581 8.391 C 9.502 8.200,9.503 7.799,9.582 7.609 C 9.688 7.355,9.943 7.132,10.240 7.035 C 10.399 6.983,10.772 7.024,10.943 7.113 " stroke="none" fill-rule="evenodd"></path></svg>