<svg width="24" height="24" viewBox="0 0 24 24" fill="none" xmlns="http://www.w3.org/2000/svg"><path d="M11.160 1.025 C 9.301 1.200,7.615 1.759,6.148 2.687 C 4.822 3.527,3.527 4.822,2.687 6.148 C 1.869 7.442,1.330 8.925,1.093 10.540 C 1.041 10.896,1.023 11.273,1.023 12.000 C 1.023 12.727,1.041 13.104,1.093 13.460 C 1.459 15.949,2.477 17.997,4.219 19.742 C 4.905 20.431,5.272 20.733,6.000 21.211 C 7.357 22.102,8.852 22.660,10.540 22.906 C 11.211 23.004,12.789 23.004,13.460 22.906 C 15.405 22.623,17.091 21.926,18.637 20.770 C 19.170 20.370,20.252 19.310,20.646 18.800 C 21.874 17.211,22.614 15.461,22.906 13.460 C 22.958 13.105,22.976 12.724,22.976 12.000 C 22.976 11.276,22.958 10.895,22.906 10.540 C 22.614 8.540,21.878 6.798,20.647 5.200 C 20.259 4.697,19.173 3.633,18.637 3.231 C 17.124 2.097,15.456 1.398,13.600 1.118 C 13.075 1.039,11.609 0.983,11.160 1.025 M12.863 3.043 C 15.975 3.345,18.701 5.239,20.083 8.060 C 22.266 12.512,20.412 17.891,15.940 20.083 C 11.490 22.265,6.104 20.409,3.917 15.940 C 2.386 12.813,2.802 9.097,4.987 6.369 C 6.873 4.015,9.866 2.751,12.863 3.043 M10.240 7.035 C 9.943 7.132,9.688 7.355,9.582 7.609 C 9.503 7.799,9.502 8.200,9.581 8.391 C 9.623 8.493,10.188 9.086,11.371 10.270 L 13.100 12.000 11.371 13.730 C 10.188 14.914,9.623 15.507,9.581 15.609 C 9.502 15.800,9.503 16.201,9.582 16.391 C 9.661 16.580,9.854 16.783,10.060 16.892 C 10.284 17.012,10.717 17.012,10.940 16.891 C 11.176 16.764,15.341 12.580,15.419 12.391 C 15.452 12.309,15.480 12.133,15.480 12.000 C 15.480 11.867,15.452 11.691,15.419 11.609 C 15.340 11.418,11.173 7.233,10.943 7.113 C 10.772 7.024,10.399 6.983,10.240 7.035 " stroke="none" fill-rule="evenodd" fill="black"></path></svg>