<svg width="24" height="24" viewBox="0 0 24 24" fill="none" xmlns="http://www.w3.org/2000/svg"><path d="M11.180 1.025 C 9.055 1.202,7.104 1.936,5.400 3.203 C 4.732 3.700,3.700 4.732,3.203 5.400 C 2.061 6.936,1.379 8.599,1.093 10.540 C 0.995 11.207,0.996 12.784,1.094 13.460 C 1.443 15.856,2.447 17.928,4.073 19.608 C 4.711 20.267,5.190 20.668,5.900 21.141 C 7.330 22.093,8.800 22.652,10.540 22.906 C 11.211 23.004,12.789 23.004,13.460 22.906 C 15.403 22.623,17.084 21.929,18.637 20.770 C 19.246 20.316,20.316 19.246,20.770 18.637 C 21.929 17.084,22.623 15.403,22.906 13.460 C 22.958 13.105,22.976 12.724,22.976 12.000 C 22.976 11.276,22.958 10.895,22.906 10.540 C 22.623 8.597,21.929 6.916,20.770 5.363 C 20.314 4.752,19.246 3.684,18.633 3.226 C 17.110 2.090,15.457 1.398,13.600 1.118 C 13.074 1.039,11.667 0.985,11.180 1.025 M16.391 8.582 C 16.580 8.661,16.783 8.854,16.892 9.060 C 17.012 9.284,17.012 9.717,16.892 9.940 C 16.814 10.086,12.068 15.814,11.727 16.175 C 11.646 16.260,11.508 16.363,11.420 16.404 C 11.221 16.496,10.815 16.504,10.609 16.419 C 10.421 16.341,7.235 13.174,7.108 12.940 C 6.988 12.717,6.988 12.284,7.108 12.060 C 7.217 11.854,7.420 11.661,7.609 11.582 C 7.799 11.503,8.200 11.502,8.391 11.581 C 8.490 11.622,8.936 12.038,9.730 12.831 C 10.906 14.005,10.920 14.018,10.994 13.939 C 11.036 13.896,11.974 12.771,13.080 11.440 C 14.186 10.109,15.165 8.941,15.255 8.845 C 15.346 8.749,15.492 8.637,15.580 8.596 C 15.780 8.503,16.186 8.496,16.391 8.582 " stroke="none" fill-rule="evenodd"></path></svg>