<svg width="24" height="24" viewBox="0 0 24 24" fill="none" xmlns="http://www.w3.org/2000/svg"><path d="M11.160 1.025 C 9.301 1.200,7.615 1.759,6.148 2.687 C 4.822 3.527,3.527 4.822,2.687 6.148 C 1.869 7.442,1.330 8.925,1.093 10.540 C 1.041 10.896,1.023 11.273,1.023 12.000 C 1.023 12.727,1.041 13.104,1.093 13.460 C 1.459 15.949,2.477 17.997,4.219 19.742 C 4.905 20.431,5.272 20.733,6.000 21.211 C 7.357 22.102,8.852 22.660,10.540 22.906 C 11.211 23.004,12.789 23.004,13.460 22.906 C 15.405 22.623,17.091 21.926,18.637 20.770 C 19.170 20.370,20.252 19.310,20.646 18.800 C 21.874 17.211,22.614 15.461,22.906 13.460 C 22.958 13.105,22.976 12.724,22.976 12.000 C 22.976 11.276,22.958 10.895,22.906 10.540 C 22.614 8.540,21.878 6.798,20.647 5.200 C 20.259 4.697,19.173 3.633,18.637 3.231 C 17.124 2.097,15.456 1.398,13.600 1.118 C 13.075 1.039,11.609 0.983,11.160 1.025 M12.863 3.043 C 15.975 3.345,18.701 5.239,20.083 8.060 C 22.266 12.512,20.412 17.891,15.940 20.083 C 11.490 22.265,6.104 20.409,3.917 15.940 C 2.386 12.813,2.802 9.097,4.987 6.369 C 6.873 4.015,9.866 2.751,12.863 3.043 M8.643 8.069 C 8.291 8.193,8.000 8.614,8.000 9.000 C 8.000 9.080,8.030 9.234,8.066 9.343 C 8.123 9.517,8.276 9.685,9.354 10.770 L 10.577 12.000 9.354 13.230 C 8.276 14.315,8.123 14.483,8.066 14.657 C 7.936 15.046,8.021 15.423,8.299 15.701 C 8.577 15.979,8.954 16.064,9.343 15.934 C 9.517 15.877,9.685 15.724,10.770 14.646 L 12.000 13.423 13.230 14.646 C 14.315 15.724,14.483 15.877,14.657 15.934 C 15.046 16.064,15.423 15.979,15.701 15.701 C 15.979 15.423,16.064 15.046,15.934 14.657 C 15.877 14.483,15.724 14.315,14.646 13.230 L 13.423 12.000 14.646 10.770 C 15.724 9.685,15.877 9.517,15.934 9.343 C 16.064 8.954,15.979 8.577,15.701 8.299 C 15.423 8.021,15.046 7.936,14.657 8.066 C 14.483 8.123,14.315 8.276,13.230 9.354 L 12.000 10.577 10.770 9.354 C 9.685 8.276,9.517 8.123,9.343 8.066 C 9.102 7.985,8.877 7.986,8.643 8.069 " stroke="none" fill-rule="evenodd" fill="black"></path></svg>