<svg width="24" height="24" viewBox="0 0 24 24" fill="none" xmlns="http://www.w3.org/2000/svg"><path d="M11.160 1.025 C 9.301 1.200,7.615 1.759,6.148 2.687 C 4.822 3.527,3.527 4.822,2.687 6.148 C 1.869 7.442,1.330 8.925,1.093 10.540 C 1.041 10.896,1.023 11.273,1.023 12.000 C 1.023 12.727,1.041 13.104,1.093 13.460 C 1.459 15.949,2.477 17.997,4.219 19.742 C 4.905 20.431,5.272 20.733,6.000 21.211 C 7.357 22.102,8.852 22.660,10.540 22.906 C 11.211 23.004,12.789 23.004,13.460 22.906 C 15.405 22.623,17.091 21.926,18.637 20.770 C 19.170 20.370,20.252 19.310,20.646 18.800 C 21.874 17.211,22.614 15.461,22.906 13.460 C 22.958 13.105,22.976 12.724,22.976 12.000 C 22.976 11.276,22.958 10.895,22.906 10.540 C 22.614 8.540,21.878 6.798,20.647 5.200 C 20.259 4.697,19.173 3.633,18.637 3.231 C 17.124 2.097,15.456 1.398,13.600 1.118 C 13.075 1.039,11.609 0.983,11.160 1.025 M12.863 3.043 C 15.975 3.345,18.701 5.239,20.083 8.060 C 22.266 12.512,20.412 17.891,15.940 20.083 C 11.490 22.265,6.104 20.409,3.917 15.940 C 2.386 12.813,2.802 9.097,4.987 6.369 C 6.873 4.015,9.866 2.751,12.863 3.043 M7.643 11.069 C 7.291 11.193,7.000 11.614,7.000 12.000 C 7.000 12.242,7.119 12.521,7.299 12.701 C 7.616 13.018,7.337 13.000,12.000 13.000 C 16.663 13.000,16.384 13.018,16.701 12.701 C 17.092 12.310,17.092 11.690,16.701 11.299 C 16.384 10.982,16.666 11.000,11.983 11.003 C 8.320 11.006,7.799 11.014,7.643 11.069 " stroke="none" fill-rule="evenodd" fill="black"></path></svg>