<svg width="24" height="24" viewBox="0 0 24 24" fill="none" xmlns="http://www.w3.org/2000/svg"><path d="M9.640 2.057 C 8.173 2.270,6.959 2.876,5.918 3.918 C 4.802 5.033,4.183 6.348,4.032 7.922 L 3.984 8.424 3.754 8.536 C 3.103 8.853,2.261 9.589,1.868 10.185 C 1.273 11.088,1.021 11.927,1.021 13.000 C 1.021 14.074,1.273 14.907,1.872 15.820 C 2.109 16.180,2.820 16.891,3.180 17.128 C 3.553 17.373,4.034 17.612,4.401 17.734 C 4.985 17.929,5.253 17.967,6.206 17.988 C 7.268 18.013,7.418 17.984,7.700 17.702 C 8.092 17.310,8.093 16.691,7.701 16.299 C 7.442 16.040,7.272 16.000,6.431 16.000 C 5.935 16.000,5.623 15.981,5.408 15.936 C 3.556 15.555,2.508 13.579,3.235 11.839 C 3.431 11.373,3.816 10.883,4.218 10.592 L 4.376 10.477 4.483 10.709 C 4.731 11.247,5.038 11.480,5.498 11.480 C 6.265 11.478,6.706 10.737,6.366 10.020 C 5.948 9.134,5.891 8.262,6.186 7.245 C 6.677 5.549,8.140 4.287,9.897 4.043 C 11.272 3.852,12.695 4.336,13.684 5.331 C 13.982 5.631,14.480 6.312,14.480 6.420 C 14.480 6.445,14.384 6.496,14.266 6.533 C 13.950 6.632,13.747 6.797,13.620 7.057 C 13.526 7.249,13.513 7.317,13.526 7.554 C 13.557 8.086,13.911 8.444,14.435 8.472 C 14.657 8.484,14.820 8.453,15.434 8.285 C 16.340 8.036,16.695 7.982,17.217 8.012 C 18.994 8.116,20.449 9.332,20.891 11.080 C 20.959 11.350,20.977 11.539,20.977 12.000 C 20.977 12.461,20.959 12.650,20.891 12.920 C 20.635 13.932,20.034 14.787,19.191 15.336 C 18.584 15.732,17.954 15.941,17.240 15.984 C 16.734 16.015,16.507 16.090,16.300 16.298 C 15.907 16.691,15.907 17.309,16.300 17.702 C 16.550 17.952,16.786 18.018,17.326 17.987 C 19.448 17.865,21.341 16.641,22.316 14.759 C 22.589 14.234,22.756 13.765,22.885 13.160 C 22.960 12.810,22.975 12.616,22.975 12.000 C 22.975 11.384,22.960 11.190,22.885 10.840 C 22.491 9.002,21.377 7.519,19.761 6.684 C 18.902 6.240,18.172 6.053,17.140 6.013 L 16.500 5.988 16.331 5.637 C 15.817 4.573,14.858 3.532,13.812 2.905 C 13.232 2.557,12.454 2.262,11.740 2.119 C 11.210 2.013,10.163 1.982,9.640 2.057 M11.643 12.069 C 11.546 12.103,11.392 12.206,11.300 12.298 C 10.985 12.613,11.000 12.409,11.000 16.388 L 11.000 19.922 10.530 19.546 C 9.920 19.058,9.849 19.022,9.500 19.022 C 9.181 19.022,8.985 19.105,8.772 19.326 C 8.594 19.512,8.520 19.714,8.521 20.009 C 8.522 20.306,8.611 20.524,8.805 20.707 C 8.879 20.777,9.516 21.294,10.219 21.856 C 11.525 22.900,11.681 23.000,12.000 23.000 C 12.319 23.000,12.475 22.900,13.781 21.856 C 14.484 21.294,15.121 20.777,15.195 20.707 C 15.389 20.524,15.478 20.306,15.479 20.009 C 15.480 19.714,15.406 19.512,15.228 19.326 C 15.015 19.105,14.819 19.022,14.500 19.022 C 14.151 19.022,14.080 19.058,13.470 19.546 L 13.000 19.922 13.000 16.388 C 13.000 12.410,13.015 12.613,12.701 12.299 C 12.424 12.021,12.024 11.934,11.643 12.069 " stroke="none" fill-rule="evenodd" fill="black"></path></svg>