<svg width="24" height="24" viewBox="0 0 24 24" fill="none" xmlns="http://www.w3.org/2000/svg"><path d="M9.640 2.057 C 8.173 2.270,6.959 2.876,5.918 3.918 C 4.802 5.033,4.183 6.348,4.032 7.922 L 3.984 8.424 3.754 8.536 C 3.103 8.853,2.261 9.589,1.868 10.185 C 1.273 11.088,1.021 11.927,1.021 13.000 C 1.021 14.074,1.273 14.907,1.872 15.820 C 2.109 16.180,2.820 16.891,3.180 17.128 C 3.553 17.373,4.034 17.612,4.401 17.734 C 4.985 17.929,5.253 17.967,6.206 17.988 C 7.268 18.013,7.418 17.984,7.700 17.702 C 8.092 17.310,8.093 16.691,7.701 16.299 C 7.442 16.040,7.272 16.000,6.431 16.000 C 5.935 16.000,5.623 15.981,5.408 15.936 C 3.556 15.555,2.508 13.579,3.235 11.839 C 3.431 11.373,3.816 10.883,4.218 10.592 L 4.376 10.477 4.483 10.709 C 4.731 11.247,5.038 11.480,5.498 11.480 C 6.265 11.478,6.706 10.737,6.366 10.020 C 5.948 9.134,5.891 8.262,6.186 7.245 C 6.677 5.549,8.140 4.287,9.897 4.043 C 11.272 3.852,12.695 4.336,13.684 5.331 C 13.982 5.631,14.480 6.312,14.480 6.420 C 14.480 6.445,14.384 6.496,14.266 6.533 C 13.950 6.632,13.747 6.797,13.620 7.057 C 13.526 7.249,13.513 7.317,13.526 7.554 C 13.557 8.086,13.911 8.444,14.435 8.472 C 14.657 8.484,14.820 8.453,15.434 8.285 C 16.340 8.036,16.695 7.982,17.217 8.012 C 18.994 8.116,20.449 9.332,20.891 11.080 C 20.959 11.350,20.977 11.539,20.977 12.000 C 20.977 12.461,20.959 12.650,20.891 12.920 C 20.635 13.932,20.034 14.787,19.191 15.336 C 18.584 15.732,17.954 15.941,17.240 15.984 C 16.734 16.015,16.507 16.090,16.300 16.298 C 15.907 16.691,15.907 17.309,16.300 17.702 C 16.550 17.952,16.786 18.018,17.326 17.987 C 19.448 17.865,21.341 16.641,22.316 14.759 C 22.589 14.234,22.756 13.765,22.885 13.160 C 22.960 12.810,22.975 12.616,22.975 12.000 C 22.975 11.384,22.960 11.190,22.885 10.840 C 22.491 9.002,21.377 7.519,19.761 6.684 C 18.902 6.240,18.172 6.053,17.140 6.013 L 16.500 5.988 16.331 5.637 C 15.817 4.573,14.858 3.532,13.812 2.905 C 13.232 2.557,12.454 2.262,11.740 2.119 C 11.210 2.013,10.163 1.982,9.640 2.057 M11.660 11.063 C 11.518 11.114,9.181 12.939,8.805 13.293 C 8.611 13.476,8.522 13.694,8.521 13.991 C 8.520 14.286,8.594 14.488,8.772 14.674 C 8.985 14.895,9.181 14.978,9.500 14.978 C 9.849 14.978,9.920 14.942,10.530 14.454 L 11.000 14.078 11.000 17.612 C 11.000 21.590,10.985 21.387,11.299 21.701 C 11.690 22.092,12.310 22.092,12.701 21.701 C 13.015 21.387,13.000 21.590,13.000 17.612 L 13.000 14.078 13.470 14.454 C 14.080 14.942,14.151 14.978,14.500 14.978 C 14.819 14.978,15.015 14.895,15.228 14.674 C 15.406 14.488,15.480 14.286,15.479 13.991 C 15.478 13.694,15.389 13.476,15.195 13.293 C 15.121 13.223,14.484 12.706,13.781 12.144 C 12.906 11.445,12.445 11.102,12.323 11.061 C 12.107 10.987,11.873 10.988,11.660 11.063 " stroke="none" fill-rule="evenodd" fill="black"></path></svg>