<svg width="24" height="24" viewBox="0 0 24 24" fill="none" xmlns="http://www.w3.org/2000/svg"><path d="M9.640 4.057 C 8.173 4.270,6.959 4.876,5.918 5.918 C 4.802 7.033,4.183 8.348,4.032 9.922 L 3.984 10.424 3.754 10.536 C 3.103 10.853,2.261 11.589,1.868 12.185 C 1.273 13.088,1.021 13.927,1.021 15.000 C 1.021 15.446,1.041 15.715,1.093 15.960 C 1.313 16.995,1.741 17.786,2.478 18.521 C 3.221 19.262,4.004 19.685,5.040 19.907 C 5.361 19.976,5.734 19.980,11.560 19.980 L 17.740 19.980 18.160 19.888 C 18.772 19.753,19.237 19.587,19.761 19.316 C 21.375 18.482,22.492 16.996,22.885 15.160 C 22.960 14.810,22.975 14.616,22.975 14.000 C 22.975 13.384,22.960 13.190,22.885 12.840 C 22.491 11.002,21.377 9.519,19.761 8.684 C 18.902 8.240,18.172 8.053,17.140 8.013 L 16.500 7.988 16.331 7.637 C 15.817 6.573,14.858 5.532,13.812 4.905 C 13.232 4.557,12.454 4.262,11.740 4.119 C 11.210 4.013,10.163 3.982,9.640 4.057 M11.103 6.043 C 12.073 6.178,12.996 6.638,13.684 7.331 C 13.982 7.631,14.480 8.312,14.480 8.420 C 14.480 8.445,14.384 8.496,14.266 8.533 C 13.950 8.632,13.747 8.797,13.620 9.057 C 13.526 9.249,13.513 9.317,13.526 9.554 C 13.557 10.086,13.911 10.444,14.435 10.472 C 14.657 10.484,14.820 10.453,15.434 10.285 C 16.340 10.036,16.695 9.982,17.217 10.012 C 18.222 10.071,19.113 10.470,19.821 11.179 C 20.633 11.990,21.045 13.053,20.986 14.180 C 20.892 15.975,19.713 17.412,17.940 17.892 L 17.620 17.978 11.680 17.990 C 6.355 18.001,5.707 17.996,5.420 17.938 C 3.792 17.612,2.732 16.024,3.063 14.408 C 3.211 13.688,3.637 13.013,4.202 12.603 L 4.376 12.477 4.483 12.709 C 4.731 13.247,5.038 13.480,5.498 13.480 C 6.265 13.478,6.706 12.737,6.366 12.020 C 5.948 11.134,5.891 10.262,6.186 9.245 C 6.802 7.119,8.920 5.739,11.103 6.043 " stroke="none" fill-rule="evenodd" fill="black"></path></svg>