<svg width="24" height="24" viewBox="0 0 24 24" fill="none" xmlns="http://www.w3.org/2000/svg"><path d="M11.660 0.056 C 11.478 0.113,0.582 7.323,0.347 7.542 C 0.262 7.621,0.154 7.770,0.107 7.873 L 0.020 8.060 0.020 12.000 L 0.020 15.940 0.107 16.127 C 0.154 16.230,0.262 16.379,0.347 16.457 C 0.608 16.700,11.481 23.888,11.676 23.947 C 11.891 24.012,12.068 24.014,12.301 23.956 C 12.426 23.924,14.086 22.845,17.989 20.257 C 21.020 18.247,23.569 16.538,23.653 16.459 C 23.738 16.379,23.846 16.230,23.893 16.127 L 23.980 15.940 23.980 12.000 L 23.980 8.060 23.893 7.873 C 23.846 7.770,23.738 7.621,23.653 7.541 C 23.569 7.462,21.020 5.753,17.989 3.743 C 14.086 1.155,12.426 0.076,12.301 0.044 C 12.077 -0.012,11.863 -0.008,11.660 0.056 M10.870 5.510 L 10.860 7.740 10.100 8.254 C 9.682 8.536,8.723 9.182,7.969 9.689 L 6.598 10.611 4.899 9.479 C 3.311 8.421,3.205 8.344,3.281 8.291 C 3.667 8.020,10.827 3.281,10.850 3.281 C 10.867 3.280,10.876 4.284,10.870 5.510 M16.224 5.302 C 17.872 6.397,19.562 7.517,19.980 7.791 C 20.398 8.066,20.754 8.303,20.771 8.318 C 20.788 8.333,20.038 8.855,19.104 9.478 L 17.405 10.609 16.213 9.808 C 15.557 9.368,14.597 8.722,14.080 8.374 L 13.140 7.740 13.130 5.506 C 13.121 3.644,13.128 3.275,13.173 3.292 C 13.203 3.303,14.576 4.208,16.224 5.302 M13.677 10.840 C 14.580 11.445,15.318 11.951,15.319 11.964 C 15.321 12.001,12.065 14.160,12.007 14.160 C 11.947 14.160,8.679 12.004,8.682 11.965 C 8.684 11.930,11.973 9.722,12.008 9.732 C 12.024 9.736,12.775 10.235,13.677 10.840 M3.529 11.299 L 4.557 11.985 3.419 12.751 L 2.280 13.518 2.280 11.994 L 2.280 10.471 2.390 10.542 C 2.451 10.582,2.963 10.922,3.529 11.299 M21.720 11.996 L 21.720 13.511 20.581 12.749 L 19.441 11.986 20.571 11.233 C 21.192 10.819,21.704 10.480,21.710 10.480 C 21.716 10.480,21.720 11.162,21.720 11.996 M8.773 14.775 L 10.880 16.170 10.880 18.449 C 10.880 20.276,10.870 20.725,10.829 20.709 C 10.788 20.693,3.577 15.916,3.277 15.707 C 3.178 15.637,2.965 15.795,5.080 14.370 C 5.905 13.814,6.599 13.364,6.623 13.370 C 6.647 13.375,7.615 14.008,8.773 14.775 M19.108 14.490 C 20.037 15.111,20.797 15.631,20.798 15.645 C 20.799 15.658,20.607 15.796,20.370 15.950 C 20.133 16.104,18.430 17.233,16.585 18.459 C 14.739 19.684,13.205 20.696,13.175 20.708 C 13.129 20.725,13.120 20.358,13.120 18.452 L 13.120 16.175 15.230 14.771 C 16.390 13.999,17.358 13.366,17.380 13.364 C 17.402 13.362,18.180 13.868,19.108 14.490 " stroke="none" fill-rule="evenodd"></path></svg>