<svg width="24" height="24" viewBox="0 0 24 24" fill="none" xmlns="http://www.w3.org/2000/svg"><path d="M10.643 1.069 C 10.407 1.152,10.149 1.416,10.066 1.660 C 9.968 1.948,9.968 4.052,10.066 4.340 C 10.192 4.709,10.604 5.000,11.000 5.000 C 11.396 5.000,11.808 4.709,11.934 4.340 C 12.032 4.052,12.032 1.948,11.934 1.660 C 11.761 1.152,11.172 0.882,10.643 1.069 M6.643 2.069 C 6.546 2.103,6.392 2.206,6.300 2.298 C 5.997 2.601,6.000 2.572,6.000 5.000 C 6.000 7.427,5.997 7.399,6.299 7.701 C 6.690 8.092,7.310 8.092,7.701 7.701 C 8.003 7.399,8.000 7.427,8.000 5.000 C 8.000 2.573,8.003 2.601,7.701 2.299 C 7.424 2.021,7.024 1.934,6.643 2.069 M14.643 3.069 C 14.407 3.152,14.149 3.416,14.066 3.660 C 14.011 3.823,14.000 4.038,14.000 4.999 L 14.000 6.144 13.690 6.114 C 13.205 6.067,11.795 6.000,11.301 6.000 C 10.751 6.000,10.533 6.065,10.299 6.299 C 9.908 6.690,9.908 7.310,10.299 7.701 C 10.532 7.934,10.752 8.000,11.297 8.000 C 12.736 8.001,14.560 8.176,15.887 8.441 C 16.421 8.548,17.494 8.866,17.640 8.961 C 17.693 8.996,17.693 9.004,17.640 9.039 C 17.607 9.060,17.337 9.158,17.039 9.256 C 14.473 10.099,9.590 10.243,6.200 9.576 C 5.450 9.429,4.320 9.084,4.320 9.002 C 4.320 8.986,4.394 8.939,4.483 8.898 C 4.832 8.741,5.079 8.276,5.020 7.887 C 4.919 7.210,4.244 6.847,3.600 7.122 C 3.011 7.373,2.478 7.787,2.247 8.172 C 1.984 8.610,1.996 8.318,2.011 13.930 C 2.023 18.485,2.032 19.048,2.090 19.283 C 2.327 20.233,2.784 20.968,3.422 21.423 C 4.376 22.103,6.426 22.669,8.800 22.906 C 9.679 22.994,12.122 23.006,13.000 22.927 C 15.687 22.685,17.960 22.019,18.831 21.219 C 19.343 20.749,19.722 20.066,19.906 19.281 C 19.950 19.096,19.974 18.709,19.988 17.947 C 20.006 16.998,20.016 16.872,20.074 16.854 C 21.511 16.412,22.531 15.348,22.891 13.920 C 23.007 13.459,23.014 12.604,22.905 12.140 C 22.584 10.762,21.616 9.678,20.300 9.221 L 20.020 9.124 19.996 8.912 C 19.882 7.887,19.053 7.230,17.213 6.703 C 16.946 6.627,16.563 6.532,16.363 6.494 L 16.000 6.424 16.000 5.139 C 16.000 3.669,15.986 3.584,15.701 3.299 C 15.424 3.021,15.024 2.934,14.643 3.069 M5.192 11.402 C 6.803 11.796,8.612 11.976,10.980 11.978 C 13.220 11.979,14.815 11.837,16.399 11.497 C 16.897 11.391,17.810 11.139,17.928 11.076 C 17.997 11.039,18.000 11.185,18.000 14.813 C 18.000 16.983,17.984 18.673,17.963 18.786 C 17.857 19.343,17.578 19.750,17.168 19.944 C 14.749 21.089,9.849 21.342,6.460 20.496 C 5.933 20.365,5.206 20.120,4.872 19.963 C 4.419 19.749,4.147 19.365,4.037 18.786 C 4.016 18.673,4.000 16.985,4.000 14.819 L 4.000 11.049 4.342 11.163 C 4.531 11.226,4.913 11.333,5.192 11.402 M20.462 11.650 C 21.174 12.416,21.174 13.584,20.462 14.350 C 20.344 14.476,20.192 14.613,20.124 14.652 L 20.000 14.725 20.000 13.000 L 20.000 11.275 20.124 11.348 C 20.192 11.387,20.344 11.524,20.462 11.650 " stroke="none" fill-rule="evenodd" fill="black"></path></svg>