<svg width="24" height="24" viewBox="0 0 24 24" fill="none" xmlns="http://www.w3.org/2000/svg"><path d="M9.780 2.025 C 7.956 2.217,6.426 2.795,5.060 3.810 C 2.849 5.452,1.470 7.842,1.074 10.720 C 1.006 11.217,1.006 12.783,1.074 13.280 C 1.468 16.140,2.845 18.540,5.026 20.165 C 6.242 21.071,7.648 21.661,9.160 21.900 C 9.728 21.990,11.262 22.022,12.218 21.964 C 15.853 21.742,18.495 20.757,20.374 18.923 C 22.116 17.224,23.000 14.892,23.000 12.000 C 23.000 9.108,22.116 6.776,20.374 5.077 C 18.645 3.389,16.329 2.445,13.060 2.096 C 12.527 2.040,10.136 1.987,9.780 2.025 M11.232 4.043 C 12.100 4.138,12.824 4.349,13.620 4.739 C 14.725 5.280,15.632 6.037,16.380 7.043 C 18.212 9.504,18.510 12.903,17.140 15.700 C 16.221 17.576,14.613 19.013,12.740 19.632 C 8.471 21.044,4.012 18.210,3.141 13.530 C 2.763 11.503,3.167 9.326,4.242 7.594 C 5.768 5.133,8.504 3.743,11.232 4.043 M18.248 5.880 C 18.942 6.367,19.666 7.183,20.093 7.959 C 20.463 8.631,20.765 9.590,20.906 10.542 C 21.005 11.213,21.005 12.787,20.906 13.458 C 20.655 15.149,20.053 16.425,19.019 17.459 C 18.684 17.794,17.992 18.341,17.836 18.394 C 17.813 18.402,17.902 18.263,18.034 18.085 C 19.006 16.774,19.627 15.220,19.907 13.400 C 20.002 12.779,20.002 11.214,19.907 10.588 C 19.639 8.827,18.997 7.218,18.051 5.939 C 17.910 5.748,17.813 5.598,17.836 5.606 C 17.859 5.614,18.045 5.737,18.248 5.880 M10.100 7.044 C 8.133 7.328,6.537 8.903,6.094 11.000 C 5.994 11.473,5.994 12.527,6.094 13.000 C 6.798 16.331,10.257 18.006,13.048 16.368 C 13.719 15.974,13.950 15.707,13.991 15.278 C 14.032 14.853,13.743 14.403,13.340 14.266 C 12.963 14.138,12.686 14.198,12.264 14.499 C 11.453 15.077,10.495 15.155,9.600 14.714 C 9.324 14.578,9.191 14.478,8.898 14.183 C 8.593 13.877,8.506 13.760,8.350 13.440 C 8.079 12.886,8.024 12.642,8.024 12.000 C 8.024 11.362,8.078 11.119,8.347 10.563 C 8.501 10.244,8.584 10.131,8.894 9.819 C 9.194 9.518,9.322 9.421,9.600 9.285 C 10.046 9.066,10.433 8.986,10.900 9.013 C 11.431 9.045,11.810 9.182,12.269 9.507 C 12.406 9.604,12.593 9.709,12.684 9.742 C 13.451 10.012,14.211 9.247,13.939 8.478 C 13.844 8.208,13.708 8.063,13.289 7.784 C 12.340 7.153,11.194 6.887,10.100 7.044 " stroke="none" fill-rule="evenodd" fill="black"></path></svg>