<svg width="24" height="24" viewBox="0 0 24 24" fill="none" xmlns="http://www.w3.org/2000/svg"><path d="M5.553 2.040 C 3.861 2.309,2.526 3.534,2.109 5.200 C 2.040 5.475,2.024 5.658,2.025 6.160 C 2.026 6.699,2.040 6.831,2.130 7.168 C 2.452 8.367,3.244 9.342,4.325 9.870 C 5.065 10.232,5.653 10.320,7.326 10.320 L 8.280 10.320 8.280 12.017 L 8.280 13.715 6.830 13.729 C 5.382 13.744,5.379 13.744,5.025 13.853 C 3.124 14.439,1.905 16.141,2.014 18.058 C 2.118 19.912,3.358 21.409,5.183 21.884 C 5.485 21.963,5.636 21.977,6.160 21.975 C 6.699 21.974,6.832 21.960,7.180 21.868 C 8.640 21.481,9.794 20.330,10.163 18.891 C 10.273 18.458,10.319 17.823,10.319 16.690 L 10.320 15.720 12.000 15.720 L 13.680 15.720 13.681 16.690 C 13.682 17.934,13.728 18.521,13.860 18.980 C 14.271 20.404,15.377 21.480,16.832 21.870 C 17.169 21.960,17.302 21.974,17.840 21.975 C 18.364 21.977,18.515 21.963,18.817 21.884 C 20.364 21.481,21.481 20.364,21.884 18.817 C 21.963 18.515,21.977 18.364,21.975 17.840 C 21.974 17.302,21.960 17.169,21.870 16.832 C 21.659 16.045,21.319 15.467,20.722 14.880 C 20.283 14.449,19.867 14.179,19.330 13.978 C 18.700 13.742,18.507 13.720,17.042 13.720 L 15.720 13.720 15.720 12.020 L 15.720 10.320 16.674 10.320 C 18.271 10.320,18.891 10.235,19.578 9.924 C 20.158 9.661,20.760 9.175,21.163 8.644 C 21.439 8.281,21.739 7.656,21.867 7.179 C 21.960 6.830,21.974 6.702,21.975 6.160 C 21.977 5.636,21.963 5.485,21.884 5.183 C 21.329 3.051,19.311 1.705,17.199 2.058 C 15.824 2.288,14.637 3.185,14.079 4.416 C 13.760 5.120,13.682 5.686,13.681 7.330 L 13.680 8.320 12.000 8.320 L 10.320 8.320 10.320 7.346 C 10.320 6.123,10.269 5.468,10.138 5.016 C 9.726 3.594,8.607 2.505,7.180 2.137 C 6.735 2.022,5.959 1.976,5.553 2.040 M6.636 4.061 C 7.355 4.231,7.986 4.815,8.201 5.511 C 8.273 5.745,8.280 5.885,8.280 7.049 L 8.280 8.330 7.030 8.310 C 5.898 8.293,5.755 8.283,5.517 8.206 C 4.998 8.039,4.511 7.632,4.262 7.158 C 3.811 6.300,3.957 5.321,4.637 4.641 C 5.177 4.100,5.905 3.889,6.636 4.061 M18.288 4.044 C 18.590 4.106,19.027 4.326,19.263 4.535 C 20.341 5.486,20.203 7.174,18.983 7.967 C 18.527 8.264,18.382 8.288,16.970 8.310 L 15.720 8.330 15.720 7.049 C 15.720 5.885,15.727 5.745,15.799 5.511 C 16.117 4.482,17.231 3.825,18.288 4.044 M13.680 12.020 L 13.680 13.720 12.000 13.720 L 10.320 13.720 10.320 12.020 L 10.320 10.320 12.000 10.320 L 13.680 10.320 13.680 12.020 M8.280 16.976 C 8.280 18.400,8.259 18.534,7.967 18.983 C 7.525 19.661,6.792 20.039,6.019 19.987 C 4.686 19.897,3.758 18.653,4.061 17.364 C 4.229 16.652,4.811 16.019,5.498 15.801 C 5.715 15.732,5.872 15.724,7.010 15.722 L 8.280 15.720 8.280 16.976 M18.489 15.799 C 19.415 16.085,20.052 17.013,19.987 17.981 C 19.846 20.062,17.178 20.738,16.033 18.983 C 15.741 18.534,15.720 18.400,15.720 16.976 L 15.720 15.720 16.976 15.720 C 18.115 15.720,18.255 15.727,18.489 15.799 " stroke="none" fill-rule="evenodd" fill="black"></path></svg>