<svg width="24" height="24" viewBox="0 0 24 24" fill="none" xmlns="http://www.w3.org/2000/svg"><path d="M7.643 1.069 C 7.407 1.152,7.149 1.416,7.066 1.660 C 7.011 1.822,7.000 2.033,7.000 2.922 L 7.000 3.990 6.727 4.017 C 5.284 4.159,4.159 5.284,4.017 6.727 L 3.990 7.000 2.922 7.000 C 1.693 7.000,1.577 7.021,1.299 7.299 C 0.908 7.690,0.908 8.310,1.299 8.701 C 1.577 8.979,1.692 9.000,2.927 9.000 L 4.000 9.000 4.000 12.000 L 4.000 15.000 3.427 15.000 C 2.592 15.000,2.597 14.998,1.830 15.754 C 1.163 16.411,1.041 16.584,1.009 16.922 C 0.956 17.477,1.437 18.000,2.000 18.000 C 2.324 18.000,2.516 17.890,2.983 17.433 L 3.427 17.000 3.708 17.000 L 3.990 17.000 4.017 17.273 C 4.141 18.533,4.999 19.543,6.260 19.910 C 6.389 19.948,6.732 19.976,7.230 19.989 L 8.000 20.009 8.000 21.078 C 8.000 22.307,8.021 22.423,8.299 22.701 C 8.690 23.092,9.310 23.092,9.701 22.701 C 9.979 22.423,10.000 22.308,10.000 21.073 L 10.000 20.000 12.500 20.000 L 15.000 20.000 15.000 21.073 C 15.000 22.308,15.021 22.423,15.299 22.701 C 15.690 23.092,16.310 23.092,16.701 22.701 C 16.979 22.424,17.000 22.307,17.000 21.081 L 17.000 20.016 17.350 19.972 C 18.762 19.793,19.844 18.684,19.983 17.273 L 20.010 17.000 21.078 17.000 C 22.307 17.000,22.423 16.979,22.701 16.701 C 23.092 16.310,23.092 15.690,22.701 15.299 C 22.423 15.021,22.308 15.000,21.073 15.000 L 20.000 15.000 20.000 12.000 L 20.000 9.000 21.073 9.000 C 22.308 9.000,22.423 8.979,22.701 8.701 C 23.092 8.310,23.092 7.690,22.701 7.299 C 22.423 7.021,22.307 7.000,21.078 7.000 L 20.010 7.000 19.983 6.727 C 19.891 5.788,19.372 4.953,18.570 4.453 C 18.204 4.225,17.806 4.086,17.354 4.029 L 17.000 3.984 17.000 3.705 L 17.000 3.427 17.433 2.983 C 17.890 2.516,18.000 2.324,18.000 2.000 C 18.000 1.437,17.477 0.956,16.922 1.009 C 16.584 1.041,16.411 1.163,15.754 1.830 C 14.998 2.597,15.000 2.592,15.000 3.427 L 15.000 4.000 12.000 4.000 L 9.000 4.000 9.000 2.927 C 9.000 1.692,8.979 1.577,8.701 1.299 C 8.424 1.021,8.024 0.934,7.643 1.069 M17.340 6.066 C 17.455 6.105,17.603 6.201,17.701 6.299 C 18.021 6.619,18.000 6.217,18.000 12.000 C 18.000 17.783,18.021 17.381,17.701 17.701 C 17.381 18.021,17.783 18.000,12.000 18.000 C 6.216 18.000,6.619 18.021,6.298 17.700 C 5.977 17.379,5.998 17.788,6.009 11.918 L 6.020 6.700 6.131 6.511 C 6.256 6.298,6.449 6.136,6.670 6.057 C 6.792 6.013,7.774 6.003,11.983 6.002 C 16.686 6.000,17.163 6.006,17.340 6.066 " stroke="none" fill-rule="evenodd" fill="black"></path></svg>