<svg width="24" height="24" viewBox="0 0 24 24" fill="none" xmlns="http://www.w3.org/2000/svg"><path d="M3.620 3.025 C 3.212 3.105,3.087 3.139,2.870 3.227 C 1.989 3.585,1.321 4.364,1.076 5.320 C 0.993 5.646,0.992 18.351,1.076 18.677 C 1.357 19.776,2.116 20.553,3.260 20.915 C 3.439 20.972,4.326 20.980,11.820 20.990 C 17.509 20.998,20.267 20.989,20.453 20.960 C 21.643 20.778,22.620 19.876,22.924 18.680 C 23.007 18.353,23.008 5.647,22.924 5.323 C 22.617 4.126,21.660 3.233,20.480 3.043 C 20.234 3.003,3.820 2.986,3.620 3.025 M20.340 5.066 C 20.455 5.105,20.603 5.201,20.701 5.299 C 21.023 5.621,21.000 5.097,21.000 12.000 C 21.000 18.903,21.023 18.379,20.701 18.701 C 20.376 19.026,21.144 19.000,12.000 19.000 C 2.854 19.000,3.624 19.027,3.298 18.700 C 2.975 18.377,2.998 18.908,3.010 11.918 L 3.020 5.700 3.131 5.511 C 3.256 5.298,3.449 5.136,3.670 5.057 C 3.793 5.013,5.268 5.003,11.983 5.002 C 19.479 5.000,20.162 5.005,20.340 5.066 M9.214 8.056 C 7.127 8.455,5.744 10.431,6.043 12.585 C 6.364 14.893,8.591 16.442,10.780 15.881 C 11.103 15.798,11.669 15.550,11.884 15.397 L 12.000 15.315 12.116 15.397 C 12.331 15.550,12.897 15.798,13.220 15.881 C 15.388 16.437,17.568 14.950,17.941 12.660 C 18.245 10.792,17.221 8.938,15.514 8.266 C 15.019 8.070,14.745 8.023,14.120 8.026 C 13.655 8.027,13.476 8.045,13.220 8.114 C 12.893 8.203,12.325 8.454,12.116 8.603 L 12.000 8.685 11.884 8.603 C 11.671 8.451,11.104 8.202,10.780 8.118 C 10.367 8.010,9.611 7.981,9.214 8.056 M10.450 10.101 C 10.554 10.137,10.649 10.182,10.659 10.199 C 10.670 10.216,10.633 10.341,10.578 10.477 C 10.375 10.978,10.304 11.372,10.305 12.000 C 10.306 12.629,10.378 13.031,10.579 13.525 C 10.635 13.663,10.667 13.787,10.650 13.802 C 10.565 13.876,10.228 13.970,9.980 13.989 C 9.180 14.049,8.454 13.555,8.131 12.730 C 8.038 12.494,8.025 12.403,8.025 12.000 C 8.025 11.597,8.038 11.506,8.131 11.270 C 8.368 10.663,8.833 10.221,9.401 10.062 C 9.670 9.986,10.178 10.005,10.450 10.101 M14.582 10.062 C 15.163 10.214,15.633 10.661,15.881 11.300 C 15.960 11.502,15.975 11.613,15.975 12.000 C 15.975 12.387,15.960 12.498,15.881 12.700 C 15.356 14.051,13.864 14.428,12.890 13.456 C 11.498 12.069,12.737 9.582,14.582 10.062 " stroke="none" fill-rule="evenodd" fill="black"></path></svg>