<svg width="24" height="24" viewBox="0 0 24 24" fill="none" xmlns="http://www.w3.org/2000/svg"><path d="M3.620 3.025 C 3.212 3.105,3.087 3.139,2.870 3.227 C 1.989 3.585,1.321 4.364,1.076 5.320 C 0.993 5.645,0.992 15.352,1.076 15.677 C 1.357 16.776,2.116 17.553,3.260 17.915 C 3.439 17.972,4.326 17.980,11.820 17.990 C 17.509 17.998,20.267 17.989,20.453 17.960 C 21.643 17.778,22.620 16.876,22.924 15.680 C 23.007 15.354,23.007 5.646,22.924 5.323 C 22.617 4.126,21.660 3.233,20.480 3.043 C 20.234 3.003,3.820 2.986,3.620 3.025 M20.340 5.066 C 20.455 5.105,20.603 5.201,20.701 5.299 C 21.020 5.617,21.000 5.277,21.000 10.500 C 21.000 15.723,21.020 15.383,20.701 15.701 C 20.376 16.026,21.144 16.000,12.000 16.000 C 2.854 16.000,3.624 16.027,3.298 15.700 C 2.978 15.380,2.997 15.729,3.009 10.418 L 3.020 5.700 3.131 5.511 C 3.256 5.298,3.449 5.136,3.670 5.057 C 3.793 5.013,5.268 5.003,11.983 5.002 C 19.479 5.000,20.162 5.005,20.340 5.066 M7.643 19.069 C 7.291 19.193,7.000 19.614,7.000 20.000 C 7.000 20.242,7.119 20.521,7.299 20.701 C 7.616 21.018,7.337 21.000,12.000 21.000 C 16.663 21.000,16.384 21.018,16.701 20.701 C 17.092 20.310,17.092 19.690,16.701 19.299 C 16.384 18.982,16.666 19.000,11.983 19.003 C 8.320 19.006,7.799 19.014,7.643 19.069 " stroke="none" fill-rule="evenodd" fill="black"></path></svg>