<svg width="24" height="24" viewBox="0 0 24 24" fill="none" xmlns="http://www.w3.org/2000/svg"><path d="M5.620 3.025 C 5.212 3.105,5.087 3.139,4.870 3.227 C 4.164 3.514,3.528 4.137,3.250 4.815 C 3.007 5.407,3.024 5.023,3.010 10.296 C 2.996 15.743,2.977 15.379,3.298 15.700 C 3.611 16.013,3.454 16.000,7.000 16.000 C 10.544 16.000,10.390 16.013,10.701 15.701 C 11.092 15.310,11.092 14.690,10.701 14.299 C 10.394 13.992,10.477 14.000,7.572 14.000 L 4.999 14.000 5.009 9.850 L 5.020 5.700 5.131 5.511 C 5.256 5.298,5.449 5.136,5.670 5.057 C 5.793 5.013,6.939 5.003,11.983 5.002 C 18.905 5.000,18.379 4.976,18.701 5.299 C 18.948 5.546,19.000 5.741,19.000 6.427 L 19.000 7.000 17.050 7.001 C 14.868 7.001,14.759 7.012,14.240 7.266 C 13.858 7.453,13.426 7.872,13.245 8.230 C 12.994 8.728,13.001 8.585,13.001 12.990 L 13.000 17.000 7.427 17.000 C 1.166 17.000,1.620 16.978,1.299 17.299 C 0.908 17.690,0.908 18.310,1.299 18.701 C 1.620 19.022,1.166 19.000,7.426 19.000 L 12.998 19.000 13.023 19.110 C 13.149 19.670,13.294 19.943,13.656 20.304 C 13.857 20.504,14.028 20.630,14.240 20.734 C 14.781 20.999,14.773 20.999,18.000 20.999 C 20.397 20.999,20.949 20.988,21.180 20.940 C 22.027 20.762,22.749 20.078,22.938 19.276 C 23.028 18.895,23.029 9.110,22.940 8.730 C 22.754 7.941,22.032 7.237,21.241 7.074 L 21.009 7.026 20.989 6.243 C 20.968 5.443,20.944 5.296,20.763 4.845 C 20.396 3.929,19.476 3.204,18.480 3.043 C 18.234 3.003,5.819 2.986,5.620 3.025 M20.853 9.046 C 20.901 9.071,20.953 9.112,20.969 9.136 C 20.986 9.160,20.999 11.349,20.999 14.000 C 20.999 16.651,20.986 18.840,20.969 18.864 C 20.882 18.995,20.772 19.000,18.000 19.000 C 15.228 19.000,15.118 18.995,15.031 18.864 C 14.992 18.806,14.992 9.193,15.031 9.137 C 15.118 9.007,15.221 9.002,17.993 9.001 C 20.007 9.000,20.789 9.013,20.853 9.046 M17.643 16.066 C 17.288 16.197,17.000 16.615,17.000 17.000 C 17.000 17.729,17.814 18.222,18.465 17.887 C 19.176 17.522,19.173 16.477,18.461 16.111 C 18.250 16.002,17.873 15.982,17.643 16.066 " stroke="none" fill-rule="evenodd" fill="black"></path></svg>