<svg width="24" height="24" viewBox="0 0 24 24" fill="none" xmlns="http://www.w3.org/2000/svg"><path d="M11.409 1.081 C 11.038 1.178,10.639 1.387,10.361 1.630 C 10.240 1.736,8.686 3.643,6.850 5.938 C 3.274 10.408,3.314 10.353,3.113 11.100 C 2.990 11.558,2.990 12.442,3.113 12.900 C 3.314 13.647,3.274 13.592,6.850 18.062 C 8.686 20.357,10.240 22.264,10.361 22.370 C 10.793 22.748,11.449 23.000,12.000 23.000 C 12.551 23.000,13.207 22.748,13.639 22.370 C 13.760 22.264,15.314 20.357,17.150 18.062 C 20.726 13.592,20.686 13.647,20.887 12.900 C 21.010 12.442,21.010 11.558,20.887 11.100 C 20.686 10.353,20.726 10.408,17.150 5.938 C 15.314 3.643,13.760 1.736,13.639 1.630 C 13.028 1.096,12.163 0.883,11.409 1.081 M12.244 3.090 C 12.320 3.140,13.812 4.969,15.607 7.212 C 18.204 10.456,18.849 11.285,18.907 11.452 C 18.955 11.589,18.979 11.776,18.979 12.000 C 18.979 12.224,18.955 12.411,18.907 12.548 C 18.849 12.715,18.204 13.544,15.607 16.788 C 13.812 19.031,12.320 20.860,12.244 20.910 C 12.169 20.959,12.059 21.000,12.000 21.000 C 11.941 21.000,11.831 20.959,11.756 20.910 C 11.680 20.860,10.189 19.031,8.393 16.789 C 5.969 13.760,5.150 12.711,5.101 12.569 C 4.987 12.243,4.977 11.850,5.074 11.531 C 5.156 11.261,5.258 11.128,8.389 7.216 C 10.187 4.971,11.680 3.140,11.756 3.090 C 11.831 3.041,11.941 3.000,12.000 3.000 C 12.059 3.000,12.169 3.041,12.244 3.090 " stroke="none" fill-rule="evenodd" fill="black"></path></svg>