<svg width="24" height="24" viewBox="0 0 24 24" fill="none" xmlns="http://www.w3.org/2000/svg"><path d="M8.400 3.028 C 7.087 3.256,5.439 3.745,4.157 4.286 C 3.611 4.517,3.653 4.475,3.150 5.280 C 1.118 8.528,0.114 11.769,0.013 15.400 C -0.008 16.191,0.046 17.770,0.102 17.960 C 0.124 18.036,1.305 18.824,1.960 19.199 C 3.062 19.830,4.496 20.470,5.655 20.846 L 6.169 21.014 6.245 20.917 C 6.587 20.479,7.461 19.042,7.434 18.961 C 7.425 18.936,7.194 18.822,6.919 18.707 C 6.342 18.465,5.513 18.038,5.491 17.972 C 5.482 17.947,5.574 17.851,5.696 17.760 L 5.916 17.594 6.568 17.854 C 7.803 18.347,8.929 18.639,10.320 18.826 C 10.989 18.916,12.867 18.929,13.520 18.848 C 15.067 18.658,16.319 18.322,17.805 17.701 L 18.069 17.590 18.275 17.744 C 18.388 17.828,18.480 17.928,18.480 17.966 C 18.480 18.015,18.284 18.131,17.790 18.373 C 17.410 18.560,16.985 18.754,16.846 18.806 C 16.706 18.858,16.582 18.923,16.571 18.951 C 16.530 19.054,17.679 20.932,17.815 20.984 C 17.971 21.044,20.014 20.247,21.060 19.719 C 22.144 19.172,23.727 18.191,23.858 17.986 C 23.998 17.768,24.036 15.313,23.919 14.080 C 23.615 10.886,22.544 7.879,20.709 5.068 L 20.344 4.508 20.060 4.379 C 18.945 3.871,17.223 3.339,15.847 3.079 C 15.408 2.996,15.392 2.995,15.340 3.066 C 15.310 3.107,15.163 3.396,15.013 3.708 C 14.816 4.118,14.723 4.271,14.680 4.260 C 14.647 4.251,14.359 4.211,14.040 4.172 C 13.198 4.068,10.793 4.070,9.940 4.174 C 9.610 4.215,9.325 4.251,9.307 4.254 C 9.288 4.257,9.129 3.976,8.953 3.630 C 8.724 3.180,8.614 3.002,8.566 3.005 C 8.530 3.008,8.455 3.019,8.400 3.028 M8.492 10.580 C 9.278 10.784,9.891 11.430,10.104 12.279 C 10.201 12.665,10.167 13.366,10.032 13.747 C 9.466 15.345,7.655 15.780,6.515 14.591 C 6.279 14.345,6.022 13.857,5.937 13.495 C 5.840 13.084,5.874 12.433,6.013 12.041 C 6.398 10.951,7.476 10.315,8.492 10.580 M16.408 10.564 C 16.919 10.671,17.454 11.053,17.767 11.537 C 18.528 12.709,18.097 14.452,16.900 15.045 C 16.277 15.353,15.721 15.352,15.096 15.043 C 14.564 14.779,14.190 14.328,13.978 13.698 C 13.670 12.780,13.888 11.826,14.562 11.150 C 15.091 10.619,15.717 10.420,16.408 10.564 " stroke="none" fill-rule="evenodd"></path></svg>