<svg width="24" height="24" viewBox="0 0 24 24" fill="none" xmlns="http://www.w3.org/2000/svg"><path d="M4.580 1.094 C 4.343 1.204,4.155 1.405,4.064 1.646 C 4.003 1.806,3.999 2.504,4.009 10.360 L 4.021 18.900 4.106 19.160 C 4.357 19.923,4.758 20.468,5.361 20.861 C 5.854 21.184,5.925 21.202,9.918 22.002 C 13.970 22.815,14.095 22.833,14.563 22.696 C 15.079 22.545,15.540 22.155,15.781 21.666 C 15.858 21.509,15.935 21.299,15.952 21.200 L 15.982 21.020 17.201 20.999 C 18.328 20.980,18.438 20.972,18.654 20.891 C 19.330 20.638,19.830 20.058,19.959 19.380 C 19.992 19.205,20.000 17.142,19.991 11.760 L 19.978 4.380 19.891 4.060 C 19.453 2.450,18.256 1.339,16.659 1.061 C 16.357 1.008,15.528 1.000,10.545 1.000 L 4.780 1.001 4.580 1.094 M16.408 3.044 C 17.158 3.201,17.799 3.842,17.956 4.592 C 17.987 4.742,18.000 6.875,18.000 11.902 L 18.000 19.000 17.001 19.000 L 16.002 19.000 15.990 12.410 L 15.977 5.820 15.890 5.511 C 15.617 4.541,15.060 3.730,14.304 3.195 L 14.027 3.000 15.112 3.000 C 15.749 3.000,16.283 3.018,16.408 3.044 M9.372 3.895 C 13.036 4.628,12.956 4.606,13.394 5.037 C 13.663 5.302,13.896 5.730,13.960 6.075 C 13.986 6.214,14.000 8.879,14.000 13.525 C 14.000 19.334,13.990 20.760,13.949 20.760 C 13.922 20.760,12.279 20.436,10.299 20.040 C 7.675 19.515,6.651 19.295,6.520 19.228 C 6.314 19.122,6.102 18.865,6.042 18.649 C 6.014 18.549,6.000 16.003,6.000 10.870 C 6.000 4.654,6.010 3.240,6.052 3.240 C 6.080 3.240,7.574 3.535,9.372 3.895 M11.643 11.069 C 11.407 11.152,11.149 11.416,11.066 11.660 C 10.968 11.948,10.968 14.052,11.066 14.340 C 11.192 14.709,11.604 15.000,12.000 15.000 C 12.396 15.000,12.808 14.709,12.934 14.340 C 13.032 14.052,13.032 11.948,12.934 11.660 C 12.761 11.152,12.172 10.882,11.643 11.069 " stroke="none" fill-rule="evenodd" fill="black"></path></svg>