<svg width="24" height="24" viewBox="0 0 24 24" fill="none" xmlns="http://www.w3.org/2000/svg"><path d="M3.534 2.057 C 2.657 2.269,2.000 3.102,2.000 4.000 C 2.000 5.080,2.920 6.000,4.000 6.000 C 5.080 6.000,6.000 5.080,6.000 4.000 C 6.000 2.904,5.066 1.987,3.968 2.003 C 3.843 2.005,3.647 2.029,3.534 2.057 M11.534 2.057 C 10.657 2.269,10.000 3.102,10.000 4.000 C 10.000 5.080,10.920 6.000,12.000 6.000 C 13.080 6.000,14.000 5.080,14.000 4.000 C 14.000 2.904,13.066 1.987,11.968 2.003 C 11.843 2.005,11.647 2.029,11.534 2.057 M19.534 2.057 C 18.657 2.269,18.000 3.102,18.000 4.000 C 18.000 5.080,18.920 6.000,20.000 6.000 C 21.080 6.000,22.000 5.080,22.000 4.000 C 22.000 2.904,21.066 1.987,19.968 2.003 C 19.843 2.005,19.647 2.029,19.534 2.057 M3.534 10.057 C 2.657 10.269,2.000 11.102,2.000 12.000 C 2.000 13.080,2.920 14.000,4.000 14.000 C 5.080 14.000,6.000 13.080,6.000 12.000 C 6.000 10.904,5.066 9.987,3.968 10.003 C 3.843 10.005,3.647 10.029,3.534 10.057 M11.534 10.057 C 10.657 10.269,10.000 11.102,10.000 12.000 C 10.000 13.080,10.920 14.000,12.000 14.000 C 13.080 14.000,14.000 13.080,14.000 12.000 C 14.000 10.904,13.066 9.987,11.968 10.003 C 11.843 10.005,11.647 10.029,11.534 10.057 M19.534 10.057 C 18.657 10.269,18.000 11.102,18.000 12.000 C 18.000 13.080,18.920 14.000,20.000 14.000 C 21.080 14.000,22.000 13.080,22.000 12.000 C 22.000 10.904,21.066 9.987,19.968 10.003 C 19.843 10.005,19.647 10.029,19.534 10.057 M3.534 18.057 C 2.657 18.269,2.000 19.102,2.000 20.000 C 2.000 21.080,2.920 22.000,4.000 22.000 C 5.080 22.000,6.000 21.080,6.000 20.000 C 6.000 18.904,5.066 17.987,3.968 18.003 C 3.843 18.005,3.647 18.029,3.534 18.057 M11.534 18.057 C 10.657 18.269,10.000 19.102,10.000 20.000 C 10.000 21.080,10.920 22.000,12.000 22.000 C 12.920 22.000,13.768 21.310,13.956 20.408 C 14.095 19.743,13.895 19.088,13.404 18.596 C 12.901 18.094,12.207 17.894,11.534 18.057 M19.534 18.057 C 18.657 18.269,18.000 19.102,18.000 20.000 C 18.000 21.080,18.920 22.000,20.000 22.000 C 20.920 22.000,21.768 21.310,21.956 20.408 C 22.095 19.743,21.895 19.088,21.404 18.596 C 20.901 18.094,20.207 17.894,19.534 18.057 " stroke="none" fill="black" fill-rule="evenodd"></path></svg>