<svg width="24" height="24" viewBox="0 0 24 24" fill="none" xmlns="http://www.w3.org/2000/svg"><path d="M15.655 6.065 C 15.564 6.097,15.425 6.181,15.347 6.252 C 15.064 6.506,11.670 10.424,11.597 10.580 C 11.503 10.779,11.496 11.185,11.582 11.391 C 11.661 11.580,11.854 11.783,12.060 11.892 C 12.284 12.012,12.717 12.012,12.940 11.892 C 13.154 11.777,13.211 11.715,15.170 9.472 C 16.534 7.909,16.884 7.486,16.936 7.335 C 17.209 6.533,16.451 5.783,15.655 6.065 M21.655 6.065 C 21.564 6.097,21.425 6.181,21.347 6.252 C 21.268 6.322,19.408 8.435,17.212 10.947 C 15.016 13.459,13.209 15.520,13.195 15.527 C 13.181 15.534,12.150 14.568,10.904 13.380 C 9.549 12.089,8.565 11.181,8.457 11.124 C 8.074 10.919,7.608 10.989,7.300 11.298 C 7.020 11.578,6.935 11.956,7.067 12.341 C 7.138 12.552,7.220 12.642,8.086 13.464 L 8.592 13.945 7.901 14.736 C 7.520 15.172,7.197 15.527,7.182 15.527 C 7.167 15.526,6.138 14.557,4.896 13.373 C 3.545 12.086,2.565 11.181,2.457 11.124 C 1.606 10.669,0.672 11.604,1.124 12.459 C 1.243 12.685,6.580 17.781,6.823 17.902 C 7.049 18.014,7.482 18.007,7.710 17.887 C 7.834 17.822,8.171 17.467,8.948 16.579 C 9.535 15.909,10.031 15.360,10.050 15.360 C 10.069 15.360,10.664 15.914,11.373 16.591 C 12.093 17.279,12.730 17.857,12.820 17.901 C 13.050 18.015,13.481 18.008,13.711 17.887 C 13.844 17.817,14.878 16.659,18.377 12.661 C 22.088 8.420,22.882 7.491,22.936 7.335 C 23.209 6.533,22.451 5.782,21.655 6.065 " stroke="none" fill-rule="evenodd" fill="black"></path></svg>