<svg width="24" height="24" viewBox="0 0 24 24" fill="none" xmlns="http://www.w3.org/2000/svg"><path d="M11.643 2.069 C 11.546 2.103,11.392 2.206,11.300 2.298 C 10.980 2.618,11.000 2.250,11.000 7.716 L 11.000 12.577 9.770 11.354 C 8.685 10.276,8.517 10.123,8.343 10.066 C 7.954 9.936,7.577 10.021,7.299 10.299 C 7.021 10.577,6.936 10.953,7.065 11.343 C 7.124 11.521,7.336 11.747,9.255 13.671 C 10.766 15.187,11.431 15.827,11.556 15.888 C 11.800 16.006,12.065 16.024,12.326 15.940 C 12.527 15.875,12.668 15.742,14.671 13.745 C 16.187 12.234,16.827 11.569,16.888 11.444 C 17.077 11.052,17.004 10.602,16.702 10.300 C 16.423 10.020,16.046 9.936,15.657 10.066 C 15.483 10.123,15.315 10.276,14.230 11.354 L 13.000 12.577 13.000 7.716 C 13.000 2.251,13.020 2.618,12.701 2.299 C 12.424 2.021,12.024 1.934,11.643 2.069 M1.643 16.069 C 1.296 16.192,1.000 16.614,1.000 16.988 C 1.000 17.173,1.662 19.800,1.789 20.120 C 2.140 21.005,2.912 21.666,3.900 21.927 C 4.205 22.008,19.802 22.005,20.117 21.924 C 20.989 21.701,21.716 21.124,22.097 20.355 C 22.256 20.035,22.336 19.770,22.641 18.560 C 22.837 17.779,22.999 17.076,22.999 16.997 C 23.002 16.474,22.526 16.000,21.998 16.000 C 21.681 16.000,21.323 16.196,21.161 16.459 C 21.108 16.543,20.932 17.160,20.720 18.000 C 20.508 18.840,20.332 19.457,20.279 19.541 C 20.170 19.718,19.984 19.861,19.762 19.939 C 19.610 19.993,18.688 20.000,12.000 20.000 C 5.312 20.000,4.390 19.993,4.238 19.939 C 4.016 19.861,3.830 19.718,3.721 19.541 C 3.668 19.457,3.492 18.840,3.280 18.000 C 3.068 17.160,2.892 16.543,2.839 16.459 C 2.603 16.076,2.094 15.910,1.643 16.069 " stroke="none" fill-rule="evenodd" fill="black"></path></svg>