<svg width="24" height="24" viewBox="0 0 24 24" fill="none" xmlns="http://www.w3.org/2000/svg"><path d="M9.620 1.024 C 9.576 1.033,9.445 1.060,9.330 1.083 C 8.458 1.260,7.592 1.981,7.250 2.815 C 7.034 3.340,7.029 3.383,7.011 4.725 L 6.993 5.991 6.227 6.011 C 5.722 6.025,5.392 6.052,5.260 6.091 C 4.135 6.424,3.359 7.216,3.076 8.320 C 2.993 8.646,2.992 20.352,3.076 20.677 C 3.357 21.776,4.120 22.557,5.260 22.914 C 5.435 22.969,5.995 22.979,9.820 22.990 C 12.743 22.999,14.270 22.989,14.453 22.960 C 15.625 22.779,16.563 21.932,16.910 20.740 C 16.948 20.611,16.976 20.268,16.989 19.770 L 17.009 19.000 17.615 19.000 C 17.948 19.000,18.335 18.981,18.476 18.958 C 19.655 18.767,20.622 17.866,20.924 16.680 C 21.007 16.353,21.007 6.887,20.924 6.560 C 20.740 5.837,20.521 5.533,19.333 4.358 C 16.581 1.637,16.414 1.486,15.904 1.260 C 15.354 1.017,15.469 1.025,12.460 1.016 C 10.942 1.011,9.664 1.015,9.620 1.024 M15.147 3.120 C 15.239 3.175,16.099 3.985,17.058 4.920 C 18.319 6.149,18.826 6.670,18.891 6.800 L 18.980 6.980 18.991 11.558 C 19.002 16.712,19.021 16.381,18.702 16.700 C 18.384 17.018,18.665 17.000,14.000 17.000 C 9.335 17.000,9.616 17.018,9.298 16.700 C 8.975 16.377,8.998 16.908,9.010 9.918 L 9.020 3.700 9.131 3.511 C 9.192 3.408,9.304 3.275,9.381 3.217 C 9.668 2.998,9.613 3.002,12.400 3.011 L 14.980 3.020 15.147 3.120 M13.240 5.035 C 12.929 5.137,12.651 5.393,12.555 5.665 C 12.511 5.789,12.500 6.256,12.500 8.000 C 12.500 9.744,12.511 10.211,12.555 10.335 C 12.625 10.533,12.848 10.781,13.057 10.893 C 13.215 10.977,13.269 10.980,14.674 10.992 C 16.341 11.005,16.406 10.996,16.700 10.702 C 17.092 10.310,17.093 9.691,16.701 9.299 C 16.436 9.034,16.281 9.000,15.336 9.000 L 14.526 9.000 14.513 7.390 C 14.501 5.946,14.492 5.764,14.428 5.620 C 14.337 5.417,14.145 5.216,13.943 5.112 C 13.771 5.024,13.399 4.983,13.240 5.035 M7.010 12.270 C 7.021 16.043,7.030 16.563,7.087 16.740 C 7.446 17.869,8.145 18.568,9.260 18.914 C 9.431 18.967,9.866 18.978,12.230 18.990 L 15.000 19.004 15.000 19.575 C 15.000 20.259,14.948 20.454,14.701 20.701 C 14.384 21.018,14.663 21.000,10.000 21.000 C 5.335 21.000,5.616 21.018,5.298 20.700 C 4.976 20.378,4.998 20.848,5.009 14.418 L 5.020 8.700 5.131 8.511 C 5.256 8.298,5.449 8.136,5.670 8.057 C 5.768 8.022,6.022 8.003,6.409 8.002 L 6.998 8.000 7.010 12.270 " stroke="none" fill-rule="evenodd" fill="black"></path></svg>