<svg width="24" height="24" viewBox="0 0 24 24" fill="none" xmlns="http://www.w3.org/2000/svg"><path d="M7.534 2.057 C 6.657 2.269,6.000 3.102,6.000 4.000 C 6.000 5.080,6.920 6.000,8.000 6.000 C 9.080 6.000,10.000 5.080,10.000 4.000 C 10.000 2.904,9.066 1.987,7.968 2.003 C 7.843 2.005,7.647 2.029,7.534 2.057 M15.534 2.057 C 14.657 2.269,14.000 3.102,14.000 4.000 C 14.000 5.080,14.920 6.000,16.000 6.000 C 17.080 6.000,18.000 5.080,18.000 4.000 C 18.000 2.904,17.066 1.987,15.968 2.003 C 15.843 2.005,15.647 2.029,15.534 2.057 M7.534 10.057 C 6.657 10.269,6.000 11.102,6.000 12.000 C 6.000 13.080,6.920 14.000,8.000 14.000 C 8.523 14.000,9.017 13.790,9.404 13.404 C 10.200 12.607,10.200 11.393,9.404 10.596 C 8.901 10.094,8.207 9.894,7.534 10.057 M15.534 10.057 C 14.657 10.269,14.000 11.102,14.000 12.000 C 14.000 13.080,14.920 14.000,16.000 14.000 C 17.080 14.000,18.000 13.080,18.000 12.000 C 18.000 10.904,17.066 9.987,15.968 10.003 C 15.843 10.005,15.647 10.029,15.534 10.057 M7.534 18.057 C 6.657 18.269,6.000 19.102,6.000 20.000 C 6.000 21.080,6.920 22.000,8.000 22.000 C 9.080 22.000,10.000 21.080,10.000 20.000 C 10.000 18.904,9.066 17.987,7.968 18.003 C 7.843 18.005,7.647 18.029,7.534 18.057 M15.534 18.057 C 14.657 18.269,14.000 19.102,14.000 20.000 C 14.000 21.080,14.920 22.000,16.000 22.000 C 16.920 22.000,17.768 21.310,17.956 20.408 C 18.095 19.743,17.895 19.088,17.404 18.596 C 16.901 18.094,16.207 17.894,15.534 18.057 " stroke="none" fill-rule="evenodd"></path></svg>