<svg width="24" height="24" viewBox="0 0 24 24" fill="none" xmlns="http://www.w3.org/2000/svg"><path d="M3.534 6.057 C 2.657 6.269,2.000 7.102,2.000 8.000 C 2.000 9.080,2.920 10.000,4.000 10.000 C 5.080 10.000,6.000 9.080,6.000 8.000 C 6.000 6.904,5.066 5.987,3.968 6.003 C 3.843 6.005,3.647 6.029,3.534 6.057 M11.534 6.057 C 10.657 6.269,10.000 7.102,10.000 8.000 C 10.000 9.080,10.920 10.000,12.000 10.000 C 13.080 10.000,14.000 9.080,14.000 8.000 C 14.000 6.904,13.066 5.987,11.968 6.003 C 11.843 6.005,11.647 6.029,11.534 6.057 M19.534 6.057 C 18.657 6.269,18.000 7.102,18.000 8.000 C 18.000 9.080,18.920 10.000,20.000 10.000 C 21.080 10.000,22.000 9.080,22.000 8.000 C 22.000 6.904,21.066 5.987,19.968 6.003 C 19.843 6.005,19.647 6.029,19.534 6.057 M3.534 14.057 C 2.657 14.269,2.000 15.102,2.000 16.000 C 2.000 17.080,2.920 18.000,4.000 18.000 C 5.080 18.000,6.000 17.080,6.000 16.000 C 6.000 14.904,5.066 13.987,3.968 14.003 C 3.843 14.005,3.647 14.029,3.534 14.057 M11.534 14.057 C 10.657 14.269,10.000 15.102,10.000 16.000 C 10.000 17.080,10.920 18.000,12.000 18.000 C 13.080 18.000,14.000 17.080,14.000 16.000 C 14.000 14.904,13.066 13.987,11.968 14.003 C 11.843 14.005,11.647 14.029,11.534 14.057 M19.534 14.057 C 18.657 14.269,18.000 15.102,18.000 16.000 C 18.000 17.080,18.920 18.000,20.000 18.000 C 21.080 18.000,22.000 17.080,22.000 16.000 C 22.000 14.904,21.066 13.987,19.968 14.003 C 19.843 14.005,19.647 14.029,19.534 14.057 " stroke="none" fill-rule="evenodd"></path></svg>