<svg width="24" height="24" viewBox="0 0 24 24" fill="none" xmlns="http://www.w3.org/2000/svg"><path d="M10.940 0.046 C 6.261 0.450,2.188 3.636,0.658 8.090 C -1.570 14.568,2.045 21.559,8.634 23.516 C 11.667 24.417,15.136 24.024,17.851 22.471 C 20.759 20.807,22.807 18.147,23.620 14.980 C 24.671 10.880,23.489 6.546,20.500 3.546 C 17.976 1.013,14.495 -0.262,10.940 0.046 M12.762 1.803 C 13.720 1.879,14.694 2.092,15.595 2.424 C 16.524 2.766,17.739 3.465,18.485 4.086 L 18.790 4.340 18.665 4.516 C 18.596 4.613,18.351 4.883,18.120 5.116 C 17.059 6.186,15.651 7.107,13.996 7.812 C 13.363 8.082,13.446 8.098,13.200 7.650 C 12.435 6.256,11.088 4.134,10.006 2.620 C 9.542 1.970,9.519 2.039,10.240 1.917 C 11.090 1.772,11.912 1.735,12.762 1.803 M8.148 3.450 C 9.090 4.799,10.107 6.378,10.860 7.660 C 11.053 7.990,11.263 8.346,11.326 8.451 L 11.440 8.642 11.347 8.677 C 11.199 8.734,9.556 9.105,8.960 9.217 C 7.614 9.470,6.135 9.670,4.800 9.779 C 3.854 9.857,2.032 9.929,1.995 9.890 C 1.962 9.855,2.113 9.254,2.282 8.749 C 2.657 7.627,3.258 6.536,4.028 5.580 C 4.646 4.812,5.642 3.918,6.480 3.378 C 6.814 3.163,7.556 2.762,7.623 2.761 C 7.646 2.760,7.882 3.071,8.148 3.450 M20.130 5.791 C 20.662 6.469,21.297 7.622,21.620 8.497 C 21.936 9.354,22.168 10.483,22.224 11.442 L 22.251 11.904 21.595 11.794 C 20.913 11.680,20.238 11.597,19.320 11.513 C 18.342 11.424,15.722 11.462,15.148 11.574 C 15.130 11.577,14.975 11.256,14.804 10.860 C 14.633 10.464,14.435 10.026,14.364 9.886 C 14.293 9.746,14.243 9.611,14.252 9.585 C 14.262 9.560,14.376 9.496,14.505 9.443 C 14.831 9.310,15.849 8.803,16.248 8.574 C 17.023 8.131,17.870 7.534,18.540 6.959 C 18.921 6.632,19.709 5.835,19.822 5.663 C 19.859 5.606,19.902 5.560,19.919 5.560 C 19.935 5.560,20.030 5.664,20.130 5.791 M12.419 10.518 C 12.627 10.931,13.080 11.917,13.080 11.956 C 13.080 11.975,12.922 12.040,12.730 12.100 C 9.888 12.985,7.044 15.123,5.027 17.891 C 4.838 18.150,4.618 18.469,4.536 18.601 C 4.455 18.732,4.381 18.840,4.372 18.840 C 4.315 18.840,3.594 17.896,3.304 17.440 C 3.199 17.275,2.971 16.852,2.797 16.500 C 2.130 15.146,1.760 13.614,1.760 12.210 L 1.760 11.720 1.910 11.719 C 2.469 11.716,4.305 11.630,4.920 11.579 C 6.400 11.456,7.920 11.247,9.300 10.975 C 10.046 10.828,11.780 10.407,12.060 10.304 C 12.148 10.272,12.233 10.244,12.249 10.243 C 12.266 10.241,12.342 10.365,12.419 10.518 M19.620 13.137 C 20.306 13.221,20.932 13.336,21.553 13.492 C 21.992 13.603,22.062 13.631,22.072 13.705 C 22.091 13.835,21.892 14.680,21.718 15.209 C 21.067 17.197,19.846 18.897,18.145 20.185 C 17.928 20.350,17.741 20.475,17.729 20.463 C 17.717 20.451,17.630 20.058,17.535 19.591 C 17.193 17.901,16.710 16.117,16.105 14.313 C 15.752 13.258,15.739 13.204,15.817 13.185 C 15.897 13.166,16.507 13.097,16.880 13.064 C 17.292 13.028,19.128 13.077,19.620 13.137 M14.021 14.190 C 14.549 15.614,15.073 17.324,15.460 18.882 C 15.660 19.690,16.000 21.268,16.000 21.391 C 16.000 21.451,15.833 21.523,15.180 21.741 C 14.140 22.088,13.170 22.240,12.000 22.240 C 10.328 22.239,8.962 21.920,7.458 21.180 C 6.944 20.927,6.139 20.434,5.804 20.167 L 5.708 20.091 5.841 19.855 C 6.296 19.052,7.002 18.151,7.797 17.359 C 8.976 16.183,10.283 15.263,11.892 14.476 C 12.491 14.183,13.665 13.692,13.786 13.683 C 13.811 13.681,13.917 13.910,14.021 14.190 " stroke="none" fill-rule="evenodd"></path></svg>