<svg width="24" height="24" viewBox="0 0 24 24" fill="none" xmlns="http://www.w3.org/2000/svg"><path d="M2.990 3.878 L -0.000 5.750 2.968 7.605 C 4.601 8.625,5.965 9.460,6.000 9.460 C 6.035 9.460,7.399 8.625,9.032 7.605 L 12.000 5.750 14.968 7.605 C 16.601 8.625,17.965 9.460,18.000 9.460 C 18.035 9.460,19.399 8.625,21.032 7.605 L 24.000 5.750 21.000 3.875 L 18.000 2.000 15.024 3.860 C 13.387 4.883,12.027 5.720,12.000 5.720 C 11.973 5.720,10.613 4.883,8.976 3.860 C 7.339 2.837,5.996 2.001,5.990 2.003 C 5.985 2.004,4.634 2.848,2.990 3.878 M2.970 11.388 L -0.000 13.250 3.000 15.125 L 6.000 17.000 8.976 15.140 C 10.613 14.117,11.973 13.280,12.000 13.280 C 12.027 13.280,13.387 14.117,15.024 15.140 L 18.000 17.000 21.000 15.125 L 24.000 13.250 21.032 11.395 C 19.399 10.375,18.035 9.540,18.000 9.540 C 17.965 9.540,16.601 10.375,14.968 11.395 L 12.000 13.250 9.033 11.395 C 7.401 10.375,6.038 9.537,6.003 9.533 C 5.968 9.529,4.603 10.364,2.970 11.388 M8.970 16.388 L 6.000 18.250 9.000 20.125 L 12.000 22.000 15.000 20.125 L 18.000 18.250 15.033 16.395 C 13.401 15.375,12.038 14.537,12.003 14.533 C 11.968 14.529,10.603 15.364,8.970 16.388 " stroke="none" fill-rule="evenodd"></path></svg>