<svg width="24" height="24" viewBox="0 0 24 24" fill="none" xmlns="http://www.w3.org/2000/svg"><path d="M18.660 2.041 C 18.367 2.094,18.024 2.220,17.724 2.385 C 17.499 2.509,17.002 2.987,14.328 5.655 C 12.116 7.862,11.141 8.861,11.012 9.054 C 10.911 9.205,10.776 9.462,10.713 9.624 C 10.598 9.922,10.000 12.766,10.000 13.019 C 10.000 13.518,10.482 14.000,10.981 14.000 C 11.234 14.000,14.078 13.402,14.376 13.287 C 14.538 13.224,14.795 13.089,14.946 12.988 C 15.139 12.859,16.138 11.884,18.345 9.672 C 21.750 6.259,21.650 6.372,21.867 5.690 C 22.344 4.189,21.428 2.521,19.897 2.101 C 19.612 2.023,18.937 1.990,18.660 2.041 M5.620 4.025 C 5.212 4.105,5.087 4.139,4.870 4.227 C 3.989 4.585,3.321 5.364,3.076 6.320 C 2.993 6.646,2.992 18.352,3.076 18.677 C 3.357 19.776,4.118 20.555,5.260 20.915 C 5.438 20.971,6.119 20.979,11.320 20.990 C 15.280 20.998,17.269 20.989,17.453 20.960 C 18.467 20.804,19.358 20.109,19.759 19.160 C 19.974 18.650,19.973 18.663,19.990 16.708 C 20.007 14.618,20.006 14.603,19.702 14.300 C 19.310 13.908,18.691 13.907,18.299 14.299 C 18.005 14.593,18.000 14.629,18.000 16.500 C 18.000 18.371,17.995 18.407,17.701 18.701 C 17.380 19.022,17.843 19.000,11.500 19.000 C 5.157 19.000,5.620 19.022,5.299 18.701 C 4.978 18.380,5.000 18.845,5.002 12.483 C 5.003 7.857,5.013 6.793,5.057 6.670 C 5.136 6.449,5.298 6.256,5.511 6.131 L 5.700 6.020 7.480 6.000 C 9.246 5.980,9.262 5.979,9.450 5.886 C 10.051 5.590,10.180 4.778,9.701 4.299 C 9.405 4.003,9.380 3.999,7.423 4.005 C 6.475 4.007,5.664 4.016,5.620 4.025 M19.414 4.043 C 19.616 4.099,19.888 4.373,19.951 4.585 C 20.080 5.019,19.968 5.254,19.331 5.890 L 18.859 6.360 18.249 5.749 L 17.638 5.137 18.131 4.650 C 18.765 4.023,18.979 3.922,19.414 4.043 M16.829 7.169 C 17.143 7.483,17.400 7.758,17.400 7.781 C 17.400 7.804,16.604 8.616,15.630 9.586 C 14.159 11.051,13.830 11.360,13.680 11.415 C 13.494 11.483,12.317 11.731,12.293 11.707 C 12.269 11.683,12.517 10.506,12.585 10.320 C 12.640 10.170,12.949 9.841,14.414 8.370 C 15.384 7.396,16.196 6.600,16.218 6.600 C 16.241 6.600,16.516 6.856,16.829 7.169 " stroke="none" fill-rule="evenodd" fill="black"></path></svg>