<svg width="24" height="24" viewBox="0 0 24 24" fill="none" xmlns="http://www.w3.org/2000/svg"><path d="M3.620 3.025 C 3.212 3.105,3.087 3.139,2.870 3.227 C 1.989 3.585,1.321 4.364,1.076 5.320 C 0.993 5.646,0.992 18.351,1.076 18.677 C 1.357 19.776,2.116 20.553,3.260 20.915 C 3.439 20.972,4.326 20.980,11.820 20.990 C 17.509 20.998,20.267 20.989,20.453 20.960 C 21.643 20.778,22.620 19.876,22.924 18.680 C 23.007 18.353,23.008 5.647,22.924 5.323 C 22.617 4.126,21.660 3.233,20.480 3.043 C 20.234 3.003,3.820 2.986,3.620 3.025 M20.340 5.066 C 20.593 5.153,20.847 5.407,20.934 5.660 C 20.987 5.816,21.000 6.017,21.000 6.687 L 21.000 7.520 17.393 10.406 C 15.409 11.993,13.677 13.360,13.543 13.444 C 13.409 13.527,13.129 13.654,12.920 13.726 C 12.565 13.848,12.505 13.856,12.000 13.856 C 11.500 13.856,11.433 13.847,11.098 13.731 C 10.899 13.663,10.629 13.544,10.498 13.467 C 10.367 13.390,8.625 12.020,6.627 10.422 L 2.995 7.516 3.007 6.608 L 3.020 5.700 3.131 5.511 C 3.256 5.298,3.449 5.136,3.670 5.057 C 3.793 5.013,5.268 5.003,11.983 5.002 C 19.479 5.000,20.162 5.005,20.340 5.066 M9.220 15.027 C 10.652 15.997,12.556 16.141,14.115 15.398 C 14.344 15.289,14.638 15.126,14.770 15.036 C 14.902 14.946,16.358 13.794,18.005 12.476 L 21.000 10.079 21.000 14.113 C 21.000 18.650,21.017 18.385,20.701 18.701 C 20.376 19.026,21.144 19.000,12.000 19.000 C 2.856 19.000,3.624 19.026,3.299 18.701 C 2.983 18.385,3.000 18.650,3.000 14.113 L 3.000 10.079 5.990 12.472 C 7.635 13.787,9.088 14.937,9.220 15.027 " stroke="none" fill-rule="evenodd" fill="black"></path></svg>