<svg width="24" height="24" viewBox="0 0 24 24" fill="none" xmlns="http://www.w3.org/2000/svg"><path d="M11.180 4.041 C 8.724 4.320,6.203 5.754,3.772 8.254 C 2.798 9.256,1.922 10.321,1.683 10.795 C 1.308 11.537,1.308 12.463,1.683 13.205 C 2.031 13.896,3.681 15.758,4.863 16.796 C 8.016 19.562,11.041 20.522,14.072 19.718 C 16.440 19.089,18.955 17.312,21.216 14.670 C 22.350 13.344,22.600 12.863,22.600 12.000 C 22.600 11.137,22.350 10.656,21.216 9.330 C 18.704 6.394,15.947 4.574,13.320 4.115 C 12.791 4.023,11.679 3.985,11.180 4.041 M13.139 6.120 C 14.711 6.429,16.516 7.466,18.109 8.975 C 18.950 9.771,19.857 10.769,20.402 11.497 C 20.571 11.722,20.580 11.747,20.580 12.001 C 20.580 12.265,20.577 12.272,20.353 12.564 C 19.950 13.089,19.608 13.488,19.088 14.040 C 16.987 16.272,15.012 17.530,13.020 17.905 C 12.439 18.014,11.491 18.007,10.898 17.889 C 8.962 17.503,7.025 16.266,4.962 14.097 C 4.509 13.621,3.915 12.927,3.600 12.506 C 3.450 12.306,3.422 12.239,3.410 12.046 C 3.392 11.775,3.427 11.704,3.820 11.211 C 4.493 10.366,5.474 9.333,6.260 8.642 C 8.024 7.091,9.705 6.242,11.440 6.025 C 11.769 5.984,12.714 6.037,13.139 6.120 M11.310 8.063 C 10.478 8.214,9.777 8.581,9.179 9.179 C 8.367 9.990,7.955 11.053,8.014 12.180 C 8.110 14.013,9.346 15.487,11.140 15.905 C 11.604 16.014,12.459 16.007,12.920 15.891 C 14.409 15.516,15.516 14.409,15.891 12.920 C 16.007 12.459,16.014 11.604,15.905 11.140 C 15.415 9.038,13.395 7.686,11.310 8.063 M12.408 10.044 C 13.310 10.232,14.000 11.080,14.000 12.000 C 14.000 13.080,13.080 14.000,12.000 14.000 C 10.920 14.000,10.000 13.080,10.000 12.000 C 10.000 11.102,10.657 10.269,11.534 10.057 C 11.797 9.993,12.138 9.988,12.408 10.044 " stroke="none" fill-rule="evenodd" fill="black"></path></svg>