<svg width="24" height="24" viewBox="0 0 24 24" fill="none" xmlns="http://www.w3.org/2000/svg"><path d="M19.675 3.055 C 19.446 3.137,19.363 3.212,18.160 4.417 C 17.533 5.046,17.009 5.560,16.996 5.560 C 16.983 5.560,16.811 5.467,16.616 5.354 C 14.831 4.319,12.967 3.865,11.234 4.042 C 8.765 4.295,6.231 5.725,3.772 8.254 C 2.798 9.256,1.922 10.321,1.683 10.795 C 1.308 11.537,1.308 12.462,1.683 13.206 C 2.033 13.901,3.761 15.845,4.914 16.840 L 5.353 17.220 4.242 18.340 C 3.269 19.321,3.123 19.484,3.066 19.657 C 2.936 20.046,3.020 20.423,3.300 20.702 C 3.603 21.005,4.053 21.078,4.444 20.887 C 4.573 20.824,6.779 18.641,12.745 12.671 C 20.250 5.161,20.875 4.525,20.935 4.343 C 21.018 4.092,21.017 3.905,20.934 3.660 C 20.766 3.168,20.166 2.880,19.675 3.055 M13.127 6.118 C 13.362 6.164,13.749 6.266,13.987 6.345 C 14.391 6.478,15.220 6.845,15.435 6.986 L 15.530 7.049 14.782 7.798 L 14.033 8.548 13.766 8.416 C 12.561 7.822,11.114 7.878,9.958 8.564 C 8.171 9.625,7.497 11.902,8.416 13.766 L 8.548 14.033 7.662 14.918 L 6.776 15.804 6.418 15.499 C 5.940 15.093,5.002 14.163,4.522 13.620 C 4.024 13.057,3.484 12.375,3.437 12.251 C 3.378 12.097,3.394 11.830,3.470 11.691 C 3.647 11.366,4.494 10.377,5.274 9.584 C 6.992 7.837,8.615 6.759,10.280 6.261 C 10.537 6.183,11.020 6.086,11.460 6.024 C 11.747 5.983,12.719 6.038,13.127 6.118 M19.260 8.046 C 18.847 8.199,18.586 8.568,18.586 9.000 C 18.586 9.347,18.666 9.493,19.142 10.005 C 19.593 10.490,20.428 11.502,20.532 11.690 C 20.585 11.785,20.601 11.881,20.590 12.047 C 20.577 12.252,20.553 12.304,20.351 12.567 C 19.737 13.367,18.919 14.262,18.100 15.030 C 16.679 16.364,15.199 17.285,13.765 17.727 C 12.732 18.047,11.479 18.074,10.489 17.800 C 10.154 17.707,9.812 17.697,9.626 17.775 C 9.437 17.854,9.209 18.066,9.109 18.256 C 8.988 18.485,8.988 18.915,9.108 19.143 C 9.306 19.518,9.575 19.660,10.420 19.834 C 13.236 20.413,16.105 19.432,19.035 16.886 C 20.255 15.825,21.960 13.914,22.317 13.206 C 22.692 12.462,22.692 11.538,22.317 10.794 C 22.025 10.214,20.387 8.297,20.027 8.113 C 19.835 8.016,19.437 7.980,19.260 8.046 M12.470 10.057 C 12.485 10.071,11.954 10.626,11.290 11.290 C 10.626 11.954,10.073 12.486,10.060 12.473 C 10.006 12.419,9.992 11.870,10.038 11.632 C 10.185 10.875,10.781 10.246,11.534 10.054 C 11.739 10.002,12.417 10.004,12.470 10.057 " stroke="none" fill-rule="evenodd" fill="black"></path></svg>