<svg width="24" height="24" viewBox="0 0 24 24" fill="none" xmlns="http://www.w3.org/2000/svg"><path d="M1.643 9.069 C 1.291 9.193,1.000 9.614,1.000 10.000 C 1.000 10.399,1.232 10.716,2.014 11.387 C 2.237 11.578,2.445 11.757,2.475 11.784 C 2.520 11.824,2.404 11.980,1.828 12.658 C 1.102 13.512,1.000 13.678,1.000 14.000 C 1.000 14.563,1.523 15.044,2.078 14.991 C 2.470 14.954,2.574 14.867,3.404 13.888 C 3.828 13.389,4.180 12.973,4.187 12.964 C 4.193 12.955,4.303 13.006,4.429 13.077 C 5.166 13.488,6.192 13.933,7.066 14.219 L 7.628 14.404 7.328 15.312 C 7.075 16.079,7.028 16.263,7.025 16.500 C 7.022 16.829,7.110 17.032,7.345 17.239 C 7.550 17.419,7.715 17.480,8.000 17.480 C 8.286 17.480,8.490 17.404,8.674 17.228 C 8.866 17.044,8.915 16.927,9.259 15.860 C 9.428 15.332,9.582 14.885,9.599 14.866 C 9.617 14.848,9.899 14.865,10.226 14.904 C 11.035 15.003,12.980 15.004,13.754 14.907 C 14.047 14.870,14.311 14.840,14.340 14.840 C 14.374 14.840,14.514 15.202,14.722 15.830 C 14.903 16.375,15.084 16.885,15.123 16.964 C 15.209 17.134,15.442 17.348,15.626 17.425 C 15.802 17.499,16.207 17.495,16.391 17.418 C 16.719 17.281,16.957 16.939,16.986 16.563 C 17.002 16.366,16.967 16.229,16.683 15.382 C 16.507 14.855,16.366 14.421,16.371 14.416 C 16.376 14.411,16.651 14.317,16.983 14.207 C 17.741 13.954,18.695 13.547,19.307 13.216 C 19.566 13.075,19.788 12.961,19.799 12.962 C 19.811 12.964,20.167 13.376,20.591 13.879 C 21.424 14.867,21.527 14.953,21.922 14.991 C 22.477 15.044,23.000 14.563,23.000 14.000 C 23.000 13.678,22.898 13.512,22.172 12.659 C 21.787 12.204,21.487 11.819,21.506 11.802 C 21.524 11.784,21.729 11.609,21.960 11.412 C 22.930 10.584,23.127 10.228,22.934 9.660 C 22.808 9.291,22.396 9.000,22.000 9.000 C 21.685 9.000,21.486 9.112,21.042 9.539 C 19.149 11.360,16.525 12.553,13.640 12.906 C 12.359 13.062,10.294 12.976,9.220 12.721 C 9.132 12.700,8.896 12.647,8.696 12.602 C 7.609 12.359,6.210 11.803,5.215 11.219 C 4.287 10.674,3.630 10.185,2.958 9.539 C 2.635 9.228,2.490 9.117,2.341 9.066 C 2.103 8.985,1.877 8.986,1.643 9.069 " stroke="none" fill-rule="evenodd" fill="black"></path></svg>