<svg width="24" height="24" viewBox="0 0 24 24" fill="none" xmlns="http://www.w3.org/2000/svg"><path d="M11.160 1.025 C 9.301 1.200,7.615 1.759,6.148 2.687 C 4.822 3.527,3.527 4.822,2.687 6.148 C 1.869 7.442,1.330 8.925,1.093 10.540 C 1.041 10.896,1.023 11.273,1.023 12.000 C 1.023 12.727,1.041 13.104,1.093 13.460 C 1.459 15.949,2.477 17.997,4.219 19.742 C 4.905 20.431,5.272 20.733,6.000 21.211 C 7.357 22.102,8.852 22.660,10.540 22.906 C 11.211 23.004,12.789 23.004,13.460 22.906 C 15.405 22.623,17.091 21.926,18.637 20.770 C 19.170 20.370,20.252 19.310,20.646 18.800 C 21.874 17.211,22.614 15.461,22.906 13.460 C 22.958 13.105,22.976 12.724,22.976 12.000 C 22.976 11.276,22.958 10.895,22.906 10.540 C 22.614 8.540,21.878 6.798,20.647 5.200 C 20.259 4.697,19.173 3.633,18.637 3.231 C 17.124 2.097,15.456 1.398,13.600 1.118 C 13.075 1.039,11.609 0.983,11.160 1.025 M12.863 3.043 C 15.975 3.345,18.701 5.239,20.083 8.060 C 22.266 12.512,20.412 17.891,15.940 20.083 C 11.490 22.265,6.104 20.409,3.917 15.940 C 2.386 12.813,2.802 9.097,4.987 6.369 C 6.873 4.015,9.866 2.751,12.863 3.043 M15.600 8.043 C 15.378 8.144,15.219 8.291,15.107 8.500 C 15.038 8.628,15.021 8.729,15.021 9.000 C 15.021 9.375,15.091 9.564,15.306 9.768 C 15.785 10.221,16.578 10.087,16.893 9.500 C 16.962 9.372,16.979 9.271,16.979 9.000 C 16.979 8.729,16.962 8.628,16.893 8.500 C 16.713 8.164,16.377 7.962,16.000 7.962 C 15.864 7.962,15.711 7.993,15.600 8.043 M6.643 8.069 C 6.291 8.193,6.000 8.614,6.000 9.000 C 6.000 9.396,6.291 9.808,6.660 9.934 C 6.948 10.032,9.052 10.032,9.340 9.934 C 9.709 9.808,10.000 9.396,10.000 9.000 C 10.000 8.604,9.709 8.192,9.340 8.066 C 9.062 7.972,6.913 7.974,6.643 8.069 M7.643 14.069 C 7.288 14.194,7.000 14.614,7.000 15.007 C 7.000 15.219,7.117 15.504,7.342 15.844 C 8.296 17.279,10.168 18.084,12.320 17.986 C 13.545 17.931,14.526 17.641,15.395 17.079 C 16.230 16.539,17.000 15.545,17.000 15.007 C 17.000 14.329,16.312 13.837,15.678 14.061 C 15.423 14.151,15.252 14.299,15.111 14.553 C 14.932 14.876,14.442 15.349,14.100 15.527 C 12.902 16.154,11.099 16.155,9.901 15.528 C 9.558 15.349,9.069 14.877,8.889 14.553 C 8.629 14.085,8.138 13.894,7.643 14.069 " stroke="none" fill-rule="evenodd" fill="black"></path></svg>