<svg width="24" height="24" viewBox="0 0 24 24" fill="none" xmlns="http://www.w3.org/2000/svg"><path d="M11.140 0.025 C 7.696 0.311,4.619 1.980,2.511 4.705 C 1.671 5.791,0.902 7.283,0.522 8.561 C -0.250 11.156,-0.161 13.788,0.786 16.360 C 1.148 17.344,1.966 18.770,2.666 19.640 C 3.293 20.420,4.252 21.325,5.080 21.919 C 6.343 22.826,8.013 23.579,9.425 23.877 C 9.642 23.923,9.861 23.970,9.910 23.981 L 10.000 24.002 10.000 19.661 L 10.000 15.320 8.500 15.320 L 7.000 15.320 7.000 13.660 L 7.000 12.000 8.496 12.000 L 9.993 12.000 10.011 10.250 C 10.030 8.365,10.046 8.199,10.281 7.520 C 10.827 5.943,12.122 4.942,13.906 4.717 C 14.463 4.647,15.649 4.692,16.540 4.818 C 16.936 4.874,17.273 4.919,17.290 4.920 C 17.306 4.920,17.320 5.611,17.320 6.456 L 17.320 7.992 16.270 8.010 C 15.417 8.024,15.179 8.041,15.000 8.097 C 14.538 8.244,14.256 8.507,14.096 8.940 C 14.031 9.118,14.021 9.300,14.008 10.570 L 13.995 12.000 15.600 12.000 L 17.206 12.000 17.184 12.110 C 17.152 12.267,16.680 15.240,16.680 15.284 C 16.680 15.305,16.120 15.320,15.340 15.320 L 14.000 15.320 14.000 19.659 L 14.000 23.998 14.130 23.975 C 14.201 23.962,14.481 23.899,14.751 23.834 C 16.417 23.435,18.027 22.646,19.412 21.551 C 19.939 21.135,20.936 20.137,21.362 19.600 C 22.312 18.402,23.046 16.997,23.494 15.518 C 24.080 13.583,24.153 11.401,23.699 9.400 C 23.150 6.985,21.783 4.666,19.962 3.060 C 18.112 1.428,15.950 0.429,13.558 0.100 C 13.115 0.039,11.553 -0.009,11.140 0.025 " stroke="none" fill-rule="evenodd"></path></svg>