<svg width="24" height="24" viewBox="0 0 24 24" fill="none" xmlns="http://www.w3.org/2000/svg"><path d="M11.160 1.025 C 9.301 1.200,7.615 1.759,6.148 2.687 C 4.822 3.527,3.527 4.822,2.687 6.148 C 1.869 7.442,1.330 8.925,1.093 10.540 C 1.041 10.896,1.023 11.273,1.023 12.000 C 1.023 12.727,1.041 13.104,1.093 13.460 C 1.459 15.949,2.477 17.997,4.219 19.742 C 4.905 20.431,5.272 20.733,6.000 21.211 C 7.357 22.102,8.852 22.660,10.540 22.906 C 11.211 23.004,12.789 23.004,13.460 22.906 C 15.405 22.623,17.091 21.926,18.637 20.770 C 19.170 20.370,20.252 19.310,20.646 18.800 C 21.874 17.211,22.614 15.461,22.906 13.460 C 22.958 13.105,22.976 12.724,22.976 12.000 C 22.976 11.276,22.958 10.895,22.906 10.540 C 22.614 8.540,21.878 6.798,20.647 5.200 C 20.259 4.697,19.173 3.633,18.637 3.231 C 17.124 2.097,15.456 1.398,13.600 1.118 C 13.075 1.039,11.609 0.983,11.160 1.025 M12.863 3.043 C 15.975 3.345,18.701 5.239,20.083 8.060 C 22.266 12.512,20.412 17.891,15.940 20.083 C 11.490 22.265,6.104 20.409,3.917 15.940 C 2.386 12.813,2.802 9.097,4.987 6.369 C 6.873 4.015,9.866 2.751,12.863 3.043 M7.600 8.043 C 7.378 8.144,7.219 8.291,7.107 8.500 C 7.038 8.628,7.021 8.729,7.021 9.000 C 7.021 9.375,7.091 9.564,7.306 9.768 C 7.785 10.221,8.578 10.087,8.893 9.500 C 8.962 9.372,8.979 9.271,8.979 9.000 C 8.979 8.729,8.962 8.628,8.893 8.500 C 8.713 8.164,8.377 7.962,8.000 7.962 C 7.864 7.962,7.711 7.993,7.600 8.043 M15.600 8.043 C 15.378 8.144,15.219 8.291,15.107 8.500 C 15.038 8.628,15.021 8.729,15.021 9.000 C 15.021 9.375,15.091 9.564,15.306 9.768 C 15.785 10.221,16.578 10.087,16.893 9.500 C 16.962 9.372,16.979 9.271,16.979 9.000 C 16.979 8.729,16.962 8.628,16.893 8.500 C 16.713 8.164,16.377 7.962,16.000 7.962 C 15.864 7.962,15.711 7.993,15.600 8.043 M11.260 12.056 C 10.814 12.131,10.470 12.226,10.120 12.371 C 8.321 13.114,7.130 14.781,7.012 16.722 C 6.982 17.209,7.055 17.457,7.298 17.700 C 7.616 18.018,7.335 18.000,12.000 18.000 C 16.665 18.000,16.384 18.018,16.702 17.700 C 16.945 17.457,17.018 17.209,16.988 16.722 C 16.911 15.457,16.425 14.381,15.522 13.477 C 14.786 12.741,13.996 12.312,12.980 12.099 C 12.554 12.009,11.670 11.988,11.260 12.056 M12.592 14.063 C 13.531 14.256,14.361 14.919,14.743 15.783 L 14.839 16.000 12.000 16.000 L 9.161 16.000 9.257 15.783 C 9.818 14.515,11.233 13.785,12.592 14.063 " stroke="none" fill-rule="evenodd" fill="black"></path></svg>