<svg width="24" height="24" viewBox="0 0 24 24" fill="none" xmlns="http://www.w3.org/2000/svg"><path d="M7.712 0.060 C 5.964 0.354,4.601 1.653,4.135 3.467 C 4.037 3.847,4.023 3.976,4.022 4.520 C 4.020 5.194,4.063 5.490,4.243 6.047 C 4.474 6.760,4.831 7.324,5.418 7.901 L 5.826 8.302 5.650 8.441 C 5.380 8.653,5.016 9.064,4.770 9.434 C 3.754 10.960,3.754 13.040,4.770 14.566 C 5.016 14.936,5.380 15.347,5.650 15.559 L 5.826 15.698 5.418 16.099 C 4.850 16.658,4.486 17.222,4.260 17.895 C 4.063 18.483,4.025 18.737,4.026 19.460 C 4.027 20.061,4.039 20.185,4.130 20.523 C 4.268 21.042,4.445 21.471,4.679 21.857 C 5.940 23.938,8.565 24.608,10.635 23.379 C 11.021 23.150,11.624 22.599,11.915 22.211 C 12.297 21.701,12.588 21.044,12.745 20.340 C 12.807 20.062,12.819 19.731,12.838 17.811 L 12.860 15.602 13.120 15.786 C 14.192 16.544,15.653 16.762,16.920 16.353 C 17.570 16.143,18.297 15.675,18.761 15.169 C 20.413 13.368,20.406 10.603,18.747 8.818 C 18.605 8.665,18.418 8.487,18.331 8.422 L 18.172 8.304 18.581 7.902 C 19.150 7.342,19.514 6.778,19.740 6.105 C 19.934 5.525,19.973 5.263,19.973 4.540 C 19.973 3.937,19.962 3.817,19.871 3.477 C 19.373 1.615,18.032 0.346,16.262 0.059 C 15.762 -0.022,8.194 -0.021,7.712 0.060 M11.160 4.583 L 11.160 7.446 9.550 7.431 L 7.940 7.417 7.629 7.312 C 6.421 6.906,5.674 5.846,5.677 4.545 C 5.679 3.735,5.945 3.093,6.519 2.517 C 6.792 2.242,6.927 2.141,7.200 2.007 C 7.769 1.728,7.790 1.726,9.570 1.723 L 11.160 1.720 11.160 4.583 M16.222 1.780 C 17.181 2.023,17.990 2.843,18.242 3.829 C 18.297 4.043,18.322 4.271,18.323 4.560 C 18.323 5.268,18.126 5.849,17.701 6.392 C 17.357 6.832,16.917 7.132,16.340 7.324 C 16.069 7.413,16.006 7.417,14.450 7.431 L 12.840 7.446 12.840 4.583 L 12.840 1.720 14.412 1.720 C 15.681 1.720,16.029 1.732,16.222 1.780 M11.160 12.003 L 11.160 14.886 9.570 14.869 C 7.835 14.851,7.762 14.842,7.271 14.598 C 6.933 14.431,6.729 14.279,6.458 13.994 C 6.013 13.526,5.748 12.952,5.687 12.320 C 5.598 11.400,5.899 10.547,6.528 9.934 C 7.001 9.472,7.468 9.246,8.160 9.145 C 8.215 9.137,8.912 9.128,9.710 9.125 L 11.160 9.120 11.160 12.003 M16.260 9.226 C 17.114 9.444,17.887 10.179,18.178 11.050 C 18.444 11.845,18.346 12.808,17.929 13.500 C 17.761 13.779,17.375 14.197,17.129 14.367 C 16.653 14.696,16.169 14.849,15.600 14.851 C 15.135 14.853,14.816 14.776,14.360 14.553 C 13.885 14.320,13.409 13.844,13.168 13.360 C 12.725 12.471,12.725 11.529,13.168 10.640 C 13.301 10.373,13.412 10.226,13.681 9.955 C 13.970 9.664,14.083 9.581,14.402 9.427 C 14.610 9.327,14.888 9.226,15.020 9.203 C 15.152 9.180,15.305 9.153,15.360 9.144 C 15.522 9.116,16.001 9.160,16.260 9.226 M11.151 18.290 L 11.138 20.020 11.030 20.340 C 10.876 20.795,10.665 21.134,10.320 21.480 C 9.778 22.021,9.286 22.237,8.518 22.270 C 8.127 22.286,8.007 22.276,7.740 22.203 C 7.238 22.065,6.907 21.870,6.519 21.481 C 5.941 20.904,5.678 20.266,5.677 19.440 C 5.677 18.337,6.209 17.413,7.137 16.903 C 7.701 16.593,7.868 16.570,9.672 16.565 L 11.165 16.560 11.151 18.290 " stroke="none" fill-rule="evenodd"></path></svg>