<svg width="24" height="24" viewBox="0 0 24 24" fill="none" xmlns="http://www.w3.org/2000/svg"><path d="M8.360 1.037 C 8.068 1.126,7.814 1.352,7.700 1.626 C 7.667 1.705,7.640 1.861,7.640 1.973 C 7.640 2.084,7.769 2.852,7.927 3.678 C 8.180 5.003,8.214 5.234,8.213 5.640 C 8.212 6.345,8.036 6.930,7.642 7.533 C 7.170 8.256,6.732 8.633,5.573 9.316 C 3.688 10.427,2.497 11.957,2.119 13.752 C 2.013 14.258,1.975 15.166,2.037 15.740 C 2.228 17.517,2.918 18.966,4.160 20.200 C 5.617 21.647,7.774 22.594,10.321 22.904 C 11.105 23.000,12.492 23.003,12.855 22.910 C 13.576 22.724,14.154 22.401,14.695 21.881 C 16.025 20.602,16.372 18.594,15.551 16.940 C 15.194 16.224,14.785 15.676,13.507 14.208 C 12.519 13.072,12.453 13.020,12.000 13.020 C 11.510 13.020,11.459 13.068,9.619 15.220 C 8.310 16.751,7.820 18.099,8.061 19.505 C 8.095 19.700,8.159 19.974,8.205 20.113 C 8.251 20.251,8.280 20.374,8.269 20.384 C 8.237 20.416,7.646 20.167,7.180 19.926 C 6.105 19.370,5.333 18.683,4.763 17.778 C 3.955 16.494,3.771 14.695,4.314 13.401 C 4.676 12.540,5.566 11.620,6.617 11.020 C 7.511 10.510,8.040 10.117,8.563 9.575 C 9.515 8.586,10.072 7.409,10.203 6.109 C 10.259 5.552,10.232 5.167,10.074 4.308 C 10.006 3.939,9.961 3.625,9.975 3.612 C 10.007 3.580,10.915 3.943,11.640 4.278 C 14.565 5.630,17.172 7.866,18.782 10.407 C 19.324 11.261,19.718 12.260,19.891 13.216 C 20.009 13.865,20.020 15.501,19.910 16.040 C 19.754 16.807,19.461 17.489,19.034 18.080 C 18.712 18.525,18.642 18.685,18.641 18.977 C 18.639 19.518,19.083 19.960,19.628 19.960 C 19.846 19.960,20.121 19.859,20.268 19.725 C 20.445 19.563,20.849 19.007,21.049 18.649 C 21.782 17.337,22.035 16.190,21.989 14.382 C 21.949 12.800,21.652 11.577,20.983 10.242 C 20.347 8.973,19.375 7.689,18.043 6.357 C 16.958 5.273,16.257 4.699,15.040 3.897 C 13.535 2.905,12.474 2.390,10.025 1.462 C 8.790 0.994,8.633 0.954,8.360 1.037 M12.492 16.090 C 13.605 17.376,14.000 18.091,14.000 18.822 C 14.000 19.860,13.252 20.809,12.306 20.971 C 11.717 21.072,11.121 20.874,10.670 20.428 C 10.128 19.891,9.881 19.042,10.061 18.338 C 10.176 17.891,10.487 17.324,10.895 16.820 C 11.259 16.369,11.969 15.560,12.000 15.560 C 12.018 15.560,12.240 15.798,12.492 16.090 " stroke="none" fill-rule="evenodd" fill="black"></path></svg>