<svg width="24" height="24" viewBox="0 0 24 24" fill="none" xmlns="http://www.w3.org/2000/svg"><path d="M3.643 2.069 C 3.407 2.152,3.149 2.416,3.066 2.660 C 3.005 2.839,3.000 3.592,3.000 12.000 C 3.000 22.264,2.973 21.375,3.299 21.701 C 3.690 22.092,4.310 22.092,4.701 21.701 C 5.008 21.394,5.000 21.477,5.000 18.573 L 5.000 16.000 11.530 15.999 C 18.642 15.999,18.307 16.009,18.771 15.775 C 19.237 15.540,19.604 15.108,19.764 14.606 C 19.930 14.083,19.849 13.400,19.568 12.960 C 19.504 12.861,18.748 11.935,17.886 10.902 C 17.025 9.869,16.320 9.013,16.320 9.000 C 16.320 8.987,17.025 8.131,17.886 7.098 C 18.748 6.065,19.504 5.139,19.568 5.040 C 19.849 4.600,19.930 3.917,19.764 3.394 C 19.603 2.890,19.251 2.470,18.790 2.236 C 18.303 1.988,18.737 2.001,10.940 2.004 C 4.597 2.006,3.801 2.013,3.643 2.069 M17.840 4.016 C 17.840 4.025,17.004 5.036,15.982 6.262 C 14.055 8.574,14.000 8.650,14.000 9.000 C 14.000 9.350,14.055 9.426,15.982 11.738 C 17.004 12.964,17.840 13.975,17.840 13.984 C 17.840 13.993,14.951 14.000,11.420 14.000 L 5.000 14.000 5.000 9.000 L 5.000 4.000 11.420 4.000 C 14.951 4.000,17.840 4.007,17.840 4.016 " stroke="none" fill-rule="evenodd" fill="black"></path></svg>