<svg width="24" height="24" viewBox="0 0 24 24" fill="none" xmlns="http://www.w3.org/2000/svg"><path d="M3.620 2.024 C 3.576 2.033,3.445 2.060,3.330 2.083 C 2.449 2.262,1.596 2.977,1.243 3.833 C 1.006 4.408,1.020 3.891,1.020 12.000 C 1.020 18.245,1.029 19.495,1.076 19.677 C 1.357 20.773,2.118 21.554,3.260 21.915 C 3.439 21.972,4.326 21.980,11.820 21.990 C 17.509 21.998,20.267 21.989,20.453 21.960 C 21.643 21.778,22.620 20.876,22.924 19.680 C 23.007 19.353,23.007 8.647,22.924 8.323 C 22.617 7.126,21.660 6.233,20.480 6.043 C 20.313 6.016,18.952 6.000,16.660 6.000 C 14.332 6.000,13.048 5.985,12.951 5.958 C 12.869 5.935,12.725 5.859,12.631 5.788 C 12.480 5.673,12.393 5.527,11.880 4.517 C 11.495 3.759,11.229 3.286,11.088 3.109 C 10.730 2.660,10.137 2.271,9.540 2.095 C 9.322 2.031,9.048 2.024,6.500 2.016 C 4.960 2.011,3.664 2.015,3.620 2.024 M9.049 4.042 C 9.131 4.065,9.275 4.141,9.369 4.212 C 9.520 4.327,9.607 4.473,10.120 5.483 C 10.731 6.685,10.941 7.005,11.317 7.300 C 11.790 7.672,12.236 7.873,12.780 7.961 C 12.921 7.984,14.484 8.000,16.583 8.000 C 20.594 8.000,20.387 7.985,20.701 8.299 C 21.021 8.619,21.000 8.217,21.000 14.000 C 21.000 19.783,21.021 19.381,20.701 19.701 C 20.376 20.026,21.144 20.000,12.000 20.000 C 2.854 20.000,3.624 20.027,3.298 19.700 C 2.974 19.376,2.998 20.028,3.010 11.918 L 3.020 4.700 3.131 4.511 C 3.256 4.298,3.449 4.136,3.670 4.057 C 3.861 3.989,8.808 3.975,9.049 4.042 " stroke="none" fill-rule="evenodd" fill="black"></path></svg>