<svg width="24" height="24" viewBox="0 0 24 24" fill="none" xmlns="http://www.w3.org/2000/svg"><path d="M1.643 1.069 C 1.546 1.103,1.392 1.206,1.300 1.298 C 0.991 1.607,1.000 1.513,1.000 4.500 C 1.000 7.486,0.991 7.394,1.299 7.701 C 1.690 8.092,2.310 8.092,2.701 7.701 C 3.002 7.400,3.000 7.419,3.000 5.073 L 3.000 3.000 5.073 3.000 C 7.419 3.000,7.400 3.002,7.701 2.701 C 8.092 2.310,8.092 1.690,7.701 1.299 C 7.393 0.991,7.488 1.000,4.483 1.003 C 2.179 1.006,1.796 1.015,1.643 1.069 M16.643 1.069 C 16.291 1.193,16.000 1.614,16.000 2.000 C 16.000 2.242,16.119 2.521,16.299 2.701 C 16.600 3.002,16.581 3.000,18.927 3.000 L 21.000 3.000 21.000 5.073 C 21.000 7.419,20.998 7.400,21.299 7.701 C 21.690 8.092,22.310 8.092,22.701 7.701 C 23.009 7.394,23.000 7.486,23.000 4.500 C 23.000 1.514,23.009 1.606,22.701 1.299 C 22.393 0.991,22.488 1.000,19.483 1.003 C 17.179 1.006,16.796 1.015,16.643 1.069 M1.643 16.069 C 1.546 16.103,1.392 16.206,1.300 16.298 C 0.991 16.607,1.000 16.513,1.000 19.500 C 1.000 22.486,0.991 22.394,1.299 22.701 C 1.606 23.009,1.514 23.000,4.500 23.000 C 7.486 23.000,7.394 23.009,7.701 22.701 C 7.881 22.521,8.000 22.242,8.000 22.000 C 8.000 21.758,7.881 21.479,7.701 21.299 C 7.400 20.998,7.419 21.000,5.073 21.000 L 3.000 21.000 3.000 18.927 C 3.000 16.581,3.002 16.600,2.701 16.299 C 2.424 16.021,2.024 15.934,1.643 16.069 M21.643 16.069 C 21.546 16.103,21.392 16.206,21.300 16.298 C 20.998 16.600,21.000 16.580,21.000 18.927 L 21.000 21.000 18.927 21.000 C 16.581 21.000,16.600 20.998,16.299 21.299 C 15.908 21.690,15.908 22.310,16.299 22.701 C 16.606 23.009,16.514 23.000,19.500 23.000 C 22.486 23.000,22.394 23.009,22.701 22.701 C 23.009 22.394,23.000 22.486,23.000 19.500 C 23.000 16.514,23.009 16.606,22.701 16.299 C 22.424 16.021,22.024 15.934,21.643 16.069 " stroke="none" fill-rule="evenodd" fill="black"></path></svg>