<svg width="24" height="24" viewBox="0 0 24 24" fill="none" xmlns="http://www.w3.org/2000/svg"><path d="M6.540 4.059 C 4.664 4.358,3.134 5.641,2.541 7.413 C 2.483 7.586,2.113 9.340,1.718 11.312 L 1.000 14.897 1.000 15.718 C 1.001 16.596,1.033 16.907,1.167 17.320 C 1.503 18.357,2.273 19.131,3.320 19.484 C 3.653 19.597,3.766 19.615,4.240 19.631 C 4.855 19.651,5.248 19.581,5.729 19.365 C 6.237 19.137,6.477 18.931,7.961 17.454 L 9.422 16.000 12.000 16.000 L 14.578 16.000 16.039 17.454 C 17.561 18.969,17.781 19.155,18.322 19.383 C 18.821 19.594,19.169 19.653,19.775 19.631 C 20.230 19.615,20.351 19.595,20.680 19.484 C 21.532 19.197,22.183 18.650,22.593 17.878 C 22.925 17.253,22.999 16.858,23.000 15.718 L 23.000 14.897 22.282 11.312 C 21.887 9.340,21.517 7.586,21.459 7.413 C 20.961 5.924,19.758 4.736,18.252 4.244 C 17.497 3.997,17.561 4.000,11.955 4.004 C 8.034 4.007,6.786 4.020,6.540 4.059 M8.761 6.768 C 9.184 7.627,9.336 7.823,9.660 7.934 C 9.831 7.992,10.108 8.000,12.000 8.000 C 13.892 8.000,14.169 7.992,14.340 7.934 C 14.664 7.823,14.816 7.627,15.239 6.768 L 15.618 6.000 16.311 6.000 C 17.082 6.000,17.450 6.055,17.883 6.236 C 18.588 6.531,19.189 7.134,19.489 7.849 C 19.574 8.050,19.782 9.012,20.303 11.610 L 21.003 15.100 20.992 15.861 L 20.980 16.622 20.849 16.889 C 20.533 17.530,19.817 17.807,19.132 17.555 C 18.916 17.475,18.785 17.355,17.220 15.800 C 15.720 14.310,15.519 14.124,15.343 14.066 C 15.167 14.007,14.799 14.000,11.864 14.000 L 8.582 14.000 6.841 15.735 C 5.213 17.357,5.085 17.476,4.868 17.555 C 4.182 17.807,3.467 17.529,3.151 16.889 L 3.020 16.622 3.008 15.861 L 2.997 15.100 3.697 11.610 C 4.437 7.924,4.463 7.821,4.776 7.349 C 5.095 6.868,5.678 6.395,6.185 6.206 C 6.612 6.047,6.905 6.007,7.661 6.003 L 8.382 6.000 8.761 6.768 " stroke="none" fill-rule="evenodd" fill="black"></path></svg>