<svg width="24" height="24" viewBox="0 0 24 24" fill="none" xmlns="http://www.w3.org/2000/svg"><path d="M8.310 1.063 C 7.478 1.214,6.777 1.581,6.179 2.179 C 4.976 3.381,4.665 5.162,5.388 6.709 C 5.447 6.836,5.502 6.951,5.509 6.964 C 5.517 6.978,5.284 6.999,4.991 7.012 C 4.699 7.025,4.370 7.061,4.260 7.093 C 3.147 7.413,2.359 8.216,2.076 9.320 C 1.993 9.646,1.992 20.352,2.076 20.677 C 2.357 21.776,3.117 22.553,4.260 22.915 C 4.439 22.971,5.243 22.979,11.820 22.990 C 16.818 22.998,19.268 22.989,19.453 22.960 C 20.643 22.777,21.620 21.876,21.924 20.680 C 22.007 20.353,22.007 9.647,21.924 9.323 C 21.617 8.126,20.660 7.233,19.480 7.043 C 19.337 7.020,19.052 7.000,18.847 7.000 C 18.641 7.000,18.480 6.986,18.489 6.970 C 18.869 6.227,19.025 5.554,18.986 4.820 C 18.924 3.633,18.406 2.613,17.491 1.878 C 15.950 0.640,13.747 0.726,12.267 2.082 L 11.998 2.329 11.789 2.132 C 10.842 1.236,9.549 0.839,8.310 1.063 M9.408 3.044 C 10.158 3.201,10.799 3.842,10.956 4.592 C 10.982 4.717,11.000 5.255,11.000 5.902 L 11.000 7.000 9.902 7.000 C 9.255 7.000,8.717 6.982,8.592 6.956 C 7.842 6.799,7.201 6.158,7.044 5.408 C 6.905 4.743,7.105 4.087,7.596 3.597 C 8.090 3.105,8.743 2.906,9.408 3.044 M15.408 3.044 C 16.310 3.232,17.000 4.080,17.000 5.000 C 17.000 5.920,16.310 6.768,15.408 6.956 C 15.283 6.982,14.745 7.000,14.098 7.000 L 13.000 7.000 13.000 5.902 C 13.000 5.255,13.018 4.717,13.044 4.592 C 13.196 3.863,13.808 3.233,14.534 3.057 C 14.797 2.993,15.138 2.988,15.408 3.044 M11.000 11.500 L 11.000 14.000 7.499 14.000 L 3.997 14.000 4.009 11.850 L 4.020 9.700 4.131 9.511 C 4.256 9.298,4.449 9.136,4.670 9.057 C 4.790 9.014,5.433 9.003,7.910 9.002 L 11.000 9.000 11.000 11.500 M19.340 9.066 C 19.593 9.153,19.847 9.407,19.934 9.660 C 19.992 9.831,20.000 10.103,20.000 11.927 L 20.000 14.000 16.500 14.000 L 13.000 14.000 13.000 11.500 L 13.000 9.000 16.073 9.000 C 18.828 9.000,19.166 9.007,19.340 9.066 M11.000 18.500 L 11.000 21.000 7.927 21.000 C 4.464 21.000,4.610 21.012,4.299 20.701 C 3.998 20.400,4.000 20.419,4.000 18.073 L 4.000 16.000 7.500 16.000 L 11.000 16.000 11.000 18.500 M20.000 18.073 C 20.000 20.419,20.002 20.400,19.701 20.701 C 19.390 21.012,19.536 21.000,16.073 21.000 L 13.000 21.000 13.000 18.500 L 13.000 16.000 16.500 16.000 L 20.000 16.000 20.000 18.073 " stroke="none" fill-rule="evenodd" fill="black"></path></svg>