<svg width="24" height="24" viewBox="0 0 24 24" fill="none" xmlns="http://www.w3.org/2000/svg"><path d="M10.960 0.044 C 6.881 0.399,3.275 2.809,1.354 6.462 C 0.328 8.414,-0.146 10.765,0.041 12.980 C 0.437 17.652,3.442 21.608,7.848 23.255 C 8.415 23.467,8.722 23.438,8.924 23.155 L 9.020 23.020 9.011 21.824 C 9.006 21.167,8.994 20.620,8.983 20.610 C 8.973 20.600,8.806 20.616,8.612 20.646 C 8.062 20.731,7.055 20.710,6.660 20.605 C 6.183 20.479,5.782 20.262,5.492 19.973 C 5.285 19.766,5.203 19.639,4.984 19.183 C 4.541 18.263,4.176 17.763,3.731 17.470 C 3.034 17.011,3.032 16.689,3.726 16.682 C 4.399 16.676,5.050 17.120,5.627 17.980 C 6.048 18.607,6.540 18.990,7.120 19.141 C 7.524 19.246,8.187 19.206,8.680 19.046 L 9.060 18.922 9.146 18.565 C 9.248 18.137,9.435 17.743,9.651 17.497 C 9.738 17.398,9.803 17.311,9.795 17.304 C 9.787 17.297,9.573 17.260,9.321 17.222 C 7.067 16.883,5.613 15.923,4.915 14.313 C 4.573 13.526,4.438 12.816,4.412 11.680 C 4.395 10.908,4.401 10.777,4.479 10.401 C 4.635 9.641,4.941 8.973,5.388 8.412 C 5.522 8.244,5.593 8.120,5.578 8.082 C 5.565 8.048,5.516 7.867,5.470 7.680 C 5.403 7.411,5.386 7.219,5.387 6.760 C 5.388 6.144,5.437 5.837,5.623 5.274 C 5.717 4.988,5.732 4.967,5.852 4.950 C 6.412 4.867,7.616 5.302,8.684 5.973 L 9.028 6.190 9.508 6.080 C 10.283 5.902,10.848 5.833,11.707 5.810 C 12.808 5.782,13.822 5.884,14.720 6.116 L 15.020 6.193 15.340 5.990 C 16.210 5.438,17.137 5.048,17.780 4.963 C 18.275 4.897,18.318 4.920,18.451 5.320 C 18.634 5.868,18.692 6.302,18.668 6.940 C 18.653 7.370,18.626 7.575,18.552 7.824 L 18.455 8.148 18.571 8.284 C 18.939 8.716,19.261 9.293,19.441 9.842 C 19.831 11.037,19.720 12.909,19.180 14.234 C 18.783 15.208,17.976 16.069,17.003 16.558 C 16.422 16.850,15.577 17.096,14.720 17.223 C 14.467 17.261,14.253 17.297,14.245 17.304 C 14.237 17.311,14.306 17.402,14.398 17.507 C 14.629 17.770,14.832 18.213,14.923 18.651 C 14.992 18.984,14.999 19.211,15.000 20.980 C 15.000 23.168,14.994 23.120,15.280 23.313 C 15.572 23.509,16.037 23.380,17.345 22.738 C 18.502 22.171,19.524 21.437,20.461 20.500 C 23.725 17.239,24.839 12.441,23.341 8.086 C 22.346 5.190,20.284 2.798,17.538 1.354 C 15.572 0.320,13.204 -0.151,10.960 0.044 " stroke="none" fill-rule="evenodd"></path></svg>