<svg width="24" height="24" viewBox="0 0 24 24" fill="none" xmlns="http://www.w3.org/2000/svg"><path d="M4.643 5.069 C 4.238 5.212,4.284 5.123,2.652 8.940 C 1.834 10.854,1.132 12.528,1.092 12.660 C 0.987 13.009,0.988 14.469,1.093 14.960 C 1.315 15.998,1.742 16.787,2.478 17.521 C 3.222 18.262,4.007 18.687,5.040 18.907 C 5.511 19.007,6.489 19.007,6.960 18.907 C 8.204 18.642,9.269 17.970,10.006 16.984 C 10.440 16.403,10.816 15.520,10.937 14.795 C 10.961 14.657,10.974 14.646,11.211 14.576 C 11.563 14.471,12.437 14.471,12.789 14.576 C 13.026 14.646,13.040 14.657,13.063 14.795 C 13.339 16.403,14.329 17.741,15.781 18.473 C 16.163 18.666,16.578 18.808,17.040 18.907 C 17.511 19.007,18.489 19.007,18.960 18.907 C 19.929 18.701,20.732 18.284,21.424 17.630 C 22.273 16.826,22.815 15.752,22.962 14.579 C 23.036 13.996,22.993 12.933,22.883 12.589 C 22.728 12.104,19.880 5.506,19.764 5.360 C 19.293 4.774,18.299 4.960,18.061 5.678 C 17.943 6.032,17.975 6.144,18.638 7.695 C 18.975 8.481,19.243 9.130,19.235 9.138 C 19.227 9.145,19.094 9.123,18.940 9.089 C 18.528 8.996,17.483 8.998,17.040 9.093 C 15.318 9.461,13.978 10.587,13.340 12.200 C 13.258 12.409,13.186 12.585,13.181 12.591 C 13.175 12.597,13.002 12.575,12.796 12.541 C 12.316 12.464,11.684 12.464,11.204 12.541 C 10.998 12.575,10.825 12.597,10.819 12.591 C 10.814 12.585,10.743 12.411,10.661 12.204 C 10.014 10.576,8.689 9.462,6.960 9.093 C 6.517 8.998,5.472 8.996,5.060 9.089 C 4.906 9.123,4.773 9.145,4.765 9.138 C 4.757 9.130,5.025 8.481,5.362 7.695 C 5.767 6.748,5.979 6.202,5.991 6.077 C 6.060 5.366,5.336 4.824,4.643 5.069 M6.592 11.063 C 7.774 11.306,8.694 12.226,8.937 13.408 C 9.364 15.492,7.490 17.365,5.408 16.936 C 3.786 16.602,2.733 15.018,3.063 13.408 C 3.396 11.786,4.980 10.733,6.592 11.063 M18.592 11.063 C 19.774 11.306,20.694 12.226,20.937 13.408 C 21.364 15.492,19.490 17.365,17.408 16.936 C 16.015 16.649,15.000 15.412,15.000 14.000 C 15.000 12.120,16.753 10.686,18.592 11.063 " stroke="none" fill-rule="evenodd" fill="black"></path></svg>