<svg width="24" height="24" viewBox="0 0 24 24" fill="none" xmlns="http://www.w3.org/2000/svg"><path d="M11.160 1.025 C 9.301 1.200,7.615 1.759,6.148 2.687 C 4.822 3.527,3.527 4.822,2.687 6.148 C 1.869 7.442,1.330 8.925,1.093 10.540 C 1.041 10.896,1.023 11.273,1.023 12.000 C 1.023 12.727,1.041 13.104,1.093 13.460 C 1.459 15.949,2.477 17.997,4.219 19.742 C 4.905 20.431,5.272 20.733,6.000 21.211 C 7.357 22.102,8.852 22.660,10.540 22.906 C 11.211 23.004,12.789 23.004,13.460 22.906 C 15.405 22.623,17.091 21.926,18.637 20.770 C 19.170 20.370,20.252 19.310,20.646 18.800 C 21.874 17.211,22.614 15.461,22.906 13.460 C 22.958 13.105,22.976 12.724,22.976 12.000 C 22.976 11.276,22.958 10.895,22.906 10.540 C 22.614 8.540,21.878 6.798,20.647 5.200 C 20.259 4.697,19.173 3.633,18.637 3.231 C 17.124 2.097,15.456 1.398,13.600 1.118 C 13.075 1.039,11.609 0.983,11.160 1.025 M12.313 3.080 C 12.408 3.123,12.603 3.271,12.747 3.409 C 13.797 4.417,14.619 6.873,14.898 9.837 C 14.932 10.199,14.960 10.609,14.960 10.747 L 14.960 11.000 12.000 11.000 L 9.040 11.000 9.040 10.747 C 9.040 10.609,9.068 10.199,9.102 9.837 C 9.381 6.871,10.202 4.418,11.253 3.409 C 11.668 3.011,11.960 2.920,12.313 3.080 M8.415 4.162 C 7.651 5.869,7.146 8.282,7.029 10.780 L 7.020 10.980 5.037 10.990 L 3.054 11.001 3.089 10.730 C 3.199 9.883,3.498 8.920,3.918 8.060 C 4.801 6.250,6.242 4.807,8.051 3.920 C 8.362 3.768,8.621 3.648,8.627 3.654 C 8.633 3.660,8.538 3.889,8.415 4.162 M16.230 4.061 C 17.550 4.759,18.710 5.824,19.560 7.120 C 20.223 8.131,20.757 9.564,20.914 10.750 L 20.947 11.000 18.953 11.000 L 16.960 11.000 16.960 10.710 C 16.959 10.082,16.794 8.612,16.617 7.645 C 16.387 6.391,16.004 5.100,15.584 4.160 C 15.461 3.885,15.360 3.656,15.360 3.651 C 15.360 3.629,15.846 3.858,16.230 4.061 M7.029 13.220 C 7.146 15.714,7.652 18.133,8.415 19.838 C 8.538 20.111,8.632 20.341,8.626 20.348 C 8.619 20.355,8.334 20.220,7.994 20.048 C 6.181 19.135,4.795 17.737,3.918 15.940 C 3.498 15.080,3.199 14.117,3.089 13.270 L 3.054 12.999 5.037 13.010 L 7.020 13.020 7.029 13.220 M14.960 13.253 C 14.960 13.391,14.932 13.801,14.898 14.163 C 14.622 17.113,13.795 19.585,12.747 20.591 C 12.332 20.989,12.040 21.080,11.687 20.920 C 11.592 20.877,11.397 20.729,11.253 20.591 C 10.202 19.582,9.381 17.129,9.102 14.163 C 9.068 13.801,9.040 13.391,9.040 13.253 L 9.040 13.000 12.000 13.000 L 14.960 13.000 14.960 13.253 M20.914 13.250 C 20.757 14.436,20.223 15.869,19.560 16.880 C 18.860 17.947,17.947 18.860,16.880 19.560 C 16.547 19.778,15.402 20.375,15.373 20.346 C 15.367 20.340,15.462 20.111,15.585 19.838 C 16.004 18.901,16.383 17.622,16.617 16.355 C 16.794 15.395,16.959 13.921,16.960 13.290 L 16.960 13.000 18.953 13.000 L 20.947 13.000 20.914 13.250 " stroke="none" fill-rule="evenodd" fill="black"></path></svg>