<svg width="24" height="24" viewBox="0 0 24 24" fill="none" xmlns="http://www.w3.org/2000/svg"><path d="M11.400 2.186 C 10.527 2.271,9.567 2.479,8.858 2.738 C 8.298 2.943,7.253 3.468,6.780 3.783 C 4.435 5.342,2.901 7.749,2.454 10.568 C 2.352 11.207,2.352 12.793,2.454 13.432 C 2.901 16.254,4.427 18.646,6.783 20.218 C 7.252 20.531,8.296 21.056,8.858 21.262 C 9.370 21.449,10.171 21.650,10.780 21.744 C 11.363 21.834,12.959 21.848,13.560 21.767 C 15.423 21.519,16.944 20.897,18.280 19.838 C 18.664 19.533,19.371 18.820,19.646 18.460 C 21.024 16.655,21.697 14.436,21.630 11.923 C 21.619 11.514,21.578 10.950,21.538 10.670 L 21.465 10.160 16.833 10.160 L 12.200 10.160 12.200 12.080 L 12.200 14.000 14.883 14.000 L 17.566 14.000 17.539 14.130 C 17.423 14.671,17.177 15.259,16.869 15.732 C 16.032 17.016,14.605 17.799,12.801 17.964 C 10.498 18.174,8.345 17.058,7.137 15.027 C 6.896 14.622,6.626 13.960,6.502 13.471 C 6.123 11.976,6.333 10.378,7.083 9.060 C 7.964 7.511,9.360 6.487,11.100 6.111 C 11.677 5.987,12.766 5.987,13.348 6.113 C 14.297 6.317,15.057 6.682,15.739 7.260 L 16.010 7.490 17.395 6.103 L 18.780 4.716 18.600 4.557 C 18.272 4.267,17.546 3.735,17.160 3.502 C 15.668 2.604,13.958 2.149,12.140 2.167 C 11.810 2.170,11.477 2.179,11.400 2.186 " stroke="none" fill-rule="evenodd"></path></svg>