<svg width="24" height="24" viewBox="0 0 24 24" fill="none" xmlns="http://www.w3.org/2000/svg"><path d="M10.940 0.046 C 6.260 0.450,2.189 3.634,0.659 8.086 C -1.484 14.319,1.792 21.115,7.997 23.309 C 12.365 24.853,17.202 23.757,20.480 20.480 C 24.710 16.252,25.180 9.567,21.584 4.785 C 19.301 1.748,15.709 -0.028,11.920 0.006 C 11.601 0.009,11.160 0.027,10.940 0.046 M13.520 5.113 C 14.646 5.349,15.699 5.854,16.520 6.549 C 16.663 6.671,16.785 6.781,16.790 6.795 C 16.796 6.809,16.361 7.260,15.823 7.797 L 14.847 8.773 14.649 8.607 C 14.213 8.243,13.680 7.978,13.089 7.832 C 12.664 7.727,11.816 7.709,11.380 7.795 C 9.776 8.113,8.507 9.343,8.073 10.999 C 7.970 11.393,7.934 12.163,7.998 12.603 C 8.245 14.295,9.518 15.730,11.136 16.140 C 12.081 16.380,13.190 16.274,14.070 15.860 C 14.968 15.438,15.642 14.643,15.881 13.725 L 15.950 13.460 14.055 13.450 L 12.160 13.439 12.160 12.060 L 12.160 10.680 15.439 10.680 L 18.718 10.680 18.738 10.770 C 18.857 11.307,18.878 12.607,18.779 13.315 C 18.558 14.896,17.892 16.253,16.845 17.248 C 15.967 18.084,14.893 18.625,13.591 18.888 C 13.197 18.968,13.019 18.979,12.180 18.980 C 11.104 18.980,10.751 18.929,9.921 18.652 C 7.238 17.758,5.319 15.264,5.166 12.472 C 5.064 10.623,5.579 8.990,6.708 7.581 C 7.737 6.296,9.271 5.382,10.866 5.104 C 11.061 5.070,11.265 5.034,11.320 5.024 C 11.375 5.014,11.807 5.012,12.280 5.020 C 12.944 5.030,13.227 5.052,13.520 5.113 " stroke="none" fill-rule="evenodd"></path></svg>