<svg width="24" height="24" viewBox="0 0 24 24" fill="none" xmlns="http://www.w3.org/2000/svg"><path d="M3.534 2.057 C 2.808 2.233,2.196 2.863,2.044 3.592 C 1.983 3.886,1.983 9.114,2.044 9.408 C 2.201 10.158,2.842 10.799,3.592 10.956 C 3.886 11.017,9.114 11.017,9.408 10.956 C 10.158 10.799,10.799 10.158,10.956 9.408 C 11.017 9.114,11.017 3.886,10.956 3.592 C 10.799 2.842,10.158 2.201,9.408 2.044 C 9.092 1.978,3.811 1.990,3.534 2.057 M14.534 2.057 C 13.808 2.233,13.196 2.863,13.044 3.592 C 13.014 3.735,13.000 4.686,13.000 6.500 C 13.000 8.314,13.014 9.265,13.044 9.408 C 13.201 10.158,13.842 10.799,14.592 10.956 C 14.886 11.017,20.114 11.017,20.408 10.956 C 21.158 10.799,21.799 10.158,21.956 9.408 C 22.017 9.114,22.017 3.886,21.956 3.592 C 21.799 2.842,21.158 2.201,20.408 2.044 C 20.092 1.978,14.811 1.990,14.534 2.057 M9.000 6.500 L 9.000 9.000 6.500 9.000 L 4.000 9.000 4.000 6.500 L 4.000 4.000 6.500 4.000 L 9.000 4.000 9.000 6.500 M20.000 6.500 L 20.000 9.000 17.500 9.000 L 15.000 9.000 15.000 6.500 L 15.000 4.000 17.500 4.000 L 20.000 4.000 20.000 6.500 M3.534 13.057 C 2.808 13.233,2.196 13.863,2.044 14.592 C 1.983 14.886,1.983 20.114,2.044 20.408 C 2.201 21.158,2.842 21.799,3.592 21.956 C 3.886 22.017,9.114 22.017,9.408 21.956 C 10.158 21.799,10.799 21.158,10.956 20.408 C 11.017 20.114,11.017 14.886,10.956 14.592 C 10.799 13.842,10.158 13.201,9.408 13.044 C 9.092 12.978,3.811 12.990,3.534 13.057 M14.534 13.057 C 13.808 13.233,13.196 13.863,13.044 14.592 C 13.014 14.735,13.000 15.686,13.000 17.500 C 13.000 19.314,13.014 20.265,13.044 20.408 C 13.201 21.158,13.842 21.799,14.592 21.956 C 14.886 22.017,20.114 22.017,20.408 21.956 C 21.158 21.799,21.799 21.158,21.956 20.408 C 22.017 20.114,22.017 14.886,21.956 14.592 C 21.799 13.842,21.158 13.201,20.408 13.044 C 20.092 12.978,14.811 12.990,14.534 13.057 M9.000 17.500 L 9.000 20.000 6.500 20.000 L 4.000 20.000 4.000 17.500 L 4.000 15.000 6.500 15.000 L 9.000 15.000 9.000 17.500 M20.000 17.500 L 20.000 20.000 17.500 20.000 L 15.000 20.000 15.000 17.500 L 15.000 15.000 17.500 15.000 L 20.000 15.000 20.000 17.500 " stroke="none" fill="black" fill-rule="evenodd"></path></svg>