<svg width="24" height="24" viewBox="0 0 24 24" fill="none" xmlns="http://www.w3.org/2000/svg"><path d="M9.643 2.069 C 9.404 2.153,9.147 2.418,9.067 2.664 C 9.031 2.772,8.803 3.760,8.560 4.860 C 8.316 5.960,8.108 6.891,8.096 6.930 C 8.076 6.996,7.939 7.000,5.964 7.000 C 3.577 7.000,3.601 6.997,3.299 7.299 C 2.908 7.690,2.908 8.310,3.299 8.701 C 3.597 9.000,3.601 9.000,5.750 9.000 C 7.536 9.000,7.644 9.004,7.625 9.070 C 7.614 9.109,7.313 10.458,6.956 12.070 L 6.307 15.000 4.580 15.000 C 2.620 15.000,2.594 15.003,2.299 15.299 C 1.908 15.690,1.908 16.310,2.299 16.701 C 2.590 16.992,2.647 17.000,4.347 17.000 C 5.532 17.000,5.840 17.011,5.840 17.051 C 5.840 17.079,5.651 17.952,5.420 18.991 C 5.189 20.029,5.000 20.939,5.000 21.012 C 5.000 21.527,5.479 22.000,6.000 22.000 C 6.378 22.000,6.812 21.706,6.921 21.376 C 6.950 21.290,7.183 20.275,7.440 19.120 L 7.906 17.020 10.873 17.010 C 13.268 17.001,13.840 17.009,13.840 17.051 C 13.840 17.079,13.651 17.952,13.420 18.991 C 13.189 20.029,13.000 20.939,13.000 21.012 C 13.000 21.527,13.479 22.000,14.000 22.000 C 14.378 22.000,14.812 21.706,14.921 21.376 C 14.950 21.290,15.183 20.275,15.440 19.120 L 15.906 17.020 18.083 17.000 L 20.260 16.980 20.450 16.886 C 21.051 16.590,21.180 15.778,20.701 15.299 C 20.403 15.000,20.399 15.000,18.249 15.000 L 16.351 15.000 16.374 14.910 C 16.416 14.741,17.680 9.040,17.680 9.020 C 17.680 9.009,18.460 9.000,19.413 9.000 C 21.380 9.000,21.405 8.997,21.701 8.701 C 22.092 8.310,22.092 7.690,21.701 7.299 C 21.410 7.008,21.355 7.000,19.639 7.000 L 18.133 7.000 18.566 5.051 C 18.805 3.980,19.000 3.047,19.000 2.979 C 19.000 2.473,18.517 2.000,18.000 2.000 C 17.601 2.000,17.187 2.294,17.067 2.664 C 17.031 2.772,16.803 3.760,16.560 4.860 C 16.316 5.960,16.108 6.891,16.096 6.930 C 16.076 6.996,15.898 7.000,13.104 7.000 L 10.133 7.000 10.566 5.051 C 10.805 3.980,11.000 3.047,11.000 2.979 C 11.000 2.757,10.875 2.473,10.701 2.299 C 10.424 2.021,10.024 1.934,9.643 2.069 M15.625 9.070 C 15.614 9.109,15.313 10.458,14.956 12.070 L 14.307 15.000 11.329 15.000 L 8.351 15.000 8.374 14.910 C 8.416 14.741,9.680 9.040,9.680 9.020 C 9.680 9.009,11.022 9.000,12.663 9.000 C 15.484 9.000,15.644 9.004,15.625 9.070 " stroke="none" fill-rule="evenodd" fill="black"></path></svg>