<svg width="24" height="24" viewBox="0 0 24 24" fill="none" xmlns="http://www.w3.org/2000/svg"><path d="M11.100 3.062 C 9.031 3.342,7.224 4.488,6.101 6.233 C 5.852 6.620,5.513 7.331,5.361 7.790 C 5.157 8.399,5.001 9.283,5.000 9.826 L 5.000 10.033 4.830 10.059 C 3.293 10.293,2.524 10.622,1.856 11.331 C 1.522 11.685,1.312 12.034,1.177 12.458 C 1.011 12.982,0.992 13.269,1.011 15.044 C 1.025 16.426,1.039 16.750,1.097 17.000 C 1.335 18.032,1.754 18.798,2.478 19.522 C 3.388 20.432,4.466 20.915,5.749 20.989 C 6.083 21.008,6.191 20.999,6.343 20.941 C 6.576 20.852,6.779 20.676,6.892 20.464 L 6.980 20.300 7.002 14.800 C 7.022 9.713,7.029 9.277,7.095 9.000 C 7.345 7.946,7.753 7.202,8.478 6.479 C 9.478 5.483,10.593 5.021,12.000 5.021 C 13.408 5.021,14.531 5.485,15.522 6.477 C 16.245 7.201,16.656 7.952,16.905 9.000 C 16.971 9.277,16.978 9.713,16.998 14.800 L 17.020 20.300 17.108 20.464 C 17.221 20.676,17.424 20.852,17.657 20.941 C 17.809 20.999,17.917 21.008,18.251 20.989 C 19.470 20.919,20.550 20.455,21.429 19.624 C 21.877 19.201,22.199 18.759,22.482 18.180 C 22.939 17.247,23.000 16.850,22.999 14.820 C 22.998 13.204,22.979 12.952,22.822 12.455 C 22.564 11.641,21.917 10.951,21.028 10.540 C 20.551 10.319,20.082 10.198,19.170 10.059 L 19.000 10.033 19.000 9.826 C 18.999 9.713,18.981 9.458,18.958 9.260 C 18.727 7.241,17.695 5.478,16.048 4.290 C 15.608 3.973,14.706 3.521,14.160 3.344 C 13.170 3.025,12.106 2.926,11.100 3.062 M5.000 15.438 L 5.000 18.836 4.776 18.736 C 4.116 18.445,3.516 17.831,3.235 17.161 C 3.016 16.639,2.995 16.410,3.008 14.719 L 3.020 13.180 3.132 12.952 C 3.342 12.524,3.836 12.255,4.698 12.098 C 4.853 12.070,4.984 12.046,4.990 12.044 C 4.995 12.042,5.000 13.569,5.000 15.438 M19.752 12.202 C 20.334 12.360,20.697 12.603,20.868 12.952 L 20.980 13.180 20.992 14.719 C 21.005 16.410,20.984 16.639,20.765 17.161 C 20.485 17.830,19.876 18.452,19.217 18.743 L 19.000 18.839 19.000 15.446 L 19.000 12.052 19.230 12.087 C 19.357 12.107,19.592 12.158,19.752 12.202 " stroke="none" fill-rule="evenodd" fill="black"></path></svg>