<svg width="24" height="24" viewBox="0 0 24 24" fill="none" xmlns="http://www.w3.org/2000/svg"><path d="M8.534 1.057 C 7.808 1.233,7.196 1.863,7.044 2.592 C 7.015 2.731,7.000 3.525,7.000 4.902 L 7.000 7.000 4.902 7.000 C 3.525 7.000,2.731 7.015,2.592 7.044 C 1.842 7.201,1.201 7.842,1.044 8.592 C 0.983 8.887,0.983 15.113,1.044 15.408 C 1.201 16.158,1.842 16.799,2.592 16.956 C 2.731 16.985,3.525 17.000,4.902 17.000 L 7.000 17.000 7.000 19.098 C 7.000 20.475,7.015 21.269,7.044 21.408 C 7.201 22.158,7.842 22.799,8.592 22.956 C 8.887 23.017,15.113 23.017,15.408 22.956 C 16.158 22.799,16.799 22.158,16.956 21.408 C 16.985 21.269,17.000 20.475,17.000 19.098 L 17.000 17.000 19.098 17.000 C 20.475 17.000,21.269 16.985,21.408 16.956 C 22.158 16.799,22.799 16.158,22.956 15.408 C 23.017 15.113,23.017 8.887,22.956 8.592 C 22.799 7.842,22.158 7.201,21.408 7.044 C 21.269 7.015,20.475 7.000,19.098 7.000 L 17.000 7.000 17.000 4.902 C 17.000 3.525,16.985 2.731,16.956 2.592 C 16.799 1.842,16.158 1.201,15.408 1.044 C 15.090 0.978,8.812 0.989,8.534 1.057 M15.000 5.573 C 15.000 8.477,14.992 8.394,15.299 8.701 C 15.606 9.008,15.523 9.000,18.427 9.000 L 21.000 9.000 21.000 12.000 L 21.000 15.000 18.427 15.000 C 15.523 15.000,15.606 14.992,15.299 15.299 C 14.992 15.606,15.000 15.523,15.000 18.427 L 15.000 21.000 12.000 21.000 L 9.000 21.000 9.000 18.427 C 9.000 15.523,9.008 15.606,8.701 15.299 C 8.394 14.992,8.477 15.000,5.573 15.000 L 3.000 15.000 3.000 12.000 L 3.000 9.000 5.573 9.000 C 8.477 9.000,8.394 9.008,8.701 8.701 C 9.008 8.394,9.000 8.477,9.000 5.573 L 9.000 3.000 12.000 3.000 L 15.000 3.000 15.000 5.573 " stroke="none" fill-rule="evenodd" fill="black"></path></svg>