<svg width="24" height="24" viewBox="0 0 24 24" fill="none" xmlns="http://www.w3.org/2000/svg"><path d="M11.640 1.068 C 11.486 1.121,11.152 1.437,9.329 3.255 C 7.813 4.766,7.173 5.431,7.112 5.556 C 6.923 5.948,6.996 6.398,7.298 6.700 C 7.577 6.980,7.954 7.064,8.343 6.934 C 8.517 6.877,8.685 6.724,9.770 5.646 L 11.000 4.423 11.000 12.000 L 11.000 19.577 9.770 18.354 C 8.685 17.276,8.517 17.123,8.343 17.066 C 7.954 16.936,7.577 17.021,7.299 17.299 C 7.021 17.577,6.936 17.953,7.065 18.343 C 7.124 18.521,7.336 18.747,9.255 20.671 C 10.766 22.187,11.431 22.827,11.556 22.888 C 11.800 23.006,12.065 23.024,12.326 22.940 C 12.527 22.875,12.668 22.742,14.671 20.745 C 16.187 19.234,16.827 18.569,16.888 18.444 C 17.077 18.052,17.004 17.602,16.702 17.300 C 16.423 17.020,16.046 16.936,15.657 17.066 C 15.483 17.123,15.315 17.276,14.230 18.354 L 13.000 19.577 13.000 12.000 L 13.000 4.423 14.230 5.646 C 15.315 6.724,15.483 6.877,15.657 6.934 C 16.046 7.064,16.423 6.980,16.702 6.700 C 17.004 6.398,17.077 5.948,16.888 5.556 C 16.827 5.431,16.187 4.766,14.671 3.255 C 12.747 1.336,12.521 1.124,12.343 1.065 C 12.102 0.986,11.878 0.986,11.640 1.068 " stroke="none" fill-rule="evenodd" fill="black"></path></svg>