<svg width="24" height="24" viewBox="0 0 24 24" fill="none" xmlns="http://www.w3.org/2000/svg"><path d="M11.443 1.281 C 11.346 1.301,11.175 1.348,11.063 1.385 C 10.719 1.498,4.241 4.712,3.977 4.901 C 3.532 5.218,3.148 5.709,2.938 6.229 C 2.887 6.356,2.473 8.125,2.019 10.160 C 1.342 13.191,1.189 13.932,1.173 14.260 C 1.142 14.864,1.278 15.398,1.590 15.913 C 1.867 16.369,6.238 21.950,6.528 22.219 C 6.833 22.502,7.268 22.745,7.720 22.886 L 8.020 22.980 12.000 22.980 L 15.980 22.980 16.280 22.886 C 16.733 22.745,17.167 22.502,17.473 22.218 C 17.763 21.950,22.129 16.372,22.410 15.912 C 22.717 15.409,22.863 14.815,22.828 14.220 C 22.803 13.793,21.214 6.608,21.062 6.229 C 20.849 5.703,20.429 5.171,19.988 4.872 C 19.658 4.648,13.207 1.470,12.860 1.360 C 12.544 1.260,11.752 1.216,11.443 1.281 M15.560 4.873 C 17.695 5.928,18.866 6.528,18.954 6.612 C 19.027 6.682,19.119 6.803,19.159 6.880 C 19.245 7.046,20.840 14.193,20.840 14.409 C 20.840 14.491,20.810 14.634,20.773 14.726 C 20.699 14.910,16.310 20.595,16.107 20.769 C 15.828 21.008,15.963 21.000,11.998 21.000 C 8.136 21.000,8.207 21.003,7.940 20.812 C 7.790 20.705,3.354 14.988,3.251 14.769 C 3.201 14.665,3.161 14.508,3.160 14.420 C 3.160 14.198,4.752 7.053,4.841 6.880 C 4.881 6.803,4.973 6.682,5.046 6.612 C 5.167 6.497,7.704 5.218,10.840 3.692 L 11.780 3.235 12.040 3.248 C 12.293 3.261,12.403 3.312,15.560 4.873 " stroke="none" fill-rule="evenodd" fill="black"></path></svg>