<svg width="24" height="24" viewBox="0 0 24 24" fill="none" xmlns="http://www.w3.org/2000/svg"><path d="M11.440 1.315 C 11.319 1.353,9.546 2.212,7.501 3.223 C 3.874 5.014,3.775 5.066,3.531 5.305 C 3.082 5.744,3.121 5.611,2.082 10.287 C 1.455 13.104,1.160 14.509,1.160 14.669 C 1.160 14.951,1.246 15.301,1.382 15.572 C 1.516 15.839,6.554 22.312,6.787 22.518 C 7.005 22.710,7.292 22.855,7.618 22.939 C 7.977 23.031,16.023 23.031,16.382 22.939 C 16.709 22.855,16.995 22.710,17.214 22.517 C 17.452 22.307,22.475 15.847,22.615 15.571 C 22.756 15.292,22.840 14.955,22.840 14.672 C 22.840 14.516,22.537 13.073,21.919 10.290 C 20.887 5.643,20.918 5.752,20.487 5.321 C 20.273 5.107,20.136 5.028,18.897 4.409 C 15.689 2.807,12.724 1.362,12.523 1.303 C 12.235 1.219,11.721 1.225,11.440 1.315 " stroke="none" fill-rule="evenodd"></path></svg>