<svg width="24" height="24" viewBox="0 0 24 24" fill="none" xmlns="http://www.w3.org/2000/svg"><path d="M11.579 1.317 C 11.283 1.364,10.931 1.473,10.702 1.589 C 10.360 1.761,3.593 5.523,3.366 5.668 C 2.795 6.031,2.361 6.612,2.115 7.340 L 2.020 7.620 2.009 11.837 C 1.997 16.406,1.996 16.380,2.213 16.918 C 2.438 17.474,2.848 17.987,3.312 18.293 C 3.560 18.456,10.242 22.180,10.708 22.414 C 11.464 22.795,12.536 22.795,13.292 22.414 C 13.799 22.160,20.448 18.454,20.691 18.292 C 21.327 17.866,21.794 17.151,21.942 16.375 C 22.028 15.927,22.028 8.073,21.942 7.625 C 21.794 6.849,21.327 6.134,20.691 5.708 C 20.448 5.546,13.799 1.841,13.294 1.586 C 12.841 1.359,12.073 1.238,11.579 1.317 M12.445 3.402 C 12.541 3.450,14.177 4.354,16.080 5.410 C 18.136 6.551,19.600 7.387,19.688 7.470 C 19.769 7.548,19.873 7.698,19.918 7.805 C 20.001 7.997,20.001 8.023,19.991 12.049 L 19.980 16.100 19.894 16.260 C 19.846 16.348,19.747 16.476,19.674 16.545 C 19.569 16.643,13.165 20.234,12.450 20.596 C 12.231 20.706,11.981 20.739,11.777 20.685 C 11.556 20.625,4.494 16.702,4.325 16.545 C 4.251 16.476,4.148 16.330,4.095 16.220 L 4.001 16.020 4.001 12.000 L 4.001 7.980 4.095 7.780 C 4.148 7.670,4.251 7.524,4.325 7.455 C 4.466 7.324,11.527 3.386,11.739 3.320 C 11.920 3.264,12.247 3.302,12.445 3.402 " stroke="none" fill-rule="evenodd" fill="black"></path></svg>