<svg width="24" height="24" viewBox="0 0 24 24" fill="none" xmlns="http://www.w3.org/2000/svg"><path d="M11.526 1.340 C 11.409 1.373,11.244 1.432,11.161 1.470 C 11.078 1.509,9.177 2.548,6.935 3.780 C 3.085 5.896,2.845 6.034,2.596 6.280 C 2.310 6.563,2.122 6.901,2.044 7.272 C 2.013 7.419,2.000 8.861,2.000 12.014 C 2.000 16.952,1.991 16.746,2.228 17.240 C 2.291 17.372,2.439 17.564,2.599 17.720 C 2.849 17.965,3.107 18.113,6.974 20.240 C 9.234 21.483,11.195 22.543,11.332 22.596 C 11.661 22.724,12.268 22.737,12.600 22.624 C 12.721 22.583,14.692 21.521,16.980 20.265 C 20.922 18.100,21.154 17.967,21.403 17.720 C 21.557 17.568,21.710 17.369,21.772 17.240 C 22.009 16.747,22.000 16.955,22.000 12.000 C 22.000 7.045,22.009 7.253,21.772 6.760 C 21.710 6.631,21.557 6.432,21.403 6.280 C 21.154 6.033,20.922 5.900,16.980 3.736 C 14.692 2.480,12.730 1.421,12.620 1.383 C 12.341 1.286,11.795 1.265,11.526 1.340 " stroke="none" fill-rule="evenodd"></path></svg>