<svg width="24" height="24" viewBox="0 0 24 24" fill="none" xmlns="http://www.w3.org/2000/svg"><path d="M11.380 0.817 C 10.900 0.930,10.515 1.112,10.153 1.399 C 9.789 1.687,2.297 8.799,2.106 9.038 C 1.541 9.744,1.151 10.668,1.042 11.560 C 1.008 11.834,0.999 13.137,1.009 16.240 C 1.021 20.038,1.030 20.563,1.087 20.740 C 1.446 21.869,2.136 22.559,3.260 22.915 C 3.439 22.972,4.326 22.980,11.820 22.990 C 17.509 22.998,20.267 22.989,20.453 22.960 C 21.476 22.803,22.357 22.110,22.767 21.140 C 22.988 20.615,22.980 20.813,22.980 16.000 C 22.980 11.794,22.976 11.521,22.905 11.200 C 22.680 10.175,22.235 9.356,21.501 8.618 C 20.854 7.966,14.008 1.515,13.784 1.346 C 13.524 1.149,13.214 0.993,12.860 0.880 C 12.501 0.766,11.737 0.734,11.380 0.817 M12.410 2.851 C 12.550 2.916,13.591 3.876,16.346 6.480 C 18.406 8.427,20.178 10.118,20.285 10.237 C 20.506 10.485,20.748 10.930,20.886 11.340 L 20.980 11.620 20.991 15.876 C 21.004 20.673,21.021 20.381,20.702 20.700 C 20.376 21.027,21.146 21.000,12.000 21.000 C 2.854 21.000,3.624 21.027,3.298 20.700 C 2.979 20.381,2.996 20.673,3.009 15.876 L 3.020 11.620 3.115 11.340 C 3.243 10.961,3.440 10.578,3.632 10.335 C 3.719 10.225,5.503 8.515,7.596 6.537 C 10.377 3.909,11.453 2.916,11.591 2.851 C 11.715 2.792,11.855 2.761,12.000 2.761 C 12.144 2.761,12.285 2.792,12.410 2.851 " stroke="none" fill-rule="evenodd" fill="black"></path></svg>