<svg width="24" height="24" viewBox="0 0 24 24" fill="none" xmlns="http://www.w3.org/2000/svg"><path d="M5.260 1.058 C 3.387 1.360,1.851 2.645,1.266 4.400 C 1.004 5.185,1.020 4.694,1.020 12.000 C 1.020 18.251,1.024 18.639,1.093 18.960 C 1.315 19.998,1.742 20.787,2.478 21.521 C 3.206 22.247,3.950 22.655,5.000 22.905 C 5.281 22.972,5.726 22.978,11.860 22.990 C 16.545 23.000,18.511 22.991,18.740 22.959 C 19.848 22.805,20.737 22.370,21.523 21.600 C 22.255 20.882,22.688 20.094,22.907 19.078 C 22.976 18.759,22.980 18.371,22.980 12.060 C 22.980 5.751,22.976 5.361,22.907 5.040 C 22.685 4.003,22.260 3.216,21.522 2.477 C 20.797 1.751,20.060 1.347,19.000 1.095 C 18.719 1.028,18.286 1.023,12.140 1.015 C 6.952 1.009,5.513 1.018,5.260 1.058 M18.592 3.063 C 19.779 3.307,20.701 4.233,20.938 5.420 C 20.995 5.704,21.001 6.260,20.991 10.347 L 20.980 14.955 19.680 13.534 C 18.002 11.700,17.836 11.540,17.356 11.305 C 17.149 11.203,16.863 11.089,16.720 11.052 C 16.365 10.959,15.630 10.961,15.280 11.055 C 14.901 11.157,14.398 11.412,14.124 11.640 C 13.993 11.749,12.019 13.891,9.739 16.399 C 7.458 18.908,5.565 20.960,5.532 20.960 C 5.417 20.960,5.011 20.841,4.782 20.739 C 4.116 20.445,3.516 19.833,3.235 19.161 C 2.990 18.573,3.000 18.887,3.000 12.000 C 3.000 6.430,3.007 5.682,3.063 5.408 C 3.262 4.438,3.924 3.627,4.831 3.241 C 5.408 2.995,5.067 3.007,11.972 3.003 C 17.576 3.000,18.318 3.007,18.592 3.063 M7.936 5.041 C 6.656 5.272,5.560 6.214,5.180 7.409 C 4.869 8.388,4.967 9.350,5.469 10.237 C 6.041 11.247,7.130 11.921,8.300 11.987 C 9.954 12.082,11.448 10.996,11.887 9.380 C 11.958 9.119,11.974 8.952,11.974 8.480 C 11.973 7.967,11.961 7.859,11.866 7.548 C 11.502 6.349,10.638 5.486,9.452 5.137 C 9.059 5.022,8.307 4.974,7.936 5.041 M9.123 7.147 C 9.448 7.301,9.696 7.548,9.855 7.880 C 9.966 8.112,9.980 8.179,9.980 8.500 C 9.980 8.821,9.966 8.888,9.855 9.120 C 9.696 9.452,9.449 9.698,9.120 9.856 C 8.889 9.966,8.820 9.980,8.500 9.980 C 8.190 9.980,8.107 9.965,7.900 9.868 C 7.585 9.721,7.276 9.413,7.133 9.104 C 7.035 8.894,7.020 8.811,7.020 8.500 C 7.020 8.190,7.035 8.107,7.132 7.900 C 7.492 7.127,8.375 6.794,9.123 7.147 M16.468 13.088 C 16.599 13.156,17.206 13.792,18.826 15.560 L 21.008 17.940 20.984 18.233 C 20.881 19.503,20.038 20.523,18.774 20.906 C 18.556 20.972,18.187 20.978,13.402 20.990 L 8.263 21.002 8.366 20.891 C 8.422 20.830,9.913 19.187,11.680 17.240 C 15.189 13.372,15.364 13.184,15.540 13.091 C 15.836 12.935,16.175 12.934,16.468 13.088 " stroke="none" fill-rule="evenodd" fill="black"></path></svg>