<svg width="24" height="24" viewBox="0 0 24 24" fill="none" xmlns="http://www.w3.org/2000/svg"><path d="M6.660 2.026 C 4.781 2.271,3.214 3.473,2.557 5.174 C 2.246 5.980,1.847 8.104,1.673 9.880 C 1.602 10.609,1.602 13.391,1.673 14.120 C 1.847 15.896,2.246 18.020,2.557 18.826 C 3.076 20.170,4.237 21.274,5.612 21.734 C 6.389 21.994,6.030 21.980,12.000 21.980 C 17.970 21.980,17.611 21.994,18.388 21.734 C 19.763 21.274,20.924 20.170,21.443 18.826 C 21.754 18.020,22.153 15.896,22.327 14.120 C 22.398 13.391,22.398 10.609,22.327 9.880 C 22.153 8.104,21.754 5.980,21.443 5.174 C 20.923 3.827,19.754 2.717,18.380 2.264 C 17.598 2.007,18.028 2.024,12.140 2.017 C 9.192 2.014,6.726 2.018,6.660 2.026 M17.620 4.114 C 18.166 4.297,18.512 4.509,18.903 4.898 C 19.423 5.415,19.582 5.747,19.817 6.802 C 20.188 8.467,20.400 10.170,20.400 11.490 L 20.400 12.000 17.945 12.000 C 15.288 12.000,15.315 11.998,15.026 12.218 C 14.826 12.370,14.682 12.668,14.643 13.009 C 14.598 13.393,14.482 13.688,14.237 14.037 C 13.773 14.698,12.998 15.040,12.081 14.990 C 11.233 14.943,10.548 14.551,10.141 13.880 C 9.976 13.609,9.840 13.214,9.840 13.008 C 9.840 12.759,9.723 12.481,9.541 12.299 C 9.233 11.991,9.332 12.000,6.287 12.000 L 3.588 12.000 3.613 11.150 C 3.651 9.886,3.788 8.728,4.062 7.360 C 4.367 5.837,4.518 5.479,5.098 4.898 C 5.375 4.622,5.535 4.498,5.780 4.373 C 6.132 4.194,6.421 4.090,6.711 4.041 C 6.815 4.023,9.249 4.011,12.120 4.014 L 17.340 4.020 17.620 4.114 M8.031 14.090 C 8.080 14.281,8.487 15.033,8.677 15.284 C 9.359 16.183,10.360 16.767,11.520 16.942 C 12.932 17.155,14.310 16.759,15.266 15.865 C 15.792 15.373,16.095 14.946,16.345 14.340 L 16.477 14.020 18.398 14.010 C 20.234 14.000,20.320 14.002,20.320 14.072 C 20.320 14.218,20.163 15.405,20.078 15.906 C 20.029 16.188,19.912 16.771,19.816 17.200 C 19.582 18.253,19.423 18.585,18.903 19.102 C 18.502 19.501,18.144 19.716,17.600 19.886 L 17.300 19.980 12.000 19.980 L 6.700 19.980 6.400 19.886 C 5.856 19.716,5.498 19.501,5.097 19.102 C 4.577 18.585,4.418 18.253,4.184 17.200 C 4.088 16.771,3.971 16.188,3.922 15.906 C 3.837 15.405,3.680 14.218,3.680 14.072 C 3.680 14.003,3.782 14.000,5.844 14.000 L 8.007 14.000 8.031 14.090 " stroke="none" fill-rule="evenodd" fill="black"></path></svg>