<svg width="24" height="24" viewBox="0 0 24 24" fill="none" xmlns="http://www.w3.org/2000/svg"><path d="M4.900 7.045 C 3.104 7.272,1.762 8.413,1.261 10.140 C 1.069 10.802,1.023 11.159,1.023 12.000 C 1.023 12.841,1.069 13.198,1.261 13.860 C 1.722 15.451,2.899 16.550,4.500 16.885 C 6.519 17.307,8.218 16.565,11.334 13.902 C 11.683 13.604,11.983 13.360,12.000 13.360 C 12.017 13.360,12.236 13.536,12.486 13.751 C 15.342 16.206,16.969 17.065,18.620 16.987 C 20.230 16.910,21.406 16.281,22.184 15.078 C 23.269 13.401,23.269 10.599,22.184 8.922 C 21.671 8.129,21.022 7.612,20.145 7.299 C 19.395 7.031,18.455 6.935,17.760 7.057 C 16.345 7.304,14.878 8.192,12.486 10.249 C 12.236 10.464,12.017 10.640,12.000 10.640 C 11.983 10.640,11.683 10.396,11.334 10.098 C 8.390 7.583,6.762 6.811,4.900 7.045 M6.144 9.080 C 6.518 9.175,7.132 9.464,7.652 9.791 C 8.300 10.198,9.590 11.202,10.280 11.835 L 10.460 12.000 10.280 12.165 C 9.944 12.473,9.102 13.167,8.659 13.501 C 7.622 14.282,6.763 14.763,6.120 14.925 C 5.841 14.996,5.712 15.007,5.400 14.987 C 4.164 14.909,3.451 14.325,3.131 13.130 C 3.036 12.776,3.026 12.672,3.026 12.000 C 3.026 11.328,3.036 11.224,3.131 10.870 C 3.415 9.810,3.996 9.241,4.980 9.059 C 5.396 8.982,5.784 8.989,6.144 9.080 M19.220 9.099 C 20.090 9.327,20.635 9.928,20.886 10.940 C 21.016 11.463,21.016 12.537,20.886 13.060 C 20.579 14.298,19.855 14.907,18.600 14.987 C 18.290 15.006,18.158 14.995,17.880 14.926 C 17.229 14.765,16.236 14.198,15.220 13.408 C 14.742 13.036,14.006 12.427,13.720 12.165 L 13.540 12.000 13.720 11.835 C 14.006 11.573,14.742 10.964,15.220 10.592 C 16.199 9.831,17.213 9.245,17.840 9.079 C 18.192 8.985,18.819 8.994,19.220 9.099 " stroke="none" fill-rule="evenodd" fill="black"></path></svg>