<svg width="24" height="24" viewBox="0 0 24 24" fill="none" xmlns="http://www.w3.org/2000/svg"><path d="M11.160 1.025 C 9.301 1.200,7.615 1.759,6.148 2.687 C 4.822 3.527,3.527 4.822,2.687 6.148 C 1.869 7.442,1.330 8.925,1.093 10.540 C 1.041 10.896,1.023 11.273,1.023 12.000 C 1.023 12.727,1.041 13.104,1.093 13.460 C 1.459 15.949,2.477 17.997,4.219 19.742 C 4.905 20.431,5.272 20.733,6.000 21.211 C 7.357 22.102,8.852 22.660,10.540 22.906 C 11.211 23.004,12.789 23.004,13.460 22.906 C 15.405 22.623,17.091 21.926,18.637 20.770 C 19.170 20.370,20.252 19.310,20.646 18.800 C 21.874 17.211,22.614 15.461,22.906 13.460 C 22.958 13.105,22.976 12.724,22.976 12.000 C 22.976 11.276,22.958 10.895,22.906 10.540 C 22.614 8.540,21.878 6.798,20.647 5.200 C 20.259 4.697,19.173 3.633,18.637 3.231 C 17.124 2.097,15.456 1.398,13.600 1.118 C 13.075 1.039,11.609 0.983,11.160 1.025 M12.863 3.043 C 15.975 3.345,18.701 5.239,20.083 8.060 C 22.266 12.512,20.412 17.891,15.940 20.083 C 11.490 22.265,6.104 20.409,3.917 15.940 C 2.386 12.813,2.802 9.097,4.987 6.369 C 6.873 4.015,9.866 2.751,12.863 3.043 M11.643 6.066 C 11.288 6.197,11.000 6.615,11.000 7.000 C 11.000 7.729,11.814 8.222,12.465 7.887 C 13.176 7.522,13.173 6.477,12.461 6.111 C 12.250 6.002,11.873 5.982,11.643 6.066 M9.643 10.069 C 9.291 10.193,9.000 10.614,9.000 11.000 C 9.000 11.242,9.119 11.521,9.299 11.701 C 9.546 11.948,9.741 12.000,10.427 12.000 L 11.000 12.000 11.000 13.500 L 11.000 15.000 10.427 15.000 C 9.741 15.000,9.546 15.052,9.299 15.299 C 8.908 15.690,8.908 16.310,9.299 16.701 C 9.601 17.003,9.573 17.000,12.000 17.000 C 14.427 17.000,14.399 17.003,14.701 16.701 C 15.092 16.310,15.092 15.690,14.701 15.299 C 14.454 15.052,14.259 15.000,13.573 15.000 L 13.000 15.000 13.000 12.927 C 13.000 10.581,13.002 10.600,12.701 10.299 C 12.419 10.017,12.318 10.000,10.983 10.003 C 10.038 10.006,9.787 10.018,9.643 10.069 " stroke="none" fill-rule="evenodd" fill="black"></path></svg>