<svg width="24" height="24" viewBox="0 0 24 24" fill="none" xmlns="http://www.w3.org/2000/svg"><path d="M11.180 1.025 C 9.055 1.202,7.104 1.936,5.400 3.203 C 4.732 3.700,3.700 4.732,3.203 5.400 C 2.061 6.936,1.379 8.599,1.093 10.540 C 0.995 11.207,0.996 12.784,1.094 13.460 C 1.443 15.856,2.447 17.928,4.073 19.608 C 4.711 20.267,5.190 20.668,5.900 21.141 C 7.330 22.093,8.800 22.652,10.540 22.906 C 11.211 23.004,12.789 23.004,13.460 22.906 C 15.403 22.623,17.084 21.929,18.637 20.770 C 19.246 20.316,20.316 19.246,20.770 18.637 C 21.929 17.084,22.623 15.403,22.906 13.460 C 22.958 13.105,22.976 12.724,22.976 12.000 C 22.976 11.276,22.958 10.895,22.906 10.540 C 22.623 8.597,21.929 6.916,20.770 5.363 C 20.314 4.752,19.246 3.684,18.633 3.226 C 17.110 2.090,15.457 1.398,13.600 1.118 C 13.074 1.039,11.667 0.985,11.180 1.025 M12.340 6.066 C 12.709 6.192,13.000 6.604,13.000 7.000 C 13.000 7.405,12.707 7.811,12.323 7.939 C 12.021 8.039,11.287 8.012,11.060 7.892 C 10.703 7.703,10.520 7.400,10.520 7.000 C 10.520 6.867,10.548 6.691,10.582 6.609 C 10.689 6.353,10.951 6.125,11.240 6.037 C 11.435 5.978,12.135 5.996,12.340 6.066 M12.340 10.066 C 12.593 10.153,12.847 10.407,12.934 10.660 C 12.992 10.831,13.000 11.103,13.000 12.927 L 13.000 15.000 13.573 15.000 C 14.259 15.000,14.454 15.052,14.701 15.299 C 15.092 15.690,15.092 16.310,14.701 16.701 C 14.399 17.003,14.427 17.000,12.000 17.000 C 9.573 17.000,9.601 17.003,9.299 16.701 C 8.908 16.310,8.908 15.690,9.299 15.299 C 9.546 15.052,9.741 15.000,10.427 15.000 L 11.000 15.000 11.000 13.500 L 11.000 12.000 10.427 12.000 C 9.741 12.000,9.546 11.948,9.299 11.701 C 8.907 11.309,8.908 10.690,9.300 10.298 C 9.577 10.021,9.659 10.007,10.983 10.003 C 11.966 10.000,12.176 10.010,12.340 10.066 " stroke="none" fill-rule="evenodd"></path></svg>