<svg width="24" height="24" viewBox="0 0 24 24" fill="none" xmlns="http://www.w3.org/2000/svg"><path d="M7.981 1.044 C 6.334 1.108,5.374 1.295,4.409 1.741 C 3.334 2.238,2.236 3.335,1.745 4.403 C 1.431 5.086,1.212 5.909,1.123 6.740 C 0.956 8.296,0.955 15.744,1.122 17.260 C 1.303 18.911,1.851 20.136,2.857 21.142 C 3.532 21.817,4.224 22.241,5.134 22.539 C 6.328 22.929,7.371 22.999,12.000 22.999 C 16.933 22.999,17.936 22.916,19.254 22.400 C 20.833 21.782,22.067 20.430,22.575 18.759 C 22.932 17.584,22.999 16.523,22.999 12.000 C 22.999 7.370,22.929 6.328,22.538 5.133 C 22.233 4.199,21.827 3.540,21.123 2.839 C 20.448 2.166,19.801 1.770,18.880 1.464 C 18.059 1.191,17.418 1.102,15.860 1.040 C 14.707 0.995,9.166 0.997,7.981 1.044 M16.294 3.042 C 18.035 3.137,18.919 3.445,19.723 4.240 C 20.446 4.955,20.772 5.733,20.928 7.120 C 21.002 7.776,21.003 16.119,20.929 16.838 C 20.786 18.236,20.456 19.036,19.723 19.760 C 18.903 20.570,18.029 20.868,16.189 20.963 C 15.062 21.021,7.581 20.988,7.040 20.923 C 5.712 20.761,4.936 20.429,4.240 19.725 C 3.446 18.921,3.137 18.035,3.042 16.294 C 2.988 15.315,2.988 8.685,3.042 7.706 C 3.137 5.965,3.445 5.081,4.240 4.277 C 5.068 3.439,6.066 3.097,7.880 3.027 C 8.749 2.994,15.639 3.006,16.294 3.042 M17.600 4.955 C 17.242 5.073,16.942 5.324,16.770 5.653 C 16.673 5.836,16.660 5.904,16.660 6.240 C 16.660 6.684,16.745 6.907,17.019 7.181 C 17.268 7.430,17.520 7.537,17.900 7.553 C 18.336 7.572,18.608 7.470,18.899 7.179 C 19.190 6.888,19.292 6.616,19.273 6.180 C 19.251 5.661,18.991 5.258,18.540 5.043 C 18.325 4.940,17.796 4.891,17.600 4.955 M11.300 6.385 C 10.367 6.526,9.571 6.831,8.789 7.347 C 8.417 7.593,7.593 8.417,7.347 8.789 C 6.917 9.441,6.615 10.148,6.455 10.881 C 6.349 11.364,6.349 12.636,6.455 13.119 C 6.837 14.868,7.943 16.292,9.542 17.092 C 9.833 17.238,10.487 17.459,10.881 17.545 C 11.364 17.651,12.636 17.651,13.118 17.545 C 14.870 17.162,16.291 16.059,17.092 14.458 C 17.238 14.167,17.459 13.513,17.545 13.119 C 17.651 12.636,17.651 11.364,17.545 10.881 C 17.310 9.804,16.824 8.883,16.082 8.108 C 15.283 7.274,14.345 6.742,13.200 6.474 C 12.946 6.415,12.679 6.391,12.140 6.381 C 11.744 6.373,11.366 6.375,11.300 6.385 M12.873 8.440 C 13.534 8.599,14.163 8.964,14.636 9.461 C 15.109 9.959,15.409 10.502,15.567 11.148 C 15.687 11.638,15.687 12.362,15.567 12.852 C 15.302 13.933,14.589 14.813,13.582 15.302 C 12.628 15.765,11.446 15.781,10.500 15.344 C 9.457 14.862,8.705 13.958,8.434 12.858 C 8.311 12.359,8.311 11.641,8.433 11.145 C 8.529 10.758,8.758 10.234,8.959 9.941 C 9.539 9.098,10.462 8.527,11.513 8.360 C 11.839 8.309,12.486 8.346,12.873 8.440 " stroke="none" fill-rule="evenodd"></path></svg>