<svg width="24" height="24" viewBox="0 0 24 24" fill="none" xmlns="http://www.w3.org/2000/svg"><path d="M10.620 1.025 C 10.212 1.105,10.087 1.139,9.870 1.227 C 9.162 1.515,8.522 2.143,8.252 2.815 C 8.198 2.950,8.132 3.080,8.107 3.104 C 8.081 3.129,7.502 3.243,6.820 3.358 C 4.490 3.751,3.292 4.153,2.620 4.769 C 2.139 5.209,1.952 5.655,2.027 6.178 C 2.080 6.544,2.202 6.792,2.474 7.087 L 2.687 7.319 2.491 7.539 C 2.160 7.911,2.001 8.319,2.000 8.802 C 2.000 9.203,3.183 18.193,3.295 18.640 C 3.509 19.490,3.923 20.208,4.578 20.862 C 5.428 21.712,6.188 22.060,7.960 22.414 C 9.339 22.689,10.523 22.805,11.980 22.806 C 13.675 22.807,15.026 22.657,16.598 22.294 C 17.367 22.117,17.721 22.000,18.180 21.771 C 18.682 21.522,18.999 21.289,19.442 20.843 C 20.078 20.204,20.494 19.479,20.705 18.640 C 20.817 18.193,22.000 9.203,22.000 8.802 C 21.999 8.319,21.840 7.911,21.509 7.539 L 21.313 7.319 21.526 7.087 C 21.798 6.792,21.920 6.544,21.973 6.178 C 22.101 5.287,21.429 4.543,20.023 4.021 C 19.397 3.788,18.521 3.584,17.180 3.357 C 16.498 3.242,15.919 3.128,15.893 3.104 C 15.867 3.080,15.807 2.963,15.761 2.845 C 15.407 1.938,14.477 1.204,13.480 1.043 C 13.239 1.004,10.804 0.989,10.620 1.025 M13.340 3.066 C 13.723 3.197,13.999 3.602,14.001 4.037 C 14.002 4.373,14.223 4.727,14.529 4.884 C 14.626 4.934,15.218 5.051,16.229 5.222 C 17.082 5.366,17.987 5.530,18.239 5.586 C 18.747 5.699,19.560 5.952,19.560 5.997 C 19.560 6.060,18.627 6.339,17.957 6.477 C 14.688 7.148,9.838 7.172,6.360 6.536 C 5.554 6.389,4.440 6.076,4.440 5.997 C 4.440 5.953,5.283 5.692,5.780 5.583 C 6.022 5.530,6.886 5.375,7.700 5.240 C 8.514 5.105,9.258 4.966,9.354 4.932 C 9.741 4.794,9.953 4.486,10.003 3.988 C 10.040 3.629,10.159 3.386,10.381 3.217 C 10.645 3.015,10.733 3.004,11.983 3.002 C 12.964 3.000,13.176 3.010,13.340 3.066 M5.478 8.402 C 9.001 9.171,14.543 9.193,18.252 8.454 L 18.964 8.312 19.192 8.402 C 19.468 8.511,19.800 8.683,19.800 8.718 C 19.800 8.801,18.922 9.146,18.265 9.319 C 14.702 10.263,8.678 10.213,5.360 9.212 C 4.892 9.071,4.200 8.775,4.200 8.716 C 4.200 8.688,4.501 8.534,4.880 8.369 C 5.020 8.308,5.057 8.310,5.478 8.402 M5.500 11.320 C 8.723 12.115,13.560 12.220,17.300 11.575 C 17.960 11.462,18.980 11.216,19.431 11.063 C 19.679 10.979,19.720 10.974,19.720 11.028 C 19.720 11.194,18.829 17.893,18.777 18.119 C 18.652 18.659,18.273 19.262,17.827 19.632 C 17.376 20.005,17.005 20.157,16.003 20.377 C 13.471 20.933,10.876 20.960,8.360 20.455 C 7.894 20.362,7.265 20.204,7.018 20.119 C 6.177 19.830,5.436 19.004,5.222 18.120 C 5.169 17.899,4.280 11.208,4.280 11.028 C 4.280 10.974,4.322 10.979,4.570 11.064 C 4.729 11.118,5.148 11.234,5.500 11.320 " stroke="none" fill-rule="evenodd" fill="black"></path></svg>