<svg width="24" height="24" viewBox="0 0 24 24" fill="none" xmlns="http://www.w3.org/2000/svg"><path d="M6.645 2.055 C 6.571 2.082,6.444 2.160,6.362 2.228 C 6.207 2.359,3.945 5.333,3.624 5.830 C 3.301 6.330,3.013 7.082,2.925 7.660 C 2.902 7.814,2.683 10.316,2.438 13.220 C 1.975 18.720,1.967 18.870,2.102 19.380 C 2.183 19.684,2.502 20.359,2.711 20.666 C 3.083 21.215,3.617 21.617,4.280 21.848 L 4.660 21.980 11.960 21.980 C 18.068 21.980,19.295 21.971,19.477 21.924 C 20.241 21.728,20.887 21.271,21.309 20.627 C 21.537 20.278,21.815 19.689,21.898 19.380 C 22.033 18.871,22.025 18.721,21.562 13.220 C 21.317 10.316,21.098 7.814,21.075 7.660 C 20.982 7.055,20.688 6.305,20.328 5.759 C 20.151 5.490,18.066 2.725,17.755 2.345 C 17.601 2.158,17.281 2.001,17.053 2.000 C 16.962 2.000,16.584 2.044,16.213 2.099 C 15.529 2.199,14.624 2.311,13.720 2.407 C 12.971 2.486,10.908 2.475,10.080 2.387 C 9.271 2.301,7.985 2.137,7.500 2.059 C 7.073 1.989,6.829 1.988,6.645 2.055 M8.400 4.220 C 11.136 4.581,12.571 4.589,15.276 4.258 C 15.725 4.203,16.099 4.166,16.109 4.175 C 16.118 4.184,16.294 5.719,16.501 7.586 C 16.708 9.453,16.887 11.047,16.899 11.128 C 16.924 11.302,16.978 11.280,16.000 11.499 C 13.230 12.119,11.099 12.147,8.466 11.600 C 7.921 11.486,7.120 11.294,7.098 11.271 C 7.093 11.265,7.266 9.667,7.483 7.720 C 7.700 5.773,7.878 4.176,7.879 4.170 C 7.881 4.153,7.929 4.158,8.400 4.220 M5.315 9.123 L 5.031 11.700 4.765 12.335 C 4.619 12.684,4.495 12.945,4.489 12.914 C 4.465 12.794,4.885 8.007,4.937 7.800 C 5.036 7.412,5.162 7.123,5.368 6.816 C 5.478 6.651,5.576 6.522,5.584 6.531 C 5.593 6.539,5.472 7.706,5.315 9.123 M18.720 6.960 C 18.878 7.221,19.010 7.553,19.081 7.866 C 19.122 8.048,19.529 12.824,19.511 12.914 C 19.505 12.945,19.381 12.684,19.235 12.335 L 18.969 11.700 18.702 9.260 C 18.555 7.918,18.425 6.748,18.414 6.660 L 18.394 6.500 18.478 6.600 C 18.524 6.655,18.633 6.817,18.720 6.960 M7.260 13.381 C 8.276 13.625,9.346 13.808,10.440 13.927 C 11.034 13.992,12.966 13.992,13.560 13.927 C 14.666 13.807,16.123 13.549,17.065 13.305 L 17.430 13.211 18.674 16.112 L 19.917 19.013 19.753 19.328 C 19.572 19.677,19.398 19.846,19.125 19.939 C 18.853 20.032,5.147 20.032,4.875 19.939 C 4.602 19.846,4.428 19.677,4.247 19.328 L 4.083 19.013 5.329 16.105 C 6.333 13.763,6.587 13.202,6.638 13.222 C 6.672 13.235,6.952 13.307,7.260 13.381 " stroke="none" fill-rule="evenodd" fill="black"></path></svg>