<svg width="24" height="24" viewBox="0 0 24 24" fill="none" xmlns="http://www.w3.org/2000/svg"><path d="M5.620 4.025 C 5.212 4.105,5.087 4.139,4.870 4.227 C 4.164 4.514,3.528 5.137,3.250 5.815 C 3.007 6.407,3.024 6.023,3.010 11.296 C 2.996 16.743,2.977 16.379,3.298 16.700 C 3.624 17.027,2.854 17.000,12.000 17.000 C 21.146 17.000,20.376 17.027,20.702 16.700 C 21.023 16.379,21.004 16.743,20.990 11.296 C 20.976 6.051,20.991 6.413,20.763 5.845 C 20.396 4.929,19.476 4.204,18.480 4.043 C 18.234 4.003,5.819 3.986,5.620 4.025 M18.340 6.066 C 18.455 6.105,18.603 6.201,18.701 6.299 C 19.017 6.615,19.000 6.346,19.000 10.927 L 19.000 15.000 11.999 15.000 L 4.999 15.000 5.009 10.850 L 5.020 6.700 5.131 6.511 C 5.256 6.298,5.449 6.136,5.670 6.057 C 5.793 6.013,6.939 6.003,11.983 6.002 C 17.617 6.000,18.162 6.006,18.340 6.066 M1.643 18.069 C 1.291 18.193,1.000 18.614,1.000 19.000 C 1.000 19.396,1.291 19.808,1.660 19.934 C 1.839 19.995,2.661 20.000,12.000 20.000 C 23.385 20.000,22.374 20.028,22.701 19.701 C 23.092 19.310,23.092 18.690,22.701 18.299 C 22.374 17.972,23.388 18.000,11.983 18.003 C 2.885 18.006,1.801 18.013,1.643 18.069 " stroke="none" fill-rule="evenodd" fill="black"></path></svg>