<svg width="24" height="24" viewBox="0 0 24 24" fill="none" xmlns="http://www.w3.org/2000/svg"><path d="M19.240 1.027 C 15.031 1.157,11.501 1.847,8.912 3.044 C 5.373 4.682,3.256 7.362,2.464 11.207 C 2.088 13.030,2.001 14.515,2.000 19.083 C 2.000 22.535,1.988 22.390,2.299 22.701 C 2.690 23.092,3.310 23.092,3.701 22.701 C 4.003 22.399,4.000 22.428,4.000 20.000 C 4.000 17.618,4.013 17.455,4.262 16.694 C 5.085 14.172,7.317 12.578,10.773 12.044 C 11.351 11.954,11.584 11.861,11.759 11.649 C 12.093 11.243,12.068 10.666,11.700 10.298 C 11.369 9.967,11.105 9.943,10.000 10.144 C 7.779 10.549,6.019 11.351,4.620 12.596 C 4.400 12.792,4.215 12.947,4.209 12.942 C 4.203 12.936,4.226 12.744,4.261 12.516 C 4.820 8.785,6.433 6.478,9.544 4.960 C 11.838 3.841,14.959 3.207,18.996 3.040 C 19.533 3.018,19.980 3.007,19.989 3.016 C 20.017 3.044,19.920 4.866,19.858 5.480 C 19.256 11.449,16.796 15.046,12.391 16.401 C 11.221 16.761,9.573 16.998,8.237 17.000 C 7.756 17.000,7.524 17.074,7.299 17.299 C 6.907 17.691,6.908 18.310,7.300 18.702 C 7.578 18.980,7.755 19.017,8.652 18.986 C 12.567 18.850,15.625 17.670,17.840 15.443 C 20.118 13.152,21.433 9.924,21.858 5.580 C 21.939 4.752,22.013 3.070,21.981 2.785 C 21.863 1.733,20.963 0.980,19.860 1.009 C 19.706 1.013,19.427 1.021,19.240 1.027 " stroke="none" fill-rule="evenodd" fill="black"></path></svg>