<svg width="24" height="24" viewBox="0 0 24 24" fill="none" xmlns="http://www.w3.org/2000/svg"><path d="M11.020 1.042 C 8.919 1.254,7.033 1.983,5.363 3.230 C 4.731 3.702,3.682 4.755,3.203 5.400 C 0.495 9.044,0.266 13.871,2.618 17.737 C 3.344 18.930,4.437 20.108,5.580 20.928 C 9.304 23.602,14.317 23.686,18.120 21.139 C 19.386 20.291,20.595 19.030,21.382 17.737 C 23.740 13.861,23.499 8.999,20.769 5.364 C 20.103 4.477,19.056 3.488,18.120 2.861 C 16.748 1.942,15.128 1.327,13.479 1.100 C 12.929 1.024,11.522 0.991,11.020 1.042 M13.420 3.117 C 14.373 3.276,15.082 3.501,15.940 3.916 C 16.402 4.140,17.177 4.617,17.539 4.900 C 17.615 4.959,17.556 5.024,16.189 6.391 C 14.819 7.761,14.757 7.817,14.672 7.764 C 14.446 7.623,13.871 7.356,13.600 7.265 C 13.035 7.078,12.665 7.021,12.000 7.021 C 11.006 7.021,10.258 7.227,9.370 7.744 L 9.241 7.820 7.812 6.391 C 6.443 5.022,6.385 4.959,6.461 4.900 C 6.504 4.866,6.753 4.695,7.013 4.520 C 8.289 3.665,9.615 3.202,11.300 3.025 C 11.685 2.984,12.955 3.039,13.420 3.117 M6.400 7.821 L 7.820 9.241 7.744 9.371 C 7.226 10.258,7.021 11.002,7.021 12.000 C 7.021 12.997,7.223 13.729,7.745 14.630 L 7.820 14.759 6.391 16.188 C 5.024 17.556,4.959 17.615,4.900 17.539 C 4.624 17.186,4.148 16.412,3.920 15.945 C 3.500 15.086,3.258 14.313,3.094 13.300 C 2.994 12.686,2.994 11.314,3.094 10.700 C 3.323 9.292,3.791 8.087,4.538 6.985 C 4.935 6.400,4.935 6.400,4.960 6.400 C 4.971 6.400,5.619 7.039,6.400 7.821 M19.106 6.470 C 19.361 6.793,19.850 7.584,20.061 8.015 C 20.707 9.333,20.978 10.509,20.978 12.000 C 20.978 13.485,20.716 14.635,20.081 15.942 C 19.856 16.406,19.378 17.183,19.100 17.539 C 19.041 17.615,18.976 17.556,17.614 16.194 L 16.190 14.770 16.454 14.235 C 16.827 13.479,17.000 12.773,17.000 12.000 C 17.000 11.227,16.827 10.521,16.454 9.765 L 16.190 9.231 17.605 7.815 C 18.383 7.037,19.027 6.400,19.035 6.400 C 19.044 6.400,19.076 6.431,19.106 6.470 M12.592 9.063 C 13.366 9.222,14.039 9.673,14.488 10.333 C 15.343 11.588,15.089 13.337,13.913 14.306 C 12.918 15.125,11.512 15.222,10.430 14.547 C 8.778 13.517,8.515 11.262,9.885 9.884 C 10.591 9.174,11.616 8.863,12.592 9.063 M9.775 16.460 C 11.358 17.243,13.062 17.171,14.630 16.256 L 14.759 16.180 16.188 17.609 C 17.556 18.976,17.615 19.041,17.539 19.100 C 17.183 19.378,16.406 19.856,15.942 20.081 C 14.635 20.716,13.485 20.978,12.000 20.978 C 10.510 20.978,9.329 20.706,8.020 20.063 C 7.588 19.851,6.782 19.353,6.461 19.100 C 6.386 19.041,6.443 18.978,7.801 17.619 C 8.581 16.839,9.227 16.200,9.235 16.200 C 9.244 16.200,9.487 16.317,9.775 16.460 " stroke="none" fill-rule="evenodd" fill="black"></path></svg>