<svg width="24" height="24" viewBox="0 0 24 24" fill="none" xmlns="http://www.w3.org/2000/svg"><path d="M11.040 1.061 C 8.684 1.353,6.584 2.665,5.281 4.660 C 5.166 4.836,4.957 5.214,4.817 5.500 C 3.738 7.694,3.732 10.260,4.800 12.471 C 5.240 13.384,5.762 14.088,6.578 14.871 C 6.847 15.129,7.087 15.394,7.112 15.460 C 7.138 15.526,7.268 16.102,7.402 16.740 C 7.545 17.420,7.691 18.008,7.755 18.161 C 8.031 18.819,8.633 19.438,9.280 19.728 C 9.829 19.974,9.826 19.974,11.813 19.990 C 13.760 20.006,14.005 19.991,14.490 19.822 C 15.159 19.589,15.834 18.993,16.171 18.338 C 16.291 18.105,16.399 17.694,16.620 16.640 C 16.742 16.057,16.870 15.507,16.903 15.418 C 16.945 15.308,17.038 15.197,17.187 15.078 C 17.487 14.838,18.060 14.234,18.360 13.841 C 20.194 11.431,20.512 8.210,19.183 5.500 C 18.747 4.609,18.222 3.894,17.496 3.199 C 15.791 1.567,13.384 0.770,11.040 1.061 M13.164 3.116 C 13.718 3.228,14.232 3.411,14.761 3.684 C 16.401 4.532,17.545 6.080,17.907 7.940 C 18.006 8.454,18.006 9.522,17.905 10.060 C 17.634 11.509,16.828 12.829,15.654 13.746 L 15.329 14.000 11.993 14.000 L 8.658 14.000 8.319 13.734 C 7.157 12.821,6.382 11.541,6.093 10.060 C 5.996 9.561,5.996 8.439,6.093 7.940 C 6.208 7.349,6.389 6.824,6.662 6.287 C 7.238 5.152,8.115 4.267,9.246 3.681 C 9.921 3.331,10.503 3.155,11.420 3.024 C 11.701 2.983,12.794 3.041,13.164 3.116 M14.571 16.670 C 14.420 17.397,14.331 17.606,14.099 17.783 C 13.825 17.993,13.787 17.996,12.000 17.996 C 10.213 17.996,10.175 17.993,9.901 17.783 C 9.668 17.606,9.579 17.397,9.428 16.670 L 9.289 16.000 11.999 16.000 L 14.710 16.000 14.571 16.670 M9.643 21.069 C 9.291 21.193,9.000 21.614,9.000 22.000 C 9.000 22.242,9.119 22.521,9.299 22.701 C 9.601 23.003,9.573 23.000,12.000 23.000 C 14.427 23.000,14.399 23.003,14.701 22.701 C 15.092 22.310,15.092 21.690,14.701 21.299 C 14.398 20.996,14.430 21.000,11.983 21.003 C 10.132 21.006,9.795 21.015,9.643 21.069 " stroke="none" fill-rule="evenodd" fill="black"></path></svg>