<svg width="24" height="24" viewBox="0 0 24 24" fill="none" xmlns="http://www.w3.org/2000/svg"><path d="M4.004 2.059 C 3.863 2.091,3.593 2.194,3.404 2.287 C 2.359 2.803,1.793 4.020,2.079 5.137 C 2.209 5.646,2.376 5.937,2.759 6.324 C 3.288 6.858,3.818 7.081,4.558 7.079 C 5.010 7.079,5.345 7.007,5.695 6.837 C 6.588 6.401,7.131 5.532,7.130 4.540 C 7.128 3.433,6.446 2.497,5.380 2.138 C 4.982 2.005,4.393 1.971,4.004 2.059 M2.560 15.320 L 2.560 21.840 4.560 21.840 L 6.560 21.840 6.560 15.320 L 6.560 8.800 4.560 8.800 L 2.560 8.800 2.560 15.320 M16.340 8.842 C 15.032 9.019,13.875 9.666,13.314 10.534 L 13.162 10.770 13.151 9.875 L 13.140 8.980 11.290 8.970 L 9.440 8.959 9.440 15.480 L 9.440 22.000 11.440 22.000 L 13.440 22.000 13.440 18.555 C 13.440 14.814,13.449 14.632,13.664 13.970 C 14.043 12.804,14.911 12.203,16.152 12.246 C 16.527 12.259,16.610 12.275,16.820 12.378 C 17.381 12.652,17.694 13.190,17.905 14.240 C 17.965 14.542,17.974 14.996,17.989 18.290 L 18.005 22.000 20.002 22.000 L 22.000 22.000 22.000 18.070 C 21.999 15.845,21.982 13.897,21.959 13.580 C 21.859 12.187,21.579 11.161,21.104 10.446 C 20.865 10.086,20.400 9.649,20.020 9.427 C 19.659 9.215,19.007 8.992,18.480 8.901 C 18.029 8.822,16.747 8.787,16.340 8.842 " stroke="none" fill-rule="evenodd"></path></svg>