<svg width="24" height="24" viewBox="0 0 24 24" fill="none" xmlns="http://www.w3.org/2000/svg"><path d="M2.360 1.073 C 2.028 1.159,1.794 1.298,1.528 1.566 C 1.287 1.809,1.099 2.159,1.040 2.475 C 1.014 2.616,1.000 5.933,1.001 12.015 C 1.001 22.251,0.986 21.617,1.239 22.057 C 1.387 22.316,1.684 22.613,1.943 22.761 C 2.383 23.014,1.749 22.999,11.985 22.999 C 18.067 23.000,21.384 22.986,21.525 22.960 C 22.005 22.870,22.505 22.505,22.761 22.058 C 23.014 21.616,22.999 22.254,22.999 12.000 C 22.999 1.739,23.014 2.384,22.760 1.939 C 22.502 1.490,22.009 1.131,21.525 1.040 C 21.384 1.014,18.067 1.001,11.965 1.002 C 3.305 1.004,2.601 1.010,2.360 1.073 M6.339 3.821 C 7.321 4.077,7.994 5.089,7.848 6.089 C 7.715 7.007,7.007 7.716,6.095 7.848 C 5.094 7.992,4.105 7.344,3.833 6.366 C 3.530 5.271,4.188 4.118,5.284 3.823 C 5.570 3.746,6.047 3.745,6.339 3.821 M7.400 14.520 L 7.400 19.800 5.800 19.800 L 4.200 19.800 4.200 14.520 L 4.200 9.240 5.800 9.240 L 7.400 9.240 7.400 14.520 M16.543 9.284 C 18.411 9.472,19.335 10.345,19.658 12.231 C 19.773 12.902,19.799 13.762,19.800 16.830 L 19.800 19.920 18.200 19.920 L 16.600 19.920 16.599 17.390 C 16.599 15.998,16.581 14.601,16.559 14.284 C 16.491 13.286,16.290 12.680,15.913 12.341 C 15.661 12.115,15.434 12.040,15.001 12.040 C 14.377 12.040,13.945 12.212,13.579 12.608 C 13.327 12.880,13.156 13.217,13.033 13.684 C 12.946 14.014,12.944 14.073,12.930 16.970 L 12.916 19.920 11.318 19.920 L 9.720 19.920 9.720 14.660 L 9.720 9.400 11.199 9.400 L 12.678 9.400 12.689 10.130 L 12.700 10.860 12.806 10.680 C 12.917 10.492,13.339 10.054,13.542 9.916 C 13.797 9.742,14.298 9.514,14.630 9.419 C 15.221 9.250,15.800 9.209,16.543 9.284 " stroke="none" fill-rule="evenodd"></path></svg>