<svg width="24" height="24" viewBox="0 0 24 24" fill="none" xmlns="http://www.w3.org/2000/svg"><path d="M4.620 2.025 C 4.212 2.105,4.087 2.139,3.870 2.227 C 2.989 2.585,2.321 3.364,2.076 4.320 C 1.993 4.647,1.992 19.351,2.076 19.677 C 2.357 20.776,3.117 21.553,4.260 21.915 C 4.439 21.971,5.243 21.979,11.820 21.990 C 16.818 21.998,19.268 21.989,19.453 21.960 C 20.467 21.804,21.358 21.109,21.759 20.160 C 21.984 19.627,21.975 19.760,21.990 16.706 C 22.005 13.498,22.015 13.613,21.702 13.300 C 21.310 12.908,20.691 12.907,20.299 13.299 C 19.991 13.606,20.000 13.514,20.000 16.500 C 20.000 19.486,20.009 19.394,19.701 19.701 C 19.377 20.025,20.023 20.000,12.000 20.000 C 3.977 20.000,4.623 20.025,4.299 19.701 C 3.975 19.377,4.000 20.026,4.002 11.983 C 4.003 6.104,4.013 4.793,4.057 4.670 C 4.136 4.449,4.298 4.256,4.511 4.131 L 4.700 4.020 7.480 4.000 L 10.260 3.980 10.450 3.886 C 11.051 3.590,11.180 2.778,10.701 2.299 C 10.392 1.990,10.496 1.999,7.423 2.005 C 5.925 2.007,4.664 2.016,4.620 2.025 M15.643 2.069 C 15.291 2.193,15.000 2.614,15.000 3.000 C 15.000 3.396,15.291 3.808,15.660 3.934 C 15.826 3.990,16.053 4.000,17.217 4.000 L 18.579 4.000 15.614 6.970 C 12.327 10.264,12.495 10.068,12.527 10.574 C 12.559 11.083,12.917 11.441,13.426 11.473 C 13.933 11.505,13.736 11.674,17.030 8.386 L 20.000 5.421 20.000 6.783 C 20.000 8.339,20.012 8.414,20.299 8.701 C 20.690 9.092,21.310 9.092,21.701 8.701 C 22.009 8.393,22.000 8.490,22.000 5.463 L 21.999 2.780 21.905 2.580 C 21.791 2.340,21.642 2.193,21.400 2.083 C 21.224 2.004,21.153 2.002,18.520 2.004 C 16.181 2.006,15.796 2.015,15.643 2.069 " stroke="none" fill-rule="evenodd" fill="black"></path></svg>