<svg width="24" height="24" viewBox="0 0 24 24" fill="none" xmlns="http://www.w3.org/2000/svg"><path d="M15.835 2.059 C 14.957 2.203,14.151 2.537,13.440 3.052 C 13.120 3.284,11.209 5.192,11.108 5.380 C 10.988 5.604,10.988 6.035,11.108 6.263 C 11.288 6.603,11.629 6.814,12.000 6.814 C 12.377 6.814,12.437 6.771,13.480 5.742 C 14.642 4.597,14.928 4.385,15.600 4.167 C 17.677 3.494,19.839 4.961,19.987 7.143 C 20.039 7.910,19.841 8.621,19.389 9.300 C 19.141 9.671,15.774 13.019,15.406 13.259 C 14.834 13.633,14.224 13.811,13.520 13.808 C 12.653 13.805,11.943 13.525,11.251 12.913 C 10.951 12.649,10.759 12.562,10.469 12.561 C 9.900 12.559,9.463 12.985,9.466 13.539 C 9.469 13.976,9.652 14.233,10.319 14.735 C 12.216 16.163,14.771 16.180,16.722 14.776 C 17.175 14.450,20.805 10.790,21.062 10.400 C 21.471 9.780,21.754 9.096,21.907 8.360 C 22.006 7.885,22.006 6.830,21.906 6.360 C 21.745 5.594,21.377 4.756,20.951 4.180 C 20.664 3.794,20.079 3.221,19.715 2.971 C 19.119 2.562,18.381 2.249,17.660 2.099 C 17.221 2.008,16.274 1.987,15.835 2.059 M9.972 8.204 C 8.997 8.291,8.015 8.669,7.240 9.256 C 7.036 9.410,6.147 10.271,5.018 11.407 C 3.013 13.423,2.904 13.550,2.540 14.300 C 2.335 14.722,2.186 15.166,2.090 15.640 C 1.994 16.116,1.996 17.175,2.094 17.640 C 2.255 18.406,2.623 19.246,3.050 19.820 C 3.316 20.178,3.822 20.684,4.180 20.950 C 4.754 21.376,5.593 21.745,6.360 21.906 C 6.824 22.004,7.879 22.005,8.368 21.907 C 9.070 21.768,9.780 21.474,10.383 21.075 C 10.762 20.824,12.759 18.871,12.892 18.620 C 13.012 18.396,13.011 17.964,12.892 17.737 C 12.712 17.397,12.371 17.186,12.000 17.186 C 11.623 17.186,11.564 17.229,10.520 18.258 C 9.367 19.395,9.099 19.596,8.430 19.823 C 7.484 20.145,6.360 20.003,5.537 19.456 C 3.933 18.391,3.530 16.323,4.611 14.700 C 4.858 14.330,8.225 10.983,8.594 10.741 C 9.165 10.367,9.776 10.189,10.480 10.192 C 11.347 10.195,12.094 10.491,12.760 11.094 C 13.043 11.350,13.240 11.438,13.531 11.439 C 14.100 11.441,14.535 11.016,14.535 10.459 C 14.535 10.119,14.419 9.901,14.066 9.577 C 13.416 8.980,12.558 8.529,11.680 8.322 C 11.394 8.255,10.512 8.149,10.380 8.166 C 10.358 8.169,10.175 8.186,9.972 8.204 " stroke="none" fill-rule="evenodd" fill="black"></path></svg>