<svg width="24" height="24" viewBox="0 0 24 24" fill="none" xmlns="http://www.w3.org/2000/svg"><path d="M7.214 5.044 C 4.816 5.323,2.738 6.803,1.698 8.973 C 0.030 12.454,1.478 16.613,4.940 18.285 C 6.042 18.817,6.920 18.999,8.383 19.000 C 9.277 19.000,9.439 18.963,9.701 18.701 C 10.180 18.222,10.051 17.410,9.450 17.114 C 9.272 17.026,9.199 17.018,8.300 16.996 C 7.623 16.979,7.246 16.951,7.020 16.903 C 6.002 16.684,5.216 16.257,4.478 15.521 C 3.738 14.783,3.314 13.999,3.093 12.960 C 2.993 12.489,2.993 11.511,3.093 11.040 C 3.314 10.001,3.738 9.217,4.478 8.479 C 5.219 7.740,5.998 7.317,7.020 7.097 C 7.246 7.049,7.623 7.021,8.300 7.004 C 9.199 6.982,9.272 6.974,9.450 6.886 C 10.051 6.590,10.180 5.778,9.701 5.299 C 9.433 5.031,9.283 4.999,8.323 5.005 C 7.870 5.008,7.371 5.025,7.214 5.044 M14.643 5.069 C 14.546 5.103,14.392 5.206,14.300 5.298 C 13.820 5.778,13.948 6.590,14.550 6.886 C 14.728 6.974,14.801 6.982,15.700 7.004 C 16.710 7.030,17.017 7.072,17.592 7.263 C 18.334 7.511,18.932 7.887,19.522 8.477 C 20.260 9.216,20.687 10.006,20.907 11.040 C 21.007 11.511,21.007 12.489,20.907 12.960 C 20.687 13.993,20.262 14.778,19.521 15.522 C 18.792 16.253,18.000 16.683,16.980 16.903 C 16.754 16.951,16.377 16.979,15.700 16.996 C 14.801 17.018,14.728 17.026,14.550 17.114 C 13.949 17.410,13.820 18.222,14.299 18.701 C 14.561 18.963,14.723 19.000,15.617 19.000 C 17.065 18.999,17.951 18.817,19.031 18.300 C 20.481 17.605,21.606 16.480,22.302 15.027 C 23.498 12.531,23.134 9.636,21.353 7.498 C 20.743 6.766,20.022 6.199,19.140 5.760 C 17.983 5.184,17.114 4.998,15.600 5.003 C 15.001 5.006,14.779 5.021,14.643 5.069 " stroke="none" fill-rule="evenodd" fill="black"></path></svg>