<svg width="24" height="24" viewBox="0 0 24 24" fill="none" xmlns="http://www.w3.org/2000/svg"><path d="M11.100 1.045 C 10.126 1.137,8.993 1.462,8.060 1.918 C 4.939 3.441,2.999 6.570,3.000 10.080 C 3.001 12.073,3.539 13.663,4.694 15.082 C 4.829 15.248,6.386 17.052,8.153 19.090 C 11.714 23.198,11.499 22.980,12.000 22.980 C 12.501 22.980,12.286 23.198,15.847 19.090 C 17.614 17.052,19.171 15.248,19.306 15.082 C 20.533 13.574,21.067 11.872,20.987 9.720 C 20.936 8.360,20.651 7.218,20.063 6.020 C 18.418 2.666,14.857 0.690,11.100 1.045 M12.740 3.042 C 15.189 3.322,17.250 4.779,18.302 6.973 C 18.821 8.055,19.035 9.113,18.987 10.360 C 18.937 11.663,18.678 12.509,18.046 13.428 C 17.825 13.749,12.056 20.440,12.000 20.440 C 11.940 20.440,6.166 13.737,5.935 13.398 C 5.314 12.489,5.063 11.660,5.013 10.360 C 4.955 8.845,5.328 7.438,6.110 6.220 C 7.530 4.008,10.160 2.747,12.740 3.042 M11.310 6.063 C 10.478 6.214,9.777 6.581,9.179 7.179 C 8.367 7.990,7.955 9.053,8.014 10.180 C 8.110 12.013,9.346 13.487,11.140 13.905 C 11.604 14.014,12.459 14.007,12.920 13.891 C 14.409 13.516,15.516 12.409,15.891 10.920 C 16.007 10.459,16.014 9.604,15.905 9.140 C 15.415 7.038,13.395 5.686,11.310 6.063 M12.408 8.044 C 13.310 8.232,14.000 9.080,14.000 10.000 C 14.000 11.080,13.080 12.000,12.000 12.000 C 11.080 12.000,10.232 11.310,10.044 10.408 C 9.905 9.743,10.105 9.087,10.596 8.597 C 11.090 8.105,11.743 7.906,12.408 8.044 " stroke="none" fill-rule="evenodd" fill="black"></path></svg>