<svg width="24" height="24" viewBox="0 0 24 24" fill="none" xmlns="http://www.w3.org/2000/svg"><path d="M8.310 2.063 C 7.040 2.293,5.951 3.116,5.402 4.260 C 5.041 5.011,5.000 5.329,5.000 7.340 L 5.000 8.990 4.727 9.017 C 3.442 9.143,2.403 10.046,2.076 11.320 C 1.993 11.645,1.992 20.353,2.076 20.677 C 2.357 21.776,3.117 22.553,4.260 22.915 C 4.439 22.971,5.243 22.979,11.820 22.990 C 16.818 22.998,19.268 22.989,19.453 22.960 C 20.643 22.777,21.620 21.876,21.924 20.680 C 22.007 20.354,22.007 11.646,21.924 11.323 C 21.604 10.076,20.609 9.187,19.357 9.029 L 19.005 8.984 18.990 7.182 C 18.975 5.499,18.969 5.359,18.889 5.060 C 18.465 3.461,17.256 2.339,15.659 2.061 C 15.164 1.975,8.789 1.977,8.310 2.063 M15.408 4.044 C 16.158 4.201,16.799 4.842,16.956 5.592 C 16.984 5.726,17.000 6.390,17.000 7.402 L 17.000 9.000 12.000 9.000 L 7.000 9.000 7.000 7.402 C 7.000 6.390,7.016 5.726,7.044 5.592 C 7.196 4.863,7.808 4.233,8.534 4.057 C 8.812 3.989,15.090 3.978,15.408 4.044 M19.340 11.066 C 19.455 11.105,19.603 11.201,19.701 11.299 C 20.018 11.616,20.000 11.337,20.000 16.000 C 20.000 20.663,20.018 20.384,19.701 20.701 C 19.377 21.025,20.023 21.000,12.000 21.000 C 3.975 21.000,4.623 21.025,4.298 20.700 C 3.980 20.382,3.997 20.669,4.009 15.918 L 4.020 11.700 4.131 11.511 C 4.256 11.298,4.449 11.136,4.670 11.057 C 4.793 11.013,6.104 11.003,11.983 11.002 C 18.548 11.000,19.162 11.006,19.340 11.066 " stroke="none" fill-rule="evenodd" fill="black"></path></svg>