<svg width="24" height="24" viewBox="0 0 24 24" fill="none" xmlns="http://www.w3.org/2000/svg"><path d="M8.310 1.063 C 7.478 1.214,6.777 1.581,6.179 2.179 C 5.569 2.788,5.211 3.481,5.061 4.341 C 5.011 4.625,5.000 5.095,5.000 6.840 L 5.000 8.990 4.727 9.017 C 3.442 9.143,2.403 10.046,2.076 11.320 C 1.993 11.645,1.992 20.353,2.076 20.677 C 2.357 21.776,3.117 22.553,4.260 22.915 C 4.439 22.971,5.243 22.979,11.820 22.990 C 16.818 22.998,19.268 22.989,19.453 22.960 C 20.643 22.777,21.620 21.876,21.924 20.680 C 22.007 20.354,22.007 11.646,21.924 11.323 C 21.617 10.126,20.660 9.233,19.480 9.043 C 19.307 9.015,17.184 9.001,13.110 9.000 L 7.000 9.000 7.000 6.902 C 7.000 5.525,7.015 4.731,7.044 4.592 C 7.121 4.224,7.310 3.883,7.596 3.596 C 7.883 3.310,8.224 3.121,8.592 3.044 C 8.887 2.983,15.113 2.983,15.408 3.044 C 16.158 3.201,16.799 3.842,16.956 4.592 C 16.980 4.709,17.000 5.106,17.000 5.475 C 17.000 6.268,17.043 6.445,17.299 6.701 C 17.691 7.093,18.310 7.092,18.702 6.700 C 18.981 6.421,19.012 6.265,18.989 5.247 C 18.973 4.547,18.954 4.318,18.887 4.060 C 18.477 2.474,17.256 1.340,15.659 1.061 C 15.164 0.975,8.789 0.977,8.310 1.063 M19.340 11.066 C 19.455 11.105,19.603 11.201,19.701 11.299 C 20.018 11.616,20.000 11.337,20.000 16.000 C 20.000 20.663,20.018 20.384,19.701 20.701 C 19.377 21.025,20.023 21.000,12.000 21.000 C 3.975 21.000,4.623 21.025,4.298 20.700 C 3.980 20.382,3.997 20.669,4.009 15.918 L 4.020 11.700 4.131 11.511 C 4.256 11.298,4.449 11.136,4.670 11.057 C 4.793 11.013,6.104 11.003,11.983 11.002 C 18.548 11.000,19.162 11.006,19.340 11.066 " stroke="none" fill-rule="evenodd" fill="black"></path></svg>