<svg width="24" height="24" viewBox="0 0 24 24" fill="none" xmlns="http://www.w3.org/2000/svg"><path d="M14.220 2.219 C 14.022 2.272,12.807 2.667,11.520 3.097 C 9.881 3.646,9.128 3.880,9.003 3.880 C 8.882 3.880,8.323 3.714,7.263 3.363 C 5.610 2.815,5.246 2.730,4.782 2.780 C 3.474 2.922,2.502 3.716,2.114 4.960 L 2.020 5.260 2.020 11.640 C 2.020 16.962,2.029 18.056,2.076 18.237 C 2.219 18.794,2.512 19.308,2.904 19.690 C 3.179 19.957,3.354 20.081,3.691 20.249 C 3.973 20.389,7.820 21.685,8.300 21.802 C 8.724 21.905,9.277 21.905,9.700 21.801 C 9.876 21.758,11.100 21.362,12.420 20.922 C 14.102 20.360,14.872 20.120,14.997 20.120 C 15.118 20.120,15.676 20.286,16.737 20.638 C 18.486 21.217,18.746 21.274,19.335 21.201 C 20.563 21.048,21.509 20.247,21.886 19.040 L 21.980 18.740 21.980 12.360 C 21.980 7.038,21.971 5.944,21.924 5.763 C 21.719 4.963,21.220 4.285,20.530 3.869 C 20.273 3.714,19.861 3.562,18.120 2.979 C 16.965 2.593,15.876 2.241,15.700 2.198 C 15.245 2.088,14.687 2.096,14.220 2.219 M14.000 11.337 L 14.000 18.273 12.050 18.923 C 10.978 19.280,10.078 19.580,10.050 19.590 C 10.010 19.605,10.000 18.204,10.000 12.668 L 10.000 5.727 11.970 5.066 C 13.053 4.703,13.954 4.405,13.970 4.403 C 13.987 4.401,14.000 7.522,14.000 11.337 M17.817 5.000 C 19.478 5.553,19.538 5.576,19.700 5.738 C 20.023 6.061,20.000 5.549,20.000 12.332 C 20.000 16.992,19.989 18.408,19.951 18.535 C 19.876 18.787,19.553 19.097,19.283 19.176 C 19.163 19.211,19.030 19.240,18.986 19.240 C 18.942 19.240,18.252 19.023,17.453 18.757 L 16.000 18.274 16.000 11.333 C 16.000 5.797,16.010 4.395,16.050 4.410 C 16.078 4.420,16.872 4.685,17.817 5.000 M6.547 5.243 L 8.000 5.726 8.000 12.667 C 8.000 18.203,7.990 19.605,7.950 19.590 C 7.923 19.580,7.128 19.315,6.183 19.000 C 4.522 18.447,4.462 18.424,4.300 18.262 C 3.977 17.939,4.000 18.451,4.000 11.668 C 4.000 7.155,4.012 5.590,4.047 5.472 C 4.102 5.287,4.357 4.985,4.535 4.892 C 4.675 4.819,4.851 4.770,4.997 4.764 C 5.050 4.762,5.748 4.977,6.547 5.243 " stroke="none" fill-rule="evenodd" fill="black"></path></svg>