<svg width="24" height="24" viewBox="0 0 24 24" fill="none" xmlns="http://www.w3.org/2000/svg"><path d="M2.240 4.162 C 2.240 4.316,2.297 4.394,3.261 5.563 C 3.823 6.244,4.300 6.846,4.320 6.901 C 4.380 7.057,4.376 16.545,4.316 16.715 C 4.290 16.789,3.759 17.473,3.135 18.235 C 2.049 19.563,2.002 19.627,2.001 19.790 L 2.000 19.960 4.980 19.960 L 7.960 19.960 7.959 19.790 C 7.957 19.627,7.911 19.563,6.856 18.280 C 6.251 17.543,5.716 16.868,5.668 16.780 L 5.580 16.620 5.569 12.563 C 5.563 10.331,5.569 8.515,5.581 8.527 C 5.593 8.540,6.769 11.112,8.194 14.245 L 10.786 19.940 11.099 19.940 L 11.411 19.940 13.624 14.280 C 14.841 11.167,15.845 8.602,15.855 8.580 C 15.865 8.558,15.875 10.655,15.878 13.240 L 15.882 17.940 15.000 18.800 C 14.121 19.656,14.118 19.661,14.119 19.830 L 14.120 20.000 18.040 20.000 L 21.960 20.000 21.960 19.831 C 21.960 19.665,21.948 19.650,21.100 18.799 L 20.240 17.936 20.239 11.998 L 20.237 6.060 21.119 5.198 C 21.991 4.345,22.000 4.334,22.000 4.168 L 22.000 3.999 19.232 4.010 L 16.464 4.020 14.504 8.948 C 13.426 11.659,12.534 13.867,12.522 13.855 C 12.510 13.843,11.501 11.626,10.280 8.927 L 8.059 4.020 5.150 4.010 L 2.240 3.999 2.240 4.162 " stroke="none" fill-rule="evenodd"></path></svg>