<svg width="24" height="24" viewBox="0 0 24 24" fill="none" xmlns="http://www.w3.org/2000/svg"><path d="M11.180 1.025 C 9.385 1.173,7.618 1.757,6.148 2.687 C 4.822 3.527,3.527 4.822,2.687 6.148 C 1.869 7.441,1.331 8.923,1.093 10.540 C 0.995 11.207,0.996 12.784,1.094 13.460 C 1.455 15.942,2.477 17.997,4.219 19.742 C 4.905 20.431,5.272 20.733,6.000 21.211 C 7.358 22.102,8.858 22.662,10.540 22.906 C 11.131 22.991,12.708 23.004,13.280 22.928 C 14.215 22.804,15.064 22.596,15.867 22.297 C 17.085 21.842,18.612 20.927,18.860 20.504 C 19.223 19.884,18.819 19.086,18.106 19.012 C 17.800 18.981,17.628 19.052,17.020 19.460 C 15.600 20.414,14.058 20.914,12.320 20.985 C 8.366 21.147,4.720 18.617,3.463 14.840 C 2.042 10.568,4.006 5.896,8.054 3.919 C 12.524 1.736,17.889 3.582,20.083 8.060 C 20.797 9.516,21.176 11.537,20.923 12.530 C 20.738 13.251,20.357 13.686,19.720 13.905 C 19.409 14.011,18.593 14.012,18.280 13.905 C 17.653 13.693,17.260 13.243,17.077 12.530 C 17.006 12.249,17.000 12.072,17.000 10.041 C 17.000 7.568,17.004 7.602,16.701 7.299 C 16.310 6.908,15.690 6.908,15.299 7.299 C 15.143 7.455,15.000 7.754,15.000 7.923 C 15.000 7.978,14.943 7.955,14.730 7.814 C 14.220 7.478,13.623 7.234,12.960 7.093 C 12.489 6.993,11.511 6.993,11.040 7.093 C 10.006 7.313,9.216 7.740,8.478 8.478 C 7.485 9.470,7.021 10.593,7.021 12.000 C 7.021 13.074,7.273 13.907,7.872 14.820 C 8.107 15.177,8.817 15.886,9.180 16.126 C 10.088 16.726,10.925 16.979,12.000 16.979 C 13.073 16.979,13.922 16.723,14.820 16.127 C 15.102 15.941,15.764 15.314,15.987 15.024 L 16.106 14.868 16.403 15.117 C 17.006 15.624,17.868 15.942,18.760 15.987 C 19.992 16.050,21.022 15.689,21.800 14.920 C 22.326 14.400,22.651 13.818,22.872 13.002 C 22.967 12.651,22.975 12.555,22.974 11.820 C 22.973 9.452,22.176 7.186,20.647 5.200 C 20.259 4.697,19.173 3.633,18.637 3.231 C 17.124 2.098,15.460 1.399,13.600 1.117 C 13.074 1.038,11.675 0.984,11.180 1.025 M12.592 9.063 C 14.213 9.396,15.267 10.981,14.937 12.592 C 14.604 14.213,13.017 15.268,11.408 14.936 C 9.556 14.555,8.508 12.579,9.235 10.839 C 9.781 9.535,11.208 8.780,12.592 9.063 " stroke="none" fill-rule="evenodd" fill="black"></path></svg>