<svg width="24" height="24" viewBox="0 0 24 24" fill="none" xmlns="http://www.w3.org/2000/svg"><path d="M11.260 1.056 C 9.370 1.373,7.851 2.645,7.266 4.400 C 7.016 5.149,7.020 5.084,7.020 8.500 C 7.020 11.366,7.026 11.648,7.093 11.960 C 7.315 12.998,7.742 13.787,8.478 14.521 C 9.222 15.262,10.007 15.687,11.040 15.907 C 11.511 16.007,12.489 16.007,12.960 15.907 C 14.204 15.642,15.269 14.970,16.006 13.984 C 16.316 13.569,16.691 12.804,16.816 12.330 C 16.996 11.649,17.007 11.413,16.990 8.260 C 16.976 5.609,16.967 5.269,16.904 5.000 C 16.659 3.957,16.245 3.202,15.522 2.477 C 14.786 1.741,13.996 1.312,12.980 1.099 C 12.554 1.009,11.670 0.988,11.260 1.056 M12.592 3.063 C 13.774 3.306,14.694 4.226,14.937 5.408 C 15.031 5.869,15.031 11.131,14.937 11.592 C 14.604 13.213,13.017 14.268,11.408 13.936 C 10.226 13.693,9.305 12.773,9.063 11.592 C 8.969 11.131,8.969 5.869,9.063 5.408 C 9.396 3.786,10.980 2.733,12.592 3.063 M5.780 15.316 C 5.306 15.438,5.019 15.811,5.022 16.300 C 5.024 16.674,5.101 16.812,5.588 17.303 C 6.950 18.679,8.685 19.579,10.551 19.876 L 10.980 19.945 10.991 20.472 L 11.002 21.000 10.428 21.000 C 9.741 21.000,9.546 21.051,9.299 21.299 C 8.908 21.690,8.908 22.310,9.299 22.701 C 9.601 23.003,9.573 23.000,12.000 23.000 C 14.427 23.000,14.399 23.003,14.701 22.701 C 15.092 22.310,15.092 21.690,14.701 21.299 C 14.454 21.051,14.259 21.000,13.572 21.000 L 12.998 21.000 13.009 20.471 L 13.020 19.942 13.380 19.891 C 14.853 19.683,16.403 18.997,17.638 18.008 C 18.117 17.624,18.780 16.955,18.891 16.743 C 19.004 16.529,19.013 16.085,18.908 15.876 C 18.729 15.515,18.395 15.306,18.000 15.306 C 17.657 15.306,17.496 15.392,17.119 15.780 C 15.908 17.026,14.404 17.775,12.752 17.957 C 11.382 18.108,9.970 17.835,8.728 17.178 C 8.037 16.813,7.434 16.355,6.862 15.762 C 6.709 15.603,6.518 15.440,6.438 15.399 C 6.266 15.311,5.950 15.271,5.780 15.316 " stroke="none" fill-rule="evenodd" fill="black"></path></svg>