<svg width="24" height="24" viewBox="0 0 24 24" fill="none" xmlns="http://www.w3.org/2000/svg"><path d="M3.620 3.025 C 3.212 3.105,3.087 3.139,2.870 3.227 C 1.989 3.585,1.321 4.364,1.076 5.320 C 0.993 5.646,0.992 18.351,1.076 18.677 C 1.320 19.631,1.969 20.391,2.860 20.767 C 3.396 20.993,2.840 20.980,12.040 20.980 L 20.540 20.980 20.840 20.887 C 21.824 20.581,22.581 19.824,22.887 18.840 L 22.980 18.540 22.980 12.040 C 22.980 6.616,22.971 5.504,22.924 5.323 C 22.617 4.126,21.660 3.233,20.480 3.043 C 20.234 3.003,3.820 2.986,3.620 3.025 M20.340 5.066 C 20.455 5.105,20.603 5.201,20.701 5.299 C 21.013 5.610,21.000 5.454,21.000 9.010 C 21.000 11.996,20.996 12.164,20.930 12.145 C 20.525 12.024,20.426 12.020,17.500 12.020 C 15.101 12.020,14.499 12.031,14.323 12.076 C 13.379 12.318,12.594 12.980,12.243 13.833 C 12.021 14.371,12.020 14.384,12.020 16.500 C 12.020 18.412,12.026 18.534,12.145 18.930 C 12.164 18.996,11.949 19.000,8.010 19.000 C 3.334 19.000,3.616 19.018,3.298 18.700 C 2.975 18.377,2.998 18.908,3.010 11.918 L 3.020 5.700 3.131 5.511 C 3.256 5.298,3.449 5.136,3.670 5.057 C 3.793 5.013,5.268 5.003,11.983 5.002 C 19.479 5.000,20.162 5.005,20.340 5.066 M20.340 14.066 C 20.599 14.154,20.850 14.408,20.936 14.669 C 20.996 14.847,21.002 15.067,20.992 16.565 L 20.980 18.260 20.860 18.477 C 20.732 18.708,20.502 18.888,20.241 18.960 C 20.156 18.984,19.070 19.000,17.477 19.000 C 14.516 19.000,14.606 19.009,14.298 18.700 C 13.999 18.401,13.995 18.371,14.008 16.415 L 14.020 14.700 14.131 14.511 C 14.256 14.298,14.449 14.136,14.670 14.057 C 14.789 14.014,15.363 14.003,17.483 14.002 C 19.860 14.000,20.167 14.007,20.340 14.066 " stroke="none" fill="black" fill-rule="evenodd"></path></svg>