<svg width="24" height="24" viewBox="0 0 24 24" fill="none" xmlns="http://www.w3.org/2000/svg"><path d="M7.620 1.025 C 7.212 1.105,7.087 1.139,6.870 1.227 C 5.989 1.585,5.321 2.364,5.076 3.320 C 4.993 3.647,4.992 20.350,5.076 20.677 C 5.357 21.776,6.120 22.557,7.260 22.914 C 7.435 22.969,7.995 22.979,11.820 22.990 C 14.743 22.999,16.270 22.989,16.453 22.960 C 17.644 22.776,18.620 21.876,18.924 20.680 C 19.007 20.352,19.008 3.648,18.924 3.323 C 18.617 2.126,17.660 1.233,16.480 1.043 C 16.235 1.003,7.817 0.986,7.620 1.025 M16.340 3.066 C 16.593 3.153,16.847 3.407,16.934 3.660 C 16.995 3.838,17.000 4.523,17.000 12.000 C 17.000 21.144,17.026 20.376,16.701 20.701 C 16.384 21.018,16.663 21.000,12.000 21.000 C 7.335 21.000,7.616 21.018,7.298 20.700 C 6.973 20.375,6.998 21.149,7.010 11.919 L 7.020 3.700 7.131 3.511 C 7.256 3.298,7.449 3.136,7.670 3.057 C 7.792 3.014,8.610 3.003,11.983 3.002 C 15.756 3.000,16.164 3.006,16.340 3.066 M11.680 17.035 C 10.812 17.320,10.701 18.465,11.500 18.893 C 11.628 18.962,11.729 18.979,12.000 18.979 C 12.271 18.979,12.372 18.962,12.500 18.893 C 13.217 18.508,13.217 17.480,12.500 17.110 C 12.326 17.020,11.856 16.977,11.680 17.035 " stroke="none" fill-rule="evenodd" fill="black"></path></svg>