<svg width="24" height="24" viewBox="0 0 24 24" fill="none" xmlns="http://www.w3.org/2000/svg"><path d="M3.620 4.025 C 3.212 4.105,3.087 4.139,2.870 4.227 C 1.989 4.585,1.321 5.364,1.076 6.320 C 0.993 6.646,0.992 17.352,1.076 17.677 C 1.357 18.776,2.116 19.553,3.260 19.915 C 3.439 19.972,4.326 19.980,11.820 19.990 C 17.509 19.998,20.267 19.989,20.453 19.960 C 21.643 19.778,22.620 18.876,22.924 17.680 C 23.007 17.353,23.007 6.647,22.924 6.323 C 22.617 5.126,21.660 4.233,20.480 4.043 C 20.234 4.003,3.820 3.986,3.620 4.025 M4.743 6.217 C 4.461 6.854,3.853 7.462,3.213 7.745 L 2.992 7.842 3.006 7.271 C 3.019 6.731,3.026 6.690,3.131 6.511 C 3.365 6.113,3.621 6.004,4.329 6.002 L 4.839 6.000 4.743 6.217 M20.340 6.066 C 20.455 6.105,20.603 6.201,20.701 6.299 C 21.015 6.613,21.000 6.399,21.000 10.481 L 21.000 14.107 20.770 14.157 C 20.224 14.276,19.401 14.681,18.909 15.073 C 18.607 15.314,18.193 15.742,17.973 16.040 C 17.614 16.527,17.268 17.261,17.157 17.770 L 17.107 18.000 10.481 18.000 C 3.039 18.000,3.622 18.024,3.299 17.701 C 2.985 17.387,3.000 17.601,3.000 13.521 L 3.000 9.895 3.290 9.826 C 4.352 9.571,5.495 8.759,6.132 7.808 C 6.403 7.403,6.705 6.753,6.810 6.346 L 6.899 6.000 13.523 6.000 C 19.583 6.000,20.162 6.006,20.340 6.066 M11.310 8.063 C 10.478 8.214,9.777 8.581,9.179 9.179 C 8.367 9.990,7.955 11.053,8.014 12.180 C 8.110 14.013,9.346 15.487,11.140 15.905 C 11.604 16.014,12.459 16.007,12.920 15.891 C 14.409 15.516,15.516 14.409,15.891 12.920 C 16.007 12.459,16.014 11.604,15.905 11.140 C 15.415 9.038,13.395 7.686,11.310 8.063 M12.408 10.044 C 13.310 10.232,14.000 11.080,14.000 12.000 C 14.000 13.080,13.080 14.000,12.000 14.000 C 10.920 14.000,10.000 13.080,10.000 12.000 C 10.000 11.102,10.657 10.269,11.534 10.057 C 11.797 9.993,12.138 9.988,12.408 10.044 M20.936 17.332 C 20.850 17.592,20.598 17.846,20.340 17.934 C 20.201 17.981,20.007 18.000,19.653 18.000 L 19.161 18.000 19.257 17.783 C 19.541 17.141,20.135 16.545,20.767 16.268 L 20.980 16.174 20.991 16.653 C 21.000 17.017,20.987 17.180,20.936 17.332 " stroke="none" fill-rule="evenodd" fill="black"></path></svg>