<svg width="24" height="24" viewBox="0 0 24 24" fill="none" xmlns="http://www.w3.org/2000/svg"><path d="M9.520 2.106 C 7.517 2.637,5.579 3.909,4.228 5.580 C 3.177 6.880,2.417 8.559,2.144 10.180 C 1.980 11.157,1.963 12.350,2.100 13.280 C 2.680 17.213,5.547 20.468,9.417 21.584 C 12.242 22.400,15.337 21.981,17.815 20.448 C 19.115 19.645,20.318 18.448,21.141 17.140 C 21.450 16.649,21.863 15.795,21.943 15.481 C 22.119 14.791,21.772 14.088,21.090 13.752 C 20.835 13.626,20.800 13.620,20.381 13.621 C 19.952 13.623,19.926 13.628,19.450 13.812 C 18.514 14.173,17.740 14.304,16.742 14.269 C 15.537 14.228,14.493 13.912,13.450 13.274 C 12.012 12.394,10.919 10.855,10.558 9.199 C 10.250 7.790,10.441 6.304,11.092 5.044 C 11.681 3.904,11.620 4.069,11.619 3.600 C 11.619 3.252,11.604 3.147,11.530 2.986 C 11.311 2.508,10.940 2.176,10.496 2.061 C 10.178 1.978,9.965 1.988,9.520 2.106 M14.827 2.079 C 14.407 2.213,14.080 2.494,13.870 2.900 C 13.767 3.099,13.743 3.199,13.728 3.486 C 13.702 4.008,13.772 4.184,14.363 5.064 C 14.750 5.641,14.814 5.794,14.811 6.140 C 14.808 6.523,14.740 6.681,14.295 7.347 C 13.781 8.115,13.706 8.304,13.728 8.777 C 13.749 9.225,13.877 9.522,14.178 9.822 C 14.478 10.123,14.775 10.251,15.220 10.271 C 15.699 10.293,15.880 10.222,16.651 9.711 C 16.983 9.491,17.328 9.284,17.417 9.251 C 17.665 9.160,18.101 9.170,18.332 9.272 C 18.438 9.319,18.798 9.535,19.132 9.753 C 19.466 9.971,19.829 10.178,19.937 10.214 C 20.184 10.297,20.602 10.299,20.870 10.219 C 21.545 10.019,22.052 9.296,21.987 8.625 C 21.950 8.237,21.856 8.029,21.426 7.384 C 20.979 6.713,20.883 6.492,20.882 6.140 C 20.882 5.818,20.989 5.571,21.387 4.978 C 21.565 4.713,21.757 4.407,21.814 4.298 C 22.050 3.845,22.052 3.367,21.821 2.896 C 21.651 2.550,21.412 2.319,21.047 2.148 C 20.819 2.041,20.733 2.023,20.460 2.021 C 20.284 2.021,20.054 2.045,19.949 2.076 C 19.842 2.107,19.463 2.323,19.093 2.566 C 18.398 3.021,18.168 3.121,17.823 3.119 C 17.511 3.117,17.268 3.009,16.680 2.614 C 16.039 2.184,15.889 2.105,15.608 2.045 C 15.314 1.983,15.099 1.992,14.827 2.079 M9.137 4.470 C 8.421 6.138,8.238 7.804,8.581 9.509 C 9.313 13.135,12.372 15.860,16.139 16.242 C 17.076 16.337,18.289 16.242,19.198 16.002 C 19.363 15.959,19.504 15.931,19.513 15.940 C 19.522 15.949,19.430 16.106,19.308 16.288 C 18.339 17.735,16.929 18.851,15.302 19.459 C 10.864 21.117,5.887 18.798,4.420 14.389 C 3.859 12.703,3.860 11.015,4.421 9.328 C 5.032 7.491,6.310 5.919,8.017 4.902 C 8.325 4.719,9.127 4.321,9.191 4.320 C 9.196 4.320,9.172 4.388,9.137 4.470 M16.980 5.004 C 17.552 5.165,18.321 5.145,18.871 4.956 C 18.993 4.914,19.099 4.886,19.107 4.893 C 19.114 4.901,19.086 5.007,19.044 5.129 C 18.819 5.783,18.841 6.692,19.099 7.364 C 19.120 7.417,19.080 7.412,18.845 7.334 C 18.274 7.142,17.499 7.138,16.901 7.323 C 16.753 7.368,16.624 7.397,16.613 7.387 C 16.603 7.376,16.632 7.247,16.677 7.099 C 16.862 6.501,16.858 5.726,16.666 5.155 C 16.588 4.920,16.583 4.880,16.636 4.901 C 16.671 4.914,16.826 4.961,16.980 5.004 " stroke="none" fill-rule="evenodd" fill="black"></path></svg>