<svg width="24" height="24" viewBox="0 0 24 24" fill="none" xmlns="http://www.w3.org/2000/svg"><path d="M9.620 3.112 C 8.115 3.580,6.864 4.315,5.765 5.379 C 3.177 7.884,2.315 11.683,3.579 15.015 C 4.057 16.274,4.701 17.266,5.677 18.243 C 6.902 19.470,8.314 20.276,9.974 20.698 C 14.292 21.795,18.774 19.767,20.714 15.841 C 21.023 15.214,21.057 15.009,20.880 14.819 C 20.625 14.547,20.386 14.535,19.777 14.765 C 17.736 15.535,15.528 15.441,13.620 14.503 C 11.393 13.408,9.872 11.369,9.497 8.975 C 9.405 8.394,9.405 7.329,9.495 6.752 C 9.632 5.884,9.922 5.059,10.380 4.237 C 10.659 3.737,10.700 3.552,10.584 3.328 C 10.411 2.997,10.167 2.942,9.620 3.112 M15.041 3.070 C 14.844 3.169,14.720 3.371,14.720 3.593 C 14.720 3.756,14.762 3.838,15.115 4.377 C 15.333 4.709,15.549 5.057,15.596 5.150 C 15.737 5.430,15.812 5.793,15.810 6.180 C 15.807 6.748,15.692 7.045,15.161 7.857 C 14.760 8.469,14.720 8.547,14.720 8.715 C 14.721 9.044,14.956 9.279,15.285 9.280 C 15.453 9.280,15.531 9.240,16.143 8.839 C 16.955 8.308,17.252 8.193,17.820 8.190 C 18.207 8.188,18.570 8.263,18.850 8.404 C 18.943 8.451,19.291 8.667,19.623 8.885 C 20.146 9.228,20.247 9.280,20.395 9.280 C 20.594 9.280,20.761 9.202,20.875 9.057 C 20.970 8.936,21.020 8.724,20.985 8.585 C 20.972 8.533,20.767 8.194,20.529 7.834 C 20.037 7.086,19.923 6.808,19.891 6.280 C 19.852 5.646,19.979 5.294,20.568 4.408 C 20.955 3.824,20.980 3.775,20.980 3.584 C 20.980 3.338,20.871 3.163,20.655 3.060 C 20.401 2.940,20.257 2.990,19.581 3.439 C 18.706 4.020,18.352 4.148,17.720 4.109 C 17.201 4.078,16.907 3.960,16.233 3.514 C 15.378 2.947,15.324 2.928,15.041 3.070 " stroke="none" fill-rule="evenodd"></path></svg>