<svg width="24" height="24" viewBox="0 0 24 24" fill="none" xmlns="http://www.w3.org/2000/svg"><path d="M3.534 10.057 C 2.657 10.269,2.000 11.102,2.000 12.000 C 2.000 13.080,2.920 14.000,4.000 14.000 C 5.080 14.000,6.000 13.080,6.000 12.000 C 6.000 10.904,5.066 9.987,3.968 10.003 C 3.843 10.005,3.647 10.029,3.534 10.057 M11.534 10.057 C 10.657 10.269,10.000 11.102,10.000 12.000 C 10.000 13.080,10.920 14.000,12.000 14.000 C 13.080 14.000,14.000 13.080,14.000 12.000 C 14.000 10.904,13.066 9.987,11.968 10.003 C 11.843 10.005,11.647 10.029,11.534 10.057 M19.534 10.057 C 18.657 10.269,18.000 11.102,18.000 12.000 C 18.000 13.080,18.920 14.000,20.000 14.000 C 21.080 14.000,22.000 13.080,22.000 12.000 C 22.000 10.904,21.066 9.987,19.968 10.003 C 19.843 10.005,19.647 10.029,19.534 10.057 " stroke="none" fill="black" fill-rule="evenodd"></path></svg>