<svg width="24" height="24" viewBox="0 0 24 24" fill="none" xmlns="http://www.w3.org/2000/svg"><path d="M17.310 1.063 C 16.478 1.214,15.777 1.581,15.179 2.179 C 14.563 2.795,14.211 3.480,14.056 4.367 C 13.982 4.791,13.999 5.462,14.094 5.852 C 14.149 6.076,14.148 6.086,14.065 6.138 C 13.845 6.277,8.883 9.160,8.865 9.160 C 8.853 9.160,8.691 9.037,8.504 8.888 C 7.737 8.272,6.788 7.963,5.820 8.014 C 3.986 8.110,2.514 9.345,2.095 11.140 C 1.992 11.581,1.992 12.419,2.095 12.860 C 2.454 14.399,3.601 15.546,5.140 15.905 C 5.581 16.008,6.419 16.008,6.860 15.905 C 7.500 15.756,8.091 15.461,8.604 15.034 C 8.732 14.927,8.848 14.840,8.861 14.840 C 8.882 14.840,13.820 17.707,14.065 17.862 C 14.149 17.914,14.149 17.920,14.087 18.168 C 13.995 18.541,13.998 19.448,14.095 19.860 C 14.454 21.399,15.601 22.546,17.140 22.905 C 17.604 23.014,18.459 23.007,18.920 22.891 C 20.409 22.516,21.516 21.409,21.891 19.920 C 22.007 19.459,22.014 18.604,21.905 18.140 C 21.458 16.221,19.748 14.913,17.820 15.014 C 16.904 15.062,16.170 15.344,15.451 15.926 C 15.291 16.055,15.152 16.160,15.141 16.160 C 15.122 16.160,11.570 14.097,10.315 13.357 L 9.850 13.083 9.906 12.852 C 10.030 12.345,10.016 11.605,9.870 10.955 C 9.862 10.921,14.678 8.064,15.065 7.873 C 15.139 7.837,15.191 7.864,15.445 8.070 C 15.963 8.490,16.505 8.757,17.140 8.905 C 17.604 9.014,18.459 9.007,18.920 8.891 C 20.409 8.516,21.516 7.409,21.891 5.920 C 22.007 5.459,22.014 4.604,21.905 4.140 C 21.415 2.038,19.395 0.686,17.310 1.063 M18.408 3.044 C 19.310 3.232,20.000 4.080,20.000 5.000 C 20.000 6.080,19.080 7.000,18.000 7.000 C 16.923 7.000,16.000 6.077,16.000 5.000 C 16.000 4.102,16.657 3.269,17.534 3.057 C 17.797 2.993,18.138 2.988,18.408 3.044 M6.408 10.044 C 7.307 10.232,8.000 11.083,8.000 12.000 C 8.000 13.077,7.077 14.000,6.000 14.000 C 4.920 14.000,4.000 13.080,4.000 12.000 C 4.000 11.102,4.657 10.269,5.534 10.057 C 5.797 9.993,6.138 9.988,6.408 10.044 M18.408 17.044 C 19.310 17.232,20.000 18.080,20.000 19.000 C 20.000 20.080,19.080 21.000,18.000 21.000 C 16.920 21.000,16.000 20.080,16.000 19.000 C 16.000 18.106,16.661 17.269,17.534 17.057 C 17.797 16.993,18.138 16.988,18.408 17.044 " stroke="none" fill-rule="evenodd" fill="black"></path></svg>