<svg width="24" height="24" viewBox="0 0 24 24" fill="none" xmlns="http://www.w3.org/2000/svg"><path d="M8.620 2.025 C 8.212 2.105,8.087 2.139,7.870 2.227 C 7.164 2.514,6.528 3.137,6.250 3.815 C 6.034 4.340,6.029 4.383,6.011 5.725 L 5.993 6.991 5.227 7.011 C 4.722 7.025,4.392 7.052,4.260 7.091 C 3.135 7.424,2.359 8.216,2.076 9.320 C 2.029 9.503,2.020 10.341,2.020 14.340 C 2.020 18.839,2.025 19.161,2.093 19.479 C 2.361 20.723,3.067 21.545,4.160 21.886 L 4.460 21.980 11.040 21.980 C 17.253 21.980,17.639 21.976,17.960 21.907 C 18.931 21.699,19.733 21.282,20.429 20.624 C 21.270 19.829,21.819 18.741,21.959 17.590 C 21.992 17.325,22.001 15.408,21.991 10.840 C 21.977 3.902,21.994 4.419,21.763 3.845 C 21.396 2.929,20.476 2.204,19.480 2.043 C 19.234 2.003,8.818 1.986,8.620 2.025 M19.340 4.066 C 19.455 4.105,19.603 4.201,19.701 4.299 C 20.024 4.621,20.000 4.089,20.000 11.069 C 20.000 17.880,20.010 17.573,19.765 18.161 C 19.475 18.853,18.853 19.475,18.161 19.765 C 17.582 20.006,17.734 20.000,12.523 20.000 L 7.762 20.000 7.799 19.904 C 7.819 19.851,7.867 19.675,7.906 19.514 C 7.972 19.240,7.978 18.719,7.998 11.960 L 8.020 4.700 8.131 4.511 C 8.256 4.298,8.449 4.136,8.670 4.057 C 8.792 4.013,9.774 4.003,13.983 4.002 C 18.686 4.000,19.163 4.006,19.340 4.066 M11.534 6.057 C 10.657 6.269,10.000 7.102,10.000 8.000 C 10.000 9.080,10.920 10.000,12.000 10.000 C 13.080 10.000,14.000 9.080,14.000 8.000 C 14.000 6.904,13.066 5.987,11.968 6.003 C 11.843 6.005,11.647 6.029,11.534 6.057 M5.991 13.950 L 5.978 18.900 5.889 19.219 C 5.723 19.805,5.522 19.977,5.000 19.979 C 4.618 19.980,4.433 19.895,4.273 19.643 C 4.006 19.223,4.020 19.511,4.020 14.360 L 4.020 9.700 4.131 9.511 C 4.256 9.298,4.449 9.136,4.670 9.057 C 4.769 9.022,5.023 9.003,5.411 9.002 L 6.003 9.000 5.991 13.950 M10.643 13.069 C 10.291 13.193,10.000 13.614,10.000 14.000 C 10.000 14.242,10.119 14.521,10.299 14.701 C 10.610 15.013,10.456 15.000,14.000 15.000 C 17.544 15.000,17.390 15.013,17.701 14.701 C 18.092 14.310,18.092 13.690,17.701 13.299 C 17.389 12.987,17.547 13.000,13.983 13.003 C 11.226 13.006,10.797 13.014,10.643 13.069 M10.643 16.069 C 10.291 16.193,10.000 16.614,10.000 17.000 C 10.000 17.242,10.119 17.521,10.299 17.701 C 10.593 17.995,10.629 18.000,12.500 18.000 C 14.371 18.000,14.407 17.995,14.701 17.701 C 15.092 17.310,15.092 16.690,14.701 16.299 C 14.406 16.004,14.373 16.000,12.483 16.003 C 11.085 16.006,10.792 16.016,10.643 16.069 " stroke="none" fill-rule="evenodd" fill="black"></path></svg>