<svg width="24" height="24" viewBox="0 0 24 24" fill="none" xmlns="http://www.w3.org/2000/svg"><path d="M6.643 1.069 C 6.546 1.103,6.392 1.206,6.300 1.298 C 5.998 1.600,6.000 1.580,6.000 3.927 L 6.000 6.000 3.927 6.000 C 1.581 6.000,1.600 5.998,1.299 6.299 C 1.119 6.479,1.000 6.758,1.000 7.000 C 1.000 7.242,1.119 7.521,1.299 7.701 C 1.606 8.009,1.514 8.000,4.500 8.000 C 7.486 8.000,7.394 8.009,7.701 7.701 C 8.009 7.394,8.000 7.486,8.000 4.500 C 8.000 1.514,8.009 1.606,7.701 1.299 C 7.424 1.021,7.024 0.934,6.643 1.069 M16.643 1.069 C 16.546 1.103,16.392 1.206,16.300 1.298 C 15.991 1.607,16.000 1.513,16.000 4.500 C 16.000 7.486,15.991 7.394,16.299 7.701 C 16.606 8.009,16.514 8.000,19.500 8.000 C 22.486 8.000,22.394 8.009,22.701 7.701 C 23.092 7.310,23.092 6.690,22.701 6.299 C 22.400 5.998,22.419 6.000,20.073 6.000 L 18.000 6.000 18.000 3.927 C 18.000 1.581,18.002 1.600,17.701 1.299 C 17.424 1.021,17.024 0.934,16.643 1.069 M1.643 16.069 C 1.291 16.193,1.000 16.614,1.000 17.000 C 1.000 17.242,1.119 17.521,1.299 17.701 C 1.600 18.002,1.581 18.000,3.927 18.000 L 6.000 18.000 6.000 20.073 C 6.000 22.419,5.998 22.400,6.299 22.701 C 6.690 23.092,7.310 23.092,7.701 22.701 C 8.009 22.394,8.000 22.486,8.000 19.500 C 8.000 16.514,8.009 16.606,7.701 16.299 C 7.393 15.991,7.488 16.000,4.483 16.003 C 2.179 16.006,1.796 16.015,1.643 16.069 M16.643 16.069 C 16.546 16.103,16.392 16.206,16.300 16.298 C 15.991 16.607,16.000 16.513,16.000 19.500 C 16.000 22.486,15.991 22.394,16.299 22.701 C 16.479 22.881,16.758 23.000,17.000 23.000 C 17.242 23.000,17.521 22.881,17.701 22.701 C 18.002 22.400,18.000 22.419,18.000 20.073 L 18.000 18.000 20.073 18.000 C 22.419 18.000,22.400 18.002,22.701 17.701 C 23.092 17.310,23.092 16.690,22.701 16.299 C 22.393 15.991,22.488 16.000,19.483 16.003 C 17.179 16.006,16.796 16.015,16.643 16.069 " stroke="none" fill-rule="evenodd" fill="black"></path></svg>