<svg width="24" height="24" viewBox="0 0 24 24" fill="none" xmlns="http://www.w3.org/2000/svg"><path d="M11.539 1.200 C 11.428 1.220,11.230 1.271,11.099 1.312 C 10.719 1.432,5.246 3.711,4.980 3.860 C 4.528 4.113,4.117 4.523,3.860 4.980 C 3.678 5.303,1.378 10.861,1.269 11.240 C 1.149 11.660,1.149 12.340,1.269 12.760 C 1.377 13.137,3.677 18.695,3.860 19.020 C 4.112 19.469,4.532 19.889,4.980 20.140 C 5.301 20.320,10.949 22.655,11.280 22.745 C 11.634 22.840,12.366 22.841,12.719 22.747 C 12.984 22.675,18.517 20.402,18.925 20.197 C 19.387 19.965,19.877 19.490,20.140 19.020 C 20.323 18.694,22.623 13.136,22.731 12.760 C 22.851 12.340,22.851 11.660,22.731 11.240 C 22.623 10.864,20.323 5.306,20.140 4.980 C 19.877 4.510,19.387 4.035,18.925 3.803 C 18.528 3.603,12.989 1.326,12.740 1.261 C 12.446 1.183,11.811 1.151,11.539 1.200 M15.085 4.359 C 16.633 5.000,17.977 5.570,18.071 5.625 C 18.165 5.680,18.287 5.793,18.343 5.877 C 18.398 5.960,18.977 7.314,19.630 8.884 C 20.771 11.630,20.816 11.750,20.816 12.000 C 20.816 12.250,20.771 12.370,19.630 15.116 C 18.977 16.686,18.398 18.040,18.343 18.123 C 18.287 18.207,18.165 18.320,18.071 18.375 C 17.977 18.430,16.631 19.002,15.080 19.646 C 12.362 20.774,12.251 20.816,12.000 20.816 C 11.763 20.815,11.659 20.781,10.820 20.431 C 10.314 20.220,9.029 19.686,7.964 19.245 C 6.899 18.804,5.960 18.398,5.876 18.342 C 5.793 18.287,5.680 18.165,5.625 18.071 C 5.570 17.977,4.999 16.631,4.355 15.080 C 3.229 12.369,3.184 12.250,3.184 12.000 C 3.184 11.750,3.230 11.628,4.355 8.920 C 4.998 7.369,5.570 6.023,5.625 5.929 C 5.680 5.835,5.793 5.713,5.876 5.658 C 6.009 5.570,7.194 5.070,10.800 3.581 C 11.295 3.377,11.736 3.199,11.780 3.187 C 12.046 3.113,12.250 3.185,15.085 4.359 " stroke="none" fill-rule="evenodd" fill="black"></path></svg>