<svg width="24" height="24" viewBox="0 0 24 24" fill="none" xmlns="http://www.w3.org/2000/svg"><path d="M11.560 1.220 C 11.320 1.279,5.063 3.859,4.756 4.026 C 4.497 4.167,4.151 4.523,4.007 4.795 C 3.802 5.184,1.279 11.318,1.219 11.575 C 1.146 11.884,1.146 12.115,1.218 12.423 C 1.278 12.677,3.841 18.904,4.024 19.240 C 4.158 19.487,4.512 19.841,4.756 19.974 C 5.087 20.154,11.329 22.723,11.580 22.782 C 11.886 22.854,12.116 22.854,12.428 22.780 C 12.690 22.719,18.817 20.198,19.211 19.990 C 19.488 19.844,19.829 19.510,19.974 19.244 C 20.157 18.907,22.722 12.677,22.782 12.423 C 22.854 12.116,22.854 11.884,22.782 11.577 C 22.721 11.322,20.159 5.096,19.975 4.758 C 19.830 4.491,19.488 4.157,19.211 4.010 C 18.819 3.803,12.690 1.281,12.427 1.220 C 12.127 1.149,11.853 1.149,11.560 1.220 " stroke="none" fill-rule="evenodd"></path></svg>