<svg width="24" height="24" viewBox="0 0 24 24" fill="none" xmlns="http://www.w3.org/2000/svg"><path d="M4.272 1.050 C 4.237 1.078,4.172 1.202,4.126 1.328 C 3.730 2.414,3.682 3.705,4.003 4.669 L 4.086 4.920 3.880 5.150 C 3.287 5.811,2.844 6.714,2.632 7.692 C 2.558 8.037,2.544 8.228,2.543 8.920 C 2.542 9.819,2.592 10.341,2.745 11.035 C 3.289 13.489,4.789 15.002,7.364 15.695 C 7.806 15.814,8.443 15.939,8.920 16.001 C 9.505 16.076,9.478 16.058,9.290 16.252 C 8.963 16.591,8.704 17.097,8.581 17.640 C 8.543 17.805,8.506 17.962,8.498 17.989 C 8.479 18.054,8.257 18.144,7.820 18.266 C 7.551 18.341,7.324 18.371,6.920 18.387 C 6.266 18.412,5.929 18.352,5.460 18.126 C 4.873 17.843,4.495 17.494,4.034 16.811 C 3.325 15.761,2.312 15.196,1.414 15.349 C 0.993 15.421,0.905 15.578,1.126 15.859 C 1.174 15.920,1.386 16.082,1.597 16.219 C 2.050 16.512,2.372 16.843,2.732 17.387 C 2.975 17.753,3.360 18.467,3.360 18.552 C 3.360 18.633,3.757 19.189,3.923 19.341 C 4.655 20.010,5.602 20.281,7.017 20.227 C 7.586 20.205,7.799 20.184,8.310 20.098 L 8.440 20.076 8.440 21.289 C 8.440 22.867,8.418 22.819,9.264 23.064 C 11.027 23.575,12.959 23.615,14.734 23.178 C 15.660 22.950,15.870 22.849,15.984 22.577 C 16.050 22.418,16.068 18.357,16.004 17.990 C 15.940 17.621,15.837 17.280,15.700 16.980 C 15.567 16.689,15.252 16.241,15.111 16.143 C 15.018 16.077,14.962 16.092,15.740 15.978 C 19.227 15.469,21.143 13.900,21.774 11.035 C 21.935 10.304,21.977 9.876,21.977 8.960 C 21.977 8.026,21.925 7.663,21.695 6.976 C 21.489 6.359,21.063 5.621,20.640 5.150 L 20.434 4.920 20.515 4.670 C 20.838 3.687,20.801 2.520,20.412 1.387 C 20.345 1.193,20.274 1.058,20.225 1.032 C 20.104 0.967,19.476 1.021,19.038 1.133 C 18.296 1.324,17.499 1.680,16.552 2.246 L 16.084 2.525 15.522 2.402 C 13.324 1.920,11.031 1.929,8.894 2.428 L 8.448 2.532 8.011 2.270 C 7.180 1.771,6.244 1.343,5.600 1.167 C 5.020 1.009,4.394 0.954,4.272 1.050 " stroke="none" fill-rule="evenodd"></path></svg>