<svg width="24" height="24" viewBox="0 0 24 24" fill="none" xmlns="http://www.w3.org/2000/svg"><path d="M11.520 1.902 C 11.465 1.912,11.294 1.940,11.140 1.964 C 10.719 2.031,10.145 2.225,9.720 2.444 C 9.383 2.618,3.761 6.511,2.934 7.144 C 2.009 7.851,1.351 8.915,1.093 10.120 C 1.025 10.437,1.020 10.760,1.020 14.960 C 1.020 18.675,1.030 19.498,1.076 19.677 C 1.357 20.776,2.116 21.553,3.260 21.915 C 3.439 21.972,4.326 21.980,11.820 21.990 C 17.509 21.998,20.267 21.989,20.453 21.960 C 21.476 21.803,22.357 21.110,22.767 20.140 C 22.988 19.615,22.980 19.817,22.980 14.960 C 22.980 10.760,22.975 10.437,22.907 10.120 C 22.688 9.096,22.235 8.264,21.504 7.540 C 21.144 7.184,20.750 6.895,17.900 4.903 C 16.140 3.672,14.535 2.578,14.334 2.472 C 13.625 2.096,12.982 1.928,12.160 1.902 C 11.863 1.893,11.575 1.893,11.520 1.902 M12.526 3.936 C 12.880 4.004,13.287 4.153,13.525 4.302 C 13.621 4.362,15.095 5.389,16.800 6.582 C 19.501 8.474,20.309 9.073,20.238 9.133 C 19.699 9.588,13.710 14.339,13.543 14.444 C 13.409 14.527,13.129 14.654,12.920 14.726 C 12.565 14.848,12.505 14.856,12.000 14.856 C 11.500 14.856,11.433 14.847,11.098 14.731 C 10.899 14.663,10.629 14.544,10.498 14.467 C 10.333 14.371,4.101 9.434,3.760 9.130 C 3.691 9.069,4.583 8.410,7.323 6.498 C 9.026 5.308,10.484 4.298,10.563 4.253 C 11.113 3.937,11.883 3.813,12.526 3.936 M9.220 16.027 C 10.652 16.997,12.556 17.141,14.115 16.398 C 14.344 16.289,14.638 16.126,14.770 16.036 C 14.902 15.946,16.358 14.794,18.005 13.476 L 21.000 11.079 21.000 15.113 C 21.000 19.650,21.017 19.385,20.701 19.701 C 20.376 20.026,21.144 20.000,12.000 20.000 C 2.856 20.000,3.624 20.026,3.299 19.701 C 2.983 19.385,3.000 19.650,3.000 15.113 L 3.000 11.079 5.990 13.472 C 7.635 14.787,9.088 15.937,9.220 16.027 " stroke="none" fill-rule="evenodd" fill="black"></path></svg>