<svg width="24" height="24" viewBox="0 0 24 24" fill="none" xmlns="http://www.w3.org/2000/svg"><path d="M11.173 1.044 C 9.730 1.212,8.293 1.826,7.060 2.800 C 6.613 3.153,5.837 3.946,5.475 4.421 C 4.134 6.179,3.358 8.168,3.073 10.580 C 3.006 11.151,3.006 12.849,3.073 13.420 C 3.413 16.293,4.506 18.701,6.280 20.482 C 7.068 21.273,7.751 21.766,8.688 22.220 C 11.147 23.411,13.928 23.221,16.240 21.703 C 18.104 20.479,19.549 18.516,20.338 16.139 C 20.790 14.775,20.978 13.561,20.978 12.000 C 20.978 10.733,20.875 9.851,20.599 8.760 C 19.429 4.120,15.906 0.965,11.940 1.006 C 11.676 1.008,11.331 1.025,11.173 1.044 M12.780 3.061 C 16.048 3.551,18.603 6.860,18.959 11.060 C 19.376 15.990,16.514 20.486,12.660 20.956 C 10.929 21.167,9.234 20.552,7.828 19.202 C 4.052 15.578,4.064 8.385,7.851 4.776 C 9.291 3.405,11.033 2.798,12.780 3.061 " stroke="none" fill="black" fill-rule="evenodd"></path></svg>