<svg width="24" height="24" viewBox="0 0 24 24" fill="none" xmlns="http://www.w3.org/2000/svg"><path d="M5.620 1.025 C 5.212 1.105,5.087 1.139,4.870 1.227 C 3.989 1.585,3.321 2.364,3.076 3.320 C 2.993 3.647,2.992 20.350,3.076 20.677 C 3.357 21.773,4.120 22.555,5.260 22.915 C 5.438 22.971,6.160 22.979,11.820 22.990 C 16.126 22.998,18.268 22.989,18.453 22.960 C 19.477 22.803,20.357 22.110,20.767 21.140 C 20.991 20.609,20.980 20.971,20.980 14.160 L 20.980 7.860 20.889 7.548 C 20.784 7.184,20.653 6.910,20.432 6.594 C 20.345 6.470,19.189 5.307,17.862 4.010 C 15.291 1.496,15.159 1.383,14.570 1.178 C 14.422 1.127,14.183 1.066,14.040 1.043 C 13.795 1.003,5.817 0.986,5.620 1.025 M13.010 4.770 C 13.023 6.225,13.037 6.576,13.088 6.740 C 13.435 7.857,14.152 8.574,15.260 8.913 C 15.423 8.963,15.789 8.977,17.230 8.990 L 19.000 9.005 19.000 14.575 C 19.000 20.834,19.022 20.380,18.701 20.701 C 18.379 21.023,18.903 21.000,12.000 21.000 C 5.095 21.000,5.621 21.024,5.298 20.700 C 4.973 20.375,4.998 21.149,5.010 11.919 L 5.020 3.700 5.131 3.511 C 5.256 3.298,5.449 3.136,5.670 3.057 C 5.791 3.014,6.515 3.003,9.407 3.002 L 12.995 3.000 13.010 4.770 M16.759 5.729 L 18.058 7.000 16.956 7.000 C 15.689 7.000,15.578 6.980,15.299 6.701 C 15.022 6.424,15.000 6.306,15.000 5.087 L 15.000 4.028 15.230 4.243 C 15.357 4.362,16.045 5.030,16.759 5.729 " stroke="none" fill-rule="evenodd" fill="black"></path></svg>