<svg width="24" height="24" viewBox="0 0 24 24" fill="none" xmlns="http://www.w3.org/2000/svg"><path d="M7.010 4.044 C 6.062 4.204,5.230 4.832,4.815 5.700 C 4.654 6.036,1.751 16.154,1.679 16.629 C 1.465 18.039,2.390 19.433,3.840 19.886 L 4.140 19.980 10.560 19.980 C 17.775 19.980,17.152 20.006,17.823 19.677 C 18.420 19.384,18.898 18.901,19.185 18.300 C 19.381 17.891,22.266 7.784,22.326 7.296 C 22.436 6.413,22.072 5.450,21.388 4.813 C 21.057 4.504,20.728 4.309,20.262 4.147 L 19.900 4.020 13.560 4.014 C 10.025 4.011,7.127 4.024,7.010 4.044 M19.689 6.063 C 19.906 6.136,20.126 6.338,20.247 6.572 C 20.426 6.920,20.458 6.785,18.885 12.274 C 18.089 15.054,17.404 17.394,17.362 17.474 C 17.274 17.646,17.114 17.802,16.920 17.905 C 16.785 17.977,16.543 17.980,10.642 17.991 C 3.826 18.002,4.276 18.019,3.984 17.736 C 3.904 17.659,3.800 17.520,3.753 17.428 C 3.574 17.080,3.542 17.215,5.115 11.725 C 5.911 8.945,6.591 6.614,6.626 6.545 C 6.749 6.302,6.969 6.120,7.240 6.037 C 7.295 6.021,10.077 6.005,13.423 6.003 C 18.842 6.000,19.526 6.007,19.689 6.063 " stroke="none" fill-rule="evenodd" fill="black"></path></svg>