<svg width="24" height="24" viewBox="0 0 24 24" fill="none" xmlns="http://www.w3.org/2000/svg"><path d="M6.643 4.069 C 6.546 4.103,6.392 4.206,6.300 4.298 C 5.975 4.623,6.000 3.975,6.000 12.000 C 6.000 20.023,5.975 19.377,6.299 19.701 C 6.690 20.092,7.310 20.092,7.701 19.701 C 8.025 19.377,8.000 20.023,8.000 12.000 C 8.000 3.977,8.025 4.623,7.701 4.299 C 7.424 4.021,7.024 3.934,6.643 4.069 M16.643 4.069 C 16.546 4.103,16.392 4.206,16.300 4.298 C 15.975 4.623,16.000 3.975,16.000 12.000 C 16.000 20.023,15.975 19.377,16.299 19.701 C 16.690 20.092,17.310 20.092,17.701 19.701 C 18.025 19.377,18.000 20.023,18.000 12.000 C 18.000 3.977,18.025 4.623,17.701 4.299 C 17.424 4.021,17.024 3.934,16.643 4.069 " stroke="none" fill-rule="evenodd" fill="black"></path></svg>