<svg width="24" height="24" viewBox="0 0 24 24" fill="none" xmlns="http://www.w3.org/2000/svg"><path d="M17.800 2.105 C 17.257 2.209,16.730 2.433,16.300 2.742 C 16.168 2.836,13.196 5.782,9.696 9.287 C 2.980 16.011,3.166 15.815,2.944 16.405 C 2.845 16.667,2.000 20.803,2.000 21.023 C 2.000 21.517,2.484 22.000,2.978 22.000 C 3.204 22.000,7.295 21.163,7.590 21.057 C 7.750 20.999,7.993 20.880,8.130 20.792 C 8.311 20.677,10.134 18.881,14.733 14.287 C 18.227 10.796,21.164 7.832,21.258 7.700 C 21.492 7.375,21.701 6.947,21.810 6.572 C 21.887 6.306,21.900 6.166,21.900 5.620 C 21.900 5.074,21.887 4.934,21.810 4.668 C 21.528 3.695,20.857 2.884,19.966 2.438 C 19.459 2.185,19.144 2.113,18.480 2.099 C 18.161 2.092,17.855 2.095,17.800 2.105 M19.053 4.215 C 19.348 4.359,19.641 4.652,19.786 4.948 C 19.890 5.160,19.900 5.217,19.900 5.620 C 19.900 6.289,19.874 6.331,18.745 7.471 L 17.823 8.402 16.711 7.291 L 15.600 6.181 16.430 5.348 C 17.334 4.441,17.549 4.260,17.857 4.151 C 18.178 4.036,18.751 4.067,19.053 4.215 M11.770 14.446 C 9.224 16.990,7.081 19.102,7.008 19.138 C 6.887 19.199,4.323 19.736,4.293 19.707 C 4.264 19.677,4.801 17.113,4.862 16.992 C 4.898 16.919,7.010 14.776,9.554 12.230 L 14.179 7.600 15.290 8.710 L 16.401 9.820 11.770 14.446 " stroke="none" fill-rule="evenodd" fill="black"></path></svg>