<svg width="24" height="24" viewBox="0 0 24 24" fill="none" xmlns="http://www.w3.org/2000/svg"><path d="M11.511 1.599 C 11.217 1.652,10.927 1.756,10.600 1.924 C 10.379 2.038,9.238 2.929,6.258 5.314 C 1.918 8.787,2.009 8.707,1.696 9.328 C 1.476 9.766,1.385 10.153,1.386 10.660 C 1.386 10.946,1.410 11.190,1.454 11.356 C 1.515 11.589,4.505 19.851,4.661 20.218 C 4.998 21.014,5.817 21.692,6.723 21.924 C 7.044 22.007,16.952 22.007,17.280 21.925 C 18.170 21.702,19.003 21.011,19.339 20.218 C 19.495 19.851,22.485 11.589,22.546 11.356 C 22.590 11.190,22.614 10.946,22.614 10.660 C 22.615 10.153,22.524 9.766,22.304 9.328 C 21.992 8.707,22.078 8.784,17.792 5.354 C 15.596 3.596,13.701 2.096,13.582 2.020 C 13.347 1.870,13.056 1.743,12.740 1.654 C 12.494 1.584,11.767 1.552,11.511 1.599 M12.324 3.621 C 12.454 3.665,13.579 4.544,16.460 6.851 C 20.061 9.734,20.427 10.038,20.519 10.219 C 20.727 10.629,20.790 10.417,19.048 15.198 C 17.900 18.347,17.451 19.533,17.367 19.637 C 17.303 19.716,17.164 19.825,17.057 19.880 L 16.862 19.980 12.000 19.980 L 7.138 19.980 6.943 19.880 C 6.836 19.825,6.697 19.716,6.633 19.637 C 6.549 19.533,6.100 18.347,4.952 15.198 C 3.210 10.417,3.273 10.629,3.481 10.219 C 3.573 10.038,3.939 9.734,7.541 6.850 C 10.076 4.820,11.557 3.660,11.660 3.623 C 11.873 3.548,12.106 3.547,12.324 3.621 " stroke="none" fill-rule="evenodd" fill="black"></path></svg>