<svg width="24" height="24" viewBox="0 0 24 24" fill="none" xmlns="http://www.w3.org/2000/svg"><path d="M11.600 1.584 C 11.156 1.665,10.726 1.825,10.411 2.025 C 10.295 2.098,8.404 3.596,6.208 5.354 C 1.922 8.784,2.008 8.707,1.696 9.328 C 1.476 9.766,1.385 10.153,1.386 10.660 C 1.386 10.946,1.410 11.190,1.454 11.356 C 1.515 11.589,4.505 19.851,4.661 20.218 C 4.998 21.014,5.817 21.692,6.723 21.924 C 7.044 22.007,16.952 22.007,17.280 21.925 C 18.170 21.702,19.003 21.011,19.339 20.218 C 19.495 19.851,22.485 11.589,22.546 11.356 C 22.590 11.190,22.614 10.946,22.614 10.660 C 22.615 10.153,22.524 9.766,22.304 9.328 C 21.992 8.707,22.078 8.784,17.792 5.354 C 15.596 3.596,13.701 2.096,13.582 2.020 C 13.347 1.870,13.056 1.743,12.740 1.654 C 12.537 1.597,11.783 1.550,11.600 1.584 " stroke="none" fill-rule="evenodd"></path></svg>