<svg width="24" height="24" viewBox="0 0 24 24" fill="none" xmlns="http://www.w3.org/2000/svg"><path d="M11.420 1.024 C 10.503 1.155,9.922 1.331,9.244 1.681 C 7.599 2.532,6.457 4.075,6.093 5.940 C 5.996 6.439,5.996 7.561,6.093 8.060 C 6.208 8.651,6.389 9.176,6.662 9.713 C 7.497 11.359,8.983 12.487,10.840 12.885 C 11.446 13.015,12.554 13.015,13.160 12.885 C 15.000 12.491,16.475 11.381,17.316 9.759 C 17.589 9.234,17.756 8.765,17.885 8.160 C 17.960 7.810,17.975 7.616,17.975 7.000 C 17.975 6.384,17.960 6.190,17.885 5.840 C 17.364 3.407,15.558 1.600,13.164 1.116 C 12.794 1.041,11.701 0.983,11.420 1.024 M13.002 3.132 C 14.429 3.502,15.521 4.616,15.891 6.080 C 16.013 6.563,16.013 7.437,15.891 7.920 C 15.635 8.932,15.034 9.787,14.191 10.336 C 13.564 10.745,12.940 10.947,12.180 10.986 C 11.054 11.045,9.999 10.635,9.179 9.820 C 8.662 9.306,8.320 8.714,8.129 8.002 C 8.040 7.670,8.026 7.539,8.026 7.000 C 8.026 6.461,8.040 6.330,8.129 5.998 C 8.433 4.864,9.180 3.949,10.240 3.410 C 11.037 3.006,12.099 2.899,13.002 3.132 M5.972 13.059 C 4.444 13.337,3.216 14.445,2.801 15.920 C 2.694 16.304,2.281 19.547,2.280 20.012 C 2.280 21.141,2.935 22.195,3.940 22.680 C 4.617 23.007,3.891 22.980,12.000 22.980 C 20.109 22.980,19.383 23.007,20.060 22.680 C 21.065 22.195,21.720 21.141,21.720 20.012 C 21.719 19.547,21.306 16.304,21.199 15.920 C 20.708 14.173,19.127 13.000,17.262 13.000 C 16.755 13.000,16.527 13.071,16.299 13.299 C 15.908 13.690,15.908 14.310,16.299 14.701 C 16.521 14.923,16.758 15.000,17.219 15.000 C 17.864 15.000,18.332 15.178,18.743 15.580 C 18.991 15.822,19.193 16.158,19.275 16.461 C 19.328 16.662,19.720 19.775,19.720 20.002 C 19.720 20.375,19.516 20.715,19.186 20.891 L 19.020 20.980 12.000 20.980 L 4.980 20.980 4.814 20.891 C 4.484 20.715,4.280 20.375,4.280 20.002 C 4.280 19.775,4.672 16.662,4.725 16.461 C 4.807 16.158,5.009 15.822,5.257 15.580 C 5.668 15.178,6.136 15.000,6.781 15.000 C 7.242 15.000,7.479 14.923,7.701 14.701 C 7.881 14.521,8.000 14.242,8.000 14.000 C 8.000 13.604,7.709 13.192,7.340 13.066 C 7.103 12.985,6.400 12.982,5.972 13.059 " stroke="none" fill-rule="evenodd" fill="black"></path></svg>