<svg width="24" height="24" viewBox="0 0 24 24" fill="none" xmlns="http://www.w3.org/2000/svg"><path d="M11.420 1.024 C 10.503 1.155,9.922 1.331,9.244 1.681 C 7.599 2.532,6.457 4.075,6.093 5.940 C 5.996 6.439,5.996 7.561,6.093 8.060 C 6.208 8.651,6.389 9.176,6.662 9.713 C 7.497 11.359,8.983 12.487,10.840 12.885 C 11.446 13.015,12.554 13.015,13.160 12.885 C 15.000 12.491,16.475 11.381,17.316 9.759 C 17.589 9.234,17.756 8.765,17.885 8.160 C 17.960 7.810,17.975 7.616,17.975 7.000 C 17.975 6.384,17.960 6.190,17.885 5.840 C 17.364 3.407,15.558 1.600,13.164 1.116 C 12.794 1.041,11.701 0.983,11.420 1.024 M13.002 3.132 C 14.429 3.502,15.521 4.616,15.891 6.080 C 16.013 6.563,16.013 7.437,15.891 7.920 C 15.635 8.932,15.034 9.787,14.191 10.336 C 13.564 10.745,12.940 10.947,12.180 10.986 C 11.054 11.045,9.999 10.635,9.179 9.820 C 8.662 9.306,8.320 8.714,8.129 8.002 C 8.040 7.670,8.026 7.539,8.026 7.000 C 8.026 6.461,8.040 6.330,8.129 5.998 C 8.433 4.864,9.180 3.949,10.240 3.410 C 11.037 3.006,12.099 2.899,13.002 3.132 M5.972 13.059 C 4.444 13.337,3.216 14.445,2.801 15.920 C 2.694 16.304,2.281 19.547,2.280 20.012 C 2.280 21.141,2.935 22.195,3.940 22.680 C 4.611 23.004,3.990 22.977,10.937 22.990 C 17.906 23.003,17.377 23.025,17.700 22.702 C 18.180 22.222,18.052 21.410,17.450 21.114 L 17.260 21.020 11.120 21.000 L 4.980 20.980 4.814 20.891 C 4.484 20.715,4.280 20.375,4.280 20.002 C 4.280 19.775,4.672 16.662,4.725 16.461 C 4.807 16.158,5.009 15.822,5.257 15.580 C 5.668 15.178,6.136 15.000,6.781 15.000 C 7.242 15.000,7.479 14.923,7.701 14.701 C 7.881 14.521,8.000 14.242,8.000 14.000 C 8.000 13.604,7.709 13.192,7.340 13.066 C 7.103 12.985,6.400 12.982,5.972 13.059 M21.643 13.069 C 21.425 13.146,21.397 13.174,19.623 15.070 L 18.192 16.600 18.073 16.500 C 18.008 16.446,17.659 16.135,17.297 15.811 C 16.935 15.486,16.558 15.177,16.458 15.124 C 15.610 14.673,14.693 15.577,15.115 16.449 C 15.183 16.591,15.464 16.863,16.441 17.730 C 17.123 18.336,17.748 18.865,17.830 18.906 C 18.045 19.012,18.486 19.005,18.702 18.892 C 18.909 18.783,22.738 14.715,22.876 14.457 C 23.305 13.658,22.510 12.763,21.643 13.069 " stroke="none" fill-rule="evenodd" fill="black"></path></svg>