<svg width="24" height="24" viewBox="0 0 24 24" fill="none" xmlns="http://www.w3.org/2000/svg"><path d="M6.020 1.041 C 5.765 1.092,5.469 1.216,5.236 1.372 C 4.932 1.575,1.894 4.637,1.681 4.955 C 1.452 5.298,1.216 5.809,1.112 6.189 C 0.989 6.638,0.991 7.525,1.115 7.980 C 1.211 8.332,1.521 9.000,1.989 9.860 C 4.506 14.485,8.140 18.345,12.580 21.109 C 13.867 21.910,15.376 22.695,15.950 22.862 C 16.878 23.133,17.954 22.973,18.845 22.433 C 19.135 22.257,19.412 21.997,20.906 20.505 C 22.561 18.851,22.637 18.767,22.777 18.474 C 23.173 17.638,23.017 16.729,22.368 16.102 C 21.796 15.549,18.221 12.524,18.018 12.421 C 17.363 12.089,16.526 12.139,15.920 12.546 C 15.799 12.627,15.436 12.963,15.114 13.293 C 14.681 13.736,14.511 13.885,14.462 13.866 C 14.337 13.818,13.582 13.287,13.140 12.936 C 12.898 12.743,12.394 12.279,12.020 11.903 C 11.325 11.205,10.906 10.702,10.383 9.933 L 10.088 9.500 10.737 8.840 C 11.317 8.250,11.404 8.144,11.554 7.840 C 11.863 7.213,11.871 6.592,11.578 6.007 C 11.475 5.802,11.035 5.266,9.681 3.700 C 8.711 2.578,7.841 1.591,7.749 1.506 C 7.540 1.316,7.091 1.095,6.805 1.041 C 6.558 0.994,6.253 0.994,6.020 1.041 M8.042 4.868 C 8.932 5.895,9.694 6.778,9.735 6.830 L 9.810 6.926 9.011 7.733 C 8.039 8.715,7.980 8.811,7.980 9.400 C 7.980 9.845,8.010 9.924,8.424 10.585 C 9.759 12.717,11.569 14.490,13.685 15.741 C 14.102 15.987,14.351 16.058,14.700 16.030 C 15.173 15.992,15.330 15.885,16.227 14.992 C 16.731 14.490,17.054 14.197,17.089 14.210 C 17.155 14.236,20.975 17.512,20.992 17.558 C 21.010 17.608,18.221 20.418,17.956 20.617 C 17.512 20.950,16.959 21.074,16.498 20.943 C 16.217 20.863,14.955 20.204,14.080 19.680 C 9.542 16.964,5.842 13.021,3.476 8.380 C 3.003 7.452,2.952 7.272,3.029 6.818 C 3.120 6.280,3.155 6.237,4.834 4.550 C 5.683 3.698,6.388 3.000,6.400 3.000 C 6.413 3.000,7.151 3.840,8.042 4.868 " stroke="none" fill-rule="evenodd" fill="black"></path></svg>