<svg width="24" height="24" viewBox="0 0 24 24" fill="none" xmlns="http://www.w3.org/2000/svg"><path d="M7.393 1.040 C 6.342 1.221,5.510 1.880,5.201 2.777 C 5.105 3.055,5.000 3.824,5.000 4.238 C 5.001 4.577,5.062 4.847,5.213 5.176 C 5.355 5.487,5.467 5.628,6.020 6.200 C 6.611 6.809,6.659 6.919,6.632 7.572 C 6.616 7.955,6.594 8.041,6.283 8.977 C 5.950 9.974,5.666 10.677,5.471 10.984 C 5.414 11.073,5.272 11.226,5.157 11.324 C 4.365 11.987,4.122 12.400,4.120 13.086 C 4.119 13.961,4.780 14.779,5.632 14.956 C 5.768 14.984,6.492 15.000,7.659 15.000 L 9.474 15.000 9.491 16.890 C 9.509 18.890,9.510 18.896,9.718 19.567 C 9.811 19.864,11.071 22.426,11.225 22.629 C 11.456 22.934,11.925 23.071,12.306 22.945 C 12.702 22.813,12.742 22.756,13.495 21.245 C 14.155 19.922,14.322 19.518,14.448 18.940 C 14.487 18.759,14.498 18.245,14.494 16.850 L 14.487 15.000 16.322 15.000 C 17.503 15.000,18.232 14.984,18.368 14.956 C 19.396 14.742,20.092 13.620,19.823 12.610 C 19.699 12.142,19.493 11.874,18.806 11.285 C 18.585 11.096,18.530 11.016,18.335 10.612 C 18.133 10.191,17.561 8.581,17.417 8.026 C 17.335 7.713,17.336 7.224,17.418 6.940 C 17.478 6.734,17.537 6.657,18.012 6.164 C 18.750 5.400,18.955 5.021,18.991 4.358 C 19.017 3.868,18.905 3.062,18.758 2.684 C 18.473 1.949,17.818 1.377,16.959 1.113 L 16.660 1.021 12.120 1.015 C 9.623 1.011,7.496 1.023,7.393 1.040 M16.596 3.120 C 16.865 3.272,16.913 3.364,16.967 3.833 C 17.027 4.346,17.010 4.384,16.530 4.823 C 15.711 5.573,15.357 6.364,15.357 7.446 C 15.358 8.106,15.412 8.359,15.828 9.620 C 16.402 11.363,16.758 12.085,17.324 12.649 L 17.673 12.997 15.447 13.009 C 13.251 13.020,13.218 13.021,13.060 13.106 C 12.853 13.218,12.663 13.419,12.572 13.620 C 12.505 13.769,12.501 13.934,12.512 16.041 C 12.526 18.634,12.523 18.673,12.211 19.330 C 12.109 19.545,12.014 19.720,12.000 19.720 C 11.986 19.720,11.890 19.544,11.787 19.330 C 11.484 18.699,11.480 18.651,11.480 16.035 C 11.480 13.524,11.487 13.596,11.228 13.326 C 11.158 13.253,11.028 13.154,10.940 13.106 C 10.782 13.021,10.749 13.020,8.553 13.009 L 6.327 12.997 6.676 12.649 C 7.236 12.091,7.596 11.366,8.152 9.680 C 8.616 8.275,8.641 8.161,8.642 7.420 C 8.644 6.357,8.307 5.618,7.447 4.795 C 7.203 4.562,7.033 4.367,7.016 4.300 C 6.978 4.147,7.069 3.442,7.142 3.331 C 7.175 3.282,7.246 3.212,7.301 3.176 C 7.571 2.999,7.469 3.002,12.060 3.011 L 16.420 3.020 16.596 3.120 " stroke="none" fill-rule="evenodd" fill="black"></path></svg>