<svg width="24" height="24" viewBox="0 0 24 24" fill="none" xmlns="http://www.w3.org/2000/svg"><path d="M10.940 0.046 C 6.261 0.450,2.189 3.634,0.659 8.086 C -1.254 13.651,1.119 19.733,6.306 22.560 C 6.805 22.832,7.672 23.222,7.705 23.189 C 7.715 23.178,7.701 22.965,7.674 22.715 C 7.609 22.106,7.607 20.465,7.672 20.086 C 7.699 19.924,8.043 18.429,8.436 16.764 L 9.151 13.737 9.034 13.390 C 8.698 12.384,8.739 11.214,9.139 10.369 C 9.414 9.790,9.852 9.351,10.351 9.155 C 10.680 9.027,11.248 9.026,11.569 9.154 C 12.023 9.335,12.347 9.793,12.445 10.392 C 12.529 10.910,12.389 11.651,11.921 13.160 C 11.525 14.433,11.429 14.856,11.447 15.240 C 11.478 15.884,11.822 16.382,12.439 16.676 C 12.718 16.809,12.772 16.820,13.185 16.834 C 14.092 16.863,14.842 16.535,15.526 15.809 C 16.319 14.967,16.807 13.757,16.964 12.243 C 17.021 11.692,16.989 10.696,16.902 10.300 C 16.519 8.556,15.390 7.306,13.727 6.784 C 12.267 6.326,10.513 6.499,9.202 7.232 C 8.373 7.695,7.604 8.510,7.162 9.393 C 7.093 9.532,6.975 9.829,6.900 10.053 C 6.410 11.526,6.610 13.130,7.436 14.340 C 7.526 14.472,7.600 14.618,7.600 14.665 C 7.600 14.767,7.295 16.053,7.234 16.209 C 7.166 16.382,7.064 16.384,6.735 16.222 C 6.139 15.927,5.432 15.113,5.046 14.278 C 4.445 12.974,4.298 11.601,4.602 10.120 C 5.105 7.675,6.854 5.726,9.267 4.922 C 10.161 4.623,10.934 4.491,12.000 4.454 C 14.254 4.376,16.298 5.134,17.734 6.579 C 18.671 7.523,19.262 8.611,19.547 9.920 C 19.672 10.496,19.717 11.634,19.642 12.330 C 19.515 13.508,19.140 14.708,18.617 15.616 C 17.980 16.721,17.005 17.674,15.987 18.186 C 15.093 18.637,13.746 18.868,12.897 18.718 C 12.085 18.574,11.177 18.061,10.878 17.576 C 10.829 17.498,10.776 17.449,10.759 17.467 C 10.743 17.485,10.572 18.103,10.380 18.840 C 10.188 19.577,9.987 20.324,9.932 20.500 C 9.725 21.163,9.335 21.991,8.801 22.904 C 8.624 23.206,8.486 23.459,8.494 23.468 C 8.568 23.541,9.775 23.807,10.480 23.905 C 11.102 23.991,12.780 24.004,13.380 23.927 C 14.793 23.745,16.073 23.363,17.300 22.758 C 20.320 21.266,22.515 18.668,23.499 15.422 C 23.664 14.875,23.852 13.974,23.927 13.360 C 23.994 12.816,23.994 11.184,23.927 10.640 C 23.662 8.482,22.862 6.484,21.584 4.785 C 19.301 1.748,15.709 -0.028,11.920 0.006 C 11.601 0.009,11.160 0.027,10.940 0.046 " stroke="none" fill-rule="evenodd"></path></svg>