<svg width="24" height="24" viewBox="0 0 24 24" fill="none" xmlns="http://www.w3.org/2000/svg"><path d="M18.076 2.302 C 17.313 2.440,16.405 2.896,15.580 3.553 C 15.426 3.676,15.082 3.989,14.817 4.248 L 14.333 4.720 13.037 4.324 C 12.323 4.106,11.083 3.726,10.280 3.480 C 7.449 2.612,7.130 2.520,6.968 2.520 C 6.815 2.520,6.671 2.620,4.725 4.079 C 3.582 4.936,2.618 5.678,2.583 5.728 C 2.491 5.859,2.501 6.165,2.601 6.292 C 2.647 6.351,4.103 7.208,5.981 8.281 C 8.804 9.894,9.274 10.175,9.243 10.233 C 9.223 10.270,9.029 10.560,8.813 10.878 C 8.361 11.543,8.172 11.715,7.745 11.846 C 7.528 11.913,7.410 11.926,7.185 11.908 C 6.915 11.886,6.828 11.849,5.529 11.202 C 4.034 10.459,3.932 10.425,3.703 10.605 C 3.630 10.663,3.267 11.347,2.558 12.765 C 1.663 14.553,1.520 14.864,1.520 15.019 C 1.520 15.346,1.536 15.355,3.560 16.161 C 4.561 16.560,5.515 16.961,5.680 17.053 C 6.091 17.282,6.718 17.909,6.947 18.320 C 7.039 18.485,7.440 19.439,7.839 20.440 C 8.645 22.464,8.654 22.480,8.981 22.480 C 9.136 22.480,9.447 22.337,11.235 21.442 C 12.653 20.733,13.337 20.370,13.395 20.297 C 13.575 20.068,13.541 19.966,12.798 18.471 C 12.151 17.172,12.114 17.085,12.092 16.815 C 12.074 16.590,12.087 16.472,12.154 16.255 C 12.285 15.828,12.457 15.639,13.122 15.187 C 13.440 14.971,13.730 14.777,13.767 14.757 C 13.825 14.726,14.106 15.196,15.719 18.019 C 16.792 19.897,17.649 21.353,17.708 21.399 C 17.836 21.500,18.141 21.509,18.275 21.415 C 18.326 21.379,19.068 20.416,19.924 19.275 C 21.400 17.305,21.480 17.190,21.480 17.029 C 21.480 16.921,21.082 15.560,20.377 13.263 L 19.275 9.666 19.712 9.223 C 20.257 8.670,20.543 8.329,20.849 7.864 C 21.786 6.440,22.000 5.147,21.479 4.048 C 21.166 3.386,20.667 2.877,20.020 2.559 C 19.394 2.251,18.796 2.172,18.076 2.302 " stroke="none" fill-rule="evenodd"></path></svg>