<svg width="24" height="24" viewBox="0 0 24 24" fill="none" xmlns="http://www.w3.org/2000/svg"><path d="M18.329 1.761 C 17.098 1.891,15.823 2.580,14.533 3.812 C 14.330 4.007,14.148 4.157,14.130 4.146 C 14.101 4.128,11.295 3.265,8.183 2.316 C 7.613 2.142,7.081 2.000,7.000 2.000 C 6.920 2.000,6.775 2.028,6.677 2.061 C 6.563 2.100,5.739 2.695,4.361 3.731 C 2.418 5.192,2.213 5.358,2.125 5.531 C 1.928 5.920,1.988 6.382,2.274 6.675 C 2.371 6.773,3.449 7.411,5.460 8.557 C 7.132 9.511,8.515 10.304,8.534 10.321 C 8.579 10.362,8.122 11.038,7.953 11.180 C 7.760 11.343,7.585 11.404,7.307 11.405 C 7.068 11.407,7.021 11.387,5.676 10.718 C 4.147 9.958,4.066 9.932,3.678 10.061 C 3.284 10.192,3.244 10.255,2.085 12.584 C 1.231 14.301,1.026 14.743,1.010 14.908 C 0.982 15.196,1.089 15.492,1.297 15.699 C 1.448 15.850,1.625 15.929,3.301 16.597 C 4.313 17.000,5.239 17.384,5.360 17.450 C 5.839 17.714,6.260 18.128,6.531 18.600 C 6.587 18.699,6.972 19.625,7.384 20.658 C 8.069 22.372,8.150 22.552,8.301 22.703 C 8.508 22.911,8.804 23.018,9.092 22.990 C 9.257 22.974,9.699 22.769,11.416 21.915 C 13.745 20.756,13.808 20.716,13.939 20.322 C 14.068 19.933,14.042 19.853,13.281 18.323 C 12.620 16.992,12.592 16.926,12.592 16.696 C 12.592 16.425,12.657 16.241,12.820 16.047 C 12.962 15.879,13.638 15.421,13.678 15.466 C 13.695 15.485,14.488 16.868,15.441 18.540 C 16.608 20.587,17.223 21.628,17.324 21.726 C 17.619 22.012,18.080 22.072,18.469 21.875 C 18.642 21.787,18.808 21.582,20.269 19.639 C 21.305 18.261,21.900 17.437,21.939 17.323 C 21.972 17.225,22.000 17.079,22.000 16.998 C 22.000 16.917,21.515 15.269,20.923 13.337 L 19.846 9.823 20.207 9.446 C 21.300 8.303,22.012 7.054,22.203 5.945 C 22.275 5.523,22.231 4.648,22.120 4.300 C 21.756 3.160,20.825 2.227,19.711 1.886 C 19.503 1.822,18.656 1.697,18.626 1.725 C 18.623 1.728,18.489 1.745,18.329 1.761 M19.210 3.824 C 19.607 3.962,20.037 4.397,20.183 4.807 C 20.275 5.063,20.263 5.560,20.158 5.900 C 19.923 6.655,19.471 7.320,18.550 8.265 C 17.824 9.010,17.722 9.162,17.721 9.506 C 17.720 9.664,17.974 10.540,18.803 13.244 C 19.536 15.636,19.875 16.797,19.853 16.843 C 19.809 16.934,18.145 19.156,18.120 19.158 C 18.109 19.158,17.354 17.852,16.442 16.256 C 15.224 14.123,14.747 13.322,14.644 13.237 C 14.377 13.017,14.002 12.946,13.689 13.057 C 13.402 13.158,11.725 14.307,11.435 14.601 C 10.663 15.383,10.389 16.577,10.740 17.623 C 10.794 17.786,11.019 18.279,11.240 18.719 C 11.460 19.159,11.640 19.528,11.640 19.539 C 11.640 19.583,9.548 20.603,9.521 20.573 C 9.505 20.555,9.263 19.964,8.982 19.260 C 8.702 18.556,8.409 17.863,8.331 17.720 C 7.873 16.883,7.133 16.137,6.311 15.688 C 6.151 15.600,5.444 15.298,4.740 15.018 C 4.036 14.737,3.445 14.495,3.427 14.479 C 3.398 14.454,4.416 12.360,4.457 12.360 C 4.466 12.360,4.876 12.558,5.367 12.800 C 6.415 13.317,6.694 13.403,7.320 13.403 C 8.181 13.402,8.988 13.052,9.528 12.443 C 9.762 12.179,10.876 10.501,10.943 10.311 C 11.054 9.998,10.983 9.623,10.763 9.356 C 10.678 9.253,9.877 8.776,7.744 7.558 C 6.148 6.646,4.842 5.891,4.842 5.880 C 4.844 5.855,7.066 4.191,7.158 4.147 C 7.204 4.124,8.345 4.457,10.761 5.197 C 12.948 5.867,14.359 6.280,14.461 6.280 C 14.827 6.280,14.974 6.188,15.638 5.542 C 16.388 4.813,16.593 4.639,17.055 4.339 C 17.571 4.004,18.030 3.823,18.560 3.746 C 18.707 3.724,19.038 3.764,19.210 3.824 " stroke="none" fill-rule="evenodd" fill="black"></path></svg>