<svg width="24" height="24" viewBox="0 0 24 24" fill="none" xmlns="http://www.w3.org/2000/svg"><path d="M2.444 1.041 C 2.159 1.101,1.776 1.301,1.560 1.504 C 1.322 1.727,1.100 2.147,1.035 2.500 C 0.818 3.672,1.656 5.627,3.496 8.245 L 3.683 8.510 3.484 9.105 C 2.851 11.008,2.844 12.952,3.465 14.840 C 4.400 17.685,6.808 19.947,9.705 20.701 C 10.522 20.913,11.029 20.974,11.980 20.976 C 13.194 20.977,13.993 20.844,15.072 20.459 L 15.484 20.313 15.752 20.501 C 17.974 22.063,19.724 22.908,20.900 22.985 C 22.353 23.082,23.215 22.042,22.944 20.520 C 22.832 19.892,22.342 18.661,22.082 18.350 C 21.840 18.063,21.424 17.938,21.052 18.042 C 20.767 18.122,20.467 18.430,20.380 18.733 C 20.293 19.034,20.315 19.141,20.585 19.752 C 20.800 20.238,21.029 20.944,20.987 20.987 C 20.947 21.027,20.260 20.808,19.842 20.623 C 19.185 20.331,17.490 19.334,17.451 19.216 C 17.444 19.191,17.565 19.068,17.722 18.941 C 18.671 18.174,19.522 17.092,20.080 15.940 C 20.507 15.060,20.742 14.308,20.906 13.300 C 21.006 12.686,21.006 11.314,20.906 10.700 C 20.742 9.692,20.507 8.940,20.080 8.060 C 18.452 4.703,14.900 2.699,11.180 3.040 C 10.522 3.101,9.771 3.262,9.104 3.486 L 8.508 3.686 8.404 3.609 C 8.347 3.567,8.021 3.343,7.680 3.112 C 6.156 2.077,4.794 1.382,3.762 1.114 C 3.418 1.025,2.706 0.985,2.444 1.041 M3.640 3.170 C 4.299 3.399,5.191 3.873,6.233 4.546 L 6.607 4.787 6.281 5.057 C 5.852 5.412,5.401 5.861,5.062 6.273 L 4.787 6.607 4.546 6.233 C 3.714 4.945,3.138 3.779,3.023 3.148 L 2.996 2.996 3.148 3.023 C 3.231 3.039,3.453 3.104,3.640 3.170 M12.740 5.042 C 14.159 5.204,15.418 5.741,16.500 6.647 C 18.272 8.129,19.201 10.421,18.959 12.713 C 18.742 14.774,17.628 16.640,15.924 17.797 L 15.685 17.960 15.093 17.485 C 13.586 16.277,12.375 15.179,10.637 13.442 C 8.831 11.638,7.765 10.465,6.514 8.909 L 6.039 8.317 6.200 8.080 C 7.647 5.949,10.220 4.754,12.740 5.042 M6.002 11.419 C 6.994 12.578,7.807 13.450,9.139 14.782 C 10.686 16.331,12.353 17.862,13.330 18.631 C 13.457 18.731,13.556 18.817,13.550 18.823 C 13.507 18.866,12.724 18.967,12.280 18.986 C 9.548 19.108,6.978 17.590,5.741 15.122 C 5.058 13.759,4.849 12.271,5.123 10.702 L 5.171 10.425 5.295 10.582 C 5.364 10.668,5.682 11.045,6.002 11.419 " stroke="none" fill-rule="evenodd" fill="black"></path></svg>