<svg width="24" height="24" viewBox="0 0 24 24" fill="none" xmlns="http://www.w3.org/2000/svg"><path d="M5.960 1.036 C 5.585 1.090,5.298 1.285,5.144 1.588 C 5.038 1.800,4.989 2.294,5.013 2.920 C 5.070 4.420,5.535 5.620,6.387 6.464 C 7.174 7.242,8.300 7.715,9.880 7.928 C 10.406 7.999,13.594 7.999,14.120 7.928 C 15.363 7.760,16.396 7.402,17.112 6.892 C 17.875 6.349,18.485 5.452,18.753 4.480 C 18.938 3.809,18.977 3.493,18.978 2.660 C 18.978 1.912,18.972 1.847,18.887 1.660 C 18.768 1.399,18.597 1.227,18.345 1.113 C 18.150 1.026,18.095 1.021,17.200 1.022 C 16.239 1.022,15.822 1.058,15.100 1.205 C 13.822 1.465,12.730 2.059,12.107 2.833 L 12.000 2.966 11.893 2.833 C 11.150 1.913,9.868 1.308,8.180 1.081 C 7.771 1.026,6.248 0.995,5.960 1.036 M8.152 3.104 C 9.930 3.362,10.733 4.105,10.957 5.698 C 10.979 5.852,10.988 5.985,10.979 5.995 C 10.969 6.004,10.722 5.990,10.431 5.964 C 8.803 5.817,7.851 5.363,7.405 4.522 C 7.211 4.156,7.113 3.809,7.022 3.165 L 6.997 2.989 7.369 3.017 C 7.573 3.032,7.926 3.071,8.152 3.104 M16.977 3.170 C 16.752 4.806,16.103 5.503,14.500 5.834 C 14.101 5.916,13.055 6.029,13.020 5.994 C 13.010 5.983,13.027 5.805,13.059 5.598 C 13.276 4.170,13.979 3.474,15.522 3.163 C 15.943 3.078,16.459 3.015,16.810 3.005 L 17.001 3.000 16.977 3.170 M4.534 9.057 C 3.808 9.233,3.196 9.863,3.044 10.592 C 2.985 10.875,2.985 13.125,3.044 13.408 C 3.150 13.914,3.488 14.397,3.940 14.690 L 4.180 14.845 5.125 18.619 C 5.761 21.163,6.098 22.440,6.158 22.537 C 6.207 22.617,6.306 22.726,6.377 22.780 C 6.679 23.011,6.396 23.000,12.000 23.000 C 17.604 23.000,17.321 23.011,17.623 22.780 C 17.694 22.726,17.793 22.617,17.842 22.537 C 17.902 22.440,18.239 21.163,18.875 18.619 L 19.820 14.845 20.060 14.690 C 20.512 14.397,20.850 13.914,20.956 13.408 C 21.015 13.125,21.015 10.875,20.956 10.592 C 20.799 9.842,20.158 9.201,19.408 9.044 C 19.085 8.977,4.814 8.989,4.534 9.057 M19.000 12.000 L 19.000 13.000 12.000 13.000 L 5.000 13.000 5.000 12.000 L 5.000 11.000 12.000 11.000 L 19.000 11.000 19.000 12.000 M17.711 15.050 C 17.701 15.078,17.361 16.428,16.957 18.050 L 16.221 21.000 12.000 21.000 L 7.779 21.000 7.043 18.050 C 6.639 16.428,6.299 15.078,6.289 15.050 C 6.275 15.010,7.434 15.000,12.000 15.000 C 16.566 15.000,17.725 15.010,17.711 15.050 " stroke="none" fill-rule="evenodd" fill="black"></path></svg>