<svg width="24" height="24" viewBox="0 0 24 24" fill="none" xmlns="http://www.w3.org/2000/svg"><path d="M5.580 3.093 C 5.339 3.210,5.192 3.359,5.083 3.600 C 5.002 3.779,5.002 3.816,5.001 12.000 L 5.001 20.220 5.094 20.420 C 5.274 20.806,5.647 21.024,6.075 20.993 C 6.306 20.976,6.513 20.861,13.446 16.902 C 17.370 14.661,20.632 12.781,20.695 12.724 C 21.090 12.367,21.090 11.633,20.695 11.276 C 20.632 11.219,17.369 9.338,13.444 7.097 L 6.308 3.022 6.044 3.009 C 5.829 2.999,5.743 3.015,5.580 3.093 M12.673 8.960 C 15.580 10.621,17.959 11.989,17.959 12.000 C 17.959 12.011,15.580 13.379,12.673 15.040 C 9.765 16.701,7.299 18.110,7.193 18.171 L 7.000 18.282 7.000 12.000 L 7.000 5.718 7.193 5.829 C 7.299 5.890,9.765 7.299,12.673 8.960 " stroke="none" fill-rule="evenodd" fill="black"></path></svg>