<svg width="24" height="24" viewBox="0 0 24 24" fill="none" xmlns="http://www.w3.org/2000/svg"><path d="M11.643 3.069 C 11.546 3.103,11.392 3.206,11.300 3.298 C 10.985 3.613,11.000 3.404,11.000 7.427 L 11.000 11.000 7.427 11.000 C 3.405 11.000,3.613 10.985,3.299 11.299 C 2.908 11.690,2.908 12.310,3.299 12.701 C 3.613 13.015,3.405 13.000,7.427 13.000 L 11.000 13.000 11.000 16.573 C 11.000 20.595,10.985 20.387,11.299 20.701 C 11.690 21.092,12.310 21.092,12.701 20.701 C 13.015 20.387,13.000 20.595,13.000 16.573 L 13.000 13.000 16.573 13.000 C 20.595 13.000,20.387 13.015,20.701 12.701 C 21.092 12.310,21.092 11.690,20.701 11.299 C 20.387 10.985,20.595 11.000,16.573 11.000 L 13.000 11.000 13.000 7.427 C 13.000 3.405,13.015 3.613,12.701 3.299 C 12.424 3.021,12.024 2.934,11.643 3.069 " stroke="none" fill-rule="evenodd" fill="black"></path></svg>