<svg width="24" height="24" viewBox="0 0 24 24" fill="none" xmlns="http://www.w3.org/2000/svg"><path d="M5.707 1.303 C 4.722 1.483,3.869 2.171,3.483 3.098 C 3.230 3.707,3.237 3.511,3.250 9.924 L 3.261 15.740 3.352 16.033 C 3.511 16.548,3.758 16.980,4.093 17.327 C 4.291 17.533,10.403 22.134,10.761 22.347 C 11.600 22.847,12.698 22.874,13.604 22.418 C 13.863 22.288,19.894 17.804,20.283 17.452 C 20.540 17.220,20.792 16.869,20.959 16.509 C 21.261 15.861,21.244 16.283,21.231 9.620 L 21.220 3.660 21.127 3.380 C 20.784 2.352,20.049 1.653,18.974 1.331 C 18.756 1.266,18.307 1.260,12.380 1.254 C 7.021 1.247,5.971 1.255,5.707 1.303 " stroke="none" fill-rule="evenodd"></path></svg>