<svg width="24" height="24" viewBox="0 0 24 24" fill="none" xmlns="http://www.w3.org/2000/svg"><path d="M3.914 3.060 C 3.336 3.176,2.844 3.441,2.398 3.880 C 1.879 4.390,1.593 4.998,1.520 5.750 C 1.470 6.267,1.470 17.733,1.520 18.250 C 1.593 19.002,1.879 19.610,2.398 20.120 C 2.856 20.570,3.338 20.826,3.945 20.942 C 4.396 21.028,15.604 21.028,16.055 20.942 C 16.598 20.838,17.091 20.594,17.511 20.220 C 17.798 19.964,22.495 13.710,22.671 13.350 C 22.948 12.780,23.045 12.230,22.972 11.650 C 22.921 11.257,22.849 11.016,22.671 10.650 C 22.495 10.290,17.798 4.036,17.511 3.780 C 17.091 3.406,16.598 3.162,16.055 3.058 C 15.627 2.976,4.327 2.978,3.914 3.060 " stroke="none" fill-rule="evenodd"></path></svg>