<svg width="24" height="24" viewBox="0 0 24 24" fill="none" xmlns="http://www.w3.org/2000/svg"><path d="M17.380 1.026 C 16.112 1.230,15.083 2.129,14.782 3.296 C 14.749 3.426,14.595 4.488,14.440 5.656 C 14.285 6.824,14.149 7.827,14.137 7.884 C 14.117 7.984,14.101 7.990,13.788 8.014 C 13.070 8.071,12.396 8.373,11.914 8.855 L 11.727 9.041 11.494 8.903 C 11.086 8.662,10.684 8.550,10.149 8.529 C 9.610 8.507,9.316 8.553,8.890 8.722 C 8.527 8.867,8.211 9.068,7.933 9.330 L 7.717 9.534 7.569 9.445 C 7.326 9.299,7.023 9.168,6.753 9.094 C 6.432 9.007,5.633 8.996,5.323 9.076 C 4.388 9.315,3.591 9.985,3.250 10.815 C 3.017 11.382,3.026 11.270,3.010 13.860 C 2.994 16.378,3.014 16.858,3.165 17.554 C 3.833 20.639,6.555 22.645,10.496 22.959 C 12.089 23.086,13.656 22.913,15.021 22.460 C 15.503 22.300,16.574 21.754,16.980 21.462 C 18.201 20.580,19.146 19.281,19.599 17.860 C 19.956 16.738,19.957 16.732,20.445 10.100 C 20.739 6.101,20.878 4.013,20.861 3.840 C 20.780 3.012,20.373 2.242,19.736 1.711 C 19.458 1.480,18.887 1.194,18.520 1.103 C 18.253 1.036,17.593 0.992,17.380 1.026 M18.250 3.124 C 18.559 3.279,18.784 3.569,18.857 3.905 C 18.879 4.007,18.298 12.265,18.218 12.989 L 18.195 13.197 17.947 13.005 C 17.708 12.819,17.333 12.588,17.114 12.492 L 17.008 12.445 16.989 11.453 C 16.970 10.424,16.956 10.324,16.763 9.845 C 16.660 9.586,16.383 9.158,16.182 8.945 L 16.035 8.791 16.359 6.345 C 16.537 5.000,16.712 3.819,16.747 3.720 C 16.835 3.472,17.175 3.143,17.427 3.062 C 17.673 2.984,18.024 3.010,18.250 3.124 M14.340 10.066 C 14.593 10.153,14.847 10.407,14.934 10.660 C 14.983 10.805,15.000 10.999,15.000 11.427 L 15.000 12.000 13.997 12.000 L 12.993 12.000 13.007 11.350 C 13.020 10.723,13.024 10.693,13.131 10.511 C 13.386 10.077,13.860 9.903,14.340 10.066 M10.391 10.582 C 10.580 10.661,10.783 10.855,10.891 11.060 C 10.954 11.180,10.979 11.315,10.992 11.601 L 11.009 11.983 10.654 12.028 C 10.103 12.098,9.619 12.290,9.206 12.603 L 8.994 12.763 9.007 11.992 C 9.019 11.291,9.028 11.205,9.106 11.060 C 9.216 10.858,9.419 10.662,9.600 10.584 C 9.783 10.504,10.203 10.503,10.391 10.582 M6.340 11.066 C 6.455 11.105,6.603 11.201,6.701 11.299 C 6.996 11.593,7.000 11.626,7.001 13.537 C 7.002 15.144,7.005 15.228,7.083 15.400 C 7.248 15.763,7.601 15.999,7.982 16.000 C 8.179 16.000,8.185 16.003,8.236 16.150 C 8.456 16.778,9.169 17.488,9.863 17.770 C 10.368 17.975,10.423 17.980,12.260 17.980 C 13.946 17.980,13.983 17.978,14.140 17.894 C 14.476 17.712,14.678 17.377,14.678 17.000 C 14.678 16.623,14.476 16.288,14.140 16.106 C 13.986 16.023,13.924 16.019,12.360 16.000 C 10.762 15.980,10.737 15.979,10.550 15.886 C 9.775 15.505,9.851 14.349,10.670 14.057 C 10.788 14.015,11.289 14.003,13.032 14.002 C 14.903 14.000,15.291 14.010,15.551 14.064 C 16.592 14.278,17.417 15.018,17.658 15.952 C 17.742 16.275,17.743 16.908,17.661 17.261 C 17.513 17.902,17.027 18.704,16.425 19.303 C 15.346 20.377,13.894 20.913,11.860 20.987 C 9.513 21.072,7.494 20.441,6.281 19.244 C 5.766 18.736,5.474 18.265,5.241 17.569 C 5.016 16.893,4.996 16.589,5.009 14.020 L 5.020 11.700 5.131 11.511 C 5.386 11.077,5.860 10.903,6.340 11.066 " stroke="none" fill-rule="evenodd" fill="black"></path></svg>