<svg width="24" height="24" viewBox="0 0 24 24" fill="none" xmlns="http://www.w3.org/2000/svg"><path d="M11.740 1.298 C 11.365 1.372,11.027 1.495,10.760 1.654 C 10.413 1.860,4.288 6.469,4.092 6.671 C 3.765 7.007,3.510 7.454,3.352 7.967 L 3.261 8.260 3.250 14.076 C 3.239 19.178,3.246 19.937,3.300 20.251 C 3.476 21.271,4.152 22.123,5.098 22.517 C 5.709 22.771,5.460 22.763,12.423 22.750 L 18.740 22.739 19.039 22.647 C 20.049 22.336,20.779 21.632,21.115 20.647 L 21.220 20.340 21.231 14.380 C 21.244 7.717,21.261 8.139,20.959 7.491 C 20.792 7.131,20.540 6.780,20.283 6.548 C 19.894 6.196,13.863 1.712,13.604 1.582 C 13.037 1.296,12.307 1.185,11.740 1.298 " stroke="none" fill-rule="evenodd"></path></svg>