<svg width="24" height="24" viewBox="0 0 24 24" fill="none" xmlns="http://www.w3.org/2000/svg"><path d="M8.400 3.062 C 7.837 3.184,7.308 3.463,6.914 3.848 C 6.613 4.142,1.949 10.388,1.804 10.692 C 1.420 11.497,1.420 12.503,1.804 13.308 C 1.949 13.612,6.613 19.859,6.914 20.152 C 7.145 20.377,7.544 20.639,7.860 20.772 C 8.422 21.008,8.185 21.000,14.500 21.000 C 20.836 21.000,20.576 21.009,21.161 20.765 C 21.853 20.475,22.475 19.853,22.765 19.161 C 23.010 18.573,23.000 18.887,23.000 12.000 C 23.000 5.113,23.010 5.427,22.765 4.839 C 22.475 4.147,21.853 3.525,21.161 3.235 C 20.575 2.990,20.841 3.000,14.472 3.003 C 9.648 3.006,8.616 3.016,8.400 3.062 " stroke="none" fill-rule="evenodd"></path></svg>