<svg width="24" height="24" viewBox="0 0 24 24" fill="none" xmlns="http://www.w3.org/2000/svg"><path d="M5.960 1.036 C 5.585 1.090,5.298 1.285,5.144 1.588 C 5.038 1.800,4.989 2.294,5.013 2.920 C 5.070 4.420,5.535 5.620,6.387 6.464 C 7.174 7.242,8.300 7.715,9.880 7.928 C 10.406 7.999,13.594 7.999,14.120 7.928 C 15.363 7.760,16.396 7.402,17.112 6.892 C 17.875 6.349,18.485 5.452,18.753 4.480 C 18.938 3.809,18.977 3.493,18.978 2.660 C 18.978 1.912,18.972 1.847,18.887 1.660 C 18.768 1.399,18.597 1.227,18.345 1.113 C 18.150 1.026,18.095 1.021,17.200 1.022 C 16.239 1.022,15.822 1.058,15.100 1.205 C 13.822 1.465,12.730 2.059,12.107 2.833 L 12.000 2.966 11.893 2.833 C 11.150 1.913,9.868 1.308,8.180 1.081 C 7.771 1.026,6.248 0.995,5.960 1.036 M8.152 3.104 C 9.930 3.362,10.733 4.105,10.957 5.698 C 10.979 5.852,10.988 5.985,10.979 5.995 C 10.969 6.004,10.722 5.990,10.431 5.964 C 8.803 5.817,7.851 5.363,7.405 4.522 C 7.211 4.156,7.113 3.809,7.022 3.165 L 6.997 2.989 7.369 3.017 C 7.573 3.032,7.926 3.071,8.152 3.104 M16.977 3.170 C 16.752 4.806,16.103 5.503,14.500 5.834 C 14.101 5.916,13.055 6.029,13.020 5.994 C 13.010 5.983,13.027 5.805,13.059 5.598 C 13.276 4.170,13.979 3.474,15.522 3.163 C 15.943 3.078,16.459 3.015,16.810 3.005 L 17.001 3.000 16.977 3.170 M7.440 9.026 C 7.385 9.034,7.205 9.060,7.040 9.084 C 6.341 9.186,5.498 9.541,4.914 9.979 C 3.841 10.785,3.229 11.886,3.058 13.320 C 2.909 14.563,3.054 15.601,3.501 16.500 C 4.113 17.729,5.254 18.597,7.160 19.282 C 8.030 19.595,8.428 19.812,8.866 20.213 C 9.339 20.645,9.618 21.118,9.852 21.887 C 10.019 22.434,10.070 22.542,10.243 22.711 C 10.450 22.913,10.625 22.980,10.940 22.979 C 11.275 22.977,11.351 22.941,11.829 22.557 C 12.188 22.267,12.701 21.932,13.071 21.745 C 13.185 21.687,13.850 21.404,14.549 21.117 C 17.109 20.063,18.065 19.501,19.162 18.402 C 20.109 17.454,20.678 16.394,20.909 15.149 C 20.993 14.693,21.002 13.492,20.925 13.020 C 20.808 12.306,20.453 11.461,20.039 10.913 C 19.757 10.538,19.189 10.018,18.790 9.769 C 18.189 9.394,17.433 9.133,16.681 9.041 C 16.367 9.003,7.694 8.988,7.440 9.026 M16.841 11.088 C 17.193 11.194,17.520 11.323,17.520 11.357 C 17.520 11.444,16.329 11.712,15.480 11.816 C 14.414 11.947,13.761 11.978,12.000 11.978 C 9.945 11.978,8.923 11.910,7.720 11.696 C 7.286 11.619,6.480 11.400,6.480 11.360 C 6.480 11.311,7.035 11.116,7.340 11.059 C 7.563 11.017,8.539 11.008,12.120 11.014 C 16.182 11.021,16.641 11.028,16.841 11.088 M5.648 13.198 C 6.948 13.717,9.203 14.001,12.016 14.000 C 15.032 13.998,17.283 13.689,18.588 13.097 L 18.876 12.967 18.926 13.193 C 19.003 13.535,18.992 14.635,18.909 14.969 C 18.704 15.791,18.375 16.351,17.703 17.023 C 16.839 17.886,16.000 18.363,13.660 19.321 C 12.954 19.610,12.166 19.962,11.902 20.108 C 11.639 20.253,11.418 20.355,11.412 20.336 C 11.357 20.171,10.973 19.575,10.736 19.285 C 10.051 18.450,9.118 17.837,7.900 17.422 C 7.323 17.225,6.554 16.856,6.176 16.595 C 5.313 15.998,4.958 15.207,5.013 14.000 C 5.034 13.551,5.097 13.070,5.146 12.990 C 5.156 12.974,5.204 12.987,5.252 13.018 C 5.300 13.049,5.479 13.131,5.648 13.198 " stroke="none" fill-rule="evenodd" fill="black"></path></svg>