<svg width="24" height="24" viewBox="0 0 24 24" fill="none" xmlns="http://www.w3.org/2000/svg"><path d="M10.940 0.046 C 6.260 0.450,2.189 3.634,0.659 8.086 C -1.484 14.319,1.792 21.115,7.997 23.309 C 12.365 24.853,17.202 23.757,20.480 20.480 C 24.710 16.252,25.180 9.567,21.584 4.785 C 19.301 1.748,15.709 -0.028,11.920 0.006 C 11.601 0.009,11.160 0.027,10.940 0.046 M14.448 5.094 L 15.914 5.387 16.059 5.213 C 16.139 5.117,16.298 4.990,16.412 4.930 C 16.591 4.836,16.668 4.821,16.960 4.821 C 17.239 4.821,17.332 4.838,17.480 4.915 C 17.725 5.043,17.907 5.222,18.033 5.460 C 18.121 5.628,18.138 5.711,18.139 5.980 C 18.139 6.360,18.051 6.589,17.812 6.828 C 17.567 7.073,17.316 7.175,16.960 7.174 C 16.405 7.171,15.966 6.849,15.816 6.332 C 15.780 6.208,15.728 6.116,15.688 6.104 C 15.418 6.026,13.235 5.592,13.214 5.612 C 13.190 5.637,12.440 9.173,12.440 9.264 C 12.440 9.291,12.634 9.326,12.948 9.354 C 14.290 9.478,15.627 9.918,16.713 10.593 L 17.045 10.799 17.193 10.682 C 17.274 10.617,17.448 10.514,17.580 10.452 C 17.795 10.352,17.864 10.341,18.240 10.341 C 18.721 10.342,18.978 10.420,19.297 10.664 C 20.257 11.397,20.217 12.794,19.217 13.482 L 19.052 13.595 19.028 14.128 C 19.001 14.751,18.913 15.133,18.684 15.620 C 17.093 19.016,10.958 20.116,7.255 17.669 C 5.783 16.697,5.046 15.480,5.041 14.014 L 5.040 13.608 4.843 13.482 C 4.565 13.303,4.334 13.038,4.187 12.727 C 4.067 12.475,4.060 12.433,4.060 12.000 C 4.060 11.568,4.068 11.524,4.184 11.280 C 4.441 10.741,4.934 10.370,5.520 10.277 C 5.962 10.206,6.476 10.336,6.811 10.604 L 6.961 10.725 7.297 10.522 C 7.754 10.246,8.543 9.872,8.980 9.725 C 9.718 9.476,10.189 9.384,11.380 9.251 L 11.660 9.220 12.103 7.140 C 12.347 5.996,12.568 5.020,12.594 4.972 C 12.653 4.861,12.751 4.803,12.881 4.801 C 12.937 4.801,13.642 4.932,14.448 5.094 M8.819 12.070 C 8.430 12.209,8.172 12.476,8.060 12.854 C 7.943 13.246,8.019 13.625,8.278 13.953 C 8.506 14.241,8.805 14.380,9.200 14.380 C 9.689 14.380,10.051 14.157,10.289 13.709 C 10.362 13.572,10.379 13.475,10.379 13.200 C 10.379 12.827,10.315 12.654,10.077 12.383 C 9.798 12.065,9.228 11.923,8.819 12.070 M14.500 12.075 C 14.137 12.170,13.814 12.433,13.667 12.754 C 13.602 12.894,13.581 13.019,13.581 13.260 C 13.580 13.538,13.595 13.607,13.694 13.786 C 13.841 14.051,14.002 14.204,14.294 14.357 C 14.844 14.645,15.525 14.409,15.831 13.825 C 15.975 13.550,15.986 13.042,15.854 12.754 C 15.744 12.517,15.509 12.281,15.267 12.168 C 15.060 12.070,14.689 12.025,14.500 12.075 M9.160 16.011 C 9.105 16.039,9.036 16.113,9.006 16.174 C 8.925 16.344,9.002 16.478,9.292 16.668 C 10.026 17.148,10.783 17.381,11.756 17.427 C 12.888 17.480,13.868 17.252,14.667 16.750 C 15.093 16.483,15.175 16.315,14.985 16.094 C 14.843 15.928,14.680 15.948,14.343 16.173 C 14.024 16.386,13.606 16.569,13.167 16.688 C 12.737 16.804,11.688 16.834,11.174 16.745 C 10.673 16.658,10.186 16.474,9.775 16.216 C 9.378 15.966,9.298 15.940,9.160 16.011 " stroke="none" fill-rule="evenodd"></path></svg>