<svg width="24" height="24" viewBox="0 0 24 24" fill="none" xmlns="http://www.w3.org/2000/svg"><path d="M20.640 2.068 C 20.485 2.121,20.083 2.505,17.730 4.854 L 15.000 7.579 15.000 5.716 C 15.000 3.605,14.999 3.597,14.701 3.299 C 14.310 2.908,13.690 2.908,13.299 3.299 C 12.987 3.610,13.000 3.456,13.000 7.000 C 13.000 10.544,12.987 10.390,13.299 10.701 C 13.610 11.013,13.456 11.000,17.000 11.000 C 20.544 11.000,20.390 11.013,20.701 10.701 C 21.092 10.310,21.092 9.690,20.701 9.299 C 20.403 9.001,20.395 9.000,18.284 9.000 L 16.421 9.000 19.146 6.270 C 21.623 3.788,21.876 3.522,21.935 3.343 C 22.064 2.953,21.979 2.577,21.701 2.299 C 21.424 2.021,21.028 1.935,20.640 2.068 M3.643 13.069 C 3.291 13.193,3.000 13.614,3.000 14.000 C 3.000 14.242,3.119 14.521,3.299 14.701 C 3.597 14.999,3.605 15.000,5.716 15.000 L 7.579 15.000 4.854 17.730 C 2.377 20.212,2.124 20.478,2.065 20.657 C 1.936 21.047,2.021 21.423,2.299 21.701 C 2.577 21.979,2.953 22.064,3.343 21.935 C 3.522 21.876,3.788 21.623,6.270 19.146 L 9.000 16.421 9.000 18.284 C 9.000 20.395,9.001 20.403,9.299 20.701 C 9.690 21.092,10.310 21.092,10.701 20.701 C 11.013 20.390,11.000 20.544,11.000 17.000 C 11.000 13.456,11.013 13.610,10.701 13.299 C 10.389 12.987,10.547 13.000,6.983 13.003 C 4.226 13.006,3.797 13.014,3.643 13.069 " stroke="none" fill-rule="evenodd" fill="black"></path></svg>