<svg width="24" height="24" viewBox="0 0 24 24" fill="none" xmlns="http://www.w3.org/2000/svg"><path d="M5.620 2.025 C 5.212 2.105,5.087 2.139,4.870 2.227 C 4.164 2.514,3.528 3.137,3.250 3.815 C 3.003 4.416,3.023 3.735,3.010 12.132 C 2.998 20.529,2.984 20.015,3.225 20.496 C 3.728 21.502,5.026 21.874,6.029 21.300 C 6.152 21.229,7.246 20.166,9.110 18.306 L 12.000 15.421 14.890 18.306 C 16.754 20.166,17.848 21.229,17.971 21.300 C 18.641 21.683,19.484 21.658,20.114 21.238 C 20.529 20.961,20.806 20.561,20.937 20.052 C 20.995 19.827,21.000 19.059,20.990 12.132 C 20.977 3.775,20.995 4.422,20.763 3.845 C 20.396 2.929,19.476 2.204,18.480 2.043 C 18.234 2.003,5.819 1.986,5.620 2.025 M18.340 4.066 C 18.455 4.105,18.603 4.201,18.701 4.299 C 19.025 4.623,19.000 3.951,19.000 12.217 L 19.000 19.579 15.770 16.354 C 12.822 13.412,12.523 13.124,12.343 13.065 C 12.234 13.029,12.080 13.000,12.000 13.000 C 11.920 13.000,11.766 13.029,11.657 13.065 C 11.477 13.124,11.178 13.412,8.230 16.355 L 4.999 19.580 5.010 12.140 L 5.020 4.700 5.131 4.511 C 5.256 4.298,5.449 4.136,5.670 4.057 C 5.793 4.013,6.939 4.003,11.983 4.002 C 17.617 4.000,18.162 4.006,18.340 4.066 " stroke="none" fill-rule="evenodd" fill="black"></path></svg>