<svg width="24" height="24" viewBox="0 0 24 24" fill="none" xmlns="http://www.w3.org/2000/svg"><path d="M3.980 3.039 C 3.416 3.093,3.065 3.420,3.011 3.940 C 2.970 4.338,3.166 4.703,3.524 4.899 L 3.729 5.010 5.135 5.020 C 6.115 5.027,6.709 5.049,7.100 5.095 C 10.556 5.494,13.199 6.674,15.261 8.738 C 16.204 9.682,16.854 10.585,17.461 11.796 C 18.543 13.953,19.030 16.336,18.993 19.280 L 18.980 20.260 19.096 20.470 C 19.299 20.835,19.660 21.030,20.059 20.989 C 20.444 20.949,20.719 20.748,20.888 20.380 C 20.978 20.184,20.980 20.154,20.979 18.860 C 20.978 17.284,20.900 16.376,20.655 15.100 C 19.894 11.141,17.898 7.923,14.898 5.819 C 12.227 3.946,8.833 2.977,5.041 3.006 C 4.611 3.009,4.134 3.024,3.980 3.039 M3.813 9.439 C 3.500 9.506,3.254 9.699,3.096 10.000 C 2.988 10.206,2.995 10.648,3.110 10.866 C 3.213 11.062,3.481 11.302,3.656 11.356 C 3.724 11.377,4.221 11.403,4.760 11.414 C 6.406 11.449,7.501 11.681,8.664 12.241 C 9.979 12.873,11.127 14.021,11.759 15.336 C 12.319 16.499,12.551 17.594,12.586 19.240 C 12.597 19.779,12.623 20.276,12.644 20.344 C 12.698 20.519,12.938 20.787,13.134 20.890 C 13.365 21.012,13.794 21.012,14.023 20.892 C 14.231 20.782,14.455 20.534,14.525 20.335 C 14.597 20.131,14.598 18.468,14.527 17.880 C 14.157 14.838,12.786 12.488,10.514 11.000 C 9.297 10.203,7.968 9.729,6.297 9.497 C 5.790 9.427,4.059 9.386,3.813 9.439 M4.534 17.057 C 3.657 17.269,3.000 18.102,3.000 19.000 C 3.000 20.080,3.920 21.000,5.000 21.000 C 6.080 21.000,7.000 20.080,7.000 19.000 C 7.000 17.904,6.066 16.987,4.968 17.003 C 4.843 17.005,4.647 17.029,4.534 17.057 " stroke="none" fill-rule="evenodd" fill="black"></path></svg>