<svg width="24" height="24" viewBox="0 0 24 24" fill="none" xmlns="http://www.w3.org/2000/svg"><path d="M7.643 1.069 C 7.325 1.181,7.000 1.613,7.000 1.922 C 7.000 1.983,6.915 1.992,6.150 2.012 C 5.576 2.026,5.203 2.055,5.000 2.100 C 3.987 2.324,3.203 2.753,2.478 3.478 C 1.738 4.218,1.316 4.998,1.093 6.040 C 1.025 6.359,1.020 6.699,1.020 11.500 C 1.020 16.301,1.025 16.641,1.093 16.960 C 1.315 17.997,1.741 18.785,2.478 19.522 C 3.202 20.246,3.965 20.664,5.000 20.903 C 5.256 20.963,5.579 20.975,7.211 20.989 C 9.390 21.008,9.395 21.007,9.700 20.702 C 10.092 20.310,10.093 19.691,9.701 19.299 C 9.406 19.004,9.378 19.000,7.431 19.000 C 5.550 19.000,5.357 18.982,4.831 18.759 C 4.133 18.462,3.525 17.853,3.235 17.161 C 2.998 16.594,3.000 16.624,3.000 12.642 L 3.000 9.000 11.500 9.000 L 20.000 9.000 20.000 9.573 C 20.000 10.259,20.052 10.454,20.299 10.701 C 20.691 11.093,21.310 11.092,21.702 10.700 C 22.007 10.395,22.008 10.390,21.989 8.211 C 21.975 6.579,21.963 6.256,21.903 6.000 C 21.664 4.965,21.246 4.202,20.522 3.477 C 19.932 2.887,19.334 2.511,18.592 2.263 C 18.029 2.076,17.739 2.034,16.850 2.012 C 16.085 1.992,16.000 1.983,16.000 1.922 C 16.000 1.754,15.856 1.454,15.701 1.299 C 15.310 0.908,14.690 0.908,14.299 1.299 C 14.142 1.456,14.000 1.754,14.000 1.927 C 14.000 1.997,13.892 2.000,11.500 2.000 C 9.108 2.000,9.000 1.997,9.000 1.927 C 9.000 1.754,8.858 1.456,8.701 1.299 C 8.424 1.021,8.024 0.934,7.643 1.069 M7.000 4.073 C 7.000 4.246,7.142 4.544,7.299 4.701 C 7.690 5.092,8.310 5.092,8.701 4.701 C 8.858 4.544,9.000 4.246,9.000 4.073 C 9.000 4.003,9.108 4.000,11.500 4.000 C 13.892 4.000,14.000 4.003,14.000 4.073 C 14.000 4.246,14.142 4.544,14.299 4.701 C 14.690 5.092,15.310 5.092,15.701 4.701 C 15.858 4.544,16.000 4.246,16.000 4.073 C 16.000 4.005,16.048 4.000,16.642 4.000 C 17.358 4.000,17.739 4.059,18.161 4.235 C 18.853 4.525,19.475 5.147,19.765 5.839 C 19.882 6.121,20.000 6.630,20.000 6.858 L 20.000 7.000 11.500 7.000 L 3.000 7.000 3.000 6.858 C 3.000 6.630,3.118 6.121,3.235 5.839 C 3.528 5.139,4.125 4.542,4.831 4.241 C 5.260 4.058,5.585 4.007,6.330 4.003 C 6.953 4.000,7.000 4.005,7.000 4.073 M16.420 11.024 C 15.503 11.155,14.922 11.331,14.244 11.681 C 12.599 12.532,11.457 14.075,11.093 15.940 C 10.996 16.439,10.996 17.561,11.093 18.060 C 11.208 18.651,11.389 19.176,11.662 19.713 C 12.497 21.359,13.983 22.487,15.840 22.885 C 16.190 22.960,16.384 22.975,17.000 22.975 C 17.616 22.975,17.810 22.960,18.160 22.885 C 20.000 22.491,21.475 21.381,22.316 19.759 C 22.589 19.234,22.756 18.765,22.885 18.160 C 23.015 17.554,23.015 16.446,22.885 15.840 C 22.364 13.407,20.558 11.600,18.164 11.116 C 17.794 11.041,16.701 10.983,16.420 11.024 M18.002 13.132 C 19.429 13.502,20.521 14.616,20.891 16.080 C 21.013 16.563,21.013 17.437,20.891 17.920 C 20.635 18.932,20.034 19.787,19.191 20.336 C 18.564 20.745,17.940 20.947,17.180 20.986 C 16.054 21.045,14.999 20.635,14.179 19.820 C 13.662 19.306,13.320 18.714,13.129 18.002 C 13.040 17.670,13.026 17.539,13.026 17.000 C 13.026 16.461,13.040 16.330,13.129 15.998 C 13.433 14.864,14.180 13.949,15.240 13.410 C 16.037 13.006,17.099 12.899,18.002 13.132 M18.180 14.699 C 18.092 14.732,18.012 14.759,18.002 14.759 C 17.942 14.761,16.178 16.569,16.108 16.700 C 15.988 16.924,15.988 17.355,16.108 17.583 C 16.288 17.923,16.629 18.134,17.000 18.134 C 17.378 18.134,17.440 18.090,18.414 17.125 C 18.997 16.548,19.356 16.162,19.404 16.060 C 19.494 15.867,19.505 15.456,19.425 15.266 C 19.346 15.076,19.133 14.848,18.947 14.753 C 18.736 14.646,18.387 14.621,18.180 14.699 " stroke="none" fill-rule="evenodd" fill="black"></path></svg>