<svg width="24" height="24" viewBox="0 0 24 24" fill="none" xmlns="http://www.w3.org/2000/svg"><path d="M6.140 2.055 C 5.669 2.170,5.307 2.466,4.917 3.056 C 4.475 3.724,4.131 4.550,3.951 5.374 C 3.875 5.726,3.863 5.902,3.862 6.700 C 3.861 7.508,3.872 7.670,3.951 8.030 C 4.198 9.153,4.662 10.110,5.366 10.949 C 5.569 11.191,6.125 11.684,7.480 12.822 C 8.491 13.671,9.328 14.381,9.340 14.401 C 9.352 14.420,9.186 14.751,8.971 15.136 L 8.580 15.836 8.322 15.574 C 7.702 14.942,6.981 14.583,6.109 14.473 C 5.417 14.386,4.554 14.556,3.933 14.903 C 3.058 15.391,2.358 16.314,2.113 17.300 C 1.986 17.809,1.986 18.630,2.112 19.135 C 2.449 20.482,3.474 21.531,4.800 21.887 C 5.073 21.960,5.247 21.978,5.680 21.979 C 6.170 21.980,6.253 21.969,6.574 21.864 C 7.008 21.722,7.415 21.461,7.746 21.114 C 8.139 20.701,8.192 20.613,10.108 17.191 L 10.930 15.722 11.175 15.926 C 11.310 16.038,12.221 16.803,13.200 17.625 L 14.980 19.119 15.260 19.627 C 16.046 21.052,16.596 21.613,17.480 21.886 C 17.907 22.019,18.708 22.019,19.200 21.886 C 20.534 21.526,21.550 20.486,21.888 19.135 C 21.958 18.853,21.977 18.665,21.977 18.220 C 21.977 17.527,21.886 17.119,21.602 16.540 C 21.152 15.622,20.402 14.959,19.454 14.642 C 18.104 14.191,16.673 14.547,15.665 15.586 L 15.409 15.849 15.250 15.575 C 14.638 14.517,13.187 11.975,13.154 11.903 C 13.120 11.827,13.408 11.312,15.303 8.063 L 17.492 4.310 17.565 4.405 C 17.686 4.563,17.921 5.148,18.028 5.556 C 18.105 5.846,18.134 6.079,18.150 6.508 C 18.174 7.196,18.123 7.595,17.937 8.156 C 17.658 8.995,17.374 9.409,16.365 10.450 C 15.932 10.896,15.648 11.223,15.599 11.330 C 15.447 11.665,15.526 12.170,15.772 12.434 C 15.935 12.608,16.234 12.730,16.500 12.730 C 16.907 12.730,17.043 12.633,17.894 11.741 C 18.890 10.697,19.277 10.166,19.611 9.380 C 19.994 8.482,20.120 7.898,20.148 6.900 C 20.166 6.236,20.158 6.074,20.081 5.620 C 19.839 4.199,19.027 2.644,18.304 2.220 C 18.050 2.071,17.665 1.986,17.358 2.012 C 16.802 2.059,16.397 2.312,16.063 2.820 C 15.948 2.996,14.982 4.638,13.917 6.470 C 12.851 8.301,11.971 9.799,11.960 9.799 C 11.949 9.799,11.031 8.211,9.920 6.270 C 8.458 3.714,7.849 2.684,7.711 2.537 C 7.305 2.102,6.705 1.918,6.140 2.055 M9.278 9.174 C 10.801 11.832,12.040 14.012,12.033 14.017 C 12.003 14.039,7.123 9.906,6.927 9.693 C 6.515 9.244,6.143 8.531,5.960 7.840 C 5.890 7.576,5.866 7.353,5.851 6.840 C 5.830 6.093,5.890 5.699,6.116 5.080 C 6.232 4.764,6.470 4.295,6.498 4.326 C 6.505 4.334,7.756 6.515,9.278 9.174 M6.102 16.502 C 6.591 16.628,6.988 16.961,7.209 17.430 C 7.422 17.879,7.420 17.891,6.988 18.660 C 6.351 19.793,6.151 20.001,5.697 20.000 C 4.624 19.997,3.812 18.932,4.045 17.832 C 4.179 17.199,4.675 16.666,5.280 16.504 C 5.569 16.427,5.810 16.426,6.102 16.502 M18.702 16.502 C 19.315 16.660,19.770 17.133,19.940 17.788 C 20.224 18.877,19.395 19.997,18.303 20.000 C 17.849 20.001,17.649 19.793,17.012 18.660 C 16.580 17.891,16.578 17.879,16.791 17.430 C 17.009 16.969,17.406 16.631,17.880 16.504 C 18.169 16.427,18.410 16.426,18.702 16.502 " stroke="none" fill-rule="evenodd" fill="black"></path></svg>