<svg width="24" height="24" viewBox="0 0 24 24" fill="none" xmlns="http://www.w3.org/2000/svg"><path d="M9.760 1.025 C 7.905 1.195,6.255 1.824,4.760 2.933 C 4.272 3.296,3.297 4.270,2.930 4.764 C 1.950 6.079,1.341 7.538,1.093 9.160 C 1.007 9.726,0.995 11.159,1.073 11.700 C 1.318 13.413,1.915 14.872,2.929 16.236 C 3.293 16.725,4.267 17.699,4.760 18.066 C 7.003 19.735,9.685 20.344,12.400 19.800 C 13.384 19.603,14.333 19.249,15.185 18.760 C 15.622 18.510,16.372 17.998,16.423 17.916 C 16.439 17.890,17.279 18.698,18.455 19.871 C 20.262 21.672,20.479 21.876,20.657 21.935 C 21.046 22.064,21.423 21.979,21.701 21.701 C 21.979 21.423,22.064 21.046,21.935 20.657 C 21.876 20.480,21.671 20.260,19.881 18.460 L 17.892 16.460 18.107 16.180 C 19.369 14.540,20.070 12.293,19.986 10.160 C 19.906 8.163,19.271 6.374,18.070 4.764 C 17.695 4.261,16.727 3.296,16.209 2.909 C 14.935 1.955,13.459 1.339,11.880 1.100 C 11.474 1.039,10.128 0.991,9.760 1.025 M11.272 3.042 C 14.255 3.369,16.730 5.381,17.638 8.220 C 18.496 10.898,17.789 13.803,15.796 15.796 C 13.773 17.819,10.835 18.511,8.122 17.604 C 6.188 16.957,4.555 15.507,3.713 13.688 C 2.133 10.277,3.263 6.298,6.398 4.230 C 7.427 3.551,8.456 3.193,9.860 3.026 C 10.132 2.994,10.909 3.003,11.272 3.042 " stroke="none" fill-rule="evenodd" fill="black"></path></svg>