<svg width="24" height="24" viewBox="0 0 24 24" fill="none" xmlns="http://www.w3.org/2000/svg"><path d="M2.680 2.028 C 1.728 2.187,1.000 3.038,1.000 3.991 C 1.000 4.211,3.010 12.229,3.126 12.470 C 3.225 12.678,3.436 12.857,3.675 12.939 C 3.938 13.029,9.982 13.031,10.236 12.942 C 10.816 12.737,11.077 12.064,10.783 11.530 C 10.719 11.414,10.607 11.274,10.534 11.218 C 10.244 10.997,10.288 11.000,7.425 11.000 L 4.780 11.000 3.908 7.536 C 3.428 5.630,3.045 4.062,3.056 4.050 C 3.081 4.026,19.640 11.964,19.640 12.000 C 19.640 12.030,3.082 19.976,3.063 19.956 C 3.055 19.947,3.370 18.878,3.764 17.580 C 4.526 15.066,4.555 14.936,4.418 14.609 C 4.339 14.420,4.146 14.217,3.940 14.108 C 3.728 13.995,3.284 13.989,3.080 14.096 C 2.907 14.186,2.691 14.387,2.621 14.520 C 2.592 14.575,2.223 15.763,1.799 17.160 C 0.969 19.900,0.941 20.027,1.054 20.470 C 1.324 21.522,2.367 22.172,3.425 21.947 C 3.709 21.886,4.600 21.464,17.500 15.270 C 19.216 14.447,21.052 13.567,21.579 13.316 C 22.658 12.803,22.818 12.686,22.939 12.322 C 23.068 11.936,22.941 11.477,22.640 11.237 C 22.563 11.176,19.575 9.723,16.000 8.008 C 12.425 6.294,8.199 4.267,6.610 3.505 C 4.763 2.619,3.630 2.098,3.470 2.060 C 3.233 2.004,2.901 1.991,2.680 2.028 " stroke="none" fill-rule="evenodd" fill="black"></path></svg>