<svg width="24" height="24" viewBox="0 0 24 24" fill="none" xmlns="http://www.w3.org/2000/svg"><path d="M11.640 2.068 C 11.486 2.121,11.152 2.437,9.329 4.255 C 7.813 5.766,7.173 6.431,7.112 6.556 C 6.923 6.948,6.996 7.398,7.298 7.700 C 7.577 7.980,7.954 8.064,8.343 7.934 C 8.517 7.877,8.685 7.724,9.770 6.646 L 11.000 5.423 11.000 10.284 C 11.000 15.749,10.980 15.382,11.299 15.701 C 11.690 16.092,12.310 16.092,12.701 15.701 C 13.020 15.382,13.000 15.749,13.000 10.284 L 13.000 5.423 14.230 6.646 C 15.315 7.724,15.483 7.877,15.657 7.934 C 16.046 8.064,16.423 7.980,16.702 7.700 C 17.004 7.398,17.077 6.948,16.888 6.556 C 16.827 6.431,16.187 5.766,14.671 4.255 C 12.747 2.336,12.521 2.124,12.343 2.065 C 12.102 1.986,11.878 1.986,11.640 2.068 M1.643 16.069 C 1.296 16.192,1.000 16.614,1.000 16.988 C 1.000 17.173,1.662 19.800,1.789 20.120 C 2.140 21.005,2.912 21.666,3.900 21.927 C 4.205 22.008,19.802 22.005,20.117 21.924 C 20.989 21.701,21.716 21.124,22.097 20.355 C 22.256 20.035,22.336 19.770,22.641 18.560 C 22.837 17.779,22.999 17.076,22.999 16.997 C 23.002 16.474,22.526 16.000,21.998 16.000 C 21.681 16.000,21.323 16.196,21.161 16.459 C 21.108 16.543,20.932 17.160,20.720 18.000 C 20.508 18.840,20.332 19.457,20.279 19.541 C 20.170 19.718,19.984 19.861,19.762 19.939 C 19.610 19.993,18.688 20.000,12.000 20.000 C 5.312 20.000,4.390 19.993,4.238 19.939 C 4.016 19.861,3.830 19.718,3.721 19.541 C 3.668 19.457,3.492 18.840,3.280 18.000 C 3.068 17.160,2.892 16.543,2.839 16.459 C 2.603 16.076,2.094 15.910,1.643 16.069 " stroke="none" fill-rule="evenodd" fill="black"></path></svg>