<svg width="24" height="24" viewBox="0 0 24 24" fill="none" xmlns="http://www.w3.org/2000/svg"><path d="M11.600 1.094 C 11.479 1.145,9.621 2.047,7.471 3.099 C 3.253 5.163,3.283 5.147,3.006 5.596 C 2.844 5.860,2.777 6.072,2.680 6.628 C 2.414 8.158,2.421 10.125,2.699 11.600 C 3.367 15.154,5.233 18.238,8.040 20.426 C 8.406 20.711,10.171 21.948,10.460 22.121 C 11.098 22.505,11.823 22.639,12.526 22.504 C 12.910 22.430,13.300 22.281,13.588 22.097 C 14.107 21.767,15.692 20.636,16.160 20.263 C 16.771 19.776,17.857 18.695,18.334 18.100 C 20.017 15.997,21.069 13.508,21.423 10.792 C 21.646 9.080,21.456 6.481,21.051 5.709 C 20.761 5.156,20.907 5.240,16.538 3.102 C 14.383 2.048,12.521 1.144,12.400 1.094 C 12.121 0.977,11.878 0.977,11.600 1.094 M15.662 4.903 L 19.308 6.686 19.374 7.133 C 19.481 7.847,19.518 8.334,19.519 9.040 C 19.523 11.857,18.587 14.551,16.831 16.772 C 16.427 17.283,15.382 18.330,14.880 18.728 C 14.262 19.218,12.501 20.436,12.318 20.501 C 12.106 20.575,11.896 20.576,11.688 20.503 C 11.599 20.471,11.133 20.171,10.653 19.835 C 9.092 18.743,8.769 18.483,7.998 17.694 C 6.792 16.460,5.917 15.101,5.303 13.509 C 4.529 11.502,4.298 9.321,4.625 7.133 L 4.692 6.687 5.636 6.226 C 6.638 5.737,7.590 5.271,10.300 3.945 C 11.224 3.493,11.988 3.122,11.998 3.121 C 12.008 3.121,13.657 3.922,15.662 4.903 " stroke="none" fill-rule="evenodd" fill="black"></path></svg>