<svg width="24" height="24" viewBox="0 0 24 24" fill="none" xmlns="http://www.w3.org/2000/svg"><path d="M11.579 1.317 C 11.327 1.357,10.939 1.469,10.781 1.547 C 10.714 1.580,8.914 2.573,6.780 3.753 C 3.011 5.838,2.892 5.908,2.609 6.186 C 2.297 6.494,2.130 6.792,2.045 7.192 C 2.013 7.341,2.000 8.689,2.000 11.738 C 2.000 16.420,1.999 16.387,2.214 16.920 C 2.438 17.474,2.848 17.988,3.312 18.293 C 3.560 18.456,10.242 22.180,10.708 22.414 C 11.464 22.795,12.536 22.795,13.292 22.414 C 13.799 22.160,20.448 18.454,20.691 18.292 C 21.160 17.978,21.563 17.473,21.786 16.920 C 22.001 16.387,22.000 16.420,22.000 11.738 C 22.000 8.689,21.987 7.341,21.955 7.192 C 21.870 6.792,21.703 6.494,21.391 6.186 C 21.120 5.919,20.985 5.836,19.400 4.962 C 18.465 4.446,17.502 3.912,17.260 3.776 C 16.343 3.260,13.491 1.686,13.294 1.586 C 12.841 1.359,12.073 1.238,11.579 1.317 M12.290 3.337 C 12.373 3.367,12.889 3.639,13.438 3.944 L 14.435 4.496 14.288 4.583 C 13.923 4.796,7.567 8.317,7.527 8.328 C 7.481 8.340,5.082 7.037,5.083 7.000 C 5.083 6.967,11.542 3.397,11.708 3.338 C 11.901 3.269,12.099 3.269,12.290 3.337 M18.011 6.480 C 18.510 6.755,18.918 6.989,18.918 7.000 C 18.917 7.036,12.065 10.820,12.001 10.820 C 11.966 10.820,11.404 10.523,10.750 10.161 C 9.792 9.629,9.575 9.494,9.631 9.463 C 9.669 9.441,11.230 8.573,13.099 7.534 L 16.498 5.645 16.801 5.813 C 16.968 5.905,17.512 6.205,18.011 6.480 M7.535 10.660 L 10.997 12.580 10.999 16.430 C 10.999 18.547,10.992 20.280,10.982 20.280 C 10.912 20.280,4.432 16.644,4.325 16.545 C 4.251 16.476,4.148 16.330,4.095 16.220 L 4.001 16.020 4.000 12.367 C 4.000 10.164,4.015 8.719,4.037 8.727 C 4.057 8.734,5.631 9.604,7.535 10.660 M19.991 12.410 L 19.980 16.100 19.894 16.260 C 19.846 16.348,19.747 16.476,19.674 16.545 C 19.568 16.644,13.089 20.280,13.018 20.280 C 13.008 20.280,13.001 18.547,13.001 16.430 L 13.003 12.580 16.471 10.653 C 18.379 9.593,19.954 8.724,19.971 8.723 C 19.988 8.721,19.997 10.380,19.991 12.410 M5.715 11.375 C 5.366 11.500,5.145 11.723,5.039 12.056 C 4.938 12.374,5.068 12.830,5.326 13.066 C 5.445 13.174,8.487 14.871,8.695 14.945 C 9.308 15.162,10.000 14.661,10.000 14.000 C 10.000 13.757,9.881 13.479,9.704 13.307 C 9.526 13.134,6.498 11.431,6.244 11.360 C 6.054 11.308,5.892 11.312,5.715 11.375 " stroke="none" fill-rule="evenodd" fill="black"></path></svg>