<svg width="24" height="24" viewBox="0 0 24 24" fill="none" xmlns="http://www.w3.org/2000/svg"><path d="M11.573 1.318 C 11.171 1.381,10.814 1.521,10.216 1.849 C 9.884 2.031,8.102 3.017,6.256 4.040 C 3.016 5.836,2.890 5.910,2.609 6.186 C 2.297 6.494,2.129 6.792,2.045 7.192 C 2.013 7.341,2.000 8.689,2.000 11.738 C 2.000 16.420,1.999 16.387,2.214 16.920 C 2.438 17.474,2.848 17.988,3.312 18.293 C 3.560 18.456,10.242 22.180,10.708 22.414 C 11.464 22.795,12.536 22.795,13.292 22.414 C 13.799 22.160,20.448 18.454,20.691 18.292 C 21.160 17.978,21.563 17.473,21.786 16.920 C 22.001 16.387,22.000 16.420,22.000 11.738 C 22.000 8.689,21.987 7.341,21.955 7.192 C 21.870 6.792,21.703 6.494,21.391 6.186 C 21.108 5.908,20.989 5.838,17.220 3.753 C 15.086 2.573,13.284 1.579,13.215 1.545 C 12.833 1.356,12.030 1.245,11.573 1.318 M12.292 3.338 C 12.458 3.397,18.917 6.967,18.917 7.000 C 18.918 7.037,16.519 8.340,16.473 8.328 C 16.433 8.317,10.077 4.796,9.712 4.583 L 9.565 4.496 10.562 3.944 C 11.111 3.639,11.627 3.367,11.710 3.337 C 11.901 3.269,12.099 3.269,12.292 3.338 M11.040 7.611 C 12.899 8.643,14.424 9.492,14.428 9.496 C 14.449 9.514,12.054 10.820,11.999 10.820 C 11.935 10.820,5.083 7.036,5.083 7.000 C 5.083 6.989,5.626 6.680,6.290 6.313 C 7.323 5.743,7.509 5.653,7.579 5.690 C 7.623 5.714,9.181 6.578,11.040 7.611 M7.536 10.660 L 10.997 12.580 10.999 16.430 C 10.999 18.547,10.992 20.280,10.982 20.280 C 10.912 20.280,4.432 16.644,4.325 16.545 C 4.251 16.476,4.148 16.330,4.095 16.220 L 4.001 16.020 4.000 12.367 C 4.000 10.149,4.015 8.719,4.037 8.727 C 4.057 8.734,5.632 9.604,7.536 10.660 M19.991 12.410 L 19.980 16.100 19.894 16.260 C 19.846 16.348,19.747 16.476,19.674 16.545 C 19.568 16.644,13.089 20.280,13.018 20.280 C 13.008 20.280,13.001 18.547,13.001 16.430 L 13.003 12.580 14.216 11.910 C 14.883 11.542,15.439 11.240,15.451 11.240 C 15.462 11.240,15.479 11.685,15.488 12.230 C 15.506 13.323,15.523 13.414,15.772 13.674 C 15.985 13.896,16.181 13.978,16.500 13.978 C 16.819 13.978,17.015 13.896,17.228 13.674 C 17.496 13.394,17.497 13.386,17.519 11.644 L 17.540 10.067 18.740 9.396 C 19.400 9.027,19.954 8.724,19.971 8.723 C 19.988 8.721,19.997 10.380,19.991 12.410 M5.715 11.375 C 5.366 11.500,5.145 11.723,5.039 12.056 C 4.938 12.374,5.068 12.830,5.326 13.066 C 5.445 13.174,8.487 14.871,8.695 14.945 C 9.308 15.162,10.000 14.661,10.000 14.000 C 10.000 13.757,9.881 13.479,9.704 13.307 C 9.526 13.134,6.498 11.431,6.244 11.360 C 6.054 11.308,5.892 11.312,5.715 11.375 " stroke="none" fill-rule="evenodd" fill="black"></path></svg>