<svg width="24" height="24" viewBox="0 0 24 24" fill="none" xmlns="http://www.w3.org/2000/svg"><path d="M11.260 1.056 C 9.597 1.335,8.270 2.304,7.527 3.781 C 7.153 4.524,7.039 5.046,7.012 6.145 L 6.990 6.991 6.205 7.010 C 5.536 7.026,5.379 7.042,5.140 7.118 C 4.115 7.447,3.351 8.222,3.081 9.208 C 2.977 9.587,2.141 19.826,2.180 20.240 C 2.217 20.629,2.344 21.057,2.530 21.418 C 2.657 21.663,2.784 21.827,3.058 22.102 C 3.458 22.501,3.814 22.716,4.360 22.886 L 4.660 22.980 12.000 22.980 L 19.340 22.980 19.640 22.886 C 20.876 22.500,21.702 21.497,21.820 20.240 C 21.851 19.912,21.027 9.654,20.940 9.290 C 20.753 8.503,20.157 7.734,19.448 7.367 C 18.883 7.075,18.680 7.031,17.795 7.010 L 17.010 6.991 16.988 6.145 C 16.974 5.576,16.945 5.202,16.900 5.000 C 16.676 3.989,16.250 3.210,15.521 2.477 C 14.788 1.742,13.997 1.312,12.980 1.099 C 12.554 1.009,11.670 0.988,11.260 1.056 M12.592 3.063 C 13.774 3.306,14.694 4.226,14.937 5.408 C 14.979 5.614,15.000 5.930,15.000 6.358 L 15.000 7.000 12.000 7.000 L 9.000 7.000 9.000 6.358 C 9.000 5.930,9.021 5.614,9.063 5.408 C 9.396 3.787,10.981 2.733,12.592 3.063 M7.000 10.073 C 7.000 10.967,7.011 11.178,7.066 11.340 C 7.192 11.709,7.604 12.000,8.000 12.000 C 8.396 12.000,8.808 11.709,8.934 11.340 C 8.989 11.178,9.000 10.967,9.000 10.073 L 9.000 9.000 12.000 9.000 L 15.000 9.000 15.000 10.073 C 15.000 10.967,15.011 11.178,15.066 11.340 C 15.192 11.709,15.604 12.000,16.000 12.000 C 16.396 12.000,16.808 11.709,16.934 11.340 C 16.989 11.178,17.000 10.966,17.000 10.070 L 17.000 8.995 17.650 9.007 C 18.191 9.018,18.326 9.033,18.453 9.096 C 18.757 9.247,18.971 9.545,19.017 9.881 C 19.085 10.378,19.838 20.077,19.816 20.180 C 19.776 20.376,19.597 20.673,19.454 20.782 C 19.151 21.013,19.600 21.000,12.000 21.000 C 4.454 21.000,4.854 21.011,4.562 20.795 C 4.406 20.680,4.258 20.454,4.202 20.246 C 4.165 20.110,4.229 19.189,4.558 15.071 C 4.778 12.315,4.969 9.979,4.983 9.880 C 5.033 9.509,5.305 9.176,5.660 9.049 C 5.726 9.026,6.055 9.005,6.390 9.003 L 7.000 9.000 7.000 10.073 " stroke="none" fill-rule="evenodd" fill="black"></path></svg>