<svg width="24" height="24" viewBox="0 0 24 24" fill="none" xmlns="http://www.w3.org/2000/svg"><path d="M11.720 2.187 C 11.621 2.196,9.717 2.355,7.489 2.541 C 3.493 2.874,3.432 2.880,3.069 3.001 C 2.240 3.279,1.549 3.919,1.229 4.706 C 1.009 5.247,1.020 4.856,1.020 12.040 L 1.020 18.700 1.152 19.078 C 1.322 19.566,1.508 19.870,1.858 20.233 C 2.208 20.597,2.589 20.838,3.069 20.999 C 3.432 21.120,3.498 21.127,7.509 21.464 C 9.748 21.653,11.769 21.808,12.000 21.809 C 13.239 21.816,14.315 21.087,14.786 19.920 C 14.966 19.475,15.000 19.163,15.000 17.964 C 15.000 16.688,14.980 16.578,14.701 16.299 C 14.310 15.908,13.690 15.908,13.299 16.299 C 13.022 16.576,13.000 16.694,13.000 17.912 C 13.000 18.633,12.984 19.023,12.951 19.135 C 12.876 19.384,12.552 19.697,12.288 19.775 C 12.086 19.834,11.906 19.823,7.988 19.498 C 5.274 19.274,3.828 19.139,3.685 19.097 C 3.537 19.053,3.418 18.981,3.301 18.863 C 2.974 18.536,2.998 19.094,3.010 11.915 L 3.020 5.534 3.141 5.337 C 3.287 5.101,3.578 4.894,3.811 4.861 C 4.405 4.778,12.083 4.169,12.201 4.196 C 12.278 4.213,12.396 4.257,12.465 4.292 C 12.643 4.384,12.897 4.687,12.953 4.872 C 12.984 4.975,13.000 5.392,13.000 6.088 C 13.000 7.306,13.022 7.424,13.299 7.701 C 13.691 8.093,14.310 8.092,14.702 7.700 C 14.993 7.409,15.009 7.311,14.990 5.890 C 14.972 4.497,14.960 4.420,14.660 3.820 C 14.119 2.735,12.936 2.078,11.720 2.187 M18.400 7.037 C 17.962 7.171,17.680 7.548,17.680 8.000 C 17.680 8.355,17.735 8.439,18.812 9.734 L 19.849 10.980 16.295 11.000 L 12.740 11.020 12.550 11.114 C 12.323 11.226,12.145 11.430,12.061 11.675 C 11.899 12.151,12.108 12.669,12.550 12.886 L 12.740 12.980 16.295 13.000 L 19.849 13.020 18.812 14.266 C 17.735 15.561,17.680 15.645,17.680 16.000 C 17.680 16.822,18.641 17.300,19.263 16.787 C 19.346 16.719,20.193 15.728,21.145 14.586 C 22.940 12.433,23.000 12.348,23.000 12.000 C 23.000 11.652,22.940 11.567,21.145 9.414 C 20.193 8.272,19.347 7.282,19.265 7.214 C 19.032 7.022,18.683 6.951,18.400 7.037 " stroke="none" fill-rule="evenodd" fill="black"></path></svg>