<svg width="24" height="24" viewBox="0 0 24 24" fill="none" xmlns="http://www.w3.org/2000/svg"><path d="M8.620 1.047 C 8.112 1.142,7.533 1.540,7.224 2.006 C 6.971 2.388,6.905 2.633,6.904 3.200 C 6.903 3.649,6.914 3.727,7.010 3.970 C 7.141 4.302,7.292 4.526,7.568 4.798 C 7.818 5.043,8.306 5.294,8.657 5.357 C 8.791 5.381,9.417 5.400,10.091 5.400 L 11.287 5.400 11.270 4.110 C 11.256 3.016,11.243 2.787,11.183 2.600 C 11.063 2.227,10.871 1.911,10.600 1.640 C 10.086 1.126,9.359 0.908,8.620 1.047 M14.424 1.064 C 13.659 1.249,13.055 1.832,12.814 2.620 C 12.745 2.845,12.740 3.070,12.740 6.140 C 12.740 9.415,12.740 9.420,12.829 9.702 C 12.986 10.203,13.311 10.622,13.777 10.926 C 14.446 11.363,15.375 11.367,16.086 10.936 C 16.542 10.660,16.973 10.058,17.078 9.549 C 17.109 9.402,17.119 8.320,17.111 6.018 L 17.100 2.700 16.992 2.430 C 16.574 1.387,15.485 0.807,14.424 1.064 M2.648 6.942 C 1.495 7.253,0.792 8.412,1.062 9.558 C 1.246 10.339,1.823 10.942,2.620 11.186 C 2.845 11.255,3.070 11.260,6.140 11.260 C 9.415 11.260,9.420 11.260,9.702 11.171 C 10.379 10.958,10.953 10.390,11.165 9.723 C 11.269 9.395,11.280 8.799,11.189 8.495 C 10.957 7.725,10.357 7.134,9.612 6.940 C 9.279 6.853,2.971 6.855,2.648 6.942 M20.248 6.940 C 19.624 7.115,19.121 7.524,18.836 8.087 C 18.624 8.508,18.601 8.699,18.601 10.054 L 18.600 11.287 19.890 11.270 C 20.978 11.256,21.215 11.242,21.400 11.183 C 22.187 10.931,22.756 10.330,22.938 9.558 C 23.189 8.492,22.574 7.366,21.540 6.997 C 21.224 6.884,20.553 6.854,20.248 6.940 M2.878 12.762 C 1.992 12.893,1.270 13.561,1.062 14.442 C 0.834 15.411,1.313 16.431,2.206 16.878 C 2.604 17.077,2.887 17.135,3.340 17.110 C 4.112 17.066,4.782 16.636,5.141 15.952 C 5.371 15.515,5.399 15.299,5.399 13.930 L 5.400 12.720 4.250 12.725 C 3.618 12.728,3.000 12.744,2.878 12.762 M8.760 12.761 C 8.266 12.834,7.905 13.017,7.532 13.382 C 7.219 13.690,7.000 14.073,6.921 14.457 C 6.892 14.597,6.881 15.734,6.889 17.982 L 6.900 21.300 7.008 21.570 C 7.424 22.608,8.502 23.187,9.558 22.938 C 10.339 22.754,10.942 22.177,11.186 21.380 C 11.255 21.155,11.260 20.930,11.260 17.860 C 11.260 14.585,11.260 14.580,11.171 14.298 C 10.847 13.267,9.808 12.604,8.760 12.761 M14.615 12.759 C 13.979 12.855,13.438 13.211,13.075 13.773 C 12.848 14.124,12.752 14.461,12.750 14.920 C 12.748 15.346,12.791 15.540,12.974 15.919 C 13.134 16.250,13.568 16.695,13.900 16.868 C 14.403 17.130,14.290 17.123,17.970 17.111 C 21.277 17.100,21.302 17.099,21.527 17.013 C 22.586 16.608,23.189 15.509,22.938 14.442 C 22.756 13.671,22.197 13.079,21.400 12.815 C 21.195 12.747,20.960 12.741,18.000 12.735 C 16.251 12.731,14.728 12.742,14.615 12.759 M12.730 19.890 C 12.744 20.984,12.757 21.213,12.817 21.400 C 13.071 22.190,13.672 22.756,14.450 22.940 C 15.499 23.187,16.582 22.604,16.990 21.570 C 17.086 21.328,17.097 21.248,17.097 20.800 C 17.097 20.352,17.086 20.272,16.990 20.030 C 16.790 19.523,16.419 19.104,15.954 18.860 C 15.515 18.629,15.301 18.601,13.927 18.601 L 12.713 18.600 12.730 19.890 " stroke="none" fill-rule="evenodd"></path></svg>