<svg width="24" height="24" viewBox="0 0 24 24" fill="none" xmlns="http://www.w3.org/2000/svg"><path d="M10.901 0.784 C 9.846 0.947,8.901 1.311,8.038 1.884 C 7.548 2.209,6.748 3.006,6.409 3.505 C 5.698 4.556,5.491 5.270,5.451 6.820 C 5.432 7.562,5.474 8.813,5.546 9.670 L 5.571 9.959 5.416 10.024 C 5.186 10.120,4.857 10.079,4.279 9.880 C 3.663 9.668,3.435 9.659,3.066 9.831 C 2.359 10.162,2.235 10.766,2.768 11.278 C 2.993 11.495,3.433 11.717,4.065 11.933 C 4.831 12.196,5.118 12.358,5.279 12.619 C 5.695 13.291,4.440 15.364,2.920 16.518 C 2.189 17.073,1.262 17.506,0.560 17.620 C 0.313 17.660,0.171 17.741,0.078 17.892 C -0.016 18.047,-0.021 18.193,0.062 18.391 C 0.275 18.900,1.144 19.296,2.677 19.580 C 2.972 19.635,3.221 19.688,3.231 19.697 C 3.240 19.707,3.316 19.987,3.399 20.320 C 3.633 21.260,3.717 21.312,4.715 21.135 C 5.227 21.044,5.452 21.024,5.960 21.026 C 7.019 21.030,7.294 21.131,8.620 22.001 C 10.130 22.992,10.904 23.279,12.072 23.280 C 13.162 23.280,13.851 23.017,15.385 22.011 C 16.746 21.119,16.992 21.028,18.060 21.026 C 18.554 21.025,18.818 21.045,19.220 21.116 C 19.891 21.235,20.158 21.220,20.322 21.057 C 20.420 20.958,20.466 20.837,20.598 20.323 C 20.685 19.984,20.776 19.695,20.801 19.680 C 20.825 19.664,21.001 19.629,21.193 19.601 C 21.669 19.530,22.515 19.314,22.913 19.160 C 23.325 19.001,23.703 18.750,23.852 18.537 C 24.146 18.114,23.962 17.697,23.446 17.620 C 23.157 17.577,22.488 17.345,22.126 17.163 C 20.951 16.572,19.897 15.575,19.174 14.372 C 18.701 13.584,18.529 12.929,18.715 12.627 C 18.882 12.357,19.162 12.198,19.935 11.933 C 20.826 11.628,21.287 11.337,21.480 10.960 C 21.721 10.487,21.410 9.963,20.766 9.760 C 20.405 9.646,20.241 9.659,19.720 9.842 C 19.169 10.036,18.923 10.088,18.717 10.055 C 18.420 10.007,18.431 10.073,18.504 8.840 C 18.616 6.945,18.540 5.568,18.282 4.825 C 17.836 3.536,16.703 2.258,15.360 1.528 C 14.722 1.181,13.860 0.901,13.060 0.781 C 12.559 0.705,11.395 0.707,10.901 0.784 " fill="#020202" stroke="none" fill-rule="evenodd"></path></svg>