<svg width="24" height="24" viewBox="0 0 24 24" fill="none" xmlns="http://www.w3.org/2000/svg"><path d="M10.620 3.042 C 9.978 3.173,9.895 3.247,8.132 5.241 L 6.580 6.998 4.678 6.999 C 3.126 7.000,2.735 7.011,2.548 7.060 C 1.803 7.254,1.235 7.829,1.062 8.564 C 0.971 8.946,0.971 15.054,1.062 15.436 C 1.234 16.170,1.805 16.747,2.548 16.940 C 2.734 16.989,3.129 17.000,4.678 17.002 L 6.580 17.005 8.132 18.760 C 9.762 20.603,9.890 20.725,10.348 20.883 C 11.291 21.207,12.349 20.766,12.774 19.871 C 12.850 19.711,12.932 19.485,12.956 19.368 C 12.987 19.219,13.000 17.037,13.000 12.000 C 13.000 6.963,12.987 4.781,12.956 4.632 C 12.734 3.557,11.662 2.828,10.620 3.042 M10.990 15.481 L 10.980 18.963 9.520 17.316 C 7.975 15.574,7.777 15.370,7.473 15.216 C 7.072 15.013,6.926 15.001,4.890 15.001 L 3.000 15.000 3.000 12.000 L 3.000 9.000 4.890 8.999 C 6.966 8.999,7.087 8.988,7.517 8.759 C 7.825 8.594,7.920 8.496,9.548 6.657 L 10.980 5.039 10.990 8.520 C 10.996 10.434,10.996 13.567,10.990 15.481 M15.643 11.069 C 15.291 11.193,15.000 11.614,15.000 12.000 C 15.000 12.242,15.119 12.521,15.299 12.701 C 15.610 13.013,15.456 13.000,19.000 13.000 C 22.544 13.000,22.390 13.013,22.701 12.701 C 23.092 12.310,23.092 11.690,22.701 11.299 C 22.389 10.987,22.547 11.000,18.983 11.003 C 16.226 11.006,15.797 11.014,15.643 11.069 " stroke="none" fill-rule="evenodd" fill="black"></path></svg>