<svg width="24" height="24" viewBox="0 0 24 24" fill="none" xmlns="http://www.w3.org/2000/svg"><path d="M14.042 7.041 C 13.656 7.095,13.416 7.150,13.050 7.268 C 12.496 7.446,12.560 6.807,12.560 12.162 C 12.560 16.727,12.561 16.801,12.639 16.879 C 12.682 16.922,12.759 16.968,12.809 16.980 C 12.859 16.993,14.853 16.997,17.240 16.991 C 22.133 16.977,21.725 17.004,22.440 16.653 C 22.755 16.498,22.878 16.408,23.163 16.123 C 23.449 15.837,23.538 15.716,23.692 15.400 C 24.392 13.969,23.821 12.348,22.367 11.639 C 21.947 11.435,21.565 11.352,21.040 11.352 C 20.609 11.352,20.502 11.369,19.962 11.523 C 19.918 11.536,19.896 11.482,19.873 11.306 C 19.800 10.755,19.563 10.075,19.272 9.580 C 18.513 8.288,17.254 7.400,15.757 7.099 C 15.392 7.026,14.392 6.992,14.042 7.041 M11.722 7.758 C 11.679 7.801,11.636 7.895,11.625 7.968 C 11.614 8.040,11.578 9.540,11.545 11.300 C 11.490 14.284,11.491 14.576,11.555 15.620 C 11.595 16.262,11.644 16.776,11.671 16.825 C 11.796 17.053,12.205 16.986,12.255 16.730 C 12.267 16.669,12.307 16.111,12.344 15.489 C 12.408 14.427,12.408 14.167,12.345 11.209 C 12.308 9.477,12.268 8.002,12.257 7.931 C 12.246 7.860,12.198 7.775,12.150 7.741 C 12.027 7.656,11.816 7.664,11.722 7.758 M10.813 8.240 C 10.765 8.260,10.705 8.314,10.679 8.361 C 10.648 8.420,10.614 9.324,10.573 11.254 C 10.523 13.578,10.521 14.266,10.562 15.260 C 10.625 16.778,10.631 16.830,10.765 16.930 C 10.895 17.027,11.095 16.996,11.178 16.867 C 11.219 16.804,11.253 16.440,11.302 15.571 C 11.366 14.437,11.366 14.179,11.303 11.399 C 11.266 9.769,11.225 8.409,11.213 8.376 C 11.191 8.318,10.995 8.198,10.932 8.203 C 10.914 8.204,10.861 8.221,10.813 8.240 M7.760 8.960 C 7.716 9.004,7.680 9.080,7.679 9.130 C 7.679 9.180,7.644 10.372,7.601 11.780 C 7.523 14.328,7.523 14.346,7.602 15.560 C 7.646 16.231,7.692 16.813,7.704 16.852 C 7.754 17.010,8.074 17.017,8.134 16.861 C 8.148 16.826,8.198 16.262,8.246 15.608 C 8.333 14.421,8.333 14.418,8.265 12.200 C 8.174 9.188,8.166 9.046,8.074 8.954 C 7.978 8.858,7.860 8.860,7.760 8.960 M8.723 9.105 C 8.655 9.192,8.640 9.268,8.640 9.533 C 8.640 9.710,8.612 10.846,8.577 12.057 C 8.518 14.115,8.518 14.342,8.582 15.500 C 8.620 16.182,8.666 16.781,8.685 16.831 C 8.703 16.881,8.764 16.939,8.819 16.960 C 8.952 17.010,9.111 16.949,9.155 16.831 C 9.173 16.781,9.221 16.191,9.261 15.520 C 9.332 14.332,9.332 14.233,9.257 11.726 L 9.180 9.153 9.086 9.076 C 8.954 8.970,8.821 8.980,8.723 9.105 M6.788 9.137 C 6.708 9.218,6.692 9.487,6.616 12.160 C 6.549 14.481,6.549 14.510,6.633 15.677 C 6.691 16.488,6.733 16.870,6.769 16.904 C 6.866 16.998,7.062 16.989,7.115 16.889 C 7.136 16.850,7.194 16.258,7.245 15.574 L 7.336 14.330 7.245 11.795 C 7.172 9.761,7.143 9.242,7.096 9.170 C 7.030 9.067,6.875 9.051,6.788 9.137 M9.742 9.250 L 9.640 9.340 9.575 11.800 C 9.522 13.796,9.519 14.437,9.556 15.200 C 9.631 16.734,9.639 16.802,9.744 16.908 C 9.860 17.024,9.967 17.025,10.098 16.910 C 10.200 16.820,10.200 16.819,10.275 15.580 C 10.348 14.372,10.348 14.276,10.277 11.840 L 10.203 9.340 10.099 9.250 C 10.042 9.200,9.962 9.160,9.920 9.160 C 9.878 9.160,9.799 9.200,9.742 9.250 M5.823 9.533 C 5.758 9.581,5.744 9.782,5.662 11.963 L 5.572 14.340 5.663 15.599 C 5.749 16.790,5.759 16.862,5.841 16.929 C 5.889 16.968,5.945 17.000,5.964 17.000 C 6.046 17.000,6.160 16.832,6.162 16.710 C 6.164 16.639,6.206 16.094,6.257 15.500 L 6.349 14.420 6.251 12.040 C 6.148 9.547,6.141 9.480,5.967 9.480 C 5.927 9.480,5.863 9.504,5.823 9.533 M4.863 10.423 C 4.828 10.457,4.800 10.489,4.800 10.493 C 4.799 10.497,4.755 11.364,4.702 12.420 L 4.605 14.340 4.700 15.591 C 4.753 16.279,4.807 16.859,4.820 16.881 C 4.880 16.977,4.992 16.999,5.074 16.929 C 5.148 16.866,5.166 16.745,5.264 15.606 L 5.371 14.351 5.264 12.426 C 5.162 10.595,5.153 10.497,5.074 10.430 C 4.972 10.344,4.943 10.343,4.863 10.423 M2.982 11.733 C 2.928 11.773,2.899 11.987,2.819 12.921 C 2.766 13.547,2.721 14.189,2.721 14.347 C 2.720 14.675,2.908 16.828,2.942 16.883 C 2.975 16.937,3.104 16.928,3.151 16.870 C 3.173 16.843,3.246 16.262,3.312 15.579 L 3.434 14.339 3.317 13.119 C 3.253 12.449,3.192 11.861,3.181 11.814 C 3.156 11.707,3.068 11.671,2.982 11.733 M1.983 11.930 C 1.971 12.002,1.915 12.573,1.858 13.200 L 1.754 14.340 1.858 15.440 C 1.980 16.738,1.986 16.786,2.055 16.812 C 2.192 16.865,2.215 16.770,2.346 15.573 L 2.476 14.380 2.356 13.180 C 2.290 12.520,2.228 11.940,2.217 11.890 C 2.204 11.826,2.170 11.800,2.101 11.800 C 2.022 11.800,2.000 11.825,1.983 11.930 M3.890 11.930 C 3.868 11.957,3.804 12.514,3.749 13.167 L 3.649 14.355 3.746 15.567 C 3.799 16.234,3.860 16.820,3.880 16.870 C 3.923 16.972,4.046 16.989,4.118 16.902 C 4.147 16.867,4.213 16.344,4.283 15.596 L 4.399 14.348 4.283 13.155 C 4.219 12.500,4.155 11.944,4.141 11.921 C 4.105 11.864,3.938 11.870,3.890 11.930 M1.065 12.270 C 1.054 12.308,0.996 12.794,0.935 13.349 L 0.826 14.358 0.941 15.362 C 1.113 16.864,1.189 16.869,1.389 15.392 L 1.526 14.380 1.402 13.380 C 1.334 12.830,1.269 12.340,1.258 12.290 C 1.235 12.182,1.095 12.167,1.065 12.270 M0.181 13.050 C 0.172 13.078,0.128 13.388,0.082 13.740 L -0.000 14.380 0.090 15.020 C 0.173 15.610,0.187 15.661,0.266 15.672 C 0.359 15.686,0.347 15.732,0.506 14.765 C 0.570 14.371,0.570 14.327,0.503 13.905 C 0.361 13.010,0.358 13.000,0.274 13.000 C 0.232 13.000,0.190 13.023,0.181 13.050 " stroke="none" fill-rule="evenodd"></path></svg>