<svg width="24" height="24" viewBox="0 0 24 24" fill="none" xmlns="http://www.w3.org/2000/svg"><path d="M10.620 3.042 C 9.978 3.173,9.895 3.247,8.132 5.241 L 6.580 6.998 4.678 6.999 C 3.126 7.000,2.735 7.011,2.548 7.060 C 1.803 7.254,1.235 7.829,1.062 8.564 C 0.971 8.946,0.971 15.054,1.062 15.436 C 1.234 16.170,1.805 16.747,2.548 16.940 C 2.734 16.989,3.129 17.000,4.678 17.002 L 6.580 17.005 8.132 18.760 C 9.762 20.603,9.890 20.725,10.348 20.883 C 11.291 21.207,12.349 20.766,12.774 19.871 C 12.850 19.711,12.932 19.485,12.956 19.368 C 12.987 19.219,13.000 17.037,13.000 12.000 C 13.000 6.963,12.987 4.781,12.956 4.632 C 12.734 3.557,11.662 2.828,10.620 3.042 M18.643 4.069 C 18.291 4.193,18.000 4.614,18.000 5.000 C 18.000 5.315,18.109 5.504,18.567 5.991 C 18.808 6.247,19.105 6.588,19.227 6.751 C 20.964 9.059,21.454 12.048,20.542 14.783 C 20.136 16.001,19.505 17.033,18.566 18.014 C 18.110 18.490,18.000 18.681,18.000 19.000 C 18.000 19.527,18.473 20.000,19.000 20.000 C 19.341 20.000,19.513 19.898,20.003 19.401 C 21.555 17.830,22.577 15.726,22.910 13.421 C 23.003 12.778,23.000 11.212,22.906 10.600 C 22.699 9.259,22.315 8.056,21.755 7.001 C 21.295 6.132,20.398 4.937,19.769 4.355 C 19.403 4.016,19.048 3.926,18.643 4.069 M10.990 15.481 L 10.980 18.963 9.520 17.316 C 7.975 15.574,7.777 15.370,7.473 15.216 C 7.072 15.013,6.926 15.001,4.890 15.001 L 3.000 15.000 3.000 12.000 L 3.000 9.000 4.890 8.999 C 6.966 8.999,7.087 8.988,7.517 8.759 C 7.825 8.594,7.920 8.496,9.548 6.657 L 10.980 5.039 10.990 8.520 C 10.996 10.434,10.996 13.567,10.990 15.481 M15.617 7.577 C 15.301 7.714,15.054 8.048,15.013 8.393 C 14.984 8.646,15.048 8.858,15.246 9.163 C 15.570 9.662,15.761 10.164,15.907 10.900 C 16.006 11.399,16.005 12.593,15.906 13.100 C 15.763 13.831,15.571 14.337,15.246 14.837 C 15.048 15.142,14.984 15.354,15.013 15.607 C 15.055 15.957,15.305 16.291,15.626 16.425 C 15.815 16.504,16.226 16.493,16.422 16.405 C 16.836 16.217,17.373 15.308,17.679 14.278 C 17.901 13.528,17.976 12.955,17.976 12.000 C 17.976 11.045,17.901 10.472,17.679 9.722 C 17.373 8.692,16.836 7.783,16.422 7.595 C 16.228 7.507,15.799 7.498,15.617 7.577 " stroke="none" fill-rule="evenodd" fill="black"></path></svg>