<svg width="24" height="24" viewBox="0 0 24 24" fill="none" xmlns="http://www.w3.org/2000/svg"><path d="M10.940 0.046 C 9.341 0.184,7.634 0.704,6.231 1.482 C 1.582 4.058,-0.829 9.315,0.265 14.494 C 1.247 19.145,4.973 22.829,9.638 23.760 C 10.532 23.938,10.976 23.979,12.000 23.979 C 13.024 23.979,13.468 23.938,14.362 23.760 C 15.746 23.483,17.122 22.940,18.313 22.198 C 19.106 21.704,19.706 21.220,20.463 20.463 C 21.467 19.458,22.103 18.591,22.707 17.402 C 25.029 12.830,24.163 7.274,20.558 3.611 C 18.504 1.524,15.876 0.286,12.980 0.041 C 12.422 -0.006,11.512 -0.004,10.940 0.046 M11.400 6.661 C 13.852 6.761,16.639 7.427,19.023 8.481 C 20.067 8.943,20.213 9.036,20.370 9.340 C 20.601 9.787,20.339 10.422,19.834 10.639 C 19.563 10.755,19.394 10.729,18.913 10.494 C 16.469 9.301,13.691 8.615,10.948 8.526 C 9.086 8.465,7.546 8.601,5.776 8.981 C 5.422 9.058,5.069 9.120,4.993 9.120 C 4.780 9.120,4.440 8.928,4.303 8.730 C 4.092 8.425,4.117 7.942,4.361 7.605 C 4.525 7.379,4.663 7.303,5.094 7.204 C 6.463 6.888,7.861 6.698,9.220 6.642 C 9.960 6.612,10.280 6.615,11.400 6.661 M12.120 11.457 C 13.784 11.660,15.338 12.044,16.745 12.601 C 17.426 12.870,18.375 13.311,18.555 13.441 C 18.872 13.670,18.931 14.076,18.710 14.494 C 18.639 14.629,18.498 14.825,18.397 14.930 C 18.151 15.187,18.061 15.184,17.476 14.896 C 15.758 14.053,14.071 13.553,12.060 13.294 C 11.352 13.202,9.111 13.190,8.420 13.273 C 7.495 13.385,6.915 13.490,6.140 13.686 C 5.594 13.823,5.392 13.818,5.156 13.662 C 4.932 13.514,4.825 13.258,4.849 12.927 C 4.872 12.607,4.998 12.296,5.173 12.126 C 5.283 12.020,5.386 11.982,5.881 11.863 C 6.615 11.686,7.714 11.499,8.360 11.443 C 8.635 11.419,8.923 11.392,9.000 11.383 C 9.371 11.343,11.613 11.396,12.120 11.457 M11.080 15.802 C 12.982 15.936,14.727 16.398,16.415 17.215 C 17.057 17.526,17.172 17.618,17.266 17.891 C 17.363 18.172,17.364 18.653,17.267 18.832 C 17.168 19.015,16.981 19.120,16.749 19.120 C 16.594 19.120,16.461 19.071,16.029 18.854 C 14.663 18.168,13.247 17.741,11.660 17.535 C 10.953 17.443,9.379 17.442,8.656 17.532 C 7.988 17.616,7.209 17.768,6.665 17.920 C 6.431 17.986,6.161 18.040,6.065 18.040 C 5.740 18.040,5.480 17.764,5.480 17.418 C 5.480 17.193,5.585 16.812,5.703 16.611 C 5.795 16.454,5.826 16.435,6.131 16.343 C 7.655 15.885,9.461 15.688,11.080 15.802 " stroke="none" fill-rule="evenodd"></path></svg>