<svg width="24" height="24" viewBox="0 0 24 24" fill="none" xmlns="http://www.w3.org/2000/svg"><path d="M14.956 2.514 C 14.573 2.796,14.262 3.053,14.264 3.084 C 14.267 3.127,19.361 9.995,19.524 10.176 C 19.563 10.220,19.613 10.188,20.384 9.616 L 20.999 9.161 19.887 7.670 C 19.275 6.851,18.072 5.240,17.214 4.090 L 15.653 2.000 14.956 2.514 M11.800 5.484 C 11.525 5.813,11.276 6.116,11.248 6.158 C 11.199 6.227,11.468 6.458,14.642 9.080 C 17.457 11.405,18.099 11.917,18.139 11.874 C 18.166 11.844,18.424 11.539,18.712 11.195 L 19.237 10.570 15.813 7.742 C 13.930 6.186,12.369 4.907,12.345 4.899 C 12.320 4.891,12.075 5.154,11.800 5.484 M9.561 8.810 C 9.499 8.948,9.331 9.316,9.188 9.630 L 8.927 10.199 9.093 10.274 C 9.185 10.315,10.961 11.136,13.040 12.099 C 15.119 13.062,16.876 13.874,16.945 13.903 L 17.070 13.957 17.441 13.158 C 17.645 12.718,17.805 12.351,17.796 12.342 C 17.786 12.333,16.870 11.903,15.760 11.387 C 14.649 10.871,12.939 10.075,11.960 9.619 C 10.981 9.163,10.066 8.738,9.927 8.675 L 9.675 8.561 9.561 8.810 M7.954 13.468 C 7.853 13.948,7.773 14.344,7.777 14.349 C 7.801 14.378,16.525 16.168,16.545 16.149 C 16.574 16.119,16.934 14.440,16.914 14.424 C 16.906 14.418,14.965 14.012,12.600 13.523 C 10.235 13.034,8.264 12.625,8.220 12.615 C 8.145 12.598,8.126 12.659,7.954 13.468 M4.000 18.440 L 4.000 22.000 12.080 22.000 L 20.160 22.000 20.160 18.440 L 20.160 14.880 19.260 14.880 L 18.360 14.880 18.360 17.560 L 18.360 20.240 12.080 20.240 L 5.800 20.240 5.800 17.560 L 5.800 14.880 4.900 14.880 L 4.000 14.880 4.000 18.440 M7.600 17.540 L 7.600 18.440 12.080 18.440 L 16.560 18.440 16.560 17.540 L 16.560 16.640 12.080 16.640 L 7.600 16.640 7.600 17.540 " stroke="none" fill-rule="evenodd"></path></svg>