<svg width="24" height="24" viewBox="0 0 24 24" fill="none" xmlns="http://www.w3.org/2000/svg"><path d="M11.520 1.064 C 11.399 1.096,11.201 1.170,11.080 1.228 C 10.790 1.368,10.364 1.795,10.231 2.080 C 10.154 2.245,8.985 5.450,8.112 7.890 L 8.072 8.000 5.442 8.000 C 3.819 8.000,2.728 8.016,2.596 8.041 C 1.447 8.259,0.729 9.517,1.119 10.627 C 1.277 11.075,1.399 11.203,3.417 13.019 C 4.486 13.981,5.360 14.779,5.360 14.792 C 5.360 14.805,5.045 16.149,4.660 17.779 C 3.891 21.036,3.881 21.096,4.039 21.606 C 4.375 22.694,5.652 23.289,6.693 22.843 C 6.794 22.800,8.030 22.033,9.440 21.139 L 12.002 19.514 14.564 21.140 C 15.974 22.034,17.209 22.801,17.309 22.844 C 18.363 23.295,19.649 22.677,19.976 21.563 C 20.115 21.091,20.096 20.982,19.337 17.766 L 18.634 14.788 18.767 14.659 C 18.840 14.588,19.716 13.797,20.713 12.902 C 22.628 11.181,22.767 11.035,22.902 10.583 C 23.239 9.455,22.532 8.255,21.404 8.041 C 21.272 8.016,20.181 8.000,18.559 8.000 C 16.461 8.000,15.925 7.990,15.909 7.949 C 15.898 7.921,15.435 6.638,14.880 5.099 C 14.325 3.560,13.825 2.201,13.769 2.080 C 13.625 1.772,13.210 1.366,12.880 1.211 C 12.427 0.997,11.960 0.947,11.520 1.064 M13.037 5.890 C 13.594 7.435,14.104 8.804,14.171 8.932 C 14.404 9.375,14.757 9.684,15.260 9.884 L 15.500 9.980 18.215 10.000 L 20.929 10.020 19.010 11.747 C 17.836 12.804,17.043 13.547,16.967 13.663 C 16.724 14.029,16.663 14.251,16.663 14.760 C 16.663 15.217,16.668 15.240,17.348 18.080 C 17.724 19.653,18.028 20.944,18.023 20.949 C 18.019 20.955,16.867 20.231,15.464 19.341 C 14.060 18.451,12.811 17.684,12.686 17.637 C 12.235 17.466,11.651 17.491,11.180 17.700 C 11.070 17.749,9.857 18.503,8.484 19.375 C 7.110 20.247,5.983 20.956,5.977 20.950 C 5.972 20.945,6.275 19.653,6.650 18.080 C 7.413 14.878,7.440 14.716,7.285 14.208 C 7.124 13.677,7.043 13.590,4.982 11.736 L 3.074 10.020 5.787 9.999 C 8.452 9.979,8.504 9.977,8.730 9.891 C 9.215 9.708,9.596 9.375,9.828 8.932 C 9.895 8.804,10.406 7.435,10.962 5.890 C 11.519 4.345,11.986 3.080,12.000 3.080 C 12.014 3.080,12.481 4.345,13.037 5.890 " stroke="none" fill-rule="evenodd" fill="black"></path></svg>