<svg width="24" height="24" viewBox="0 0 24 24" fill="none" xmlns="http://www.w3.org/2000/svg"><path d="M4.398 4.262 C 2.650 6.056,1.175 7.600,1.120 7.692 L 1.020 7.860 1.009 11.997 C 1.000 15.729,1.005 16.155,1.064 16.337 C 1.124 16.526,1.354 16.765,4.294 19.705 C 7.186 22.597,7.477 22.876,7.657 22.935 C 7.834 22.993,8.286 23.000,12.000 23.000 C 15.714 23.000,16.166 22.993,16.343 22.935 C 16.523 22.876,16.814 22.597,19.706 19.705 C 22.646 16.765,22.876 16.526,22.936 16.337 C 22.995 16.155,23.000 15.729,22.991 11.997 L 22.980 7.860 22.880 7.692 C 22.825 7.600,21.394 6.101,19.700 4.362 C 17.414 2.014,16.574 1.176,16.440 1.109 L 16.260 1.020 11.918 1.009 L 7.576 0.999 4.398 4.262 M18.290 5.781 L 21.000 8.562 21.000 12.071 L 21.000 15.580 18.290 18.290 L 15.580 21.000 12.000 21.000 L 8.420 21.000 5.710 18.290 L 3.000 15.580 3.000 12.071 L 3.000 8.562 5.710 5.781 L 8.420 3.000 12.000 3.000 L 15.580 3.000 18.290 5.781 M7.643 11.069 C 7.291 11.193,7.000 11.614,7.000 12.000 C 7.000 12.242,7.119 12.521,7.299 12.701 C 7.616 13.018,7.337 13.000,12.000 13.000 C 16.663 13.000,16.384 13.018,16.701 12.701 C 17.092 12.310,17.092 11.690,16.701 11.299 C 16.384 10.982,16.666 11.000,11.983 11.003 C 8.320 11.006,7.799 11.014,7.643 11.069 " stroke="none" fill-rule="evenodd" fill="black"></path></svg>