<svg width="24" height="24" viewBox="0 0 24 24" fill="none" xmlns="http://www.w3.org/2000/svg"><path d="M7.640 1.067 C 7.435 1.137,7.741 0.834,3.820 4.856 C 2.390 6.324,1.175 7.600,1.120 7.692 L 1.020 7.860 1.009 11.997 C 1.000 15.729,1.005 16.155,1.064 16.337 C 1.124 16.526,1.354 16.765,4.294 19.705 C 7.186 22.597,7.477 22.876,7.657 22.935 C 7.834 22.993,8.286 23.000,12.000 23.000 C 15.714 23.000,16.166 22.993,16.343 22.935 C 16.523 22.876,16.814 22.597,19.706 19.705 C 22.646 16.765,22.876 16.526,22.936 16.337 C 22.995 16.155,23.000 15.729,22.991 11.997 L 22.980 7.860 22.880 7.692 C 22.825 7.600,21.394 6.101,19.700 4.362 C 17.414 2.014,16.574 1.176,16.440 1.109 L 16.260 1.020 12.040 1.013 C 8.341 1.007,7.798 1.013,7.640 1.067 M16.340 11.066 C 16.709 11.192,17.000 11.604,17.000 12.000 C 17.000 12.242,16.881 12.521,16.701 12.701 C 16.384 13.018,16.663 13.000,12.000 13.000 C 7.337 13.000,7.616 13.018,7.299 12.701 C 6.907 12.309,6.908 11.690,7.300 11.298 C 7.609 10.989,7.322 11.007,11.983 11.003 C 15.758 11.000,16.164 11.006,16.340 11.066 " stroke="none" fill-rule="evenodd"></path></svg>