<svg width="24" height="24" viewBox="0 0 24 24" fill="none" xmlns="http://www.w3.org/2000/svg"><path d="M11.643 1.069 C 11.407 1.152,11.149 1.416,11.066 1.660 C 11.015 1.809,11.000 2.004,11.000 2.500 C 11.000 3.266,11.045 3.447,11.299 3.701 C 11.690 4.092,12.310 4.092,12.701 3.701 C 12.955 3.447,13.000 3.266,13.000 2.500 C 13.000 1.734,12.955 1.553,12.701 1.299 C 12.424 1.021,12.024 0.934,11.643 1.069 M3.643 3.069 C 3.291 3.193,3.000 3.614,3.000 4.000 C 3.000 4.080,3.030 4.234,3.066 4.343 C 3.123 4.513,3.252 4.661,3.995 5.411 C 4.965 6.390,5.092 6.480,5.498 6.480 C 6.075 6.479,6.480 6.071,6.480 5.489 C 6.480 5.093,6.384 4.959,5.411 3.995 C 4.661 3.252,4.513 3.123,4.343 3.066 C 4.102 2.985,3.877 2.986,3.643 3.069 M19.640 3.069 C 19.494 3.119,19.296 3.294,18.588 3.995 C 17.573 5.002,17.501 5.107,17.526 5.554 C 17.557 6.087,17.910 6.443,18.438 6.473 C 18.899 6.499,18.981 6.444,19.989 5.427 C 20.747 4.662,20.877 4.513,20.934 4.343 C 21.064 3.955,20.980 3.578,20.701 3.299 C 20.423 3.021,20.026 2.935,19.640 3.069 M11.260 7.056 C 9.597 7.335,8.259 8.313,7.523 9.785 C 7.164 10.504,7.021 11.135,7.021 12.000 C 7.021 12.446,7.041 12.715,7.093 12.960 C 7.313 13.995,7.741 14.786,8.478 15.521 C 9.222 16.262,10.007 16.687,11.040 16.907 C 11.511 17.007,12.489 17.007,12.960 16.907 C 13.999 16.686,14.783 16.262,15.521 15.522 C 16.262 14.778,16.687 13.993,16.907 12.960 C 17.007 12.489,17.007 11.511,16.907 11.040 C 16.687 10.006,16.260 9.216,15.522 8.477 C 14.783 7.737,14.001 7.313,12.980 7.099 C 12.554 7.009,11.670 6.988,11.260 7.056 M1.643 11.069 C 1.291 11.193,1.000 11.614,1.000 12.000 C 1.000 12.242,1.119 12.521,1.299 12.701 C 1.553 12.955,1.734 13.000,2.500 13.000 C 3.266 13.000,3.447 12.955,3.701 12.701 C 4.092 12.310,4.092 11.690,3.701 11.299 C 3.445 11.042,3.267 10.999,2.483 11.003 C 1.991 11.005,1.774 11.022,1.643 11.069 M20.643 11.069 C 20.291 11.193,20.000 11.614,20.000 12.000 C 20.000 12.242,20.119 12.521,20.299 12.701 C 20.553 12.955,20.734 13.000,21.500 13.000 C 22.266 13.000,22.447 12.955,22.701 12.701 C 22.881 12.521,23.000 12.242,23.000 12.000 C 23.000 11.604,22.709 11.192,22.340 11.066 C 22.072 10.975,20.904 10.977,20.643 11.069 M5.057 17.619 C 4.914 17.690,4.612 17.966,3.995 18.589 C 3.252 19.339,3.123 19.487,3.066 19.657 C 2.936 20.045,3.020 20.422,3.299 20.701 C 3.578 20.980,3.955 21.064,4.343 20.934 C 4.513 20.877,4.661 20.748,5.411 20.005 C 6.384 19.041,6.480 18.907,6.480 18.511 C 6.480 17.929,6.075 17.521,5.498 17.520 C 5.320 17.520,5.203 17.546,5.057 17.619 M18.047 17.624 C 17.705 17.794,17.520 18.106,17.520 18.511 C 17.520 18.907,17.616 19.041,18.589 20.005 C 19.339 20.748,19.487 20.877,19.657 20.934 C 20.045 21.064,20.422 20.980,20.701 20.701 C 20.980 20.422,21.064 20.045,20.934 19.657 C 20.877 19.488,20.747 19.337,20.004 18.585 C 19.036 17.605,18.917 17.521,18.498 17.520 C 18.317 17.520,18.203 17.546,18.047 17.624 M11.643 20.069 C 11.407 20.152,11.149 20.416,11.066 20.660 C 11.015 20.809,11.000 21.004,11.000 21.500 C 11.000 22.266,11.045 22.447,11.299 22.701 C 11.690 23.092,12.310 23.092,12.701 22.701 C 12.955 22.447,13.000 22.266,13.000 21.500 C 13.000 20.734,12.955 20.553,12.701 20.299 C 12.424 20.021,12.024 19.934,11.643 20.069 " stroke="none" fill-rule="evenodd"></path></svg>