<svg width="24" height="24" viewBox="0 0 24 24" fill="none" xmlns="http://www.w3.org/2000/svg"><path d="M5.620 1.025 C 5.212 1.105,5.087 1.139,4.870 1.227 C 3.989 1.585,3.321 2.364,3.076 3.320 C 2.993 3.647,2.992 20.350,3.076 20.677 C 3.357 21.776,4.118 22.554,5.260 22.915 C 5.438 22.971,6.160 22.979,11.820 22.990 C 16.126 22.998,18.268 22.989,18.453 22.960 C 19.643 22.777,20.620 21.876,20.924 20.680 C 21.007 20.352,21.008 3.648,20.924 3.323 C 20.617 2.126,19.660 1.233,18.480 1.043 C 18.234 1.003,5.819 0.986,5.620 1.025 M18.340 3.066 C 18.593 3.153,18.847 3.407,18.934 3.660 C 18.995 3.838,19.000 4.523,19.000 12.000 C 19.000 21.144,19.026 20.376,18.701 20.701 C 18.379 21.023,18.903 21.000,12.000 21.000 C 5.095 21.000,5.621 21.024,5.298 20.700 C 4.973 20.375,4.998 21.149,5.010 11.919 L 5.020 3.700 5.131 3.511 C 5.256 3.298,5.449 3.136,5.670 3.057 C 5.793 3.013,6.939 3.003,11.983 3.002 C 17.617 3.000,18.162 3.006,18.340 3.066 M10.643 17.069 C 10.291 17.193,10.000 17.614,10.000 18.000 C 10.000 18.396,10.291 18.808,10.660 18.934 C 10.823 18.989,11.038 19.000,12.000 19.000 C 13.316 19.000,13.421 18.982,13.701 18.701 C 14.092 18.310,14.092 17.690,13.701 17.299 C 13.419 17.017,13.318 17.000,11.983 17.003 C 11.038 17.006,10.787 17.018,10.643 17.069 " stroke="none" fill-rule="evenodd" fill="black"></path></svg>