<svg width="24" height="24" viewBox="0 0 24 24" fill="none" xmlns="http://www.w3.org/2000/svg"><path d="M4.720 2.028 C 3.459 2.240,2.491 3.093,2.112 4.327 C 2.022 4.620,2.022 4.624,2.008 8.040 C 1.994 11.727,1.998 11.810,2.202 12.370 C 2.437 13.017,2.295 12.864,7.156 17.732 C 10.419 21.001,11.777 22.336,11.974 22.468 C 12.307 22.691,12.706 22.850,13.159 22.942 C 13.978 23.108,14.956 22.871,15.635 22.342 C 15.955 22.092,22.284 15.737,22.429 15.520 C 23.138 14.457,23.179 13.150,22.537 12.070 C 22.421 11.875,21.400 10.830,17.864 7.286 C 15.009 4.425,13.239 2.681,13.065 2.557 C 12.914 2.450,12.645 2.306,12.468 2.238 C 11.846 1.998,11.875 1.999,8.186 2.005 C 6.335 2.008,4.775 2.018,4.720 2.028 M11.780 4.112 C 11.945 4.187,12.749 4.972,16.388 8.612 C 20.027 12.250,20.812 13.054,20.882 13.213 C 21.003 13.489,21.023 13.778,20.942 14.063 L 20.874 14.300 17.627 17.551 C 15.276 19.905,14.330 20.827,14.200 20.891 C 13.947 21.016,13.499 21.014,13.220 20.888 C 13.054 20.812,12.268 20.045,8.612 16.388 C 4.972 12.749,4.187 11.945,4.112 11.780 L 4.020 11.580 4.009 8.303 C 3.996 4.507,3.976 4.737,4.357 4.357 C 4.732 3.982,4.484 4.003,8.280 4.012 L 11.580 4.020 11.780 4.112 M6.047 5.624 C 5.567 5.863,5.377 6.457,5.621 6.947 C 5.769 7.244,6.402 7.846,6.658 7.933 C 7.043 8.064,7.422 7.980,7.701 7.701 C 7.980 7.422,8.064 7.043,7.933 6.658 C 7.844 6.396,7.229 5.751,6.940 5.615 C 6.657 5.482,6.325 5.485,6.047 5.624 " stroke="none" fill-rule="evenodd" fill="black"></path></svg>