<svg width="24" height="24" viewBox="0 0 24 24" fill="none" xmlns="http://www.w3.org/2000/svg"><path d="M10.940 0.046 C 6.260 0.450,2.189 3.634,0.659 8.086 C -1.484 14.319,1.792 21.115,7.997 23.309 C 12.365 24.853,17.202 23.757,20.480 20.480 C 24.710 16.252,25.180 9.567,21.584 4.785 C 19.301 1.748,15.709 -0.028,11.920 0.006 C 11.601 0.009,11.160 0.027,10.940 0.046 M17.262 7.303 C 17.641 7.484,17.645 7.810,17.296 10.220 C 17.118 11.445,16.816 13.312,16.536 14.920 C 16.128 17.260,16.077 17.456,15.799 17.772 C 15.526 18.081,15.117 18.106,14.600 17.843 C 14.473 17.779,13.614 17.214,12.691 16.588 C 11.768 15.962,10.936 15.401,10.842 15.341 C 10.612 15.196,10.327 14.929,10.257 14.794 C 10.167 14.621,10.186 14.393,10.304 14.216 C 10.458 13.985,10.587 13.857,11.900 12.627 C 12.560 12.009,13.383 11.221,13.730 10.875 C 14.252 10.354,14.360 10.226,14.360 10.131 C 14.360 9.863,14.196 9.858,13.777 10.113 C 13.506 10.278,10.181 12.485,9.160 13.178 C 8.262 13.787,7.835 13.869,6.860 13.620 C 6.284 13.472,5.091 13.087,4.880 12.980 C 4.424 12.749,4.427 12.432,4.887 12.148 C 5.344 11.865,13.831 8.240,15.440 7.639 C 16.500 7.244,16.958 7.159,17.262 7.303 " stroke="none" fill-rule="evenodd"></path></svg>