<svg width="24" height="24" viewBox="0 0 24 24" fill="none" xmlns="http://www.w3.org/2000/svg"><path d="M18.460 1.297 C 18.306 1.348,16.848 1.889,15.220 2.498 C 11.719 3.810,8.555 4.993,6.480 5.767 C 4.682 6.437,4.694 6.432,4.523 6.603 C 4.318 6.808,4.233 7.035,4.244 7.346 L 4.254 7.609 3.739 7.805 C 3.088 8.054,2.720 8.283,2.373 8.656 C 2.035 9.019,1.866 9.297,1.708 9.750 C 1.605 10.045,1.583 10.175,1.569 10.580 C 1.557 10.925,1.570 11.135,1.615 11.326 C 1.704 11.706,2.343 13.490,2.502 13.799 C 2.772 14.327,3.188 14.747,3.731 15.040 C 4.194 15.290,4.465 15.363,5.020 15.387 C 5.573 15.411,5.793 15.372,6.456 15.127 L 6.877 14.972 6.979 15.126 C 7.195 15.451,7.638 15.646,7.984 15.568 C 8.070 15.548,8.659 15.339,9.293 15.103 C 9.927 14.866,10.453 14.679,10.460 14.687 C 10.468 14.695,9.495 16.006,8.298 17.600 C 6.881 19.489,6.101 20.562,6.061 20.677 C 5.767 21.528,6.658 22.286,7.469 21.875 C 7.644 21.787,7.840 21.539,9.820 18.903 L 11.980 16.027 12.000 19.143 L 12.020 22.260 12.114 22.450 C 12.410 23.051,13.222 23.180,13.701 22.701 C 14.014 22.388,14.000 22.570,14.000 18.783 L 14.000 15.421 17.230 18.646 C 20.178 21.588,20.477 21.876,20.657 21.935 C 21.047 22.063,21.423 21.979,21.701 21.701 C 21.979 21.423,22.063 21.047,21.935 20.657 C 21.876 20.477,21.559 20.148,18.213 16.798 L 14.556 13.135 18.128 11.802 C 20.093 11.069,21.808 10.413,21.940 10.345 C 22.244 10.189,22.605 9.827,22.757 9.526 C 22.982 9.080,23.011 8.876,22.987 7.920 C 22.964 6.987,22.906 6.525,22.719 5.773 C 22.393 4.462,21.782 3.264,20.899 2.200 C 20.421 1.625,20.132 1.410,19.643 1.264 C 19.318 1.168,18.805 1.182,18.460 1.297 M19.346 3.452 C 20.155 4.427,20.675 5.552,20.902 6.820 C 20.993 7.329,21.031 8.580,20.956 8.608 C 16.343 10.339,8.431 13.284,8.423 13.274 C 8.407 13.255,6.520 7.936,6.520 7.910 C 6.520 7.889,7.055 7.688,14.140 5.041 C 16.384 4.202,18.400 3.447,18.620 3.362 C 18.840 3.277,19.047 3.207,19.080 3.206 C 19.113 3.205,19.233 3.316,19.346 3.452 M5.574 11.287 C 5.919 12.259,6.187 13.069,6.170 13.086 C 6.154 13.102,5.963 13.180,5.748 13.258 C 5.105 13.491,4.742 13.439,4.417 13.070 C 4.280 12.914,4.209 12.751,3.908 11.894 C 3.627 11.096,3.558 10.856,3.559 10.678 C 3.560 10.398,3.706 10.091,3.911 9.935 C 4.051 9.827,4.753 9.531,4.883 9.523 C 4.931 9.521,5.099 9.950,5.574 11.287 " stroke="none" fill-rule="evenodd" fill="black"></path></svg>