<svg width="24" height="24" viewBox="0 0 24 24" fill="none" xmlns="http://www.w3.org/2000/svg"><path d="M11.528 2.060 C 10.958 2.220,11.174 2.022,6.668 6.517 C 4.363 8.818,2.417 10.790,2.344 10.900 C 2.043 11.354,1.931 11.949,2.055 12.432 C 2.210 13.037,1.980 12.784,6.517 17.332 C 8.818 19.637,10.790 21.583,10.900 21.656 C 11.356 21.958,11.948 22.069,12.440 21.944 C 13.030 21.794,12.801 22.003,17.332 17.482 C 19.637 15.182,21.583 13.210,21.656 13.100 C 21.957 12.646,22.069 12.051,21.945 11.568 C 21.790 10.963,22.020 11.216,17.483 6.668 C 15.177 4.358,13.204 2.412,13.087 2.334 C 12.970 2.256,12.772 2.156,12.647 2.111 C 12.348 2.005,11.811 1.980,11.528 2.060 " stroke="none" fill-rule="evenodd"></path></svg>