<svg width="24" height="24" viewBox="0 0 24 24" fill="none" xmlns="http://www.w3.org/2000/svg"><path d="M11.511 2.039 C 11.217 2.092,10.930 2.195,10.580 2.371 C 10.267 2.529,10.170 2.623,6.396 6.396 C 2.634 10.158,2.528 10.268,2.370 10.580 C 2.095 11.121,2.021 11.423,2.021 12.000 C 2.021 12.577,2.095 12.879,2.370 13.420 C 2.528 13.732,2.634 13.842,6.396 17.604 C 10.158 21.366,10.268 21.472,10.580 21.630 C 11.121 21.905,11.423 21.979,12.000 21.979 C 12.577 21.979,12.880 21.905,13.420 21.630 C 13.731 21.472,13.849 21.358,17.494 17.724 C 19.558 15.665,21.316 13.889,21.399 13.778 C 21.600 13.511,21.771 13.165,21.886 12.799 C 21.962 12.553,21.979 12.411,21.979 12.000 C 21.979 11.423,21.905 11.121,21.630 10.580 C 21.472 10.268,21.366 10.158,17.604 6.396 C 13.839 2.631,13.732 2.528,13.420 2.370 C 12.940 2.127,12.608 2.037,12.120 2.019 C 11.889 2.011,11.615 2.020,11.511 2.039 M12.401 4.093 C 12.483 4.132,14.073 5.695,16.225 7.850 C 19.678 11.309,19.912 11.552,19.960 11.730 C 20.019 11.952,19.999 12.207,19.906 12.402 C 19.867 12.483,18.307 14.072,16.150 16.225 C 12.691 19.678,12.448 19.912,12.270 19.960 C 12.048 20.019,11.793 19.999,11.598 19.906 C 11.517 19.867,9.928 18.307,7.775 16.150 C 4.322 12.691,4.088 12.448,4.040 12.270 C 3.981 12.048,4.001 11.793,4.094 11.598 C 4.133 11.517,5.693 9.929,7.850 7.775 C 10.666 4.964,11.573 4.081,11.680 4.048 C 11.870 3.988,12.230 4.010,12.401 4.093 " stroke="none" fill-rule="evenodd" fill="black"></path></svg>