<svg width="24" height="24" viewBox="0 0 24 24" fill="none" xmlns="http://www.w3.org/2000/svg"><path d="M2.643 5.069 C 2.291 5.193,2.000 5.614,2.000 6.000 C 2.000 6.242,2.119 6.521,2.299 6.701 C 2.625 7.027,1.736 7.000,12.000 7.000 C 22.264 7.000,21.375 7.027,21.701 6.701 C 22.092 6.310,22.092 5.690,21.701 5.299 C 21.375 4.972,22.268 5.000,11.983 5.003 C 3.791 5.006,2.801 5.013,2.643 5.069 M2.643 11.069 C 2.291 11.193,2.000 11.614,2.000 12.000 C 2.000 12.242,2.119 12.521,2.299 12.701 C 2.619 13.021,2.217 13.000,8.000 13.000 C 13.783 13.000,13.381 13.021,13.701 12.701 C 14.092 12.310,14.092 11.690,13.701 11.299 C 13.381 10.979,13.786 11.000,7.983 11.003 C 3.414 11.006,2.800 11.013,2.643 11.069 M2.643 17.069 C 2.291 17.193,2.000 17.614,2.000 18.000 C 2.000 18.242,2.119 18.521,2.299 18.701 C 2.624 19.026,1.917 19.000,10.500 19.000 C 19.083 19.000,18.376 19.026,18.701 18.701 C 19.092 18.310,19.092 17.690,18.701 17.299 C 18.376 16.974,19.087 17.000,10.483 17.003 C 3.650 17.006,2.801 17.013,2.643 17.069 " stroke="none" fill-rule="evenodd" fill="black"></path></svg>