<svg width="24" height="24" viewBox="0 0 24 24" fill="none" xmlns="http://www.w3.org/2000/svg"><path d="M2.643 5.069 C 2.291 5.193,2.000 5.614,2.000 6.000 C 2.000 6.242,2.119 6.521,2.299 6.701 C 2.625 7.027,1.736 7.000,12.000 7.000 C 22.264 7.000,21.375 7.027,21.701 6.701 C 22.092 6.310,22.092 5.690,21.701 5.299 C 21.375 4.972,22.268 5.000,11.983 5.003 C 3.791 5.006,2.801 5.013,2.643 5.069 M6.643 11.069 C 6.291 11.193,6.000 11.614,6.000 12.000 C 6.000 12.242,6.119 12.521,6.299 12.701 C 6.619 13.021,6.217 13.000,12.000 13.000 C 17.783 13.000,17.381 13.021,17.701 12.701 C 18.092 12.310,18.092 11.690,17.701 11.299 C 17.381 10.979,17.786 11.000,11.983 11.003 C 7.414 11.006,6.800 11.013,6.643 11.069 M4.643 17.069 C 4.291 17.193,4.000 17.614,4.000 18.000 C 4.000 18.242,4.119 18.521,4.299 18.701 C 4.623 19.025,3.977 19.000,12.000 19.000 C 20.023 19.000,19.377 19.025,19.701 18.701 C 20.092 18.310,20.092 17.690,19.701 17.299 C 19.377 16.975,20.026 17.000,11.983 17.003 C 5.602 17.006,4.801 17.013,4.643 17.069 " stroke="none" fill-rule="evenodd" fill="black"></path></svg>