<svg width="24" height="24" viewBox="0 0 24 24" fill="none" xmlns="http://www.w3.org/2000/svg"><path d="M2.643 5.069 C 2.291 5.193,2.000 5.614,2.000 6.000 C 2.000 6.242,2.119 6.521,2.299 6.701 C 2.625 7.027,1.736 7.000,12.000 7.000 C 22.264 7.000,21.375 7.027,21.701 6.701 C 22.092 6.310,22.092 5.690,21.701 5.299 C 21.375 4.972,22.268 5.000,11.983 5.003 C 3.791 5.006,2.801 5.013,2.643 5.069 M10.643 11.069 C 10.291 11.193,10.000 11.614,10.000 12.000 C 10.000 12.242,10.119 12.521,10.299 12.701 C 10.619 13.021,10.217 13.000,16.000 13.000 C 21.783 13.000,21.381 13.021,21.701 12.701 C 22.092 12.310,22.092 11.690,21.701 11.299 C 21.381 10.979,21.786 11.000,15.983 11.003 C 11.414 11.006,10.800 11.013,10.643 11.069 M5.643 17.069 C 5.291 17.193,5.000 17.614,5.000 18.000 C 5.000 18.242,5.119 18.521,5.299 18.701 C 5.624 19.026,4.917 19.000,13.500 19.000 C 22.083 19.000,21.376 19.026,21.701 18.701 C 22.092 18.310,22.092 17.690,21.701 17.299 C 21.376 16.974,22.087 17.000,13.483 17.003 C 6.650 17.006,5.801 17.013,5.643 17.069 " stroke="none" fill-rule="evenodd" fill="black"></path></svg>