<svg width="24" height="24" viewBox="0 0 24 24" fill="none" xmlns="http://www.w3.org/2000/svg"><path d="M5.643 4.069 C 5.546 4.103,5.392 4.206,5.300 4.298 C 4.975 4.623,5.000 3.975,5.000 12.000 C 5.000 20.023,4.975 19.377,5.299 19.701 C 5.690 20.092,6.310 20.092,6.701 19.701 C 7.025 19.377,7.000 20.023,7.000 12.000 C 7.000 3.977,7.025 4.623,6.701 4.299 C 6.424 4.021,6.024 3.934,5.643 4.069 M11.643 4.069 C 11.546 4.103,11.392 4.206,11.300 4.298 C 10.975 4.623,11.000 3.975,11.000 12.000 C 11.000 20.023,10.975 19.377,11.299 19.701 C 11.690 20.092,12.310 20.092,12.701 19.701 C 13.025 19.377,13.000 20.023,13.000 12.000 C 13.000 3.977,13.025 4.623,12.701 4.299 C 12.424 4.021,12.024 3.934,11.643 4.069 M17.643 4.069 C 17.546 4.103,17.392 4.206,17.300 4.298 C 16.975 4.623,17.000 3.975,17.000 12.000 C 17.000 20.023,16.975 19.377,17.299 19.701 C 17.690 20.092,18.310 20.092,18.701 19.701 C 19.025 19.377,19.000 20.023,19.000 12.000 C 19.000 3.977,19.025 4.623,18.701 4.299 C 18.424 4.021,18.024 3.934,17.643 4.069 " stroke="none" fill-rule="evenodd" fill="black"></path></svg>