<svg width="24" height="24" viewBox="0 0 24 24" fill="none" xmlns="http://www.w3.org/2000/svg"><path d="M4.643 5.069 C 4.291 5.193,4.000 5.614,4.000 6.000 C 4.000 6.242,4.119 6.521,4.299 6.701 C 4.623 7.025,3.977 7.000,12.000 7.000 C 20.023 7.000,19.377 7.025,19.701 6.701 C 20.092 6.310,20.092 5.690,19.701 5.299 C 19.377 4.975,20.026 5.000,11.983 5.003 C 5.602 5.006,4.801 5.013,4.643 5.069 M4.643 11.069 C 4.291 11.193,4.000 11.614,4.000 12.000 C 4.000 12.242,4.119 12.521,4.299 12.701 C 4.623 13.025,3.977 13.000,12.000 13.000 C 20.023 13.000,19.377 13.025,19.701 12.701 C 20.092 12.310,20.092 11.690,19.701 11.299 C 19.377 10.975,20.026 11.000,11.983 11.003 C 5.602 11.006,4.801 11.013,4.643 11.069 M4.643 17.069 C 4.291 17.193,4.000 17.614,4.000 18.000 C 4.000 18.242,4.119 18.521,4.299 18.701 C 4.623 19.025,3.977 19.000,12.000 19.000 C 20.023 19.000,19.377 19.025,19.701 18.701 C 20.092 18.310,20.092 17.690,19.701 17.299 C 19.377 16.975,20.026 17.000,11.983 17.003 C 5.602 17.006,4.801 17.013,4.643 17.069 " stroke="none" fill-rule="evenodd" fill="black"></path></svg>