<svg width="24" height="24" viewBox="0 0 24 24" fill="none" xmlns="http://www.w3.org/2000/svg"><path d="M7.440 1.028 C 6.777 1.099,6.094 1.307,5.476 1.627 C 4.171 2.302,3.141 3.532,2.688 4.960 C 2.469 5.648,2.429 5.939,2.421 6.900 C 2.416 7.464,2.396 7.844,2.363 7.957 C 2.336 8.054,2.097 8.675,1.834 9.337 C 1.570 9.999,1.294 10.738,1.221 10.981 C 0.909 12.010,0.936 12.671,1.325 13.456 C 1.489 13.788,1.681 14.036,1.999 14.331 C 2.699 14.979,3.372 15.119,5.785 15.120 L 6.950 15.120 6.975 15.245 C 6.989 15.314,7.000 16.256,7.000 17.340 C 7.000 19.479,7.018 19.710,7.225 20.286 C 7.674 21.537,8.563 22.421,9.800 22.846 C 10.148 22.965,10.221 22.976,10.660 22.975 C 11.073 22.974,11.181 22.960,11.433 22.870 C 11.857 22.719,12.128 22.541,12.460 22.194 C 12.794 21.845,13.003 21.460,13.099 21.017 C 13.132 20.864,13.214 20.164,13.281 19.460 C 13.348 18.756,13.430 18.027,13.464 17.840 C 13.783 16.074,15.051 14.589,16.728 14.017 C 17.276 13.831,17.614 13.783,18.280 13.799 C 19.515 13.828,19.878 13.814,20.218 13.724 C 21.136 13.480,21.901 12.880,22.317 12.080 C 22.506 11.716,22.609 11.395,22.717 10.840 C 23.141 8.639,23.074 6.286,22.526 4.117 C 22.381 3.544,22.195 3.137,21.926 2.802 C 21.375 2.119,20.750 1.802,19.718 1.684 C 19.346 1.641,19.026 1.621,15.500 1.421 C 13.469 1.305,11.561 1.195,9.603 1.080 C 8.313 1.005,7.775 0.992,7.440 1.028 M12.200 3.233 L 16.100 3.460 16.230 3.916 C 16.396 4.497,16.574 5.355,16.665 6.020 C 16.766 6.753,16.767 8.722,16.666 9.440 C 16.535 10.383,16.154 12.035,16.048 12.123 C 16.033 12.136,15.930 12.179,15.820 12.219 C 15.261 12.422,14.488 12.872,13.956 13.304 C 13.631 13.569,13.085 14.133,12.819 14.480 C 12.339 15.106,11.885 16.007,11.660 16.780 C 11.506 17.311,11.416 17.913,11.280 19.334 C 11.198 20.185,11.137 20.648,11.097 20.726 C 11.005 20.904,10.813 21.008,10.613 20.987 C 10.175 20.943,9.532 20.467,9.286 20.004 C 9.011 19.489,9.026 19.644,8.998 17.140 C 8.970 14.632,8.970 14.636,8.712 14.151 C 8.434 13.630,7.894 13.254,7.292 13.163 C 7.134 13.140,6.468 13.120,5.812 13.119 C 3.870 13.118,3.466 13.059,3.222 12.739 C 2.867 12.274,2.919 12.002,3.768 9.881 C 4.384 8.341,4.406 8.248,4.419 7.080 C 4.431 6.092,4.460 5.886,4.671 5.332 C 4.971 4.546,5.620 3.813,6.357 3.427 C 6.929 3.128,7.392 3.008,7.980 3.007 C 8.156 3.006,10.055 3.108,12.200 3.233 M19.698 3.701 C 20.074 3.766,20.294 3.901,20.431 4.148 C 20.695 4.625,21.000 6.637,21.000 7.898 C 21.000 8.874,20.827 10.325,20.638 10.938 C 20.535 11.272,20.316 11.518,19.969 11.689 C 19.717 11.812,19.677 11.820,19.281 11.819 C 19.049 11.818,18.722 11.803,18.554 11.786 L 18.247 11.754 18.284 11.627 C 18.348 11.407,18.513 10.595,18.574 10.200 C 18.714 9.303,18.740 8.916,18.740 7.740 C 18.740 6.139,18.666 5.526,18.250 3.684 L 18.228 3.588 18.804 3.617 C 19.121 3.633,19.523 3.671,19.698 3.701 " stroke="none" fill-rule="evenodd" fill="black"></path></svg>