<svg width="24" height="24" viewBox="0 0 24 24" fill="none" xmlns="http://www.w3.org/2000/svg"><path d="M12.809 1.058 C 12.382 1.155,11.987 1.374,11.646 1.700 C 11.298 2.033,11.119 2.306,10.974 2.722 C 10.891 2.960,10.846 3.279,10.717 4.555 C 10.560 6.107,10.492 6.509,10.302 7.012 C 9.811 8.310,8.773 9.389,7.541 9.882 C 6.815 10.173,6.103 10.272,5.282 10.198 C 4.985 10.171,4.598 10.161,4.419 10.174 C 3.232 10.266,2.198 10.925,1.684 11.920 C 1.485 12.304,1.416 12.513,1.300 13.080 C 1.090 14.111,1.025 14.816,1.024 16.060 C 1.023 17.300,1.070 17.865,1.261 18.900 C 1.488 20.130,1.700 20.733,2.064 21.185 C 2.616 21.870,3.260 22.198,4.282 22.316 C 5.056 22.406,15.890 23.008,16.301 22.985 C 18.876 22.838,21.013 20.911,21.505 18.290 C 21.551 18.046,21.573 17.681,21.579 17.080 C 21.584 16.526,21.604 16.156,21.637 16.040 C 21.665 15.941,21.884 15.370,22.123 14.772 C 22.866 12.913,23.031 12.315,22.987 11.640 C 22.915 10.541,22.099 9.449,21.105 9.123 C 20.564 8.945,20.216 8.913,18.594 8.891 L 17.048 8.870 17.024 8.750 C 17.011 8.684,17.000 7.744,17.000 6.660 C 17.000 4.521,16.982 4.290,16.775 3.714 C 16.323 2.453,15.434 1.571,14.199 1.157 C 13.745 1.005,13.209 0.967,12.809 1.058 M13.819 3.154 C 14.152 3.310,14.547 3.681,14.716 3.999 C 14.989 4.511,14.974 4.358,15.002 6.860 C 15.030 9.371,15.029 9.363,15.291 9.856 C 15.563 10.367,16.111 10.747,16.708 10.837 C 16.866 10.860,17.541 10.880,18.208 10.880 C 20.129 10.881,20.534 10.941,20.778 11.261 C 21.133 11.726,21.081 11.998,20.232 14.119 C 19.613 15.664,19.593 15.754,19.580 16.920 C 19.569 17.952,19.536 18.159,19.281 18.770 C 18.762 20.018,17.545 20.901,16.230 20.985 C 16.048 20.996,14.811 20.942,13.480 20.863 C 12.149 20.785,10.358 20.682,9.500 20.634 C 8.642 20.587,7.927 20.537,7.912 20.524 C 7.865 20.483,7.604 19.496,7.499 18.960 C 7.336 18.129,7.278 17.584,7.253 16.636 C 7.215 15.245,7.343 14.096,7.680 12.780 C 7.917 11.859,7.904 11.885,8.182 11.780 C 9.860 11.149,11.338 9.709,12.056 8.004 C 12.429 7.120,12.535 6.583,12.719 4.667 C 12.850 3.301,12.870 3.216,13.092 3.076 C 13.261 2.970,13.475 2.993,13.819 3.154 M5.546 12.226 L 5.752 12.250 5.715 12.375 C 5.661 12.562,5.491 13.381,5.440 13.700 C 5.324 14.419,5.273 15.014,5.252 15.880 C 5.214 17.457,5.327 18.459,5.749 20.310 C 5.768 20.395,5.758 20.400,5.535 20.400 C 5.212 20.399,4.424 20.329,4.173 20.278 C 3.912 20.225,3.666 20.049,3.558 19.837 C 3.455 19.635,3.266 18.821,3.161 18.134 C 2.940 16.673,2.947 15.369,3.184 13.926 C 3.239 13.589,3.319 13.201,3.361 13.065 C 3.488 12.654,3.825 12.341,4.277 12.212 C 4.456 12.161,5.042 12.168,5.546 12.226 " stroke="none" fill-rule="evenodd" fill="black"></path></svg>