<svg width="24" height="24" viewBox="0 0 24 24" fill="none" xmlns="http://www.w3.org/2000/svg"><path d="M10.110 1.062 C 9.656 1.172,9.229 1.461,8.971 1.831 C 8.690 2.234,3.948 10.530,3.844 10.800 C 3.710 11.151,3.705 11.740,3.835 12.097 C 4.062 12.725,4.551 13.184,5.197 13.376 C 5.373 13.428,5.616 13.440,6.467 13.440 C 7.182 13.440,7.520 13.454,7.520 13.482 C 7.520 13.506,6.923 15.085,6.193 16.992 L 4.865 20.460 4.848 20.868 C 4.834 21.201,4.846 21.326,4.914 21.550 C 5.121 22.232,5.676 22.758,6.378 22.939 C 6.678 23.016,6.949 23.016,7.276 22.938 C 7.847 22.804,7.503 23.125,14.418 16.273 C 19.251 11.483,20.846 9.879,20.904 9.751 C 21.004 9.528,21.007 9.113,20.908 8.916 C 20.814 8.726,20.623 8.534,20.422 8.427 C 20.262 8.341,20.227 8.340,17.877 8.320 L 15.493 8.300 17.067 6.220 C 18.038 4.937,18.695 4.033,18.781 3.860 C 19.341 2.732,18.704 1.380,17.462 1.061 C 17.123 0.974,10.470 0.975,10.110 1.062 M16.960 3.021 C 16.960 3.033,15.990 4.326,14.805 5.894 C 13.619 7.462,12.611 8.820,12.565 8.911 C 12.390 9.252,12.476 9.750,12.758 10.032 C 13.039 10.313,12.905 10.298,15.352 10.320 L 17.564 10.340 12.212 15.644 C 9.268 18.562,6.856 20.938,6.850 20.924 C 6.845 20.911,7.545 19.064,8.407 16.820 C 9.918 12.884,9.973 12.730,9.975 12.460 C 9.978 12.141,9.897 11.947,9.674 11.732 C 9.389 11.459,9.407 11.461,7.490 11.448 C 6.538 11.441,5.760 11.427,5.760 11.416 C 5.760 11.406,6.844 9.508,8.169 7.198 L 10.579 3.000 13.769 3.000 C 15.524 3.000,16.960 3.010,16.960 3.021 " stroke="none" fill-rule="evenodd" fill="black"></path></svg>