<svg width="24" height="24" viewBox="0 0 24 24" fill="none" xmlns="http://www.w3.org/2000/svg"><path d="M9.694 1.442 C 9.159 1.535,8.809 1.754,8.215 2.365 C 7.590 3.007,7.422 3.372,7.421 4.080 C 7.420 4.523,7.458 4.708,7.644 5.187 C 7.811 5.612,7.858 5.938,7.801 6.275 C 7.667 7.068,7.068 7.667,6.275 7.801 C 5.938 7.858,5.612 7.811,5.187 7.644 C 4.708 7.458,4.523 7.420,4.080 7.421 C 3.585 7.421,3.256 7.515,2.889 7.760 C 2.605 7.951,1.894 8.671,1.723 8.940 C 1.340 9.547,1.330 10.382,1.700 11.029 C 1.845 11.283,12.564 22.019,12.894 22.242 C 13.550 22.683,14.448 22.683,15.110 22.240 C 15.470 22.000,16.201 21.226,16.351 20.925 C 16.679 20.269,16.672 19.590,16.327 18.733 C 16.188 18.388,16.145 18.045,16.200 17.719 C 16.333 16.929,16.931 16.333,17.725 16.199 C 18.062 16.142,18.388 16.189,18.813 16.356 C 19.292 16.542,19.477 16.580,19.920 16.579 C 20.415 16.579,20.744 16.485,21.111 16.240 C 21.395 16.049,22.106 15.329,22.277 15.060 C 22.682 14.418,22.668 13.527,22.242 12.894 C 22.019 12.564,11.283 1.845,11.029 1.700 C 10.640 1.478,10.095 1.373,9.694 1.442 M15.300 8.720 L 20.579 13.999 20.280 14.300 C 20.085 14.496,19.951 14.600,19.892 14.600 C 19.843 14.600,19.663 14.545,19.494 14.478 C 18.551 14.103,17.552 14.083,16.656 14.420 C 15.634 14.805,14.805 15.634,14.420 16.656 C 14.252 17.102,14.191 17.458,14.189 18.000 C 14.187 18.559,14.263 18.954,14.478 19.494 C 14.545 19.663,14.600 19.843,14.600 19.892 C 14.600 19.951,14.496 20.085,14.300 20.280 L 13.999 20.579 8.710 15.290 L 3.421 10.001 3.720 9.700 C 3.915 9.504,4.049 9.400,4.108 9.400 C 4.157 9.400,4.337 9.455,4.506 9.522 C 5.056 9.741,5.440 9.814,6.020 9.811 C 6.445 9.808,6.613 9.789,6.940 9.704 C 8.300 9.350,9.350 8.300,9.704 6.940 C 9.789 6.613,9.808 6.445,9.811 6.020 C 9.814 5.440,9.741 5.056,9.522 4.506 C 9.455 4.337,9.400 4.158,9.400 4.110 C 9.400 4.054,9.506 3.915,9.689 3.731 C 9.848 3.571,9.987 3.440,9.999 3.440 C 10.011 3.440,12.396 5.816,15.300 8.720 " stroke="none" fill-rule="evenodd" fill="black"></path></svg>