<svg width="24" height="24" viewBox="0 0 24 24" fill="none" xmlns="http://www.w3.org/2000/svg"><path d="M6.260 7.058 C 4.614 7.324,3.259 8.312,2.523 9.785 C 2.164 10.504,2.021 11.135,2.021 12.000 C 2.021 12.446,2.041 12.715,2.093 12.960 C 2.313 13.995,2.741 14.786,3.478 15.521 C 4.221 16.262,5.004 16.685,6.040 16.907 C 6.360 16.976,6.716 16.980,12.000 16.980 C 17.284 16.980,17.640 16.976,17.960 16.907 C 19.003 16.684,19.784 16.261,20.521 15.522 C 21.262 14.778,21.687 13.993,21.907 12.960 C 21.959 12.715,21.979 12.446,21.979 12.000 C 21.979 11.554,21.959 11.285,21.907 11.040 C 21.687 10.006,21.260 9.216,20.522 8.477 C 19.793 7.748,19.064 7.348,18.000 7.095 C 17.721 7.028,17.320 7.023,12.140 7.015 C 7.762 7.009,6.512 7.018,6.260 7.058 M17.622 9.581 C 18.385 9.776,19.023 10.343,19.329 11.100 C 19.455 11.410,19.459 11.439,19.459 12.000 C 19.459 12.561,19.455 12.591,19.330 12.900 C 19.071 13.544,18.544 14.071,17.900 14.330 C 17.591 14.455,17.560 14.459,17.000 14.459 C 16.436 14.459,16.411 14.456,16.100 14.328 C 15.336 14.014,14.776 13.385,14.581 12.622 C 14.502 12.313,14.503 11.684,14.582 11.378 C 14.807 10.511,15.496 9.816,16.360 9.584 C 16.653 9.506,17.320 9.504,17.622 9.581 " stroke="none" fill-rule="evenodd"></path></svg>