<svg width="24" height="24" viewBox="0 0 24 24" fill="none" xmlns="http://www.w3.org/2000/svg"><path d="M6.420 6.026 C 5.615 6.123,4.919 6.333,4.244 6.681 C 2.599 7.532,1.457 9.075,1.093 10.940 C 0.996 11.439,0.996 12.561,1.093 13.060 C 1.208 13.651,1.389 14.176,1.662 14.713 C 2.493 16.350,3.948 17.461,5.820 17.886 L 6.220 17.977 11.780 17.991 C 15.591 18.000,17.460 17.991,17.720 17.961 C 20.008 17.701,22.007 16.050,22.711 13.840 C 22.939 13.124,22.978 12.852,22.978 12.000 C 22.978 11.148,22.939 10.876,22.711 10.160 C 22.170 8.462,20.857 7.061,19.192 6.406 C 18.821 6.260,18.191 6.097,17.787 6.042 C 17.498 6.003,6.738 5.988,6.420 6.026 M12.307 8.270 C 11.707 9.016,11.277 9.963,11.095 10.940 C 10.992 11.492,10.992 12.508,11.095 13.060 C 11.277 14.037,11.707 14.984,12.307 15.730 L 12.523 16.000 9.607 16.000 C 7.175 16.000,6.632 15.990,6.341 15.939 C 5.486 15.790,4.795 15.433,4.179 14.820 C 3.662 14.306,3.320 13.714,3.129 13.002 C 3.040 12.670,3.026 12.539,3.026 12.000 C 3.026 11.461,3.040 11.330,3.129 10.998 C 3.320 10.286,3.662 9.694,4.179 9.180 C 4.797 8.566,5.468 8.216,6.329 8.060 C 6.551 8.020,7.317 8.006,9.572 8.004 L 12.523 8.000 12.307 8.270 M17.820 8.096 C 19.020 8.353,20.029 9.135,20.563 10.221 C 20.671 10.441,20.807 10.801,20.865 11.021 C 20.956 11.364,20.971 11.501,20.971 12.000 C 20.971 12.499,20.956 12.636,20.865 12.979 C 20.412 14.699,18.960 15.878,17.167 15.984 C 16.064 16.049,14.997 15.634,14.179 14.820 C 13.662 14.306,13.320 13.714,13.129 13.002 C 13.040 12.670,13.026 12.539,13.026 12.000 C 13.026 11.461,13.040 11.330,13.129 10.998 C 13.433 9.864,14.180 8.949,15.240 8.410 C 15.980 8.034,16.970 7.914,17.820 8.096 " stroke="none" fill="black" fill-rule="evenodd"></path></svg>