<svg width="24" height="24" viewBox="0 0 24 24" fill="none" xmlns="http://www.w3.org/2000/svg"><path d="M6.300 6.027 C 3.932 6.346,1.995 7.943,1.289 10.160 C 1.060 10.880,1.021 11.148,1.021 12.000 C 1.021 12.852,1.060 13.120,1.289 13.840 C 1.871 15.669,3.331 17.129,5.160 17.711 C 6.066 17.999,5.576 17.980,11.980 17.980 L 17.740 17.980 18.160 17.888 C 18.772 17.753,19.237 17.587,19.761 17.316 C 21.375 16.482,22.492 14.996,22.885 13.160 C 22.960 12.810,22.975 12.616,22.975 12.000 C 22.975 11.384,22.960 11.190,22.885 10.840 C 22.364 8.405,20.608 6.646,18.164 6.109 C 17.784 6.025,17.720 6.024,12.100 6.018 C 8.976 6.014,6.366 6.018,6.300 6.027 M8.002 8.133 C 9.427 8.499,10.521 9.616,10.891 11.080 C 11.013 11.563,11.013 12.437,10.891 12.920 C 10.514 14.411,9.409 15.516,7.920 15.891 C 7.511 15.993,6.699 16.010,6.260 15.924 C 5.066 15.690,4.006 14.901,3.464 13.840 C 3.143 13.212,3.025 12.718,3.025 12.000 C 3.025 11.282,3.143 10.788,3.464 10.160 C 4.008 9.096,5.100 8.285,6.260 8.082 C 6.676 8.010,6.730 8.006,7.180 8.021 C 7.477 8.030,7.745 8.067,8.002 8.133 M18.002 8.127 C 19.452 8.524,20.522 9.618,20.891 11.080 C 21.013 11.563,21.013 12.437,20.891 12.920 C 20.517 14.401,19.435 15.490,17.940 15.891 C 17.628 15.974,17.541 15.977,14.545 15.990 L 11.470 16.003 11.629 15.812 C 12.238 15.080,12.669 14.170,12.885 13.160 C 12.960 12.810,12.975 12.616,12.975 12.000 C 12.975 11.384,12.960 11.190,12.885 10.840 C 12.673 9.849,12.278 8.997,11.692 8.268 L 11.474 7.997 14.547 8.009 L 17.620 8.022 18.002 8.127 " stroke="none" fill="black" fill-rule="evenodd"></path></svg>