<svg width="24" height="24" viewBox="0 0 24 24" fill="none" xmlns="http://www.w3.org/2000/svg"><path d="M4.866 2.042 C 3.778 2.226,2.848 2.915,2.346 3.908 C 2.184 4.229,2.039 4.782,2.013 5.184 C 1.993 5.487,2.003 5.595,2.073 5.825 C 2.300 6.573,2.828 6.955,3.682 6.991 L 4.105 7.008 4.276 8.594 C 5.285 17.944,5.581 20.553,5.663 20.836 C 5.946 21.810,6.746 22.600,7.742 22.888 L 8.060 22.980 12.000 22.980 L 15.940 22.980 16.258 22.888 C 17.255 22.599,18.054 21.811,18.337 20.836 C 18.419 20.555,18.800 17.187,19.724 8.590 L 19.895 7.000 20.238 7.000 C 21.112 6.998,21.694 6.594,21.927 5.825 C 22.034 5.473,22.010 4.981,21.861 4.468 C 21.530 3.326,20.705 2.498,19.532 2.130 L 19.180 2.020 12.120 2.014 C 8.237 2.011,4.973 2.023,4.866 2.042 M19.162 4.124 C 19.284 4.181,19.452 4.288,19.535 4.361 C 19.684 4.491,19.919 4.852,19.920 4.950 C 19.920 4.990,18.310 5.000,12.000 5.000 C 6.544 5.000,4.080 4.987,4.080 4.958 C 4.080 4.882,4.239 4.604,4.366 4.460 C 4.510 4.295,4.769 4.134,5.011 4.058 C 5.149 4.015,6.450 4.006,12.060 4.012 L 18.940 4.020 19.162 4.124 M17.869 7.170 C 17.856 7.264,17.806 7.714,17.756 8.170 L 17.666 9.000 12.000 9.000 L 6.334 9.000 6.244 8.170 C 6.194 7.714,6.144 7.264,6.131 7.170 L 6.109 7.000 12.000 7.000 L 17.891 7.000 17.869 7.170 M17.427 11.130 C 17.415 11.202,17.265 12.552,17.094 14.130 L 16.783 17.000 12.000 17.000 L 7.217 17.000 6.906 14.130 C 6.735 12.552,6.585 11.202,6.573 11.130 L 6.551 11.000 12.000 11.000 L 17.449 11.000 17.427 11.130 M16.560 19.055 C 16.560 19.267,16.424 20.281,16.382 20.382 C 16.306 20.563,16.092 20.792,15.904 20.892 L 15.740 20.980 12.000 20.980 L 8.260 20.980 8.096 20.892 C 7.908 20.792,7.694 20.563,7.618 20.382 C 7.576 20.281,7.440 19.267,7.440 19.055 C 7.440 19.009,8.164 19.000,12.000 19.000 C 15.836 19.000,16.560 19.009,16.560 19.055 " stroke="none" fill-rule="evenodd" fill="black"></path></svg>