<svg width="24" height="24" viewBox="0 0 24 24" fill="none" xmlns="http://www.w3.org/2000/svg"><path d="M10.100 1.041 C 7.102 1.194,4.603 1.656,3.340 2.290 C 2.444 2.740,1.953 3.400,2.010 4.075 C 2.045 4.481,4.358 18.494,4.434 18.760 C 4.915 20.438,6.102 21.650,7.820 22.219 C 9.245 22.692,10.518 22.896,12.020 22.893 C 13.392 22.891,14.490 22.730,15.789 22.342 C 16.582 22.105,17.026 21.911,17.514 21.586 C 18.515 20.919,19.228 19.937,19.566 18.760 C 19.642 18.494,21.955 4.481,21.990 4.075 C 22.028 3.624,21.806 3.153,21.369 2.757 C 20.436 1.913,18.080 1.332,14.560 1.078 C 13.777 1.021,10.942 0.998,10.100 1.041 M13.700 3.040 C 15.625 3.133,17.297 3.343,18.500 3.645 C 18.941 3.756,19.560 3.964,19.560 4.001 C 19.560 4.047,18.759 4.298,18.238 4.415 C 14.357 5.286,7.857 5.158,4.810 4.152 C 4.606 4.085,4.440 4.016,4.440 4.000 C 4.440 3.964,5.062 3.756,5.500 3.645 C 7.469 3.150,10.825 2.903,13.700 3.040 M4.880 6.258 C 8.640 7.250,15.605 7.233,19.258 6.222 C 19.455 6.168,19.621 6.127,19.626 6.133 C 19.632 6.138,19.196 8.833,18.658 12.121 C 17.984 16.240,17.649 18.192,17.580 18.397 C 17.323 19.165,16.730 19.823,15.994 20.157 C 15.428 20.413,14.167 20.726,13.220 20.844 C 12.704 20.909,11.295 20.909,10.780 20.844 C 9.509 20.685,8.108 20.280,7.577 19.920 C 7.283 19.720,6.840 19.251,6.671 18.961 C 6.588 18.819,6.476 18.568,6.421 18.402 C 6.352 18.194,6.022 16.272,5.360 12.220 C 4.831 8.986,4.388 6.289,4.376 6.226 C 4.355 6.128,4.363 6.115,4.426 6.135 C 4.467 6.147,4.671 6.203,4.880 6.258 " stroke="none" fill-rule="evenodd" fill="black"></path></svg>