<svg width="24" height="24" viewBox="0 0 24 24" fill="none" xmlns="http://www.w3.org/2000/svg"><path d="M8.650 1.044 C 7.936 1.165,7.257 1.570,6.810 2.140 C 6.596 2.412,6.456 2.684,5.686 4.320 L 5.375 4.980 3.557 5.000 C 1.752 5.020,1.739 5.021,1.550 5.114 C 0.949 5.410,0.820 6.222,1.299 6.701 C 1.551 6.953,1.736 7.000,2.479 7.000 L 3.105 7.000 3.856 13.765 C 4.364 18.333,4.633 20.622,4.686 20.814 C 4.826 21.316,5.054 21.698,5.458 22.102 C 5.858 22.501,6.214 22.716,6.760 22.886 L 7.060 22.980 12.000 22.980 L 16.940 22.980 17.240 22.886 C 17.787 22.715,18.142 22.501,18.540 22.102 C 18.944 21.696,19.177 21.308,19.313 20.815 C 19.367 20.622,19.636 18.333,20.144 13.765 L 20.895 7.000 21.521 7.000 C 22.264 7.000,22.449 6.953,22.701 6.701 C 23.180 6.222,23.051 5.410,22.450 5.114 C 22.261 5.021,22.248 5.020,20.443 5.000 L 18.625 4.980 18.314 4.320 C 17.542 2.681,17.404 2.412,17.189 2.138 C 16.816 1.662,16.238 1.278,15.620 1.095 C 15.400 1.030,15.113 1.023,12.120 1.016 C 10.327 1.011,8.765 1.024,8.650 1.044 M15.329 3.131 C 15.432 3.192,15.562 3.300,15.616 3.372 C 15.704 3.486,16.400 4.911,16.400 4.975 C 16.400 4.989,14.420 5.000,12.000 5.000 C 9.580 5.000,7.600 4.989,7.600 4.975 C 7.600 4.938,8.276 3.513,8.342 3.413 C 8.422 3.289,8.654 3.120,8.830 3.057 C 8.952 3.013,9.556 3.004,12.060 3.011 L 15.140 3.020 15.329 3.131 M18.880 7.011 C 18.880 7.017,18.549 10.004,18.143 13.649 C 17.422 20.144,17.405 20.281,17.297 20.479 C 17.173 20.707,16.998 20.856,16.756 20.942 C 16.507 21.029,7.493 21.029,7.244 20.942 C 7.002 20.856,6.827 20.707,6.703 20.479 C 6.595 20.281,6.578 20.144,5.857 13.649 C 5.451 10.004,5.120 7.017,5.120 7.011 C 5.120 7.005,8.216 7.000,12.000 7.000 C 15.784 7.000,18.880 7.005,18.880 7.011 M9.643 10.069 C 9.546 10.103,9.392 10.206,9.300 10.298 C 8.991 10.607,9.000 10.513,9.000 13.500 C 9.000 16.486,8.991 16.394,9.299 16.701 C 9.690 17.092,10.310 17.092,10.701 16.701 C 11.009 16.394,11.000 16.486,11.000 13.500 C 11.000 10.514,11.009 10.606,10.701 10.299 C 10.424 10.021,10.024 9.934,9.643 10.069 M13.643 10.069 C 13.546 10.103,13.392 10.206,13.300 10.298 C 12.991 10.607,13.000 10.513,13.000 13.500 C 13.000 16.486,12.991 16.394,13.299 16.701 C 13.690 17.092,14.310 17.092,14.701 16.701 C 15.009 16.394,15.000 16.486,15.000 13.500 C 15.000 10.514,15.009 10.606,14.701 10.299 C 14.424 10.021,14.024 9.934,13.643 10.069 " stroke="none" fill-rule="evenodd" fill="black"></path></svg>