<svg width="24" height="24" viewBox="0 0 24 24" fill="none" xmlns="http://www.w3.org/2000/svg"><path d="M11.380 2.898 C 10.677 3.060,10.077 3.430,9.670 3.954 C 9.487 4.189,2.047 16.346,1.869 16.701 C 1.659 17.119,1.582 17.462,1.582 17.980 C 1.581 18.555,1.645 18.826,1.900 19.347 C 2.313 20.187,3.153 20.808,4.080 20.957 C 4.255 20.986,6.842 20.999,12.000 20.999 C 17.158 20.999,19.745 20.986,19.920 20.957 C 20.574 20.852,21.027 20.612,21.544 20.099 C 21.852 19.793,21.937 19.679,22.094 19.358 C 22.349 18.840,22.415 18.559,22.417 18.000 C 22.418 17.489,22.355 17.188,22.160 16.768 C 21.980 16.383,14.537 4.217,14.296 3.915 C 13.939 3.467,13.365 3.097,12.780 2.937 C 12.457 2.848,11.690 2.827,11.380 2.898 M12.422 4.935 C 12.533 4.986,12.670 5.084,12.727 5.151 C 12.783 5.219,14.524 8.047,16.596 11.437 C 19.442 16.095,20.372 17.648,20.407 17.799 C 20.499 18.196,20.294 18.654,19.929 18.869 L 19.740 18.980 12.000 18.980 L 4.260 18.980 4.071 18.869 C 3.705 18.654,3.489 18.163,3.592 17.778 C 3.640 17.598,11.053 5.414,11.273 5.151 C 11.423 4.973,11.734 4.841,12.000 4.841 C 12.147 4.841,12.287 4.872,12.422 4.935 " stroke="none" fill-rule="evenodd" fill="black"></path></svg>