<svg width="24" height="24" viewBox="0 0 24 24" fill="none" xmlns="http://www.w3.org/2000/svg"><path d="M11.420 1.064 C 10.976 1.156,10.444 1.438,10.098 1.767 C 9.936 1.921,9.741 2.141,9.665 2.255 C 9.448 2.583,1.256 18.718,1.162 19.004 C 0.686 20.454,1.333 22.054,2.656 22.700 C 3.316 23.022,2.618 23.000,12.000 23.000 C 21.379 23.000,20.684 23.022,21.342 22.701 C 22.671 22.053,23.313 20.452,22.832 18.986 C 22.743 18.713,14.544 2.570,14.336 2.256 C 14.260 2.141,14.064 1.921,13.902 1.767 C 13.247 1.145,12.314 0.880,11.420 1.064 M12.420 3.120 C 12.496 3.167,12.597 3.260,12.644 3.326 C 12.746 3.469,20.773 19.241,20.906 19.560 C 21.121 20.075,20.927 20.670,20.468 20.899 L 20.264 21.000 12.018 21.000 C 5.841 21.000,3.738 20.988,3.636 20.953 C 3.180 20.797,2.886 20.176,3.040 19.696 C 3.068 19.610,4.937 15.904,7.195 11.461 C 10.335 5.282,11.335 3.347,11.448 3.233 C 11.530 3.150,11.656 3.065,11.728 3.043 C 11.922 2.983,12.260 3.021,12.420 3.120 M11.643 8.069 C 11.546 8.103,11.392 8.206,11.300 8.298 C 10.991 8.607,11.000 8.513,11.000 11.500 C 11.000 14.486,10.991 14.394,11.299 14.701 C 11.690 15.092,12.310 15.092,12.701 14.701 C 13.009 14.394,13.000 14.486,13.000 11.500 C 13.000 8.514,13.009 8.606,12.701 8.299 C 12.424 8.021,12.024 7.934,11.643 8.069 M11.617 16.577 C 11.434 16.657,11.206 16.871,11.109 17.056 C 10.988 17.288,10.960 18.019,11.061 18.323 C 11.189 18.707,11.595 19.000,12.000 19.000 C 12.405 19.000,12.811 18.707,12.939 18.323 C 13.039 18.021,13.012 17.287,12.892 17.060 C 12.783 16.855,12.580 16.661,12.391 16.582 C 12.210 16.506,11.785 16.503,11.617 16.577 " stroke="none" fill-rule="evenodd" fill="black"></path></svg>