<svg width="24" height="24" viewBox="0 0 24 24" fill="none" xmlns="http://www.w3.org/2000/svg"><path d="M8.643 5.069 C 8.546 5.103,8.392 5.206,8.300 5.298 C 7.976 5.621,8.000 5.096,8.000 12.000 C 8.000 18.903,7.977 18.379,8.299 18.701 C 8.573 18.975,8.959 19.065,9.323 18.939 C 9.440 18.898,10.899 17.827,13.639 15.769 C 17.526 12.850,17.785 12.648,17.879 12.461 C 17.956 12.309,17.980 12.201,17.980 12.000 C 17.980 11.799,17.956 11.691,17.879 11.539 C 17.785 11.352,17.526 11.150,13.639 8.231 C 10.899 6.173,9.440 5.102,9.323 5.061 C 9.103 4.985,8.873 4.988,8.643 5.069 M15.316 12.000 C 15.316 12.011,14.120 12.916,12.658 14.010 L 10.000 16.000 10.000 12.000 L 10.000 8.000 12.658 9.990 C 14.120 11.084,15.316 11.989,15.316 12.000 " stroke="none" fill-rule="evenodd" fill="black"></path></svg>