<svg width="24" height="24" viewBox="0 0 24 24" fill="none" xmlns="http://www.w3.org/2000/svg"><path d="M11.549 2.943 C 11.187 3.030,10.883 3.199,10.618 3.460 C 10.401 3.673,9.896 4.497,6.084 10.851 C 3.725 14.784,1.751 18.097,1.698 18.213 C 1.198 19.305,1.860 20.631,3.058 20.939 C 3.269 20.993,4.314 21.000,12.000 21.000 C 21.516 21.000,20.896 21.015,21.397 20.772 C 21.517 20.714,21.727 20.555,21.864 20.418 C 22.455 19.827,22.631 18.935,22.301 18.211 C 22.248 18.096,20.275 14.784,17.915 10.851 C 14.135 4.549,13.597 3.671,13.383 3.459 C 12.900 2.981,12.203 2.784,11.549 2.943 " stroke="none" fill-rule="evenodd"></path></svg>