<svg width="24" height="24" viewBox="0 0 24 24" fill="none" xmlns="http://www.w3.org/2000/svg"><path d="M11.436 1.060 C 10.779 1.191,10.133 1.615,9.701 2.200 C 9.520 2.445,1.293 18.631,1.177 18.971 C 0.769 20.164,1.139 21.539,2.084 22.347 C 2.346 22.570,2.634 22.731,3.020 22.867 L 3.340 22.980 12.000 22.980 L 20.660 22.980 20.980 22.871 C 21.396 22.729,21.750 22.517,22.039 22.234 C 22.904 21.391,23.212 20.107,22.822 18.968 C 22.734 18.709,14.595 2.661,14.375 2.312 C 14.100 1.876,13.512 1.386,13.035 1.198 C 12.557 1.009,11.954 0.957,11.436 1.060 M12.340 8.066 C 12.593 8.153,12.847 8.407,12.934 8.660 C 12.993 8.833,13.000 9.142,13.000 11.500 C 13.000 14.486,13.009 14.394,12.701 14.701 C 12.310 15.092,11.690 15.092,11.299 14.701 C 10.991 14.394,11.000 14.486,11.000 11.500 C 11.000 8.513,10.991 8.607,11.300 8.298 C 11.577 8.020,11.957 7.936,12.340 8.066 M12.391 16.582 C 12.580 16.661,12.783 16.855,12.892 17.060 C 13.012 17.287,13.039 18.021,12.939 18.323 C 12.811 18.707,12.405 19.000,12.000 19.000 C 11.595 19.000,11.189 18.707,11.061 18.323 C 10.961 18.021,10.988 17.287,11.108 17.060 C 11.214 16.859,11.418 16.662,11.600 16.584 C 11.783 16.504,12.203 16.503,12.391 16.582 " stroke="none" fill-rule="evenodd"></path></svg>