<svg width="24" height="24" viewBox="0 0 24 24" fill="none" xmlns="http://www.w3.org/2000/svg"><path d="M11.674 6.057 C 11.593 6.088,11.478 6.146,11.417 6.186 C 11.242 6.300,5.107 14.508,5.049 14.705 C 4.941 15.067,5.034 15.436,5.299 15.701 C 5.621 16.023,5.097 16.000,12.000 16.000 C 18.903 16.000,18.379 16.023,18.701 15.701 C 18.975 15.427,19.065 15.041,18.939 14.677 C 18.898 14.560,17.827 13.101,15.769 10.361 C 12.876 6.509,12.646 6.215,12.465 6.123 C 12.233 6.005,11.885 5.976,11.674 6.057 M14.010 11.342 L 16.000 14.000 12.000 14.000 L 8.000 14.000 9.990 11.342 C 11.084 9.880,11.989 8.684,12.000 8.684 C 12.011 8.684,12.916 9.880,14.010 11.342 " stroke="none" fill-rule="evenodd" fill="black"></path></svg>