<svg width="24" height="24" viewBox="0 0 24 24" fill="none" xmlns="http://www.w3.org/2000/svg"><path d="M5.643 8.069 C 5.407 8.152,5.149 8.416,5.066 8.660 C 4.984 8.902,4.982 9.094,5.061 9.323 C 5.102 9.440,6.173 10.899,8.231 13.639 C 11.150 17.526,11.352 17.785,11.539 17.879 C 11.691 17.956,11.799 17.980,12.000 17.980 C 12.201 17.980,12.309 17.956,12.461 17.879 C 12.648 17.785,12.850 17.526,15.769 13.639 C 17.827 10.899,18.898 9.440,18.939 9.323 C 19.065 8.959,18.975 8.573,18.701 8.299 C 18.378 7.976,18.906 8.000,11.983 8.003 C 6.508 8.006,5.800 8.013,5.643 8.069 M14.010 12.658 C 12.916 14.120,12.011 15.316,12.000 15.316 C 11.989 15.316,11.084 14.120,9.990 12.658 L 8.000 10.000 12.000 10.000 L 16.000 10.000 14.010 12.658 " stroke="none" fill-rule="evenodd" fill="black"></path></svg>