<svg width="24" height="24" viewBox="0 0 24 24" fill="none" xmlns="http://www.w3.org/2000/svg"><path d="M9.771 0.083 C 9.601 0.168,9.470 0.335,9.428 0.520 C 9.415 0.575,9.385 0.809,9.360 1.040 C 9.229 2.258,8.825 3.389,8.213 4.250 C 7.611 5.097,6.646 5.831,5.642 6.204 C 5.335 6.318,5.118 6.517,5.049 6.746 C 5.014 6.864,5.000 7.380,5.000 8.597 C 5.000 10.015,5.010 10.302,5.060 10.400 C 5.184 10.639,5.188 10.640,6.467 10.640 L 7.636 10.640 7.651 14.450 C 7.666 18.134,7.670 18.275,7.752 18.700 C 8.236 21.208,9.547 22.836,11.681 23.578 C 12.811 23.972,14.480 24.105,15.720 23.900 C 16.927 23.701,18.037 23.258,18.681 22.719 C 18.913 22.525,19.000 22.381,19.000 22.190 C 19.000 22.059,17.924 18.789,17.832 18.643 C 17.762 18.531,17.583 18.440,17.431 18.440 C 17.355 18.440,17.097 18.510,16.856 18.596 C 16.342 18.779,15.687 18.899,15.366 18.869 C 14.678 18.805,14.159 18.344,13.930 17.595 C 13.871 17.405,13.862 16.995,13.850 14.010 L 13.837 10.640 15.808 10.640 C 17.715 10.640,17.784 10.637,17.912 10.559 C 18.160 10.408,18.160 10.407,18.160 8.237 C 18.160 6.501,18.152 6.256,18.095 6.134 C 17.972 5.875,18.012 5.880,15.842 5.880 L 13.880 5.880 13.880 3.159 C 13.880 0.248,13.882 0.279,13.681 0.100 C 13.595 0.023,13.527 0.020,11.766 0.009 C 9.978 -0.001,9.936 0.001,9.771 0.083 " stroke="none" fill-rule="evenodd"></path></svg>