<svg width="24" height="24" viewBox="0 0 24 24" fill="none" xmlns="http://www.w3.org/2000/svg"><path d="M15.860 2.825 C 15.364 2.914,15.036 3.025,14.570 3.260 C 14.045 3.525,13.717 3.769,13.296 4.208 C 12.907 4.613,12.687 4.931,12.458 5.415 C 12.119 6.130,11.967 6.906,12.014 7.676 C 12.029 7.909,12.059 8.179,12.082 8.275 C 12.104 8.372,12.116 8.457,12.109 8.465 C 12.083 8.490,11.190 8.398,10.685 8.318 C 8.028 7.894,5.560 6.656,3.585 4.758 C 3.335 4.517,2.999 4.168,2.838 3.980 C 2.677 3.793,2.534 3.640,2.519 3.640 C 2.483 3.640,2.188 4.284,2.106 4.540 C 1.687 5.846,1.887 7.309,2.643 8.479 C 2.879 8.844,3.379 9.385,3.758 9.685 L 3.935 9.826 3.618 9.793 C 3.070 9.735,2.464 9.557,1.985 9.312 L 1.830 9.233 1.859 9.587 C 1.913 10.263,2.057 10.790,2.347 11.384 C 2.911 12.535,4.056 13.474,5.285 13.793 L 5.571 13.868 5.396 13.912 C 4.898 14.037,4.183 14.062,3.631 13.974 L 3.480 13.950 3.539 14.117 C 3.640 14.403,3.828 14.772,4.043 15.103 C 4.320 15.530,5.005 16.198,5.447 16.471 C 6.059 16.850,6.798 17.102,7.431 17.148 C 7.614 17.161,7.770 17.184,7.779 17.198 C 7.802 17.235,7.190 17.657,6.714 17.931 C 5.618 18.562,4.319 18.985,3.046 19.123 C 2.819 19.148,2.266 19.162,1.817 19.154 C 1.367 19.146,1.000 19.144,1.000 19.148 C 1.000 19.174,1.760 19.600,2.195 19.817 C 4.154 20.799,6.207 21.246,8.480 21.186 C 10.638 21.129,12.377 20.703,14.172 19.790 C 16.247 18.736,17.989 17.120,19.271 15.061 C 19.578 14.568,20.147 13.435,20.356 12.900 C 20.999 11.258,21.316 9.650,21.323 8.006 L 21.326 7.340 21.686 7.060 C 22.147 6.701,22.944 5.886,23.313 5.395 C 23.471 5.185,23.600 5.001,23.600 4.987 C 23.600 4.973,23.506 4.999,23.390 5.045 C 22.757 5.299,21.983 5.514,21.350 5.614 C 21.157 5.644,21.000 5.665,21.000 5.660 C 21.000 5.655,21.100 5.585,21.223 5.503 C 21.543 5.291,22.055 4.791,22.329 4.423 C 22.617 4.036,23.097 3.071,22.974 3.126 C 22.955 3.134,22.733 3.247,22.480 3.376 C 21.773 3.737,20.748 4.103,20.224 4.182 C 20.041 4.209,20.038 4.208,19.780 3.966 C 18.770 3.022,17.240 2.576,15.860 2.825 " stroke="none" fill-rule="evenodd"></path></svg>