<svg width="24" height="24" viewBox="0 0 24 24" fill="none" xmlns="http://www.w3.org/2000/svg"><path d="M1.770 2.891 L 0.999 4.780 1.000 12.490 L 1.000 20.200 3.740 20.200 L 6.480 20.200 6.480 21.600 L 6.480 23.000 8.038 23.000 L 9.596 23.000 11.060 21.600 L 12.524 20.200 14.759 20.200 L 16.995 20.200 19.997 17.332 L 23.000 14.464 23.000 7.732 L 23.000 1.000 12.770 1.001 L 2.540 1.002 1.770 2.891 M20.920 8.230 L 20.919 13.500 19.210 15.130 L 17.500 16.760 14.749 16.760 L 11.998 16.760 10.549 18.147 L 9.100 19.534 9.089 18.147 L 9.079 16.760 6.759 16.760 L 4.440 16.760 4.440 9.860 L 4.440 2.960 12.680 2.960 L 20.920 2.960 20.920 8.230 M9.920 9.620 L 9.920 12.480 10.960 12.480 L 12.000 12.480 12.000 9.620 L 12.000 6.760 10.960 6.760 L 9.920 6.760 9.920 9.620 M15.440 9.620 L 15.440 12.480 16.460 12.480 L 17.480 12.480 17.480 9.620 L 17.480 6.760 16.460 6.760 L 15.440 6.760 15.440 9.620 " stroke="none" fill-rule="evenodd"></path></svg>