<svg width="24" height="24" viewBox="0 0 24 24" fill="none" xmlns="http://www.w3.org/2000/svg"><path d="M4.643 8.069 C 4.291 8.193,4.000 8.614,4.000 9.000 C 4.000 9.242,4.119 9.521,4.299 9.701 C 4.623 10.025,3.977 10.000,12.000 10.000 C 20.023 10.000,19.377 10.025,19.701 9.701 C 20.092 9.310,20.092 8.690,19.701 8.299 C 19.377 7.975,20.026 8.000,11.983 8.003 C 5.602 8.006,4.801 8.013,4.643 8.069 M4.643 14.069 C 4.291 14.193,4.000 14.614,4.000 15.000 C 4.000 15.242,4.119 15.521,4.299 15.701 C 4.623 16.025,3.977 16.000,12.000 16.000 C 20.023 16.000,19.377 16.025,19.701 15.701 C 20.092 15.310,20.092 14.690,19.701 14.299 C 19.377 13.975,20.026 14.000,11.983 14.003 C 5.602 14.006,4.801 14.013,4.643 14.069 " stroke="none" fill-rule="evenodd" fill="black"></path></svg>