<svg width="24" height="24" viewBox="0 0 24 24" fill="none" xmlns="http://www.w3.org/2000/svg"><path d="M8.643 4.069 C 8.546 4.103,8.392 4.206,8.300 4.298 C 7.975 4.623,8.000 3.975,8.000 12.000 C 8.000 20.023,7.975 19.377,8.299 19.701 C 8.690 20.092,9.310 20.092,9.701 19.701 C 10.025 19.377,10.000 20.023,10.000 12.000 C 10.000 3.977,10.025 4.623,9.701 4.299 C 9.424 4.021,9.024 3.934,8.643 4.069 M14.643 4.069 C 14.546 4.103,14.392 4.206,14.300 4.298 C 13.975 4.623,14.000 3.975,14.000 12.000 C 14.000 20.023,13.975 19.377,14.299 19.701 C 14.690 20.092,15.310 20.092,15.701 19.701 C 16.025 19.377,16.000 20.023,16.000 12.000 C 16.000 3.977,16.025 4.623,15.701 4.299 C 15.424 4.021,15.024 3.934,14.643 4.069 " stroke="none" fill-rule="evenodd" fill="black"></path></svg>