<svg width="24" height="24" viewBox="0 0 24 24" fill="none" xmlns="http://www.w3.org/2000/svg"><path d="M11.643 1.069 C 11.546 1.103,11.392 1.206,11.300 1.298 C 11.050 1.548,11.000 1.739,11.000 2.445 L 11.000 3.035 10.810 3.059 C 8.987 3.285,7.444 3.842,6.120 4.752 C 3.629 6.464,2.173 9.195,2.017 12.450 C 1.993 12.931,1.999 13.001,2.077 13.206 C 2.268 13.709,2.665 13.980,3.200 13.975 C 3.709 13.971,3.979 13.783,4.320 13.200 C 4.504 12.884,4.694 12.724,5.013 12.612 C 5.185 12.552,5.350 12.540,5.980 12.540 C 6.490 12.540,6.797 12.557,6.912 12.592 C 7.144 12.662,7.361 12.867,7.521 13.167 C 7.700 13.504,7.923 13.736,8.194 13.869 C 8.386 13.962,8.471 13.979,8.760 13.979 C 9.055 13.980,9.129 13.965,9.320 13.867 C 9.592 13.728,9.810 13.521,9.960 13.260 C 10.023 13.150,10.125 13.012,10.187 12.952 C 10.310 12.835,10.664 12.663,10.870 12.620 L 11.000 12.594 11.000 16.370 C 11.000 20.619,11.016 20.386,10.701 20.701 C 10.310 21.092,9.690 21.092,9.299 20.701 C 9.119 20.521,9.000 20.242,9.000 20.000 C 9.000 19.473,8.527 19.000,8.000 19.000 C 7.593 19.000,7.189 19.292,7.060 19.680 C 6.900 20.162,7.089 21.012,7.495 21.635 C 8.250 22.793,9.693 23.279,11.009 22.819 C 11.764 22.556,12.440 21.915,12.759 21.160 C 12.989 20.616,12.976 20.871,12.990 16.567 L 13.003 12.594 13.131 12.621 C 13.337 12.663,13.690 12.835,13.813 12.952 C 13.875 13.012,13.978 13.152,14.043 13.265 C 14.189 13.520,14.464 13.777,14.711 13.890 C 14.856 13.956,14.979 13.976,15.240 13.977 C 15.532 13.979,15.612 13.963,15.806 13.869 C 16.077 13.736,16.300 13.504,16.479 13.167 C 16.639 12.867,16.856 12.662,17.088 12.592 C 17.205 12.557,17.510 12.540,18.040 12.541 C 18.761 12.543,18.838 12.550,19.055 12.636 C 19.330 12.745,19.533 12.935,19.710 13.248 C 20.004 13.769,20.306 13.970,20.800 13.976 C 21.290 13.981,21.656 13.759,21.868 13.327 C 21.976 13.109,21.980 13.077,21.974 12.540 C 21.961 11.139,21.575 9.549,20.941 8.280 C 19.946 6.289,18.298 4.732,16.260 3.860 C 15.309 3.453,14.392 3.214,13.190 3.059 L 13.000 3.035 13.000 2.445 C 13.000 1.739,12.950 1.548,12.701 1.299 C 12.424 1.021,12.024 0.934,11.643 1.069 M13.360 5.101 C 16.367 5.568,18.616 7.395,19.541 10.120 C 19.612 10.329,19.683 10.558,19.698 10.629 L 19.726 10.759 19.555 10.698 C 19.006 10.504,17.597 10.454,16.870 10.602 C 16.248 10.729,15.781 10.955,15.382 11.322 L 15.206 11.484 14.953 11.296 C 14.230 10.759,13.322 10.520,12.000 10.520 C 10.678 10.520,9.770 10.759,9.047 11.296 L 8.794 11.484 8.618 11.322 C 8.219 10.955,7.752 10.729,7.130 10.602 C 6.403 10.454,4.994 10.504,4.445 10.698 L 4.274 10.759 4.302 10.629 C 4.352 10.401,4.520 9.910,4.669 9.560 C 5.583 7.410,7.413 5.876,9.778 5.279 C 10.180 5.177,10.772 5.076,11.260 5.025 C 11.600 4.989,12.957 5.038,13.360 5.101 " stroke="none" fill-rule="evenodd" fill="black"></path></svg>