<svg width="24" height="24" viewBox="0 0 24 24" fill="none" xmlns="http://www.w3.org/2000/svg"><path d="M1.643 1.069 C 1.402 1.154,1.147 1.418,1.064 1.669 C 1.003 1.853,0.998 2.175,1.011 5.285 C 1.023 8.380,1.031 8.728,1.095 9.000 C 1.342 10.046,1.756 10.801,2.478 11.521 C 2.913 11.955,3.262 12.213,3.729 12.446 L 3.999 12.580 3.999 16.888 C 4.000 19.877,4.014 21.261,4.044 21.408 C 4.201 22.158,4.842 22.799,5.592 22.956 C 5.866 23.013,7.134 23.013,7.408 22.956 C 8.158 22.799,8.799 22.158,8.956 21.408 C 8.986 21.261,9.000 19.878,9.000 16.887 L 9.000 12.577 9.240 12.463 C 9.859 12.169,10.557 11.585,11.006 10.984 C 11.293 10.599,11.684 9.819,11.800 9.400 C 11.992 8.703,12.000 8.547,12.000 5.097 C 12.000 1.444,12.013 1.611,11.701 1.299 C 11.382 0.980,11.726 1.000,6.483 1.003 C 2.367 1.006,1.799 1.014,1.643 1.069 M14.643 1.067 C 14.406 1.153,14.149 1.417,14.066 1.660 C 14.005 1.839,14.000 2.628,14.000 11.525 C 14.000 18.431,14.013 21.257,14.044 21.408 C 14.201 22.158,14.842 22.799,15.592 22.956 C 15.866 23.013,17.134 23.013,17.408 22.956 C 18.158 22.799,18.799 22.158,18.956 21.408 C 18.985 21.269,19.000 20.475,19.000 19.098 L 19.000 17.000 20.573 17.000 C 22.363 17.000,22.408 16.994,22.702 16.700 C 23.025 16.377,23.004 16.813,22.989 10.716 C 22.977 5.685,22.971 5.279,22.905 5.000 C 22.656 3.950,22.245 3.200,21.522 2.478 C 20.795 1.751,20.040 1.338,19.000 1.097 C 18.741 1.037,18.432 1.025,16.760 1.015 C 15.065 1.005,14.798 1.012,14.643 1.067 M4.000 4.573 C 4.000 6.362,4.006 6.409,4.299 6.701 C 4.690 7.092,5.310 7.092,5.701 6.701 C 5.994 6.409,6.000 6.362,6.000 4.573 L 6.000 3.000 6.500 3.000 L 7.000 3.000 7.000 4.573 C 7.000 6.362,7.006 6.409,7.299 6.701 C 7.690 7.092,8.310 7.092,8.701 6.701 C 8.994 6.409,9.000 6.362,9.000 4.573 L 9.000 3.000 9.500 3.000 L 10.000 3.000 10.000 5.642 C 10.000 7.893,9.991 8.329,9.937 8.592 C 9.694 9.774,8.774 10.694,7.592 10.937 C 7.162 11.025,5.836 11.025,5.408 10.936 C 4.226 10.693,3.305 9.773,3.063 8.592 C 3.009 8.329,3.000 7.893,3.000 5.642 L 3.000 3.000 3.500 3.000 L 4.000 3.000 4.000 4.573 M18.592 3.063 C 19.774 3.306,20.694 4.226,20.937 5.408 C 20.992 5.679,21.000 6.284,21.000 10.358 L 21.000 15.000 19.390 15.001 C 17.857 15.002,17.771 15.006,17.600 15.083 C 17.358 15.193,17.209 15.340,17.095 15.580 L 17.001 15.780 17.000 18.390 L 17.000 21.000 16.500 21.000 L 16.000 21.000 16.000 12.000 L 16.000 3.000 17.142 3.000 C 18.026 3.000,18.353 3.014,18.592 3.063 M7.000 17.000 L 7.000 21.000 6.500 21.000 L 6.000 21.000 6.000 17.000 L 6.000 13.000 6.500 13.000 L 7.000 13.000 7.000 17.000 " stroke="none" fill-rule="evenodd" fill="black"></path></svg>