<svg width="24" height="24" viewBox="0 0 24 24" fill="none" xmlns="http://www.w3.org/2000/svg"><path d="M12.260 1.017 C 11.247 1.214,10.444 1.926,10.137 2.897 C 9.958 3.464,9.965 3.595,10.289 5.922 L 10.582 8.024 10.061 8.022 C 9.365 8.019,8.920 8.139,8.403 8.468 C 8.075 8.678,7.653 9.080,7.527 9.306 C 7.494 9.365,7.460 9.359,7.195 9.251 C 6.750 9.068,6.505 9.021,6.000 9.021 C 5.514 9.021,5.265 9.067,4.863 9.230 C 4.159 9.516,3.512 10.158,3.237 10.845 C 3.018 11.389,3.026 11.288,3.010 13.860 C 2.994 16.378,3.014 16.858,3.165 17.554 C 3.833 20.639,6.555 22.645,10.496 22.959 C 12.089 23.086,13.656 22.913,15.021 22.460 C 15.503 22.300,16.574 21.754,16.980 21.462 C 18.482 20.378,19.458 18.820,19.859 16.866 C 20.025 16.056,21.800 4.395,21.799 4.118 C 21.797 3.193,21.276 2.309,20.440 1.812 C 19.948 1.519,19.150 1.403,18.550 1.536 C 17.770 1.710,17.079 2.244,16.737 2.940 C 16.602 3.215,16.476 3.663,16.176 4.938 C 16.069 5.393,16.017 5.554,15.995 5.498 C 15.977 5.455,15.835 4.855,15.679 4.165 C 15.523 3.475,15.358 2.811,15.313 2.690 C 15.187 2.353,14.850 1.889,14.547 1.635 C 13.915 1.104,13.034 0.866,12.260 1.017 M12.971 3.002 C 13.152 3.053,13.373 3.238,13.434 3.390 C 13.458 3.450,13.821 4.994,14.241 6.820 C 14.660 8.646,15.032 10.228,15.067 10.336 C 15.187 10.706,15.600 11.000,16.000 11.000 C 16.352 11.000,16.730 10.771,16.875 10.470 C 16.920 10.377,17.299 8.865,17.717 7.110 C 18.136 5.356,18.505 3.868,18.538 3.803 C 18.648 3.592,18.826 3.500,19.127 3.500 C 19.336 3.500,19.419 3.518,19.507 3.584 C 19.654 3.693,19.799 3.948,19.799 4.101 C 19.800 4.167,19.485 6.269,19.100 8.770 C 18.715 11.272,18.400 13.328,18.400 13.339 C 18.400 13.351,18.242 13.237,18.050 13.086 C 17.306 12.503,16.494 12.157,15.600 12.041 C 15.435 12.020,14.783 12.002,14.150 12.001 L 13.000 12.000 13.000 11.364 C 13.000 10.978,12.977 10.606,12.942 10.414 C 12.910 10.241,12.684 8.645,12.440 6.867 C 11.956 3.344,11.967 3.500,12.192 3.233 C 12.308 3.095,12.566 2.962,12.720 2.961 C 12.775 2.961,12.888 2.979,12.971 3.002 M10.325 10.061 C 10.571 10.145,10.775 10.323,10.885 10.550 C 10.966 10.717,10.979 10.814,10.993 11.361 L 11.009 11.983 10.655 12.028 C 10.103 12.098,9.619 12.290,9.207 12.602 L 8.995 12.763 9.008 11.731 L 9.020 10.700 9.131 10.511 C 9.383 10.083,9.860 9.903,10.325 10.061 M6.340 11.066 C 6.455 11.105,6.603 11.201,6.701 11.299 C 6.995 11.593,7.000 11.629,7.000 13.500 C 7.000 14.927,7.009 15.172,7.066 15.340 C 7.195 15.717,7.604 16.000,8.019 16.000 C 8.174 16.000,8.187 16.009,8.236 16.150 C 8.456 16.778,9.169 17.488,9.863 17.770 C 10.368 17.975,10.423 17.980,12.260 17.980 C 13.946 17.980,13.983 17.978,14.140 17.894 C 14.476 17.712,14.678 17.377,14.678 17.000 C 14.678 16.623,14.476 16.288,14.140 16.106 C 13.986 16.023,13.924 16.019,12.360 16.000 C 10.762 15.980,10.737 15.979,10.550 15.886 C 9.775 15.505,9.851 14.349,10.670 14.057 C 10.788 14.015,11.289 14.003,13.032 14.002 C 14.903 14.000,15.291 14.010,15.551 14.064 C 16.592 14.278,17.417 15.018,17.658 15.952 C 17.742 16.275,17.743 16.908,17.661 17.261 C 17.513 17.902,17.027 18.704,16.425 19.303 C 15.346 20.377,13.894 20.913,11.860 20.987 C 9.513 21.072,7.494 20.441,6.281 19.244 C 5.766 18.736,5.474 18.265,5.241 17.569 C 5.016 16.893,4.996 16.589,5.009 14.020 L 5.020 11.700 5.131 11.511 C 5.386 11.077,5.860 10.903,6.340 11.066 " stroke="none" fill-rule="evenodd" fill="black"></path></svg>