<svg width="24" height="24" viewBox="0 0 24 24" fill="none" xmlns="http://www.w3.org/2000/svg"><path d="M18.040 3.025 C 16.013 3.282,14.616 4.335,13.640 6.340 C 13.402 6.829,13.015 7.828,13.050 7.864 C 13.057 7.871,13.182 7.833,13.328 7.780 C 13.785 7.614,14.206 7.548,14.676 7.569 C 15.333 7.597,15.672 7.791,15.888 8.260 C 15.971 8.441,15.980 8.516,15.978 9.040 C 15.975 9.581,15.967 9.645,15.848 10.000 C 15.527 10.965,14.568 12.621,13.724 13.671 C 13.131 14.408,12.720 14.646,12.362 14.461 C 11.941 14.243,11.530 13.327,11.142 11.740 C 10.917 10.820,10.785 10.127,10.418 7.932 C 10.091 5.969,10.001 5.564,9.767 4.991 C 9.377 4.038,8.775 3.468,7.980 3.300 C 6.800 3.052,5.767 3.610,3.237 5.863 C 2.487 6.531,1.054 7.791,1.007 7.824 C 0.994 7.833,1.828 8.912,1.943 9.036 C 1.987 9.084,2.080 9.037,2.549 8.729 C 3.214 8.291,3.532 8.120,3.674 8.121 C 4.102 8.124,4.607 8.693,5.024 9.641 C 5.357 10.397,5.564 11.100,7.042 16.500 C 7.468 18.054,7.771 18.775,8.369 19.649 C 8.657 20.071,9.177 20.574,9.506 20.749 C 10.602 21.334,12.217 20.853,14.040 19.399 C 14.542 18.999,15.988 17.563,16.537 16.920 C 17.069 16.296,17.727 15.470,18.304 14.700 C 20.331 11.998,21.491 9.827,21.885 7.998 C 21.962 7.644,21.976 7.455,21.978 6.760 C 21.980 5.882,21.943 5.572,21.771 5.020 C 21.608 4.496,21.421 4.177,21.062 3.816 C 20.496 3.245,19.930 3.043,18.840 3.021 C 18.477 3.013,18.117 3.015,18.040 3.025 " stroke="none" fill-rule="evenodd"></path></svg>