<svg width="24" height="24" viewBox="0 0 24 24" fill="none" xmlns="http://www.w3.org/2000/svg"><path d="M0.520 5.037 C 0.126 5.157,-0.025 5.396,0.012 5.838 C 0.081 6.662,0.685 8.337,1.500 9.963 C 2.390 11.737,3.780 13.910,4.822 15.153 C 6.626 17.307,9.038 18.699,11.408 18.958 C 12.449 19.071,13.446 18.958,13.763 18.692 C 14.022 18.474,14.018 18.499,14.040 16.738 C 14.058 15.274,14.066 15.127,14.133 15.025 C 14.364 14.672,15.034 14.738,15.743 15.183 C 16.469 15.638,17.303 16.404,18.751 17.945 C 19.085 18.300,19.453 18.654,19.570 18.732 C 19.969 18.996,20.042 19.005,21.827 18.992 L 23.422 18.980 23.621 18.879 C 23.891 18.742,24.014 18.514,23.987 18.200 C 23.924 17.441,22.903 16.071,20.857 14.000 C 19.844 12.975,19.680 12.764,19.680 12.491 C 19.680 12.263,19.784 12.067,20.282 11.360 C 21.868 9.105,23.115 7.010,23.399 6.120 C 23.575 5.567,23.520 5.291,23.196 5.100 C 23.066 5.023,22.988 5.020,21.360 5.020 C 19.720 5.020,19.654 5.023,19.480 5.104 C 19.160 5.251,19.067 5.388,18.505 6.534 C 18.213 7.131,17.833 7.863,17.662 8.160 C 16.639 9.938,15.514 11.333,14.824 11.681 C 14.543 11.822,14.409 11.830,14.261 11.713 C 14.014 11.519,14.022 11.622,14.000 8.400 C 13.986 6.317,13.967 5.431,13.934 5.360 C 13.868 5.216,13.713 5.084,13.557 5.039 C 13.475 5.016,12.528 5.000,11.209 5.000 C 8.790 5.000,8.831 4.996,8.630 5.236 C 8.498 5.393,8.457 5.590,8.519 5.778 C 8.545 5.857,8.684 6.070,8.827 6.251 C 9.137 6.642,9.287 6.926,9.410 7.348 C 9.499 7.657,9.500 7.685,9.500 10.100 C 9.500 12.354,9.495 12.550,9.430 12.669 C 9.343 12.828,9.250 12.880,9.053 12.880 C 8.336 12.878,6.836 10.861,5.643 8.295 C 5.361 7.689,5.124 7.115,4.658 5.906 C 4.549 5.625,4.455 5.457,4.330 5.317 C 4.049 5.004,4.015 4.999,2.183 5.003 C 1.323 5.005,0.575 5.021,0.520 5.037 " stroke="none" fill-rule="evenodd"></path></svg>