<svg width="24" height="24" viewBox="0 0 24 24" fill="none" xmlns="http://www.w3.org/2000/svg"><path d="M6.385 4.063 C 5.648 4.178,4.995 4.436,4.341 4.870 C 3.716 5.286,3.343 5.693,2.683 6.677 C 2.372 7.140,2.101 7.566,2.078 7.624 C 2.056 7.682,1.956 7.813,1.855 7.915 C 1.493 8.280,1.214 8.783,1.076 9.320 C 0.993 9.644,0.993 17.353,1.076 17.677 C 1.364 18.800,2.200 19.636,3.323 19.924 C 3.497 19.969,4.023 19.980,5.960 19.980 L 8.380 19.980 8.680 19.886 C 9.214 19.720,9.583 19.499,9.961 19.121 C 10.279 18.803,10.360 18.683,11.141 17.371 C 11.602 16.597,11.989 15.963,12.000 15.963 C 12.011 15.963,12.398 16.597,12.859 17.371 C 13.640 18.683,13.721 18.803,14.039 19.121 C 14.408 19.490,14.768 19.708,15.300 19.885 C 15.578 19.977,15.597 19.978,17.876 19.991 C 19.372 20.000,20.268 19.989,20.448 19.962 C 21.650 19.775,22.618 18.883,22.924 17.680 C 23.007 17.355,23.007 9.645,22.924 9.323 C 22.790 8.797,22.495 8.264,22.147 7.915 C 22.045 7.813,21.944 7.683,21.922 7.626 C 21.854 7.447,20.921 6.075,20.634 5.732 C 19.875 4.825,18.695 4.195,17.468 4.041 C 17.260 4.015,15.267 4.001,11.941 4.004 C 7.733 4.007,6.672 4.018,6.385 4.063 M17.415 6.058 C 17.967 6.163,18.467 6.414,18.874 6.788 L 19.100 6.996 12.000 6.996 L 4.900 6.996 5.126 6.788 C 5.521 6.425,6.032 6.165,6.554 6.060 C 6.966 5.978,16.987 5.976,17.415 6.058 M20.340 9.066 C 20.455 9.105,20.603 9.201,20.701 9.299 C 21.015 9.613,21.000 9.396,21.000 13.500 C 21.000 17.605,21.016 17.387,20.700 17.702 C 20.396 18.006,20.422 18.004,17.997 17.991 C 15.630 17.979,15.728 17.989,15.444 17.712 C 15.374 17.643,14.931 16.945,14.459 16.159 C 13.517 14.589,13.363 14.391,12.910 14.168 C 12.564 13.998,12.293 13.946,11.862 13.969 C 11.340 13.997,10.930 14.187,10.556 14.573 C 10.467 14.665,10.009 15.381,9.539 16.164 C 9.068 16.947,8.626 17.643,8.556 17.712 C 8.272 17.989,8.370 17.979,6.003 17.991 C 3.577 18.004,3.604 18.007,3.299 17.701 C 2.982 17.384,2.997 17.610,3.009 13.417 L 3.020 9.700 3.131 9.511 C 3.256 9.298,3.449 9.136,3.670 9.057 C 3.793 9.013,5.268 9.003,11.983 9.002 C 19.479 9.000,20.162 9.005,20.340 9.066 " stroke="none" fill-rule="evenodd" fill="black"></path></svg>