<svg width="24" height="24" viewBox="0 0 24 24" fill="none" xmlns="http://www.w3.org/2000/svg"><path d="M3.620 3.025 C 3.212 3.105,3.087 3.139,2.870 3.227 C 1.989 3.585,1.321 4.364,1.076 5.320 C 0.993 5.646,0.992 18.351,1.076 18.677 C 1.357 19.776,2.116 20.553,3.260 20.915 C 3.439 20.972,4.326 20.980,11.820 20.990 C 17.509 20.998,20.267 20.989,20.453 20.960 C 21.643 20.778,22.620 19.876,22.924 18.680 C 23.007 18.353,23.008 5.647,22.924 5.323 C 22.617 4.126,21.660 3.233,20.480 3.043 C 20.234 3.003,3.820 2.986,3.620 3.025 M20.340 5.066 C 20.593 5.153,20.847 5.407,20.934 5.660 C 20.983 5.805,21.000 5.999,21.000 6.427 L 21.000 7.000 11.997 7.000 L 2.993 7.000 3.007 6.350 C 3.020 5.723,3.024 5.693,3.131 5.511 C 3.256 5.298,3.449 5.136,3.670 5.057 C 3.793 5.013,5.268 5.003,11.983 5.002 C 19.479 5.000,20.162 5.005,20.340 5.066 M21.000 10.000 L 21.000 11.000 17.927 11.000 C 14.464 11.000,14.610 10.988,14.299 11.299 C 14.110 11.488,14.000 11.760,14.000 12.041 C 14.000 12.143,13.965 12.363,13.923 12.530 C 13.738 13.251,13.357 13.686,12.720 13.905 C 12.409 14.011,11.593 14.012,11.280 13.905 C 10.833 13.754,10.462 13.439,10.260 13.040 C 10.128 12.780,10.000 12.287,10.000 12.041 C 10.000 11.760,9.890 11.488,9.701 11.299 C 9.390 10.988,9.536 11.000,6.073 11.000 L 3.000 11.000 3.000 10.000 L 3.000 9.000 12.000 9.000 L 21.000 9.000 21.000 10.000 M8.218 13.300 C 8.743 14.926,10.025 15.899,11.760 15.987 C 12.979 16.049,14.011 15.692,14.782 14.940 C 15.258 14.477,15.564 13.975,15.782 13.300 L 15.872 13.020 18.436 13.010 L 21.000 12.999 21.000 15.573 C 21.000 18.477,21.008 18.394,20.701 18.701 C 20.376 19.026,21.144 19.000,12.000 19.000 C 2.856 19.000,3.624 19.026,3.299 18.701 C 2.992 18.394,3.000 18.477,3.000 15.573 L 3.000 12.999 5.564 13.010 L 8.128 13.020 8.218 13.300 " stroke="none" fill-rule="evenodd" fill="black"></path></svg>