<svg width="24" height="24" viewBox="0 0 24 24" fill="none" xmlns="http://www.w3.org/2000/svg"><path d="M8.643 1.069 C 8.291 1.193,8.000 1.614,8.000 2.000 C 8.000 2.242,8.119 2.521,8.299 2.701 C 8.610 3.013,8.456 3.000,12.000 3.000 C 15.544 3.000,15.390 3.013,15.701 2.701 C 16.092 2.310,16.092 1.690,15.701 1.299 C 15.389 0.987,15.547 1.000,11.983 1.003 C 9.226 1.006,8.797 1.014,8.643 1.069 M6.620 4.025 C 6.212 4.105,6.087 4.139,5.870 4.227 C 4.989 4.585,4.321 5.364,4.076 6.320 C 3.993 6.646,3.992 17.352,4.076 17.677 C 4.357 18.776,5.119 19.555,6.260 19.915 C 6.437 19.970,7.078 19.979,11.820 19.990 C 15.434 19.998,17.269 19.989,17.453 19.960 C 18.643 19.777,19.620 18.876,19.924 17.680 C 20.007 17.353,20.007 6.647,19.924 6.323 C 19.617 5.126,18.660 4.233,17.480 4.043 C 17.234 4.003,6.818 3.986,6.620 4.025 M17.340 6.066 C 17.455 6.105,17.603 6.201,17.701 6.299 C 18.021 6.619,18.000 6.217,18.000 12.000 C 18.000 17.783,18.021 17.381,17.701 17.701 C 17.381 18.021,17.783 18.000,12.000 18.000 C 6.216 18.000,6.619 18.021,6.298 17.700 C 5.977 17.379,5.998 17.788,6.009 11.918 L 6.020 6.700 6.131 6.511 C 6.256 6.298,6.449 6.136,6.670 6.057 C 6.792 6.013,7.774 6.003,11.983 6.002 C 16.686 6.000,17.163 6.006,17.340 6.066 M8.643 21.069 C 8.291 21.193,8.000 21.614,8.000 22.000 C 8.000 22.242,8.119 22.521,8.299 22.701 C 8.610 23.013,8.456 23.000,12.000 23.000 C 15.544 23.000,15.390 23.013,15.701 22.701 C 16.092 22.310,16.092 21.690,15.701 21.299 C 15.389 20.987,15.547 21.000,11.983 21.003 C 9.226 21.006,8.797 21.014,8.643 21.069 " stroke="none" fill-rule="evenodd" fill="black"></path></svg>