<svg width="24" height="24" viewBox="0 0 24 24" fill="none" xmlns="http://www.w3.org/2000/svg"><path d="M11.650 1.064 C 11.557 1.098,11.401 1.202,11.303 1.293 C 11.092 1.491,7.623 5.233,6.936 6.004 C 4.228 9.041,3.123 11.210,3.014 13.700 C 2.863 17.171,4.873 20.529,8.020 22.062 C 8.907 22.494,9.612 22.720,10.600 22.889 C 11.274 23.004,12.633 23.012,13.320 22.905 C 14.268 22.756,15.072 22.504,15.940 22.082 C 17.758 21.197,19.201 19.753,20.080 17.940 C 20.507 17.060,20.743 16.307,20.906 15.300 C 21.003 14.698,21.004 13.348,20.906 12.780 C 20.579 10.871,19.666 9.101,17.925 7.003 C 17.335 6.291,17.016 5.939,14.747 3.490 C 13.072 1.682,12.586 1.181,12.443 1.112 C 12.215 1.002,11.877 0.981,11.650 1.064 M13.681 5.280 C 14.589 6.259,15.538 7.294,15.790 7.580 C 17.942 10.024,18.895 11.854,18.988 13.718 C 19.093 15.839,18.152 17.971,16.500 19.353 C 14.102 21.360,10.718 21.547,8.120 19.817 C 6.393 18.667,5.281 16.834,5.042 14.740 C 4.792 12.557,5.652 10.547,8.002 7.818 C 8.575 7.154,11.972 3.481,12.005 3.492 C 12.018 3.496,12.772 4.301,13.681 5.280 " stroke="none" fill-rule="evenodd" fill="black"></path></svg>