<svg width="24" height="24" viewBox="0 0 24 24" fill="none" xmlns="http://www.w3.org/2000/svg"><path d="M10.940 0.046 C 8.233 0.280,5.570 1.521,3.626 3.456 C 1.686 5.387,0.499 7.833,0.178 10.560 C 0.109 11.148,0.099 12.531,0.161 13.103 C 0.316 14.556,0.706 15.889,1.363 17.221 L 1.680 17.862 0.843 20.921 C 0.383 22.603,0.010 23.983,0.014 23.987 C 0.018 23.991,0.876 23.771,1.921 23.497 C 2.965 23.222,4.376 22.853,5.056 22.675 L 6.292 22.352 6.796 22.594 C 9.832 24.048,13.224 24.183,16.319 22.975 C 20.078 21.507,22.875 18.162,23.657 14.200 C 23.824 13.352,23.860 12.925,23.857 11.820 C 23.854 10.677,23.790 10.100,23.561 9.139 C 23.162 7.465,22.356 5.808,21.295 4.480 C 20.911 3.999,19.855 2.950,19.367 2.565 C 18.090 1.556,16.515 0.772,14.981 0.380 C 13.682 0.048,12.265 -0.069,10.940 0.046 M12.760 2.041 C 14.502 2.192,16.053 2.727,17.460 3.662 C 18.277 4.205,19.210 5.072,19.813 5.850 C 21.655 8.226,22.309 11.360,21.576 14.300 C 21.325 15.310,20.792 16.509,20.215 17.367 C 18.570 19.809,16.025 21.368,13.100 21.724 C 12.516 21.795,11.316 21.784,10.740 21.704 C 9.382 21.513,8.189 21.110,7.051 20.459 L 6.591 20.196 4.750 20.679 C 3.737 20.945,2.900 21.153,2.889 21.142 C 2.878 21.132,3.091 20.314,3.361 19.326 L 3.853 17.529 3.607 17.132 C 3.050 16.230,2.571 15.056,2.343 14.035 C 2.026 12.611,2.048 10.927,2.401 9.508 C 2.712 8.257,3.349 6.943,4.160 5.880 C 5.203 4.514,6.659 3.402,8.273 2.741 C 9.680 2.165,11.292 1.913,12.760 2.041 M7.520 6.437 C 7.312 6.500,7.172 6.600,6.918 6.866 C 6.297 7.514,6.015 8.158,5.971 9.030 C 5.913 10.206,6.332 11.233,7.522 12.820 C 9.057 14.869,10.778 16.250,12.749 17.017 C 14.035 17.516,14.517 17.624,15.311 17.589 C 15.873 17.564,16.110 17.506,16.540 17.290 C 17.102 17.008,17.568 16.613,17.744 16.270 C 17.965 15.838,18.099 14.868,17.960 14.700 C 17.897 14.624,16.052 13.696,15.540 13.482 C 15.372 13.413,15.174 13.360,15.080 13.360 C 14.883 13.360,14.853 13.388,14.360 14.019 C 14.173 14.258,13.927 14.552,13.813 14.672 C 13.607 14.891,13.607 14.891,13.403 14.871 C 13.133 14.845,11.955 14.257,11.460 13.901 C 10.576 13.264,9.782 12.406,9.222 11.479 C 8.953 11.034,8.956 10.962,9.264 10.612 C 9.800 10.002,10.000 9.680,10.000 9.424 C 10.000 9.283,9.209 7.304,8.950 6.800 C 8.766 6.440,8.675 6.399,8.080 6.404 C 7.827 6.405,7.575 6.421,7.520 6.437 " stroke="none" fill-rule="evenodd"></path></svg>