<svg width="24" height="24" viewBox="0 0 24 24" fill="none" xmlns="http://www.w3.org/2000/svg"><path d="M5.640 7.068 C 5.486 7.121,5.152 7.437,3.329 9.255 C 1.813 10.766,1.173 11.431,1.112 11.556 C 0.994 11.800,0.976 12.065,1.060 12.326 C 1.125 12.527,1.258 12.668,3.255 14.671 C 4.766 16.187,5.431 16.827,5.556 16.888 C 5.948 17.077,6.398 17.004,6.700 16.702 C 6.980 16.423,7.064 16.046,6.934 15.657 C 6.877 15.483,6.724 15.315,5.646 14.230 L 4.423 13.000 12.000 13.000 L 19.577 13.000 18.354 14.230 C 17.276 15.315,17.123 15.483,17.066 15.657 C 16.936 16.046,17.021 16.423,17.299 16.701 C 17.577 16.979,17.953 17.064,18.343 16.935 C 18.521 16.876,18.747 16.664,20.671 14.745 C 22.187 13.234,22.827 12.569,22.888 12.444 C 23.006 12.200,23.024 11.935,22.940 11.674 C 22.875 11.473,22.742 11.332,20.745 9.329 C 19.234 7.813,18.569 7.173,18.444 7.112 C 18.052 6.923,17.602 6.996,17.300 7.298 C 17.020 7.577,16.936 7.954,17.066 8.343 C 17.123 8.517,17.276 8.685,18.354 9.770 L 19.577 11.000 12.000 11.000 L 4.423 11.000 5.646 9.770 C 6.724 8.685,6.877 8.517,6.934 8.343 C 7.064 7.954,6.979 7.577,6.701 7.299 C 6.423 7.021,6.027 6.935,5.640 7.068 " stroke="none" fill-rule="evenodd" fill="black"></path></svg>