<svg width="24" height="24" viewBox="0 0 24 24" fill="none" xmlns="http://www.w3.org/2000/svg"><path d="M11.180 4.024 C 10.464 4.096,10.154 4.138,9.715 4.223 C 7.129 4.724,4.739 6.001,2.473 8.095 C 1.705 8.804,1.145 9.428,1.064 9.665 C 0.936 10.043,1.022 10.424,1.299 10.701 C 1.578 10.980,1.956 11.064,2.343 10.933 C 2.509 10.877,2.623 10.781,3.060 10.327 C 5.745 7.543,8.577 6.126,11.680 6.013 C 13.393 5.951,15.093 6.336,16.757 7.163 C 18.240 7.900,19.519 8.863,20.880 10.268 C 21.371 10.775,21.490 10.876,21.657 10.933 C 22.525 11.228,23.281 10.369,22.882 9.543 C 22.820 9.416,22.554 9.117,22.065 8.625 C 20.625 7.177,19.268 6.178,17.660 5.381 C 16.283 4.698,15.003 4.298,13.560 4.100 C 13.123 4.040,11.525 3.989,11.180 4.024 M11.320 10.025 C 11.221 10.035,10.933 10.079,10.681 10.123 C 9.500 10.331,8.492 10.746,7.387 11.481 C 6.728 11.919,6.235 12.332,5.617 12.965 C 5.107 13.487,5.000 13.667,5.000 14.000 C 5.000 14.527,5.473 15.000,6.000 15.000 C 6.331 15.000,6.516 14.893,6.940 14.456 C 8.178 13.180,9.459 12.421,10.894 12.113 C 11.475 11.988,12.525 11.988,13.106 12.113 C 14.541 12.421,15.822 13.180,17.060 14.456 C 17.484 14.893,17.669 15.000,18.000 15.000 C 18.730 15.000,19.208 14.218,18.886 13.553 C 18.786 13.345,17.849 12.407,17.320 11.985 C 16.077 10.993,14.699 10.359,13.220 10.099 C 12.869 10.037,11.680 9.991,11.320 10.025 M11.534 16.057 C 10.657 16.269,10.000 17.102,10.000 18.000 C 10.000 19.080,10.920 20.000,12.000 20.000 C 13.080 20.000,14.000 19.080,14.000 18.000 C 14.000 16.904,13.066 15.987,11.968 16.003 C 11.843 16.005,11.647 16.029,11.534 16.057 " stroke="none" fill-rule="evenodd" fill="black"></path></svg>