<svg width="24" height="24" viewBox="0 0 24 24" fill="none" xmlns="http://www.w3.org/2000/svg"><path d="M8.420 4.044 C 6.085 4.128,2.803 4.398,2.404 4.539 C 1.361 4.907,0.636 5.741,0.440 6.800 C -0.051 9.453,-0.135 12.949,0.223 15.780 C 0.340 16.709,0.487 17.501,0.589 17.760 C 0.961 18.698,1.765 19.334,2.861 19.555 C 4.872 19.962,12.751 20.139,17.240 19.879 C 19.184 19.766,21.319 19.561,21.620 19.459 C 22.465 19.171,23.158 18.499,23.435 17.700 C 23.571 17.307,23.781 15.897,23.901 14.560 C 23.989 13.596,24.023 11.261,23.964 10.260 C 23.877 8.763,23.610 6.811,23.421 6.290 C 23.094 5.389,22.308 4.716,21.308 4.480 C 20.370 4.259,18.395 4.121,15.000 4.040 C 13.142 3.995,9.713 3.997,8.420 4.044 M12.763 10.301 C 14.454 11.225,15.838 11.989,15.838 12.000 C 15.838 12.022,9.665 15.400,9.625 15.400 C 9.611 15.400,9.600 13.868,9.600 11.997 C 9.600 9.537,9.612 8.597,9.644 8.608 C 9.668 8.616,11.072 9.378,12.763 10.301 " stroke="none" fill-rule="evenodd"></path></svg>