<svg width="24" height="24" viewBox="0 0 24 24" fill="none" xmlns="http://www.w3.org/2000/svg"><path d="M10.940 0.046 C 6.260 0.450,2.189 3.634,0.659 8.086 C -1.484 14.319,1.792 21.115,7.997 23.309 C 12.365 24.853,17.202 23.757,20.480 20.480 C 24.710 16.252,25.180 9.567,21.584 4.785 C 19.301 1.748,15.709 -0.028,11.920 0.006 C 11.601 0.009,11.160 0.027,10.940 0.046 M13.568 7.845 C 14.255 7.989,14.811 8.545,14.955 9.232 C 14.986 9.378,15.000 10.492,15.000 12.822 L 15.000 16.200 10.422 16.200 C 7.160 16.200,5.783 16.187,5.632 16.155 C 4.943 16.007,4.389 15.453,4.245 14.768 C 4.214 14.622,4.200 13.508,4.200 11.178 L 4.200 7.800 8.778 7.800 C 11.990 7.800,13.419 7.813,13.568 7.845 M19.800 12.000 L 19.800 16.200 18.000 15.000 L 16.200 13.800 16.200 12.000 L 16.200 10.200 17.990 9.003 C 18.975 8.344,19.785 7.804,19.790 7.803 C 19.796 7.801,19.800 9.690,19.800 12.000 " stroke="none" fill-rule="evenodd"></path></svg>